<svg xmlns="http://www.w3.org/2000/svg" xmlns:xlink="http://www.w3.org/1999/xlink" width="22" height="22" viewBox="0 0 22 22"><defs><style>.a{fill:#fff;}.b{clip-path:url(#a);}.c{isolation:isolate;}.d{clip-path:url(#b);}</style><clipPath id="a"><rect class="a" width="22" height="22" transform="translate(-0.421)"/></clipPath><clipPath id="b"><rect class="a" width="21.765" height="21.921"/></clipPath></defs><g transform="translate(0.421)"><g class="b" transform="translate(0)"><g class="c" transform="translate(0 -0.134)"><g class="d"><path class="a" d="M329.2,7216.438a3.625,3.625,0,1,1,3.625-3.625A3.624,3.624,0,0,1,329.2,7216.438Zm0-9.209a5.584,5.584,0,1,0,5.585,5.584,5.584,5.584,0,0,0-5.585-5.584Z" transform="translate(-318.258 -7201.801)"/><path class="a" d="M333.631,7217.258c-1.372,1.372-3.275,1.25-7.679,1.25-4.535,0-6.352.066-7.679-1.264-1.528-1.521-1.251-3.963-1.251-7.666,0-5.01-.514-8.619,4.514-8.876,1.155-.041,1.5-.054,4.4-.054l.04.027c4.833,0,8.625-.505,8.852,4.521.052,1.147.063,1.492.063,4.4,0,4.482.085,6.311-1.264,7.666Zm-3.17-18.475c-2-.094-6.962-.089-8.966,0a6.5,6.5,0,0,0-4.567,1.76c-2.093,2.093-1.826,4.914-1.826,9.049,0,4.234-.236,6.988,1.826,9.05,2.1,2.1,4.962,1.825,9.049,1.825,4.194,0,5.641,0,7.123-.571,2.016-.783,3.538-2.585,3.686-5.821.095-2,.089-6.962,0-8.966-.179-3.82-2.23-6.137-6.326-6.326Z" transform="translate(-315.034 -7198.582)"/><path class="a" d="M341.14,7204.774a1.306,1.306,0,0,1,.923.383,1.306,1.306,0,0,1-.423,2.129,1.313,1.313,0,0,1-1,0,1.307,1.307,0,0,1-.423-2.129,1.306,1.306,0,0,1,.923-.383Z" transform="translate(-324.391 -7200.872)"/></g></g></g></g></svg>