<svg xmlns="http://www.w3.org/2000/svg" width="120.313" height="76.077" viewBox="0 0 120.313 76.077"><defs><style>.a{fill:#fff;}</style></defs><g transform="translate(-2061.074 937)"><g transform="translate(2097.645 -937)"><g transform="translate(0 7.419)"><path class="a" d="M288.7,220.337a3.42,3.42,0,0,1-4.347-2.094L271.78,182.312a3.42,3.42,0,0,1,2.093-4.348,3.229,3.229,0,0,1,2.591.156,3.327,3.327,0,0,1,1.73,1.949l11.45,32.74,18.38-6.431a3.313,3.313,0,0,1,2.6.135,3.22,3.22,0,0,1,1.735,1.932,3.417,3.417,0,0,1-2.09,4.346Z" transform="translate(-271.58 -177.766)"/></g><path class="a" d="M364.766,162.35l-16.761-6.868,8.853-15.965a4.158,4.158,0,0,0-1.24-5.382,3.38,3.38,0,0,0-4.917,1.231l-9.59,17.292s-3.8,5.716,3.271,9.359l18.159,7.44a3.379,3.379,0,0,0,4.6-2.126A4.156,4.156,0,0,0,364.766,162.35Z" transform="translate(-328.598 -133.538)"/></g><path class="a" d="M16.368,67.459V51.917A1.1,1.1,0,0,0,15.285,50.8H12.158a1.1,1.1,0,0,0-1.084,1.115V71.36a1.1,1.1,0,0,0,1.084,1.115H23.365a1.1,1.1,0,0,0,1.084-1.115V68.574a1.1,1.1,0,0,0-1.084-1.115ZM39.062,56.778a1.1,1.1,0,0,0-1.084,1.115V65.23a2.516,2.516,0,1,1-5.016,0V57.893a1.11,1.11,0,0,0-1.115-1.115H29.031a1.11,1.11,0,0,0-1.115,1.115v8.7c0,3.189,1.858,6.254,5.759,6.254a5.443,5.443,0,0,0,4.3-1.8v.588a.826.826,0,0,0,.8.836h3.1a1.11,1.11,0,0,0,1.115-1.115V57.893a1.11,1.11,0,0,0-1.115-1.115Zm22.632,14.4-4.737-7,4.3-6.1a.831.831,0,0,0-.681-1.3H57.3a1.4,1.4,0,0,0-1.146.619l-3.932,5.852V51.639a.826.826,0,0,0-.8-.836H48.041a.832.832,0,0,0-.836.836v20a.832.832,0,0,0,.836.836h3.375a.826.826,0,0,0,.8-.836V65.571l4.056,6.285a1.452,1.452,0,0,0,1.177.619h3.56A.818.818,0,0,0,61.695,71.175ZM72.283,56.406A8.238,8.238,0,1,0,80.7,64.642,8.106,8.106,0,0,0,72.283,56.406Zm0,11.579a3.359,3.359,0,1,1,3.375-3.344A3.254,3.254,0,0,1,72.283,67.986ZM95.132,56.778a1.1,1.1,0,0,0-1.084,1.115V65.23a2.516,2.516,0,1,1-5.016,0V57.893a1.11,1.11,0,0,0-1.115-1.115H85.1a1.11,1.11,0,0,0-1.115,1.115v8.7c0,3.189,1.858,6.254,5.759,6.254a5.443,5.443,0,0,0,4.3-1.8v.588a.826.826,0,0,0,.8.836h3.1a1.11,1.11,0,0,0,1.115-1.115V57.893a1.11,1.11,0,0,0-1.115-1.115Zm17.462-.372a5.327,5.327,0,0,0-4.273,1.8v-.588a.832.832,0,0,0-.836-.836h-3.1a1.11,1.11,0,0,0-1.115,1.115V71.36a1.11,1.11,0,0,0,1.115,1.115h2.817a1.11,1.11,0,0,0,1.115-1.115V64.023a2.514,2.514,0,1,1,5.016,0V71.36a1.1,1.1,0,0,0,1.084,1.115h2.848a1.1,1.1,0,0,0,1.084-1.115v-8.7C118.353,59.5,116.526,56.406,112.594,56.406Zm18.793,3.406v-1.92a1.11,1.11,0,0,0-1.115-1.115h-1.981v-2.2a1.1,1.1,0,0,0-1.084-1.084h-2.848a1.1,1.1,0,0,0-1.084,1.084v2.2h-1.115a1.11,1.11,0,0,0-1.115,1.115v1.92a1.11,1.11,0,0,0,1.115,1.115h1.115v5.449c0,3.1,1.115,6.378,5.944,6.378a9.208,9.208,0,0,0,1.486-.124.8.8,0,0,0,.681-.8V69.162a.788.788,0,0,0-.836-.8h-.093c-1.579,0-2.167-.836-2.167-2.477V60.927h1.981A1.11,1.11,0,0,0,131.387,59.812Z" transform="translate(2050 -933.801)"/></g></svg>