<svg xmlns="http://www.w3.org/2000/svg" xmlns:xlink="http://www.w3.org/1999/xlink" width="22" height="22" viewBox="0 0 22 22"><defs><style>.a{fill:#fff;}.b{clip-path:url(#a);}.c{isolation:isolate;}.d{clip-path:url(#b);}</style><clipPath id="a"><rect class="a" width="22" height="22" transform="translate(0.158)"/></clipPath><clipPath id="b"><rect class="a" width="21.765" height="21.921"/></clipPath></defs><g transform="translate(-0.158)"><g class="b" transform="translate(0)"><g class="c" transform="translate(0 -0.134)"><g class="d"><path class="a" d="M386.041,7219.682a12.619,12.619,0,0,0,12.705-12.706c0-.193,0-.385-.012-.576a9.1,9.1,0,0,0,2.227-2.312,8.93,8.93,0,0,1-2.565.7,4.484,4.484,0,0,0,1.964-2.47,8.963,8.963,0,0,1-2.836,1.083,4.47,4.47,0,0,0-7.61,4.073,12.686,12.686,0,0,1-9.2-4.666,4.47,4.47,0,0,0,1.382,5.962,4.441,4.441,0,0,1-2.022-.559c0,.019,0,.036,0,.057a4.468,4.468,0,0,0,3.583,4.378,4.485,4.485,0,0,1-2.017.076,4.47,4.47,0,0,0,4.171,3.1,8.954,8.954,0,0,1-5.546,1.911,9.139,9.139,0,0,1-1.065-.062,12.64,12.64,0,0,0,6.845,2.006" transform="translate(-379.696 -7199.821)"/></g></g></g></g></svg>