<svg xmlns="http://www.w3.org/2000/svg" xmlns:xlink="http://www.w3.org/1999/xlink" width="534.085" height="299.485" viewBox="0 0 534.085 299.485"><defs><style>.a{fill:#e4ebf7;}.b,.c{fill:#fff;}.c{stroke:#0f22d3;stroke-miterlimit:10;stroke-width:1.61px;}.d{fill:#98b2d8;}.e{fill:#b1c3e8;}.f{fill:#b7cae5;}.g{fill:#97b3d1;}.h{fill:#ced9ea;}.i{fill:#b6c5dd;}.j{fill:#5d7ca0;}.k{fill:#799cbf;}.l{fill:#f2f4f9;}.m{fill:#c1cfe5;}.n{fill:url(#a);}.o,.r{fill:#1f395e;}.o{opacity:0.22;}.ae,.ag,.ai,.aj,.o,.x,.y{mix-blend-mode:multiply;isolation:isolate;}.p{fill:url(#b);}.q{fill:url(#c);}.s{fill:url(#d);}.t{fill:#3150bc;}.u{fill:#feb19e;}.v{fill:#ff856a;}.w{fill:url(#e);}.aj,.x,.z{fill:#9abced;}.x{opacity:0.6;}.aa{fill:#c1c8d3;}.ab{fill:url(#f);}.ac{fill:url(#g);}.ad{fill:#4f7eb7;}.ae,.ah{fill:#7ca6d8;}.ae{opacity:0.71;}.af{fill:#ea9ba1;}.ag,.aj{opacity:0.5;}.ai{fill:#e83f54;}</style><linearGradient id="a" x1="0.5" y1="0.944" x2="0.5" y2="0.102" gradientUnits="objectBoundingBox"><stop offset="0" stop-color="#1f3a65"/><stop offset="1" stop-color="#294a7a"/></linearGradient><linearGradient id="b" x1="0.5" y1="1.04" x2="0.5" y2="0.166" xlink:href="#a"/><linearGradient id="c" x1="0.5" y1="1.031" x2="0.5" y2="0.253" xlink:href="#a"/><linearGradient id="d" x1="0.703" y1="0.96" x2="0.33" y2="-0.043" gradientUnits="objectBoundingBox"><stop offset="0" stop-color="#3855e1"/><stop offset="1" stop-color="#5c7ef7"/></linearGradient><linearGradient id="e" x1="0.508" y1="0.868" x2="0.491" y2="0.143" gradientUnits="objectBoundingBox"><stop offset="0" stop-color="#3f2323"/><stop offset="1" stop-color="#5e3434"/></linearGradient><linearGradient id="f" x1="0" y1="0.5" x2="1" y2="0.5" xlink:href="#a"/><linearGradient id="g" x1="0.948" y1="-0.448" x2="0.223" y2="0.846" gradientUnits="objectBoundingBox"><stop offset="0" stop-color="#e2e8f7"/><stop offset="1" stop-color="#fff"/></linearGradient></defs><g transform="translate(-55.349 -104.001)"><g transform="translate(130.593 104.001)"><path class="a" d="M544.764,254.412a263.053,263.053,0,0,1-2.812,41.541c-.135.928-.282,1.856-.444,2.758-1,6.013-2.206,11.623-3.578,16.8q-.363,1.332-.727,2.623c-5.273,18.43-12.766,30.887-20.757,35.488H180.768s-28.613-24.806-34.357-60.24c-.148-.9-.282-1.8-.39-2.717-2.233-17.637,1.358-37.721,16.815-58.613,7.049-9.51,16.318-16.129,26.959-20.689.834-.35,1.654-.687,2.5-1.009,15.779-6.175,34.317-8.112,52.935-8.408.941-.014,1.883-.028,2.825-.028,11.085-.08,22.143.377,32.622.794,1,.053,1.977.094,2.96.135,16.923.713,32.178,1.237,43.25-.794h.013c1.023-.189,1.991-.4,2.932-.646h.013c12.256-3,18.3-9.955,13.951-24.914-8.422-29.017.2-50.286,18.967-62.03.956-.6,1.951-1.184,2.96-1.735,10.614-5.758,24.026-8.771,39.2-8.73,1.063,0,2.139.027,3.229.053a147.125,147.125,0,0,1,41.608,7.789,132.241,132.241,0,0,1,21.995,9.565c.834.458,1.667.928,2.475,1.413a128.07,128.07,0,0,1,33.806,28.385c.632.726,1.237,1.466,1.843,2.22C534,183.154,544.522,221.534,544.764,254.412Z" transform="translate(-145.416 -104.001)"/><path class="b" d="M598.895,318.942q-.363,1.332-.727,2.623a111.4,111.4,0,0,1-15.524-6.941c-24.618-13.372-55.962-43.155-65.46-109.18a122.935,122.935,0,0,1,15.538-80.607c.834.458,1.667.928,2.475,1.413-12.646,21.954-19.749,48.2-15.349,78.8,9.336,64.854,39.926,94.06,63.952,107.135A105.65,105.65,0,0,0,598.895,318.942Z" transform="translate(-206.38 -107.43)"/><path class="b" d="M610.326,305.253c-.135.928-.282,1.856-.444,2.758-15.551-7.3-35.151-23.192-44.3-57.684-8.838-33.4-5.314-63.052,10.83-89.822.632.726,1.237,1.466,1.843,2.22-15.35,25.936-18.618,54.63-10.063,86.916C576.938,282.639,595.462,298.056,610.326,305.253Z" transform="translate(-213.79 -113.3)"/><path class="b" d="M403.916,160.379c1.3,43.829-3.687,72.146-16.184,91.84-13.089,20.637-34.922,33.107-70.8,40.438a98.306,98.306,0,0,1-19.775,2.058c-20.192,0-39.214-6.578-55.881-19.438-19.385-14.972-34.223-37.519-42.738-63.912.834-.35,1.654-.687,2.5-1.009,8.341,25.95,22.883,48.119,41.891,62.8,21.362,16.506,46.773,22.331,73.463,16.883,66.724-13.654,87.333-45.147,84.831-129.574-.713-23.972,3.471-42.886,12.444-56.459,1.063,0,2.139.027,3.229.053C407.561,117.237,403.2,136.125,403.916,160.379Z" transform="translate(-154.159 -104.001)"/><path class="b" d="M331.58,252.8a52.527,52.527,0,0,1-8.555.7c-21.51,0-46.142-13.036-58.128-49.828.941-.014,1.883-.028,2.825-.028,13.21,39.5,41.528,50.1,63.415,46.505,29.569-4.843,58.007-35.286,52.505-82.168a254.507,254.507,0,0,1-1.211-51.792c.956-.6,1.951-1.184,2.96-1.735a246.815,246.815,0,0,0,.928,53.218C392.008,216.2,362.359,247.751,331.58,252.8Z" transform="translate(-165.08 -105.72)"/><path class="b" d="M356.482,220.6a34.263,34.263,0,0,1-5.959,13.586c-4.13,5.408-9.928,8.61-17.233,9.511a21.086,21.086,0,0,1-2.582.161,18.827,18.827,0,0,1-12.377-4.641c-4.87-4.09-8.421-10.439-11-17.313,1,.053,1.977.094,2.96.135,2.394,6.08,5.569,11.582,9.779,15.12a16.266,16.266,0,0,0,12.888,3.874,22.021,22.021,0,0,0,15.429-8.461,30.588,30.588,0,0,0,5.153-11.327h.013C354.572,221.057,355.541,220.841,356.482,220.6Z" transform="translate(-172.064 -123.191)"/><path class="b" d="M225.5,390.4h-2.932C210.5,362.767,193.1,344.35,170.8,335.62a84.689,84.689,0,0,0-24.268-5.462c-.148-.9-.282-1.8-.39-2.717a87.549,87.549,0,0,1,25.641,5.677C195.066,342.238,213.12,361.475,225.5,390.4Z" transform="translate(-145.535 -140.775)"/></g><g transform="translate(55.349 120.973)"><path class="c" d="M463.007,462.485Z" transform="translate(-122.442 -179.973)"/><g transform="translate(71.488 69.788)"><g transform="translate(0 51.79)"><path class="d" d="M166.493,297.644l-8.314,8.57-3.47-5.1-1.157-1.708c-3.7.928-9.161-6.309-11.354-10.17s6.565-9.847,6.565-9.847c-1.425-4.278-7.156-6.968-7.317-8.152s1.264-2.435,6.47,0,9.753,11.1,9.753,11.1c.928-2.516-3.188-9.322-2.434-10.089s4.789.175,7.9,6.726,1.265,14.3,1.265,14.3l.04.068Z" transform="translate(-141.005 -269.845)"/><path class="e" d="M148.37,280.325s6.177,7.066,5.51,9.84-3.777-.444-3.777-.444,2.859,3.3,1.934,4.4-4.372-1.682-4.372-1.682,4.119,5.129,0,4.372-9.295-8.526-5.32-9.308c0,0-.481-5.657,3.134-3.723C145.48,283.776,143.862,279.06,148.37,280.325Z" transform="translate(-140.921 -271.535)"/><path class="f" d="M226.167,381.807s6.955-20.313,3.3-40.344a.784.784,0,0,1-.028-.134,1,1,0,0,0-.027-.161q-.162-.787-.322-1.574a84.546,84.546,0,0,1-9.606,7.023c-6.686,4.211-15.6,8.393-22.452,6.43-12.565-3.592-30.941-28.022-39.469-47.312a22.366,22.366,0,0,1,12.78-8.354s17.044,22.708,32.07,28.088a110.83,110.83,0,0,0,14.341-23.77c4.008-9.013,10.022-14.717,17.609-17.784a41.061,41.061,0,0,1,14.353-2.825l13.17-6.148a49.534,49.534,0,0,1,5.462.444c6.175.807,16.439,3.068,24.738,9.39,12.78,9.739,31.169,97.032,31.169,97.032Z" transform="translate(-143.659 -270.684)"/><path class="g" d="M241.635,348.9c-.107-.578-.228-1.157-.349-1.735a84.546,84.546,0,0,1-9.606,7.023l3.888-33.255C239.523,336.158,241.42,347.539,241.635,348.9Z" transform="translate(-155.858 -278.253)"/><path class="h" d="M282.476,275.385c-2.032,12.915-14.96,24.847-24.3,24.686-7.506-.135-8.61-10.9-8.69-16.157a41.061,41.061,0,0,1,14.353-2.825l13.17-6.148A49.534,49.534,0,0,1,282.476,275.385Z" transform="translate(-158.789 -270.684)"/><path class="g" d="M262.223,374.587s29.659-30.865,30.948-63.319l8.744,27.353L298.553,367.1Z" transform="translate(-160.885 -276.663)"/><path class="d" d="M254.649,400.253h-33.21a6.788,6.788,0,0,1,5.213-6.053c5.129-1.514,8.408-7.9,23.794-7.063Z" transform="translate(-154.173 -289.137)"/><path class="i" d="M293.737,366.317s-15.646,9-40.284,15.388c0,0-3.419,8.239,2.579,15.134H303.7Z" transform="translate(-159.282 -285.723)"/></g><g transform="translate(69.91)"><path class="j" d="M230.889,245.911s-7.082-9.776-6.211-16.358,6.964-5.036,6.964-5.036-.284-15.994,14.522-11.9c0,0-.326-4.884,2.906-4.757s8.3,7.562,8.3,7.562,1.258-5.509,3.448-4.208,2.865,6.986,7.438,9.723,7.4,6.279,3.811,17.376-.9,11.883-2.179,17.581c-1.218,5.412-2.19,8.7-5.55,9.007s-16.215-13.26-16.215-13.26Z" transform="translate(-224.603 -207.853)"/><path class="d" d="M277.9,271.689s-8.246,20-16.91,18.5c-4.3-.754-5.26-3.377-5.3-6.417-.04-3.968,1.507-8.623-.834-10.574l10.385-14.757,2.287-3.256A53.817,53.817,0,0,0,277.9,271.689Z" transform="translate(-229.582 -215.643)"/><path class="k" d="M255.686,284.411c-.04-3.968,1.507-8.623-.834-10.574l10.385-14.757c.888,1.036,1.52,2.879,1.776,5.771C268.385,280.092,260.327,283.63,255.686,284.411Z" transform="translate(-229.582 -216.284)"/><path class="d" d="M230.919,243.743s2.808,25.768,13.322,31.568c9.138,5.041,20.236-10.205,20.013-17.747,0,0,3.983-3.042,3.318-7.966s-5.87-3.291-6.495,4.644c0,0-4.233-.3-5.016-10.219-2.657,2.2-5.525,1.522-8.538-1.155,0,0-1.5,5.52-9.188-.931A6.049,6.049,0,0,1,230.919,243.743Z" transform="translate(-225.643 -213.463)"/></g></g><g transform="translate(292.556 32.283)"><g transform="translate(14.633 160.893)"><path class="j" d="M520.481,363.6s13.572,22.645,18.273,33.631H490.9a196.432,196.432,0,0,0-7.522-25.956Z" transform="translate(-432.983 -356.875)"/><path class="k" d="M491.889,367.321c-2.619,8.679-6.612,16.088-12.537,21.716l1.618,6.87-57.914-.714L429.5,355.55Z" transform="translate(-423.056 -355.55)"/></g><g transform="translate(173.205 24.027)"><path class="k" d="M613.977,216.775s1.916-12.007,5.728-16.266,14.236-10.561,15.47-8.319-9.193,9.272-9.193,9.272,4.708-1.121,8.744,5.83-8.968,12.331-8.968,12.331l-2.579,5.83-10.313-6.5Z" transform="translate(-612.867 -191.721)"/><path class="d" d="M629.166,203.49s-5.812,5.909-4.962,7.6,4.054-.965,4.054-.965-2.615,3.981-.589,5.006,5.165-2.413,5.165-2.413-2.615,3.619-1.111,4.282,9.544-5.005,8.105-6.332-2.222-.241-2.222-.241,1.683-2.834,0-3.739a1.94,1.94,0,0,0-2.745.784s1.373-2.17.262-3.015-3.464.241-3.464.241S632.427,201.078,629.166,203.49Z" transform="translate(-614.719 -193.521)"/><path class="d" d="M621.92,203.472c-1.766-.5-5.353,3.167-5.353,3.167-1.411,1.815-1.7,5.433-1.756,7.1a13.99,13.99,0,0,1-1.943,7.137l5.234,3.3c4.053-5.221,2.727-11.908,2.073-14.274C622.149,206.95,622.973,203.773,621.92,203.472Z" transform="translate(-612.867 -193.647)"/></g><g transform="translate(0 48.566)"><path class="f" d="M591.184,231.519s-17.489,46.572-45.281,50.7a143.07,143.07,0,0,1-28.384,1.682,52.765,52.765,0,0,1-11.96-1.668.013.013,0,0,1-.013-.013s-7.627,14.205-2.69,34.613,6.726,24.658,6.726,24.658-37.465,27.55-67.935,2.462L414.15,301.2l-8.61-13.4s7.911-25.977,30.215-42.859l.013-.014a68.261,68.261,0,0,1,31.721-13.344,80.63,80.63,0,0,1,21.685-.2s6.054,1.708,15.9,5.314c5.3,1.937,11.7,4.425,18.846,7.493,20.408,8.744,26.017,11.353,26.017,11.353s21.739-21.443,27.349-34.451C577.288,221.094,588.493,222.223,591.184,231.519Z" transform="translate(-405.54 -221.094)"/><path class="g" d="M453.76,259.026c-.1,10.438-2.332,20.55-3.313,28.406l17.281-3.5,26.89,26.586s3.407,7.79-3.529,9.135c-5.434,1.054-30.831,4.586-30.831,4.586-5.853,7.966-8.5,20.152-11.417,31.976l-25.785-44.8Z" transform="translate(-408.423 -227.337)"/><path class="h" d="M501.378,257.192c-12.039-3.053-18.376-13.883-21.685-23.7a80.63,80.63,0,0,1,21.685-.2s6.054,1.708,15.9,5.314C518.436,247.2,518.019,261.4,501.378,257.192Z" transform="translate(-417.744 -222.997)"/><path class="g" d="M540.489,273.427a131.355,131.355,0,0,0-3.269,19.089,52.764,52.764,0,0,1-11.96-1.668.013.013,0,0,1-.013-.013S532.081,279.145,540.489,273.427Z" transform="translate(-425.242 -229.707)"/></g><g transform="translate(0 70.629)"><rect class="l" width="33.597" height="49.438" rx="1.946" transform="matrix(0.99, -0.144, 0.144, 0.99, 46.456, 21.218)"/><path class="d" d="M481.362,288.622l4.6-1.794s4.372-12.107,9.809-4.485c0,0,3.755-2.241,3.643-3.474s-.169-3.027-.169-3.027,7.61,1.644,5.907,12.256-8.205,9.267-14.595,9.379l-7.96,3.139Z" transform="translate(-418.019 -252.167)"/><path class="m" d="M471.847,298.756s-35.81,23.7-51.28,12.269a62.3,62.3,0,0,1-6.417-5.475l-8.61-13.4s7.911-25.977,30.215-42.859l.013-.014c7.393-3.321,15.118-2.112,15.515,4.737.946,16.316-13.008,26.347-14.735,33.751l32.1-6.5S473.866,286.81,471.847,298.756Z" transform="translate(-405.54 -247.503)"/></g><g transform="translate(63.103)"><path class="j" d="M526.374,196.993s5.117-10.933,3.024-17.234-7.787-3.637-7.787-3.637-2.728-15.762-16.5-8.962c0,0-.6-4.858-3.749-4.125s-6.733,8.988-6.733,8.988-2.271-5.174-4.178-3.485-1.5,7.4-5.477,10.948-6.089,7.559-.476,17.783,3.115,11.5,5.446,16.858c2.214,5.085,3.788,8.135,7.145,7.8s13.433-16.073,13.433-16.073Z" transform="translate(-481.075 -162.96)"/><path class="d" d="M489.935,230.727s7.916,19.511,20.36,16.317c4.232-1.087,4.257-5.634,3.725-8.627-.707-3.906-3.1-8.186-1.169-10.542l-12.975-12.541-2.859-2.768A53.83,53.83,0,0,1,489.935,230.727Z" transform="translate(-482.533 -171.124)"/><path class="k" d="M515.826,238.961c-.707-3.906-3.1-8.186-1.169-10.542l-12.975-12.541c-.678,1.185-.952,3.114-.659,6C502.541,237.108,511.121,239.068,515.826,238.961Z" transform="translate(-484.339 -171.669)"/><path class="d" d="M527.856,194.252s2.088,25.836-7.149,33.509c-8.028,6.669-21.794-6.218-22.993-13.667,0,0-4.484-2.238-4.757-7.2s5.147-4.336,7.251,3.34c0,0,4.1-1.093,3-10.98,3.024,1.661,5.713.456,8.17-2.739,0,0,2.505,5.139,8.849-2.642A6.048,6.048,0,0,0,527.856,194.252Z" transform="translate(-483.029 -168.048)"/></g></g><g transform="translate(193.911 73.685)"><g transform="translate(0 62.992)"><path class="n" d="M428.348,369.656v.013a18,18,0,0,1-1.655,4.345c-6.5,11.879-34.64,9.928-34.64,9.928H327.818c-26.582,0-37.236-.659-39.779-8.959a10.774,10.774,0,0,1-.349-1.413c-1.8-9.646,7.17-41.03,23.757-62.554,8.489-11,17.259-16.8,25.075-19.829a50.42,50.42,0,0,1,18.686-3.268,89.7,89.7,0,0,1,20.313,1.91c14.986,3.511,22.829,11.986,34.585,27.012C424.486,335.2,431.562,356.769,428.348,369.656Z" transform="translate(-287.461 -287.92)"/><path class="o" d="M320.872,368.44c6.971-10.963,9.162-26.171,11.1-41.606l6.054,31.389h52.464l9.641-31.389c-.227,14.671,1.785,29.058,8.744,42.824C408.874,369.658,374.569,408.478,320.872,368.44Z" transform="translate(-292.96 -294.325)"/><path class="p" d="M331.33,397.953h-3.484c-26.582,0-37.236-.659-39.779-8.959-1.385-6.525.377-13.386,8.327-15.43,12.457-3.2,34.142,9.417,34.142,9.417Z" transform="translate(-287.49 -301.93)"/><path class="q" d="M445.2,383.087s.013,0,0,.013a18,18,0,0,1-1.655,4.345c-6.5,11.879-34.64,9.928-34.64,9.928H389.84l2.422-16.143s33.793-15.646,45.9-10.762C444.08,372.85,445.9,377.8,445.2,383.087Z" transform="translate(-304.311 -301.351)"/><path class="r" d="M385.185,289.83c-.566,7.547-3.687,21.3-18.887,21.3-16.022,0-19.413-13.547-20.112-19.937a50.42,50.42,0,0,1,18.686-3.268A89.7,89.7,0,0,1,385.185,289.83Z" transform="translate(-297.126 -287.92)"/></g><g transform="translate(33.672 108.892)"><path class="b" d="M396.782,401.792H335.238a2.691,2.691,0,0,1-2.691-2.691h0a2.691,2.691,0,0,1,2.691-2.69h61.544a2.691,2.691,0,0,1,2.691,2.69h0A2.691,2.691,0,0,1,396.782,401.792Z" transform="translate(-328.553 -351.675)"/><path class="s" d="M403.448,346.709l-.229,1.4v.013L396.843,387.6H334.114l-6.309-40.922a3.32,3.32,0,0,1,3.269-3.82h69.1A3.314,3.314,0,0,1,403.448,346.709Z" transform="translate(-327.766 -342.862)"/><path class="t" d="M404.536,349.158l-6.376,39.483H335.768l21.147-2.206A56.876,56.876,0,0,0,404.536,349.158Z" transform="translate(-329.083 -343.898)"/></g><g transform="translate(39.24)"><g transform="translate(16.748 58.512)"><path class="u" d="M367.407,304.525h-.418a14.714,14.714,0,0,1-6.053-1.224,10.919,10.919,0,0,1-6.255-10.238c.013-.444.013-.874.013-1.3.013-3.592-.216-6.579-.216-6.579v-1.614l22.6-1.009a52.2,52.2,0,0,0,.9,8.462c.013.04.013.067.027.108A11.206,11.206,0,0,1,367.407,304.525Z" transform="translate(-354.479 -282.557)"/><path class="v" d="M377.98,291.019c-9.417,11.058-19.088,4.6-23.286.74.013-3.592-.216-6.579-.216-6.579v-1.614l22.6-1.009A52.2,52.2,0,0,0,377.98,291.019Z" transform="translate(-354.479 -282.557)"/></g><path class="u" d="M346.023,266.672s7.008,19.753,18.694,19.753,16.545-21.271,16.545-21.271v-18.5H345.127Z" transform="translate(-336.191 -218.137)"/><path class="u" d="M341.124,257.275a3.744,3.744,0,0,0-2.853,4.581c.588,3.952,4.175,8.744,7.09,6.222Z" transform="translate(-335.052 -219.884)"/><path class="u" d="M391.11,255.3a3.745,3.745,0,0,1,3.45,4.151c-.046,3.995-2.948,9.231-6.179,7.129Z" transform="translate(-343.31 -219.559)"/><path class="w" d="M382.231,248.256a92.4,92.4,0,0,1-2.729,11.28s-2.769-.558-3.666-7.845A9.9,9.9,0,0,1,366.1,247.2s-.9,5.6-6.67,1.626c-3.85,3.143-8.4,3.474-13.565,1.345,0,0,.869,7.348-1.6,10.879,0,0-.9-2.9-3.76-11.144a2.773,2.773,0,0,0-2.015,1.165s-6.191-12.109-3.276-17.939,6.839-3.587,6.839-3.587-1.458-7.959,7.175-10.874,8.632-6.839,9.977-6.053,1.906,3.7,1.906,3.7,14.91-1.57,18.946,14.461c0,0,10.768.344,4.378,18.393C384.432,249.173,384.011,248.425,382.231,248.256Z" transform="translate(-334.431 -212.518)"/></g></g><path class="c" d="M408.632,282.557" transform="translate(-113.493 -150.36)"/><g transform="translate(163.685 126.213)"><path class="x" d="M310.94,275.394H254.6a3.319,3.319,0,0,0-3.319,3.318V312.34a3.319,3.319,0,0,0,3.319,3.319h38.863l10.135,8.983a1,1,0,0,0,1.6-1.07l-2.739-7.913h8.48a3.319,3.319,0,0,0,3.319-3.319V278.712A3.319,3.319,0,0,0,310.94,275.394Z" transform="translate(-251.281 -275.394)"/><g class="y" transform="translate(6.932 7.227)"><path class="z" d="M273.443,285.814H260.464a.885.885,0,0,1-.885-.885h0a.885.885,0,0,1,.885-.885h12.979a.885.885,0,0,1,.885.885h0A.885.885,0,0,1,273.443,285.814Z" transform="translate(-259.579 -284.045)"/><path class="z" d="M306.9,295h-37.61a.885.885,0,0,1-.885-.886h0a.885.885,0,0,1,.885-.885H306.9a.885.885,0,0,1,.885.885h0A.885.885,0,0,1,306.9,295Z" transform="translate(-261.032 -285.556)"/><path class="z" d="M305.448,301.527H260.464a.885.885,0,0,1-.885-.885h0a.885.885,0,0,1,.885-.886h44.984a.885.885,0,0,1,.885.886h0A.885.885,0,0,1,305.448,301.527Z" transform="translate(-259.579 -286.631)"/><path class="z" d="M305.448,308.059H260.464a.885.885,0,0,1-.885-.885h0a.885.885,0,0,1,.885-.886h44.984a.885.885,0,0,1,.885.886h0A.885.885,0,0,1,305.448,308.059Z" transform="translate(-259.579 -287.706)"/><path class="z" d="M305.448,314.591H260.464a.885.885,0,0,1-.885-.885h0a.885.885,0,0,1,.885-.885h44.984a.885.885,0,0,1,.885.885h0A.885.885,0,0,1,305.448,314.591Z" transform="translate(-259.579 -288.781)"/></g></g><g transform="translate(62.715 177.076)"><rect class="aa" width="411.873" height="8.744" rx="1.747" transform="translate(0 55.617)"/><g transform="translate(305.202)"><path class="ab" d="M0,0H17.488a0,0,0,0,1,0,0V13.875a7.649,7.649,0,0,1-7.649,7.649H7.649A7.649,7.649,0,0,1,0,13.875V0A0,0,0,0,1,0,0Z" transform="translate(4.035 34.051)"/><path class="ac" d="M505.333,370.329v-4.666a1.387,1.387,0,0,1,1.387-1.388h1.766a1.387,1.387,0,0,0,1.387-1.388v-1.765a1.387,1.387,0,0,0-1.387-1.388h-5.675a7.062,7.062,0,0,1-7.063-7.062h0a7.063,7.063,0,0,1,7.063-7.063h7.525a1.388,1.388,0,0,0,1.388-1.388v-.631a7.314,7.314,0,0,1,7.314-7.314h0a7.315,7.315,0,0,1,7.315,7.314h0a7.9,7.9,0,0,1-7.9,7.9H505.207a1.387,1.387,0,0,0-1.388,1.387h0a1.388,1.388,0,0,0,1.388,1.388h7.231a4.835,4.835,0,0,1,4.835,4.835v3.027a4.835,4.835,0,0,1-4.835,4.835h0a1.387,1.387,0,0,0-1.388,1.387v1.976Z" transform="translate(-495.748 -336.278)"/></g></g><g transform="translate(315.812 118.488)"><rect class="x" width="52.296" height="64.403" rx="3.824" transform="translate(0 3.475)"/><path class="ad" d="M485.836,331.9H439.93a3.872,3.872,0,0,1-3.868-3.867V270.015a3.872,3.872,0,0,1,3.868-3.867h45.906a3.872,3.872,0,0,1,3.867,3.867v58.014A3.872,3.872,0,0,1,485.836,331.9Zm-45.906-64.4a2.525,2.525,0,0,0-2.523,2.522v58.014a2.525,2.525,0,0,0,2.523,2.522h45.906a2.525,2.525,0,0,0,2.522-2.522V270.015a2.525,2.525,0,0,0-2.522-2.522Z" transform="translate(-433.82 -266.148)"/><g class="y" transform="translate(7.847 11.863)"><path class="ae" d="M452.973,292.567h-10.2V280.348h10.2Zm-8.857-1.346h7.512v-9.528h-7.512Z" transform="translate(-442.771 -280.348)"/><path class="af" d="M451.312,288.919l-3.034-3.383,1-.9,1.84,2.053a17.926,17.926,0,0,1,7.55-5.477l.512,1.243c-5.4,2.226-7.387,5.617-7.405,5.652Z" transform="translate(-443.677 -280.491)"/><path class="z" d="M482.811,285.432H466.985a1,1,0,0,1-1-1h0a1,1,0,0,1,1-1h15.826a1,1,0,0,1,1,1h0A1,1,0,0,1,482.811,285.432Z" transform="translate(-446.592 -280.856)"/><path class="z" d="M482.811,291.239H466.985a1,1,0,0,1-1-1h0a1,1,0,0,1,1-1h15.826a1,1,0,0,1,1,1h0A1,1,0,0,1,482.811,291.239Z" transform="translate(-446.592 -281.812)"/></g><g class="y" transform="translate(7.847 30.584)"><path class="ae" d="M452.973,314.976h-10.2V302.757h10.2Zm-8.857-1.345h7.512V304.1h-7.512Z" transform="translate(-442.771 -302.757)"/><path class="af" d="M451.312,311.329l-3.034-3.383,1-.9,1.84,2.053a17.918,17.918,0,0,1,7.55-5.477l.512,1.242c-5.4,2.226-7.387,5.617-7.405,5.652Z" transform="translate(-443.677 -302.9)"/><path class="z" d="M482.811,307.841H466.985a1,1,0,0,1-1-1h0a1,1,0,0,1,1-1h15.826a1,1,0,0,1,1,1h0A1,1,0,0,1,482.811,307.841Z" transform="translate(-446.592 -303.265)"/><path class="z" d="M482.811,313.648H466.985a1,1,0,0,1-1-1h0a1,1,0,0,1,1-1h15.826a1,1,0,0,1,1,1h0A1,1,0,0,1,482.811,313.648Z" transform="translate(-446.592 -304.221)"/></g><g class="y" transform="translate(7.847 49.306)"><path class="ae" d="M452.973,337.386h-10.2V325.167h10.2Zm-8.857-1.345h7.512v-9.529h-7.512Z" transform="translate(-442.771 -325.167)"/><path class="af" d="M451.312,333.738l-3.034-3.383,1-.9,1.84,2.053a17.926,17.926,0,0,1,7.55-5.477l.512,1.243c-5.4,2.226-7.387,5.617-7.405,5.652Z" transform="translate(-443.677 -325.309)"/><path class="z" d="M482.811,330.251H466.985a1,1,0,0,1-1-1h0a1,1,0,0,1,1-1h15.826a1,1,0,0,1,1,1h0A1,1,0,0,1,482.811,330.251Z" transform="translate(-446.592 -325.675)"/><path class="z" d="M482.811,336.058H466.985a1,1,0,0,1-1-1h0a1,1,0,0,1,1-1h15.826a1,1,0,0,1,1,1h0A1,1,0,0,1,482.811,336.058Z" transform="translate(-446.592 -326.631)"/></g></g><g transform="translate(477.079 28.906)"><rect class="x" width="52.296" height="64.403" rx="3.824" transform="translate(0 4.341)"/><path class="ad" d="M680.215,224.666H634.309a3.871,3.871,0,0,1-3.867-3.867V162.785a3.871,3.871,0,0,1,3.867-3.867h45.906a3.872,3.872,0,0,1,3.868,3.867V220.8A3.872,3.872,0,0,1,680.215,224.666Zm-45.906-64.4a2.525,2.525,0,0,0-2.522,2.522V220.8a2.525,2.525,0,0,0,2.522,2.522h45.906a2.525,2.525,0,0,0,2.522-2.522V162.785a2.525,2.525,0,0,0-2.522-2.522Z" transform="translate(-627.078 -158.918)"/><g class="ag" transform="translate(4.607 10.9)"><circle class="ah" cx="8.071" cy="8.071" r="8.071" transform="translate(0 16.641) rotate(-76.661)"/><path class="ai" d="M646.109,181.55l5.381-9.585c4.932,1.233,7.286,5.886,4.932,10.65Z" transform="translate(-634.263 -171.965)"/><g transform="translate(2.092 25.111)"><path class="z" d="M639.142,204.377a2.354,2.354,0,1,1-2.354-2.354A2.354,2.354,0,0,1,639.142,204.377Z" transform="translate(-634.434 -202.023)"/><path class="z" d="M639.142,216.856a2.354,2.354,0,1,1-2.354-2.354A2.353,2.353,0,0,1,639.142,216.856Z" transform="translate(-634.434 -204.077)"/><path class="z" d="M672.664,206.731H653.83a2.355,2.355,0,0,1-2.354-2.354h0a2.355,2.355,0,0,1,2.354-2.354h18.834a2.355,2.355,0,0,1,2.354,2.354h0A2.355,2.355,0,0,1,672.664,206.731Z" transform="translate(-637.239 -202.023)"/><path class="z" d="M672.664,219.21H653.83a2.354,2.354,0,0,1-2.354-2.354h0a2.355,2.355,0,0,1,2.354-2.354h18.834a2.355,2.355,0,0,1,2.354,2.354h0A2.354,2.354,0,0,1,672.664,219.21Z" transform="translate(-637.239 -204.077)"/><path class="z" d="M639.142,229.537a2.354,2.354,0,1,1-2.354-2.354A2.353,2.353,0,0,1,639.142,229.537Z" transform="translate(-634.434 -206.164)"/><path class="z" d="M672.664,231.891H653.83a2.354,2.354,0,0,1-2.354-2.354h0a2.355,2.355,0,0,1,2.354-2.354h18.834a2.355,2.355,0,0,1,2.354,2.354h0A2.354,2.354,0,0,1,672.664,231.891Z" transform="translate(-637.239 -206.164)"/></g></g></g><g transform="translate(80.858)"><rect class="x" width="52.296" height="75.165" rx="3.824" transform="translate(3.587 3.587)"/><path class="ad" d="M201.911,200.827H156a3.872,3.872,0,0,1-3.868-3.867V128.184A3.872,3.872,0,0,1,156,124.317h45.906a3.871,3.871,0,0,1,3.867,3.867V196.96A3.871,3.871,0,0,1,201.911,200.827ZM156,125.662a2.526,2.526,0,0,0-2.523,2.522V196.96A2.526,2.526,0,0,0,156,199.482h45.906a2.526,2.526,0,0,0,2.522-2.522V128.184a2.526,2.526,0,0,0-2.522-2.522Z" transform="translate(-152.137 -124.317)"/><g transform="translate(8.377 13.508)"><path class="ah" d="M0,0H2.9a0,0,0,0,1,0,0V9.943a1.208,1.208,0,0,1-1.208,1.208h-.48A1.208,1.208,0,0,1,0,9.944V0A0,0,0,0,1,0,0Z" transform="matrix(0.748, -0.664, 0.664, 0.748, 10.08, 13.932)"/><path class="ah" d="M169.9,140.486a7.735,7.735,0,1,0,7.735,7.735A7.736,7.736,0,0,0,169.9,140.486Zm0,13.007a5.271,5.271,0,1,1,5.271-5.271A5.274,5.274,0,0,1,169.9,153.493Z" transform="translate(-162.164 -140.486)"/><path class="z" d="M206.251,145.033h-12.22a1.4,1.4,0,0,1-1.4-1.4h0a1.4,1.4,0,0,1,1.4-1.4h12.22a1.4,1.4,0,0,1,1.4,1.4h0A1.4,1.4,0,0,1,206.251,145.033Z" transform="translate(-167.178 -140.773)"/><path class="z" d="M206.251,153.755h-12.22a1.4,1.4,0,0,1-1.4-1.4h0a1.4,1.4,0,0,1,1.4-1.4h12.22a1.4,1.4,0,0,1,1.4,1.4h0A1.4,1.4,0,0,1,206.251,153.755Z" transform="translate(-167.178 -142.209)"/><path class="z" d="M206.251,161.807h-12.22a1.4,1.4,0,0,1-1.4-1.4h0a1.4,1.4,0,0,1,1.4-1.4h12.22a1.4,1.4,0,0,1,1.4,1.4h0A1.4,1.4,0,0,1,206.251,161.807Z" transform="translate(-167.178 -143.534)"/><path class="z" d="M186.693,184.139H167.859a1.6,1.6,0,0,1-1.6-1.6h0a1.6,1.6,0,0,1,1.6-1.6h18.834a1.6,1.6,0,0,1,1.6,1.6h0A1.6,1.6,0,0,1,186.693,184.139Z" transform="translate(-162.838 -147.145)"/><path class="z" d="M186.693,196.115H167.859a1.6,1.6,0,0,1-1.6-1.6h0a1.6,1.6,0,0,1,1.6-1.6h18.834a1.6,1.6,0,0,1,1.6,1.6h0A1.6,1.6,0,0,1,186.693,196.115Z" transform="translate(-162.838 -149.116)"/><path class="z" d="M186.693,208.092H167.859a1.6,1.6,0,0,1-1.6-1.6h0a1.6,1.6,0,0,1,1.6-1.6h18.834a1.6,1.6,0,0,1,1.6,1.6h0A1.6,1.6,0,0,1,186.693,208.092Z" transform="translate(-162.838 -151.087)"/><path class="z" d="M207.37,182.351a2.564,2.564,0,1,1-2.564-2.564A2.565,2.565,0,0,1,207.37,182.351Z" transform="translate(-168.76 -146.954)"/><path class="z" d="M207.37,194.327a2.564,2.564,0,1,1-2.564-2.564A2.564,2.564,0,0,1,207.37,194.327Z" transform="translate(-168.76 -148.925)"/><path class="z" d="M207.37,206.3a2.564,2.564,0,1,1-2.564-2.565A2.564,2.564,0,0,1,207.37,206.3Z" transform="translate(-168.76 -150.896)"/></g></g><g transform="translate(268.225 9.122)"><rect class="x" width="95.176" height="66.926" rx="6.642" transform="translate(0 3.755)"/><path class="ad" d="M469.4,203.507H385.321a6.229,6.229,0,0,1-6.222-6.221V141.458a6.23,6.23,0,0,1,6.222-6.222H469.4a6.229,6.229,0,0,1,6.221,6.222v55.828A6.229,6.229,0,0,1,469.4,203.507Zm-84.077-66.926a4.883,4.883,0,0,0-4.877,4.877v55.828a4.882,4.882,0,0,0,4.877,4.876H469.4a4.881,4.881,0,0,0,4.876-4.876V141.458a4.882,4.882,0,0,0-4.876-4.877Z" transform="translate(-376.857 -135.236)"/><g transform="translate(9.501 12.5)"><path class="aj" d="M436.8,155.074H390.226a2.437,2.437,0,0,1-2.438-2.438h0a2.438,2.438,0,0,1,2.438-2.439H436.8a2.439,2.439,0,0,1,2.439,2.439h0A2.438,2.438,0,0,1,436.8,155.074Z" transform="translate(-387.788 -150.198)"/><rect class="ae" width="51.456" height="27.241" rx="2.063" transform="translate(0 13.452)"/><path class="aj" d="M472.853,155.074H459.065a2.438,2.438,0,0,1-2.439-2.438h0a2.439,2.439,0,0,1,2.439-2.439h13.789a2.439,2.439,0,0,1,2.439,2.439h0A2.438,2.438,0,0,1,472.853,155.074Z" transform="translate(-399.117 -150.198)"/><path class="aj" d="M474,170.938h-14.49A1.513,1.513,0,0,1,458,169.424h0a1.513,1.513,0,0,1,1.513-1.513H474a1.513,1.513,0,0,1,1.514,1.513h0A1.513,1.513,0,0,1,474,170.938Z" transform="translate(-399.344 -153.113)"/><path class="aj" d="M474,179.124h-14.49A1.514,1.514,0,0,1,458,177.61h0a1.513,1.513,0,0,1,1.513-1.514H474a1.514,1.514,0,0,1,1.514,1.514h0A1.514,1.514,0,0,1,474,179.124Z" transform="translate(-399.344 -154.46)"/><path class="aj" d="M474,187.309h-14.49A1.513,1.513,0,0,1,458,185.795h0a1.513,1.513,0,0,1,1.513-1.513H474a1.513,1.513,0,0,1,1.514,1.513h0A1.514,1.514,0,0,1,474,187.309Z" transform="translate(-399.344 -155.808)"/><path class="aj" d="M474,195.495h-14.49A1.514,1.514,0,0,1,458,193.981h0a1.513,1.513,0,0,1,1.513-1.514H474a1.514,1.514,0,0,1,1.514,1.514h0A1.514,1.514,0,0,1,474,195.495Z" transform="translate(-399.344 -157.155)"/><path class="aj" d="M454.417,210.861H400.775a2.018,2.018,0,0,1-2.018-2.018h0a2.019,2.019,0,0,1,2.018-2.018h53.641a2.018,2.018,0,0,1,2.018,2.018h0A2.017,2.017,0,0,1,454.417,210.861Z" transform="translate(-389.593 -159.518)"/></g></g><g transform="translate(0 87.141)"><path class="x" d="M5.367,0H83.194a5.368,5.368,0,0,1,5.368,5.368V51.805a5.367,5.367,0,0,1-5.367,5.367H5.367A5.367,5.367,0,0,1,0,51.805V5.367A5.367,5.367,0,0,1,5.367,0Z" transform="translate(3.938 3.98)"/><path class="ad" d="M140.1,287.143H60.506a5.162,5.162,0,0,1-5.157-5.156V233.781a5.162,5.162,0,0,1,5.157-5.156H140.1a5.163,5.163,0,0,1,5.157,5.156v48.205A5.163,5.163,0,0,1,140.1,287.143ZM60.506,229.97a3.816,3.816,0,0,0-3.812,3.811v48.205a3.815,3.815,0,0,0,3.812,3.81H140.1a3.814,3.814,0,0,0,3.811-3.81V233.781a3.815,3.815,0,0,0-3.811-3.811Z" transform="translate(-55.349 -228.625)"/><g class="ag" transform="translate(15.766 10.895)"><path class="ah" d="M94.373,261.145a11.416,11.416,0,1,1-4.413-18.874L86.3,253.087Z" transform="translate(-74.331 -241.666)"/><path class="ai" d="M102.105,252.474a9.618,9.618,0,0,1-2.845,6.844l-6.855-6.844,3.107-9.185A9.7,9.7,0,0,1,102.105,252.474Z" transform="translate(-77.214 -241.933)"/><path class="z" d="M145,265.3H118.768V243.157a.673.673,0,1,1,1.345,0v20.8H145a.673.673,0,0,1,0,1.345Z" transform="translate(-81.552 -241.801)"/><rect class="z" width="3.363" height="10.064" transform="translate(42.709 12.093)"/><rect class="ai" width="3.363" height="15.17" transform="translate(49.66 6.987)"/><rect class="z" width="3.363" height="7.585" transform="translate(56.498 14.572)"/><rect class="z" width="18.161" height="2.354" rx="1.177" transform="translate(0 31.425)"/><rect class="z" width="18.161" height="2.354" rx="1.177" transform="translate(24.1 31.425)"/><rect class="z" width="18.161" height="2.354" rx="1.177" transform="translate(46.745 31.425)"/><path class="z" d="M103.616,291.7H87.81a1.177,1.177,0,0,1-1.177-1.177h0a1.177,1.177,0,0,1,1.177-1.177h15.806a1.177,1.177,0,0,1,1.177,1.177h0A1.177,1.177,0,0,1,103.616,291.7Z" transform="translate(-76.263 -249.513)"/><path class="z" d="M130.723,291.7H114.916a1.177,1.177,0,0,1-1.177-1.177h0a1.177,1.177,0,0,1,1.177-1.177h15.807a1.177,1.177,0,0,1,1.177,1.177h0A1.177,1.177,0,0,1,130.723,291.7Z" transform="translate(-80.725 -249.513)"/></g></g></g></g></svg>