<svg xmlns="http://www.w3.org/2000/svg" xmlns:xlink="http://www.w3.org/1999/xlink" width="224.176" height="297.192" viewBox="0 0 224.176 297.192"><defs><style>.a,.aa,.b,.q,.r,.t,.z{fill:none;}.b{stroke:#4144b3;stroke-width:0.681px;}.aa,.b{stroke-miterlimit:10;}.c{fill:#4144b3;}.d{fill:#86eda7;}.e{fill:url(#a);}.f{fill:#060f47;}.g{fill:#f8b791;}.h{fill:#18236b;}.i{fill:#006aff;}.j{fill:#fff;}.k{fill:url(#b);}.l{fill:#f8a270;}.m{fill:#f8a17e;}.n{fill:url(#c);}.o{fill:#eb8574;}.p{fill:#01010a;}.q,.z{stroke:#18236b;}.q,.r,.t,.z{stroke-linecap:round;stroke-linejoin:round;}.q{stroke-width:0.49px;}.r{stroke:#f8a17e;stroke-width:0.21px;}.s{fill:#7c62e3;}.t{stroke:#fff;}.u{fill:#00bfff;}.v{fill:#282e53;}.w{clip-path:url(#d);}.x{clip-path:url(#e);}.y{fill:url(#f);}.z{stroke-width:0.362px;}.aa{stroke:#006aff;stroke-width:0.176px;}</style><linearGradient id="a" x1="-0.779" y1="0.527" x2="1.54" y2="0.475" gradientUnits="objectBoundingBox"><stop offset="0" stop-color="#ffd100" stop-opacity="0"/><stop offset="0.756" stop-color="#ff9b00"/></linearGradient><linearGradient id="b" x1="49.771" y1="0.216" x2="49.602" y2="0.659" gradientUnits="objectBoundingBox"><stop offset="0.006" stop-color="#006aff"/><stop offset="0.942" stop-color="#0056cf"/></linearGradient><linearGradient id="c" x1="332.45" y1="31.755" x2="332.411" y2="33.737" gradientUnits="objectBoundingBox"><stop offset="0" stop-color="#fff" stop-opacity="0"/><stop offset="0.795" stop-color="#f8b791"/></linearGradient><clipPath id="d"><path class="a" d="M-170.789,423.161l19.234.143a342.641,342.641,0,0,1,19.089,50.237c7.465,26.409,6.89,31.72,6.89,31.72l-68.9-10.334s.575-21.242,9.187-41.911S-170.789,423.161-170.789,423.161Z" transform="translate(194.472 -423.161)"/></clipPath><clipPath id="e"><path class="a" d="M-178.681,390.958c1.467,5,2.473,10.16,6.709,13.2a13.93,13.93,0,0,0,5.217,1.808,5.95,5.95,0,0,0,4.339-1.016c2.213-1.659,2.649-4.785,2.566-7.547a34.361,34.361,0,0,0-1.561-9.241,12.315,12.315,0,0,0-2.448-4.737c-2.448-2.656-6.69-3.486-10.133-3.87-2.994-.334-5.129.706-5.651,3.844C-180.064,385.941-179.392,388.533-178.681,390.958Z" transform="translate(179.773 -379.496)"/></clipPath><linearGradient id="f" x1="-611.484" y1="-216.439" x2="-611.52" y2="-214.43" xlink:href="#c"/></defs><g transform="translate(0)"><g transform="translate(0 134.682)"><path class="b" d="M-193.064,572.988A309.725,309.725,0,0,0-223.4,425.9" transform="translate(234.136 -410.493)"/><path class="c" d="M-220.284,435.37a10.6,10.6,0,0,0-4.048-1.521,4.338,4.338,0,0,0-3.9,1.466,4.376,4.376,0,0,0,.3,5.067,10.628,10.628,0,0,0,4.39,3.109c1.95.877,13.238,5.135,14.789,2.466C-207.367,443.569-218.523,436.367-220.284,435.37Z" transform="translate(230.153 -404.772)"/><path class="c" d="M-218.917,443.12a10.555,10.555,0,0,0-4.223-.928,4.332,4.332,0,0,0-3.65,2.007,4.373,4.373,0,0,0,1.016,4.973,10.618,10.618,0,0,0,4.788,2.451c2.057.589,13.836,3.2,14.99.334C-204.964,449.394-217.033,443.855-218.917,443.12Z" transform="translate(231.389 -398.731)"/><path class="c" d="M-218.071,451.5a10.559,10.559,0,0,0-4.323.078,4.336,4.336,0,0,0-3.085,2.8,4.378,4.378,0,0,0,2.144,4.6,10.654,10.654,0,0,0,5.227,1.271c2.136.095,14.2-.105,14.656-3.159C-203.041,454.36-216.067,451.778-218.071,451.5Z" transform="translate(232.549 -392.135)"/><path class="c" d="M-212.926,476.734a10.578,10.578,0,0,0-4.321.077,4.338,4.338,0,0,0-3.087,2.8,4.378,4.378,0,0,0,2.144,4.6,10.622,10.622,0,0,0,5.227,1.271c2.138.1,14.2-.105,14.658-3.159C-197.9,479.6-210.921,477.012-212.926,476.734Z" transform="translate(236.266 -373.906)"/><path class="c" d="M-213.1,467.523a8.154,8.154,0,0,0-3.331.06,3.338,3.338,0,0,0-2.377,2.156,3.373,3.373,0,0,0,1.652,3.545,8.172,8.172,0,0,0,4.029.98c1.645.074,10.939-.081,11.292-2.434C-201.52,469.726-211.556,467.737-213.1,467.523Z" transform="translate(237.387 -380.529)"/><path class="c" d="M-193.88,494.376a8.131,8.131,0,0,0,2.9-1.641,3.339,3.339,0,0,0,1.059-3.031,3.371,3.371,0,0,0-3.143-2.325,8.179,8.179,0,0,0-4.006,1.063c-1.481.72-9.575,5.293-8.762,7.527C-205.106,497.967-195.339,494.925-193.88,494.376Z" transform="translate(246.781 -366.091)"/><path class="c" d="M-194.708,487.526a8.141,8.141,0,0,0,3.174-1.013,3.338,3.338,0,0,0,1.659-2.747,3.371,3.371,0,0,0-2.6-2.923,8.2,8.2,0,0,0-4.139.215c-1.6.4-10.457,3.212-10.121,5.567C-206.434,488.731-196.248,487.762-194.708,487.526Z" transform="translate(246.166 -370.939)"/><path class="c" d="M-208.818,486.512a8.136,8.136,0,0,0-3.185-.975,3.337,3.337,0,0,0-2.928,1.314,3.374,3.374,0,0,0,.47,3.882,8.2,8.2,0,0,0,3.526,2.179c1.543.58,10.427,3.314,11.49,1.187C-198.493,492.2-207.416,487.194-208.818,486.512Z" transform="translate(239.944 -367.416)"/><path class="c" d="M-215.606,458.393a9.05,9.05,0,0,0-3.7.067,3.709,3.709,0,0,0-2.639,2.4,3.74,3.74,0,0,0,1.833,3.934,9.076,9.076,0,0,0,4.471,1.087c1.827.083,12.145-.09,12.536-2.7C-202.752,460.84-213.893,458.631-215.606,458.393Z" transform="translate(235.116 -387.136)"/><path class="c" d="M-220.49,421.706a10.555,10.555,0,0,0-2.451-3.56,4.332,4.332,0,0,0-4.037-1.027,4.376,4.376,0,0,0-2.652,4.328,10.647,10.647,0,0,0,1.826,5.06c1.1,1.833,7.928,11.779,10.725,10.476C-214.577,435.818-219.615,423.53-220.49,421.706Z" transform="translate(229.632 -416.956)"/><path class="c" d="M-209.7,432.069a10.532,10.532,0,0,0,.739-4.26,4.33,4.33,0,0,0-2.165-3.557,4.374,4.374,0,0,0-4.924,1.237,10.615,10.615,0,0,0-2.234,4.893c-.5,2.079-2.578,13.962.332,14.988C-215.348,446.289-210.351,433.984-209.7,432.069Z" transform="translate(236.972 -411.931)"/><path class="c" d="M-204.139,442.3a10.574,10.574,0,0,0,1.664-3.989,4.332,4.332,0,0,0-1.323-3.951,4.378,4.378,0,0,0-5.076.115,10.642,10.642,0,0,0-3.264,4.275c-.946,1.919-5.608,13.045-3,14.69C-212.8,454.909-205.2,444.018-204.139,442.3Z" transform="translate(239.538 -404.936)"/><path class="c" d="M-199.913,450.824a10.593,10.593,0,0,0,2.441-3.569,4.33,4.33,0,0,0-.493-4.135,4.375,4.375,0,0,0-4.992-.92,10.629,10.629,0,0,0-4.067,3.522c-1.316,1.685-8.145,11.631-5.922,13.772C-210.957,461.411-201.3,452.295-199.913,450.824Z" transform="translate(241.368 -398.999)"/><path class="c" d="M-196.81,459.509a10.552,10.552,0,0,0,2.907-3.2,4.33,4.33,0,0,0,.079-4.165,4.374,4.374,0,0,0-4.818-1.6,10.628,10.628,0,0,0-4.511,2.932c-1.535,1.488-9.664,10.4-7.756,12.83C-209.2,468.482-198.388,460.776-196.81,459.509Z" transform="translate(242.95 -392.806)"/><path class="c" d="M-194.733,467.542a10.559,10.559,0,0,0,2.909-3.2,4.335,4.335,0,0,0,.079-4.165,4.379,4.379,0,0,0-4.819-1.6,10.655,10.655,0,0,0-4.511,2.932c-1.535,1.488-9.663,10.4-7.756,12.83C-207.124,476.515-196.309,468.809-194.733,467.542Z" transform="translate(244.45 -387.003)"/><path class="c" d="M-193.681,474.839a10.579,10.579,0,0,0,2.909-3.2,4.338,4.338,0,0,0,.079-4.166,4.376,4.376,0,0,0-4.819-1.595,10.629,10.629,0,0,0-4.511,2.932c-1.535,1.488-9.664,10.4-7.756,12.83C-206.072,483.811-195.257,476.107-193.681,474.839Z" transform="translate(245.21 -381.732)"/><path class="c" d="M-191.824,482.88a10.565,10.565,0,0,0,4.17-1.142,4.334,4.334,0,0,0,2.3-3.472,4.382,4.382,0,0,0-3.212-3.932,10.646,10.646,0,0,0-5.379.057c-2.094.434-13.736,3.6-13.426,6.673C-207.095,483.812-193.834,483.1-191.824,482.88Z" transform="translate(245.709 -375.743)"/></g><path class="d" d="M-147.489,375.215h55.461l76.649,221.221H-77.072l-13.4-43.308h-58.889l-13.085,43.308h-62Zm47.359,137.406-19.629-68.546-20.565,68.546Z" transform="translate(233.376 -312.428)"/><path class="e" d="M-171.7,470.324s-12.276,53.92-12.6,54.421c-3.588,5.612-12.918-39.6-11.626-50.366s15.4-7.052,15.4-7.052Z" transform="translate(253.897 -246.334)"/><g transform="translate(155.48 48.053)"><path class="f" d="M-112.873,390.028c-.15-.847.622-1.564,1.185-2.249a14.361,14.361,0,0,0,2-4.118,7.8,7.8,0,0,1,2.572-3.789c3.524-2.456,7.394,1.707,5.746,4.905C-103.047,388.039-109.075,390.748-112.873,390.028Z" transform="translate(158.485 -357.654)"/><g transform="translate(15.759 107.981)"><g transform="translate(0 118.146)"><path class="f" d="M-113.38,501.248s-3.894,3.61-12.77,5.872c-1.955.5-4.063-.167-4.063,3.057h10.774l8.96-1.55v1.55h4.838s1.347-7.914-1.478-8.929Z" transform="translate(130.213 -495.562)"/><path class="g" d="M-120.805,497.947l.629,5.686h0a5.478,5.478,0,0,0,5.929.2l.332-.2-.176-5.686Z" transform="translate(137.009 -497.947)"/></g><path class="f" d="M-121.331,429.353c-10.932,30.869,3.066,121.205,3.066,121.205h8.159s1.641-118.728,14.318-121.024C-115.167,429.534-113.026,429.353-121.331,429.353Z" transform="translate(133.614 -429.353)"/></g><g transform="translate(38.555 105.427)"><g transform="translate(5.052 120.7)"><path class="h" d="M-97.214,501.248s-3.893,3.61-12.77,5.872c-1.953.5-4.061-.167-4.061,3.057h10.774l8.958-1.55v1.55h4.84s1.347-7.914-1.48-8.929Z" transform="translate(114.045 -495.562)"/><path class="g" d="M-104.637,497.947l.627,5.686h0a5.478,5.478,0,0,0,5.928.2l.332-.2-.174-5.686Z" transform="translate(120.841 -497.947)"/></g><path class="h" d="M-114.878,428.69c.274-1.409,21.814-1.106,23.685,1.734,4.876,7.4,1.445,20.224-1.624,27.086-6.14,26.907,4.2,94.119,4.2,94.119H-95.45S-124.963,480.446-114.878,428.69Z" transform="translate(116.978 -427.87)"/></g><g transform="translate(0 15.461)"><path class="g" d="M-131.141,389.659a7.03,7.03,0,0,1,.3,5.01L-131,402.6l-1.872-.682-2.146,2.558a1.035,1.035,0,0,1-1.827-.63c-.048-1.447-.183-2.814-.183-2.814l-1.826-6.724s-2.839-11.349,4.866-10.863c-.04-9.242,2.537-7.716,2.537-7.716l.177,7.99Z" transform="translate(139.363 -375.637)"/><path class="g" d="M-112.95,402.31s-5.388,20.557-9.98,20.924S-132.3,390.67-132.3,390.67l-5.365-1.433s-3.309,49.545,10.7,50.406,15.863-9.611,15.863-9.611Z" transform="translate(140.342 -365.813)"/><path class="g" d="M-135.447,387.286s2.022-.606,2.339-4.3,2.058-2.549,2.058-2.549-.906,14.546-3.226,15.093S-135.447,387.286-135.447,387.286Z" transform="translate(141.986 -372.288)"/></g><path class="i" d="M-122.873,457.913h36.656V402.238c-10.474-15.98-23.525-11.628-23.525-11.628s-11.867.214-13.717,11.1C-123.459,409.587-122.873,457.913-122.873,457.913Z" transform="translate(150.851 -349.751)"/><g transform="translate(14.917 52.487)"><g transform="translate(1.545 26.231)"><rect class="f" width="10.582" height="23.478" rx="1.644"/><ellipse class="j" cx="1.292" cy="1.292" rx="1.292" ry="1.292" transform="translate(3.999 2.809)"/></g><g transform="translate(0 21.13)"><path class="g" d="M-117.388,430.444l-6.781-.822c-3.562-.2-5.934-5.517-6.524-9.471a.8.8,0,0,1,1.061-.868c2.978,1.033,10.81,3.2,12.46,3.984Z" transform="translate(130.702 -402.297)"/><path class="g" d="M-97.753,409.4a19.755,19.755,0,0,1-1.957,7.672c-5.512,11.5-23.611,13.023-23.611,13.023v7.377s19.926,2.062,33.945-10.892c5.085-4.7,6.871-11.022,7.095-17.179Z" transform="translate(136.035 -409.402)"/></g><path class="k" d="M-106.731,418.264c-.009.184-.038.377-.053.563a22.791,22.791,0,0,0-4.108-14.344l15.572-7.349s4.456,10.3,4.061,21.13Z" transform="translate(145.013 -397.134)"/></g><g transform="translate(30.684)"><g transform="translate(7.316 34.309)"><path class="l" d="M-108.958,386.58l.5,7.2-.238.226a6.249,6.249,0,0,1-8.49.119h0l-.112-5.422Z" transform="translate(117.3 -386.58)"/></g><path class="g" d="M-103.922,395.069a16.087,16.087,0,0,1-2.969,4.8,7.155,7.155,0,0,1-5,2.344,7.061,7.061,0,0,1-5.541-3.185,14.38,14.38,0,0,1-2.189-6.208,30.733,30.733,0,0,1,3.428-19.158,6.907,6.907,0,0,1,3.34-3.457,5.607,5.607,0,0,1,4.194.415C-98.719,375.182-100.414,387.094-103.922,395.069Z" transform="translate(122.705 -364.279)"/><path class="m" d="M-117.5,373.18a6.485,6.485,0,0,1,2.484-.1c3.047.3,9.592.157,12.556,2.048a14.888,14.888,0,0,1,.749,3.028c-1.385,1.569-4.981,2.761-6.406,3a16.6,16.6,0,0,1-8.7-1.021,5.589,5.589,0,0,1-2.53-1.709A30.467,30.467,0,0,1-117.5,373.18Z" transform="translate(123.136 -362.073)"/><path class="h" d="M-94.861,393.04a6.191,6.191,0,0,1-1.438,2.5,3.149,3.149,0,0,1-3.052.694c-.951-.482-1.242-1.993-1.414-3.045a23.517,23.517,0,0,1,1.24-11.261c-2.31,3-6.866,2.711-10.55,1.853a21.1,21.1,0,0,1-7.064-2.711c-2.107-1.412-4.132-3.772-4.385-6.3a5.7,5.7,0,0,1,4.006-5.806c.971-.272,2.017-.222,2.968-.558.978-.345,1.781-1.071,2.746-1.45a5.947,5.947,0,0,1,5.2.8c2.715,1.7,4.845,4.387,7.358,6.378,1.583,1.256,3.455,2.435,4.652,4.1C-91.709,382.263-93.342,388.837-94.861,393.04Z" transform="translate(121.548 -366.661)"/><path class="j" d="M-111.1,384.212a2.869,2.869,0,0,1-3.247,1.984,6.013,6.013,0,0,1-3.388-2.382,9.141,9.141,0,0,0,6.611.388" transform="translate(124.305 -354.269)"/><path class="n" d="M-116.595,383.3a2.38,2.38,0,0,0-.009,1.175.987.987,0,0,0,.844.725,1,1,0,0,0,.811-.463,2.768,2.768,0,0,0,.36-.9,28.5,28.5,0,0,0,.675-3.419,1.258,1.258,0,0,0-.124-.934C-114.91,378.333-116.484,382.746-116.595,383.3Z" transform="translate(125.069 -357.537)"/><path class="f" d="M-100.712,389.911a24.194,24.194,0,0,1,.915-11.459c-2.31,3-6.866,2.711-10.55,1.852a21.1,21.1,0,0,1-7.064-2.711,8.838,8.838,0,0,1-4.03-5.973A11.552,11.552,0,0,0-118.6,375a10.846,10.846,0,0,0,2.7,1.376,24.181,24.181,0,0,0,19.3-1.159,59.136,59.136,0,0,0-2.337,9.015q-.413,2.336-.639,4.7a25.2,25.2,0,0,1-.186,3.3A4.323,4.323,0,0,1-100.712,389.911Z" transform="translate(121.625 -363.079)"/><path class="g" d="M-110.239,380.879a2.385,2.385,0,0,0,1.1,3.178,2.384,2.384,0,0,0,3.028-1.461,2.385,2.385,0,0,0-1.1-3.178A2.384,2.384,0,0,0-110.239,380.879Z" transform="translate(129.561 -357.557)"/><path class="o" d="M-113.136,386a4.245,4.245,0,0,1,5.617-3.162c-.362,1.092-.77,2.146-1.206,3.138a16.086,16.086,0,0,1-2.969,4.8c-.157.162-.322.319-.493.47a4.058,4.058,0,0,1-.319-.558A7.14,7.14,0,0,1-113.136,386Z" transform="translate(127.507 -355.187)"/><path class="o" d="M-119.941,381.042a2.47,2.47,0,0,1,.393.465c1.256,1.889,1.964,4.4.939,6.419a2.436,2.436,0,0,1-.2.332,19.176,19.176,0,0,1-.813-3.447A30.032,30.032,0,0,1-119.941,381.042Z" transform="translate(122.709 -356.272)"/><g transform="translate(4.845 18.684)"><g transform="translate(8.609 1.84)"><path class="p" d="M-113.524,380.8c-.177.617-.048,1.192.286,1.288s.748-.326.923-.942.048-1.192-.286-1.287S-113.348,380.186-113.524,380.8Z" transform="translate(113.834 -377.659)"/><path class="q" d="M-109.825,380.222a3.969,3.969,0,0,0-3.912-1.58" transform="translate(113.737 -378.577)"/></g><path class="p" d="M-118.134,379.622c-.177.615-.048,1.192.286,1.287s.748-.325.923-.94.048-1.194-.286-1.288S-117.958,379.005-118.134,379.622Z" transform="translate(119.112 -376.672)"/><path class="q" d="M-115.368,378.091a2.748,2.748,0,0,0-3.367-.014" transform="translate(118.735 -377.508)"/></g><path class="r" d="M-109.225,379.9a1.2,1.2,0,0,1,1.223.4,1.3,1.3,0,0,1,.183,1.287,1.423,1.423,0,0,1-1.013.83" transform="translate(130.45 -357.122)"/></g></g><g transform="translate(125.351 0)"><path class="s" d="M-98.038,364.61H-143.93a12.924,12.924,0,0,1-12.925-12.923h0a12.925,12.925,0,0,1,12.925-12.925h45.892a12.923,12.923,0,0,1,12.923,12.925h0A12.923,12.923,0,0,1-98.038,364.61Z" transform="translate(156.855 -338.762)"/><g transform="translate(10.25 6.465)"><line class="t" x2="51.241"/><line class="t" x2="51.241" transform="translate(0 6.459)"/><line class="t" x2="27.415" transform="translate(23.826 12.918)"/></g></g><g transform="translate(43.174 28.886)"><path class="u" d="M-146.566,381.023H-191.82a12.746,12.746,0,0,1-12.746-12.746h0a12.745,12.745,0,0,1,12.746-12.744h45.254a12.745,12.745,0,0,1,12.744,12.744h0A12.745,12.745,0,0,1-146.566,381.023Z" transform="translate(204.566 -355.533)"/><g transform="translate(21.792 10.267)"><path class="j" d="M-186.172,364.365a2.87,2.87,0,0,1-2.871,2.87,2.871,2.871,0,0,1-2.871-2.87,2.872,2.872,0,0,1,2.871-2.871A2.871,2.871,0,0,1-186.172,364.365Z" transform="translate(191.914 -361.494)"/><path class="j" d="M-173.737,364.365a2.87,2.87,0,0,1-2.87,2.87,2.87,2.87,0,0,1-2.871-2.87,2.871,2.871,0,0,1,2.871-2.871A2.87,2.87,0,0,1-173.737,364.365Z" transform="translate(200.898 -361.494)"/><path class="j" d="M-179.889,364.365a2.871,2.871,0,0,1-2.871,2.87,2.871,2.871,0,0,1-2.871-2.87,2.872,2.872,0,0,1,2.871-2.871A2.872,2.872,0,0,1-179.889,364.365Z" transform="translate(196.452 -361.494)"/></g></g><g transform="translate(42.418 67.409)"><path class="l" d="M-169.741,395.771l.017,12.512-7.511-8.187.81-11.647Z" transform="translate(225.067 -370.277)"/><path class="v" d="M-171.541,382.47c.207,1.473,2.5,3.257,2.5,3.257l.215-1.759-.524-1.237-1.178-.654S-171.748,381-171.541,382.47Z" transform="translate(229.163 -375.156)"/><g transform="translate(54.418 33.131)"><path class="l" d="M-173.411,400.394s.3,35.452,9.54,35.03,15.328-28.413,15.328-28.413l-3.744-1.1-8.969,16.933s1.345-5.517-.932-15.672S-173.411,400.394-173.411,400.394Z" transform="translate(173.411 -395.168)"/><path class="l" d="M-160.549,408.533l-1.657-6.75s1.25-3.3,2.752-4.4a1.357,1.357,0,0,1,1.538-.021c1.085.71,3.583,2.4,3.912,3.126a1.3,1.3,0,0,1-.071,1.135l-1.338,2.584-1.225,4.769Z" transform="translate(181.506 -397.134)"/></g><path class="j" d="M-174,395.3c6.53,0,8.116,3.97,8.116,3.97s8.316,7.363,11.232,14.075a9.606,9.606,0,0,1-.043,7.861c-5.141,11.082-4.487,32.419-4.487,32.419h-19.076C-177.409,437.725-193.822,398.321-174,395.3Z" transform="translate(220.299 -365.327)"/><g transform="translate(23.439 89.154)"><g transform="translate(14.175 0.263)"><path class="l" d="M-160.566,429.813c12.344,28.828,6.729,118.964,6.729,118.964l-5.706-1.881s-12.2-113.475-23.624-114.5C-166.008,430.567-167.919,430.595-160.566,429.813Z" transform="translate(183.167 -429.813)"/><g transform="translate(20.129 116.417)"><path class="l" d="M-170.142,500.49l1.908-3.086,5.393,1.833a16.212,16.212,0,0,0,.842,5.381c.87,1.881,2.32,4.547,2.32,4.547s-10.295-3.92-10.875-5.644A3.447,3.447,0,0,1-170.142,500.49Z" transform="translate(172.018 -497.403)"/><path class="h" d="M-169.6,499.2s-2.143,1.669-1.848,3.934.629,7.551.629,7.551l2.132.1.124-4.912c.017-.32,4.383,5.116,5.157,5.15l11.283.508s.877-3.276-5.708-4.638S-169.6,499.2-169.6,499.2Z" transform="translate(171.48 -496.108)"/></g></g><path class="g" d="M-152.791,431.978c-.086-1.393-19.134-3.714-21.1-1.2-5.126,6.549-3.521,19.329-1.573,26.318,3.4,31.272-14.163,90.249-14.163,90.249l6.035.83S-149.637,483.109-152.791,431.978Z" transform="translate(192.676 -429.66)"/><path class="g" d="M-190.073,500.49l1.889-3.086,5.339,1.833a16.359,16.359,0,0,0,.834,5.381c.861,1.881,2.3,4.547,2.3,4.547s-10.191-3.92-10.765-5.644A3.48,3.48,0,0,1-190.073,500.49Z" transform="translate(191.93 -380.723)"/><path class="h" d="M-189.54,499.2s-2.12,1.669-1.829,3.934.622,7.551.622,7.551l2.112.1.122-4.912c.017-.32,4.339,5.116,5.105,5.15l11.17.508s.868-3.276-5.651-4.638S-189.54,499.2-189.54,499.2Z" transform="translate(191.397 -379.429)"/></g><g transform="translate(18.142 77.96)"><path class="s" d="M-170.789,423.161l19.234.143a342.641,342.641,0,0,1,19.089,50.237c7.465,26.409,6.89,31.72,6.89,31.72l-68.9-10.334s.575-21.242,9.187-41.911S-170.789,423.161-170.789,423.161Z" transform="translate(194.472 -423.161)"/><g class="w"><g transform="translate(-17.866 -4.619)"><g transform="translate(8.814)"><g transform="translate(2.218)"><g transform="translate(5.298)"><path class="j" d="M-192.526,422.156a1.426,1.426,0,0,1-1.654,1.161,1.429,1.429,0,0,1-1.163-1.654,1.43,1.43,0,0,1,1.655-1.163A1.43,1.43,0,0,1-192.526,422.156Z" transform="translate(195.364 -420.479)"/><path class="j" d="M-188.076,422.935a1.43,1.43,0,0,1-1.655,1.161,1.43,1.43,0,0,1-1.161-1.655,1.429,1.429,0,0,1,1.654-1.161A1.43,1.43,0,0,1-188.076,422.935Z" transform="translate(198.578 -419.917)"/><path class="j" d="M-183.625,423.713a1.431,1.431,0,0,1-1.655,1.163,1.43,1.43,0,0,1-1.163-1.655,1.43,1.43,0,0,1,1.655-1.161A1.429,1.429,0,0,1-183.625,423.713Z" transform="translate(201.792 -419.354)"/><path class="j" d="M-179.177,424.492a1.43,1.43,0,0,1-1.655,1.163A1.43,1.43,0,0,1-181.993,424a1.43,1.43,0,0,1,1.655-1.163A1.431,1.431,0,0,1-179.177,424.492Z" transform="translate(205.007 -418.792)"/><path class="j" d="M-174.726,425.271a1.43,1.43,0,0,1-1.655,1.163,1.431,1.431,0,0,1-1.163-1.655,1.431,1.431,0,0,1,1.655-1.163A1.43,1.43,0,0,1-174.726,425.271Z" transform="translate(208.221 -418.229)"/><path class="j" d="M-170.278,426.05a1.429,1.429,0,0,1-1.653,1.161,1.429,1.429,0,0,1-1.163-1.653,1.43,1.43,0,0,1,1.655-1.163A1.43,1.43,0,0,1-170.278,426.05Z" transform="translate(211.436 -417.666)"/><path class="j" d="M-165.828,426.829a1.43,1.43,0,0,1-1.655,1.161,1.43,1.43,0,0,1-1.161-1.655,1.429,1.429,0,0,1,1.654-1.161A1.43,1.43,0,0,1-165.828,426.829Z" transform="translate(214.65 -417.104)"/><path class="j" d="M-161.377,427.607a1.431,1.431,0,0,1-1.655,1.163,1.43,1.43,0,0,1-1.163-1.655,1.43,1.43,0,0,1,1.655-1.163A1.432,1.432,0,0,1-161.377,427.607Z" transform="translate(217.864 -416.542)"/><path class="j" d="M-156.929,428.386a1.43,1.43,0,0,1-1.655,1.163,1.431,1.431,0,0,1-1.161-1.655,1.43,1.43,0,0,1,1.655-1.163A1.43,1.43,0,0,1-156.929,428.386Z" transform="translate(221.079 -415.979)"/><path class="j" d="M-152.478,429.165a1.43,1.43,0,0,1-1.655,1.161,1.429,1.429,0,0,1-1.163-1.653,1.431,1.431,0,0,1,1.655-1.163A1.43,1.43,0,0,1-152.478,429.165Z" transform="translate(224.293 -415.416)"/><path class="j" d="M-148.03,429.944a1.429,1.429,0,0,1-1.654,1.161,1.43,1.43,0,0,1-1.163-1.655,1.43,1.43,0,0,1,1.655-1.161A1.43,1.43,0,0,1-148.03,429.944Z" transform="translate(227.508 -414.853)"/><path class="j" d="M-143.58,430.722a1.43,1.43,0,0,1-1.655,1.163,1.43,1.43,0,0,1-1.161-1.655,1.429,1.429,0,0,1,1.653-1.161A1.429,1.429,0,0,1-143.58,430.722Z" transform="translate(230.722 -414.291)"/></g><g transform="translate(0 5.501)"><path class="j" d="M-195.6,425.35a1.43,1.43,0,0,1-1.655,1.161,1.43,1.43,0,0,1-1.161-1.655,1.429,1.429,0,0,1,1.654-1.161A1.43,1.43,0,0,1-195.6,425.35Z" transform="translate(198.44 -423.673)"/><path class="j" d="M-191.151,426.128a1.431,1.431,0,0,1-1.655,1.163,1.43,1.43,0,0,1-1.163-1.655,1.43,1.43,0,0,1,1.655-1.161A1.429,1.429,0,0,1-191.151,426.128Z" transform="translate(201.654 -423.111)"/><path class="j" d="M-186.7,426.907a1.43,1.43,0,0,1-1.655,1.163,1.43,1.43,0,0,1-1.161-1.655,1.43,1.43,0,0,1,1.655-1.163A1.431,1.431,0,0,1-186.7,426.907Z" transform="translate(204.868 -422.549)"/><path class="j" d="M-182.252,427.686a1.43,1.43,0,0,1-1.655,1.163,1.431,1.431,0,0,1-1.163-1.655,1.432,1.432,0,0,1,1.655-1.163A1.43,1.43,0,0,1-182.252,427.686Z" transform="translate(208.082 -421.986)"/><path class="j" d="M-177.8,428.465a1.429,1.429,0,0,1-1.653,1.161,1.429,1.429,0,0,1-1.163-1.654,1.43,1.43,0,0,1,1.655-1.163A1.427,1.427,0,0,1-177.8,428.465Z" transform="translate(211.297 -421.423)"/><path class="j" d="M-173.354,429.244a1.43,1.43,0,0,1-1.655,1.161,1.43,1.43,0,0,1-1.161-1.655,1.43,1.43,0,0,1,1.655-1.161A1.43,1.43,0,0,1-173.354,429.244Z" transform="translate(214.512 -420.86)"/><path class="j" d="M-168.9,430.022a1.431,1.431,0,0,1-1.655,1.163,1.43,1.43,0,0,1-1.163-1.655,1.43,1.43,0,0,1,1.655-1.163A1.432,1.432,0,0,1-168.9,430.022Z" transform="translate(217.726 -420.298)"/><path class="j" d="M-164.455,430.8a1.43,1.43,0,0,1-1.655,1.163,1.431,1.431,0,0,1-1.161-1.655,1.43,1.43,0,0,1,1.655-1.163A1.43,1.43,0,0,1-164.455,430.8Z" transform="translate(220.94 -419.736)"/><path class="j" d="M-160,431.58a1.43,1.43,0,0,1-1.655,1.161,1.429,1.429,0,0,1-1.163-1.653,1.432,1.432,0,0,1,1.655-1.163A1.43,1.43,0,0,1-160,431.58Z" transform="translate(224.154 -419.173)"/><path class="j" d="M-155.554,432.359a1.432,1.432,0,0,1-1.655,1.161,1.43,1.43,0,0,1-1.163-1.655,1.43,1.43,0,0,1,1.655-1.161A1.43,1.43,0,0,1-155.554,432.359Z" transform="translate(227.369 -418.61)"/><path class="j" d="M-151.106,433.137a1.43,1.43,0,0,1-1.655,1.163,1.43,1.43,0,0,1-1.161-1.655,1.43,1.43,0,0,1,1.655-1.161A1.429,1.429,0,0,1-151.106,433.137Z" transform="translate(230.584 -418.047)"/><path class="j" d="M-146.655,433.916a1.431,1.431,0,0,1-1.655,1.163,1.43,1.43,0,0,1-1.163-1.655,1.431,1.431,0,0,1,1.655-1.163A1.431,1.431,0,0,1-146.655,433.916Z" transform="translate(233.798 -417.485)"/></g></g><g transform="translate(0 12.675)"><g transform="translate(5.298)"><path class="j" d="M-193.814,429.515a1.429,1.429,0,0,1-1.654,1.163,1.43,1.43,0,0,1-1.163-1.655,1.43,1.43,0,0,1,1.655-1.163A1.431,1.431,0,0,1-193.814,429.515Z" transform="translate(196.652 -427.838)"/><path class="j" d="M-189.364,430.294a1.43,1.43,0,0,1-1.655,1.163,1.43,1.43,0,0,1-1.161-1.655,1.429,1.429,0,0,1,1.654-1.163A1.43,1.43,0,0,1-189.364,430.294Z" transform="translate(199.866 -427.276)"/><path class="j" d="M-184.913,431.073a1.431,1.431,0,0,1-1.655,1.161,1.429,1.429,0,0,1-1.163-1.654,1.43,1.43,0,0,1,1.655-1.163A1.43,1.43,0,0,1-184.913,431.073Z" transform="translate(203.08 -426.713)"/><path class="j" d="M-180.465,431.852a1.43,1.43,0,0,1-1.655,1.161,1.43,1.43,0,0,1-1.161-1.655,1.43,1.43,0,0,1,1.655-1.161A1.43,1.43,0,0,1-180.465,431.852Z" transform="translate(206.295 -426.15)"/><path class="j" d="M-176.014,432.63a1.43,1.43,0,0,1-1.655,1.163,1.43,1.43,0,0,1-1.163-1.655,1.429,1.429,0,0,1,1.655-1.161A1.429,1.429,0,0,1-176.014,432.63Z" transform="translate(209.509 -425.588)"/><path class="j" d="M-171.566,433.409a1.429,1.429,0,0,1-1.654,1.163,1.431,1.431,0,0,1-1.163-1.655,1.43,1.43,0,0,1,1.655-1.163A1.431,1.431,0,0,1-171.566,433.409Z" transform="translate(212.724 -425.025)"/><path class="j" d="M-167.116,434.188a1.429,1.429,0,0,1-1.655,1.161,1.429,1.429,0,0,1-1.161-1.653,1.429,1.429,0,0,1,1.654-1.163A1.43,1.43,0,0,1-167.116,434.188Z" transform="translate(215.938 -424.463)"/><path class="j" d="M-162.665,434.967a1.431,1.431,0,0,1-1.655,1.161,1.43,1.43,0,0,1-1.163-1.655,1.43,1.43,0,0,1,1.655-1.161A1.43,1.43,0,0,1-162.665,434.967Z" transform="translate(219.152 -423.9)"/><path class="j" d="M-158.217,435.745a1.43,1.43,0,0,1-1.655,1.163,1.43,1.43,0,0,1-1.161-1.655,1.43,1.43,0,0,1,1.655-1.161A1.429,1.429,0,0,1-158.217,435.745Z" transform="translate(222.367 -423.337)"/><path class="j" d="M-153.766,436.524a1.43,1.43,0,0,1-1.655,1.163,1.43,1.43,0,0,1-1.163-1.655,1.431,1.431,0,0,1,1.655-1.163A1.431,1.431,0,0,1-153.766,436.524Z" transform="translate(225.581 -422.775)"/><path class="j" d="M-149.318,437.3a1.429,1.429,0,0,1-1.654,1.163,1.431,1.431,0,0,1-1.163-1.655,1.43,1.43,0,0,1,1.655-1.163A1.43,1.43,0,0,1-149.318,437.3Z" transform="translate(228.796 -422.212)"/><path class="j" d="M-144.868,438.082a1.43,1.43,0,0,1-1.655,1.161,1.429,1.429,0,0,1-1.161-1.654,1.429,1.429,0,0,1,1.654-1.163A1.43,1.43,0,0,1-144.868,438.082Z" transform="translate(232.01 -421.65)"/></g><g transform="translate(0 5.501)"><path class="j" d="M-196.89,432.709a1.43,1.43,0,0,1-1.655,1.163,1.431,1.431,0,0,1-1.161-1.655,1.429,1.429,0,0,1,1.654-1.163A1.43,1.43,0,0,1-196.89,432.709Z" transform="translate(199.728 -431.032)"/><path class="j" d="M-192.439,433.488a1.431,1.431,0,0,1-1.655,1.161A1.429,1.429,0,0,1-195.257,433a1.43,1.43,0,0,1,1.655-1.163A1.43,1.43,0,0,1-192.439,433.488Z" transform="translate(202.941 -430.47)"/><path class="j" d="M-187.991,434.267a1.43,1.43,0,0,1-1.655,1.161,1.43,1.43,0,0,1-1.161-1.655,1.43,1.43,0,0,1,1.655-1.161A1.43,1.43,0,0,1-187.991,434.267Z" transform="translate(206.156 -429.907)"/><path class="j" d="M-183.54,435.045a1.43,1.43,0,0,1-1.655,1.163,1.43,1.43,0,0,1-1.163-1.655,1.431,1.431,0,0,1,1.655-1.161A1.429,1.429,0,0,1-183.54,435.045Z" transform="translate(209.37 -429.344)"/><path class="j" d="M-179.092,435.824a1.429,1.429,0,0,1-1.654,1.163,1.43,1.43,0,0,1-1.163-1.655,1.43,1.43,0,0,1,1.655-1.163A1.431,1.431,0,0,1-179.092,435.824Z" transform="translate(212.585 -428.782)"/><path class="j" d="M-174.642,436.6a1.427,1.427,0,0,1-1.655,1.161,1.429,1.429,0,0,1-1.161-1.653,1.429,1.429,0,0,1,1.653-1.163A1.43,1.43,0,0,1-174.642,436.6Z" transform="translate(215.8 -428.219)"/><path class="j" d="M-170.191,437.382a1.431,1.431,0,0,1-1.655,1.161,1.43,1.43,0,0,1-1.163-1.655,1.43,1.43,0,0,1,1.655-1.161A1.43,1.43,0,0,1-170.191,437.382Z" transform="translate(219.014 -427.657)"/><path class="j" d="M-165.743,438.16a1.43,1.43,0,0,1-1.655,1.163,1.43,1.43,0,0,1-1.161-1.655,1.43,1.43,0,0,1,1.655-1.161A1.429,1.429,0,0,1-165.743,438.16Z" transform="translate(222.228 -427.094)"/><path class="j" d="M-161.292,438.939a1.43,1.43,0,0,1-1.655,1.163,1.43,1.43,0,0,1-1.163-1.655,1.431,1.431,0,0,1,1.655-1.163A1.431,1.431,0,0,1-161.292,438.939Z" transform="translate(225.442 -426.532)"/><path class="j" d="M-156.844,439.718a1.429,1.429,0,0,1-1.654,1.163,1.431,1.431,0,0,1-1.163-1.655A1.43,1.43,0,0,1-158,438.063,1.429,1.429,0,0,1-156.844,439.718Z" transform="translate(228.657 -425.969)"/><path class="j" d="M-152.394,440.5a1.43,1.43,0,0,1-1.655,1.161A1.429,1.429,0,0,1-155.21,440a1.429,1.429,0,0,1,1.654-1.163A1.43,1.43,0,0,1-152.394,440.5Z" transform="translate(231.872 -425.406)"/><path class="j" d="M-147.943,441.276a1.431,1.431,0,0,1-1.655,1.161,1.43,1.43,0,0,1-1.163-1.655,1.43,1.43,0,0,1,1.655-1.161A1.43,1.43,0,0,1-147.943,441.276Z" transform="translate(235.085 -424.844)"/></g></g></g><g transform="translate(4.458 24.889)"><g transform="translate(2.218)"><g transform="translate(5.298)"><path class="j" d="M-195.055,436.606a1.43,1.43,0,0,1-1.655,1.163,1.431,1.431,0,0,1-1.161-1.655,1.43,1.43,0,0,1,1.655-1.163A1.43,1.43,0,0,1-195.055,436.606Z" transform="translate(197.893 -434.929)"/><path class="j" d="M-190.6,437.385a1.43,1.43,0,0,1-1.655,1.161,1.429,1.429,0,0,1-1.163-1.653,1.432,1.432,0,0,1,1.655-1.163A1.43,1.43,0,0,1-190.6,437.385Z" transform="translate(201.107 -434.367)"/><path class="j" d="M-186.154,438.164a1.432,1.432,0,0,1-1.655,1.161,1.43,1.43,0,0,1-1.163-1.655,1.43,1.43,0,0,1,1.655-1.161A1.43,1.43,0,0,1-186.154,438.164Z" transform="translate(204.321 -433.804)"/><path class="j" d="M-181.706,438.942a1.43,1.43,0,0,1-1.655,1.163,1.43,1.43,0,0,1-1.161-1.655,1.429,1.429,0,0,1,1.655-1.161A1.429,1.429,0,0,1-181.706,438.942Z" transform="translate(207.536 -433.241)"/><path class="j" d="M-177.255,439.721a1.43,1.43,0,0,1-1.655,1.163,1.43,1.43,0,0,1-1.163-1.655,1.431,1.431,0,0,1,1.655-1.163A1.431,1.431,0,0,1-177.255,439.721Z" transform="translate(210.75 -432.679)"/><path class="j" d="M-172.807,440.5a1.427,1.427,0,0,1-1.654,1.161,1.429,1.429,0,0,1-1.163-1.654,1.43,1.43,0,0,1,1.655-1.163A1.43,1.43,0,0,1-172.807,440.5Z" transform="translate(213.965 -432.116)"/><path class="j" d="M-168.357,441.279a1.43,1.43,0,0,1-1.655,1.161,1.427,1.427,0,0,1-1.161-1.655,1.429,1.429,0,0,1,1.654-1.161A1.43,1.43,0,0,1-168.357,441.279Z" transform="translate(217.179 -431.554)"/><path class="j" d="M-163.906,442.057a1.431,1.431,0,0,1-1.655,1.163,1.43,1.43,0,0,1-1.163-1.655,1.43,1.43,0,0,1,1.655-1.161A1.429,1.429,0,0,1-163.906,442.057Z" transform="translate(220.393 -430.991)"/><path class="j" d="M-159.458,442.836A1.43,1.43,0,0,1-161.113,444a1.43,1.43,0,0,1-1.161-1.655,1.43,1.43,0,0,1,1.655-1.163A1.431,1.431,0,0,1-159.458,442.836Z" transform="translate(223.608 -430.429)"/><path class="j" d="M-155.007,443.615a1.43,1.43,0,0,1-1.655,1.163,1.431,1.431,0,0,1-1.163-1.655,1.431,1.431,0,0,1,1.655-1.163A1.43,1.43,0,0,1-155.007,443.615Z" transform="translate(226.822 -429.866)"/><path class="j" d="M-150.559,444.394a1.429,1.429,0,0,1-1.654,1.161,1.429,1.429,0,0,1-1.163-1.653,1.43,1.43,0,0,1,1.655-1.163A1.43,1.43,0,0,1-150.559,444.394Z" transform="translate(230.037 -429.303)"/><path class="j" d="M-146.109,445.173a1.43,1.43,0,0,1-1.655,1.161,1.429,1.429,0,0,1-1.161-1.655,1.429,1.429,0,0,1,1.654-1.161A1.43,1.43,0,0,1-146.109,445.173Z" transform="translate(233.251 -428.741)"/></g><g transform="translate(0 5.501)"><path class="j" d="M-198.131,439.8a1.43,1.43,0,0,1-1.655,1.161,1.429,1.429,0,0,1-1.161-1.653,1.429,1.429,0,0,1,1.654-1.163A1.43,1.43,0,0,1-198.131,439.8Z" transform="translate(200.969 -438.123)"/><path class="j" d="M-193.68,440.579a1.431,1.431,0,0,1-1.655,1.161,1.43,1.43,0,0,1-1.163-1.655,1.43,1.43,0,0,1,1.655-1.161A1.43,1.43,0,0,1-193.68,440.579Z" transform="translate(204.183 -437.561)"/><path class="j" d="M-189.232,441.357a1.43,1.43,0,0,1-1.655,1.163,1.43,1.43,0,0,1-1.161-1.655,1.43,1.43,0,0,1,1.655-1.161A1.429,1.429,0,0,1-189.232,441.357Z" transform="translate(207.397 -436.998)"/><path class="j" d="M-184.781,442.136a1.43,1.43,0,0,1-1.655,1.163,1.43,1.43,0,0,1-1.163-1.655,1.431,1.431,0,0,1,1.655-1.163A1.431,1.431,0,0,1-184.781,442.136Z" transform="translate(210.611 -436.436)"/><path class="j" d="M-180.333,442.915a1.429,1.429,0,0,1-1.654,1.163,1.432,1.432,0,0,1-1.163-1.655,1.43,1.43,0,0,1,1.655-1.163A1.43,1.43,0,0,1-180.333,442.915Z" transform="translate(213.826 -435.873)"/><path class="j" d="M-175.883,443.694a1.43,1.43,0,0,1-1.655,1.161A1.43,1.43,0,0,1-178.7,443.2a1.429,1.429,0,0,1,1.654-1.161A1.43,1.43,0,0,1-175.883,443.694Z" transform="translate(217.041 -435.31)"/><path class="j" d="M-171.432,444.472a1.431,1.431,0,0,1-1.655,1.163,1.43,1.43,0,0,1-1.163-1.655,1.43,1.43,0,0,1,1.655-1.161A1.429,1.429,0,0,1-171.432,444.472Z" transform="translate(220.255 -434.748)"/><path class="j" d="M-166.984,445.251a1.43,1.43,0,0,1-1.655,1.163,1.43,1.43,0,0,1-1.161-1.655,1.43,1.43,0,0,1,1.655-1.163A1.431,1.431,0,0,1-166.984,445.251Z" transform="translate(223.469 -434.186)"/><path class="j" d="M-162.533,446.03a1.43,1.43,0,0,1-1.655,1.163,1.431,1.431,0,0,1-1.163-1.655,1.431,1.431,0,0,1,1.655-1.163A1.43,1.43,0,0,1-162.533,446.03Z" transform="translate(226.683 -433.623)"/><path class="j" d="M-158.085,446.809a1.429,1.429,0,0,1-1.654,1.161,1.429,1.429,0,0,1-1.163-1.654,1.43,1.43,0,0,1,1.655-1.163A1.43,1.43,0,0,1-158.085,446.809Z" transform="translate(229.898 -433.06)"/><path class="j" d="M-153.635,447.588a1.43,1.43,0,0,1-1.655,1.161,1.43,1.43,0,0,1-1.161-1.655,1.429,1.429,0,0,1,1.654-1.161A1.43,1.43,0,0,1-153.635,447.588Z" transform="translate(233.113 -432.497)"/><path class="j" d="M-149.184,448.366a1.431,1.431,0,0,1-1.655,1.163A1.43,1.43,0,0,1-152,447.874a1.43,1.43,0,0,1,1.655-1.163A1.432,1.432,0,0,1-149.184,448.366Z" transform="translate(236.326 -431.935)"/></g></g><g transform="translate(0 12.677)"><g transform="translate(5.298)"><path class="j" d="M-196.343,443.965A1.43,1.43,0,0,1-198,445.127a1.43,1.43,0,0,1-1.161-1.655,1.43,1.43,0,0,1,1.655-1.161A1.429,1.429,0,0,1-196.343,443.965Z" transform="translate(199.181 -442.289)"/><path class="j" d="M-191.892,444.744a1.43,1.43,0,0,1-1.655,1.163,1.43,1.43,0,0,1-1.163-1.655,1.431,1.431,0,0,1,1.655-1.163A1.431,1.431,0,0,1-191.892,444.744Z" transform="translate(202.395 -441.727)"/><path class="j" d="M-187.444,445.523a1.429,1.429,0,0,1-1.654,1.163,1.431,1.431,0,0,1-1.163-1.655,1.43,1.43,0,0,1,1.655-1.163A1.429,1.429,0,0,1-187.444,445.523Z" transform="translate(205.609 -441.165)"/><path class="j" d="M-182.994,446.3a1.43,1.43,0,0,1-1.655,1.161,1.43,1.43,0,0,1-1.161-1.655,1.429,1.429,0,0,1,1.654-1.161A1.43,1.43,0,0,1-182.994,446.3Z" transform="translate(208.824 -440.602)"/><path class="j" d="M-178.543,447.08a1.431,1.431,0,0,1-1.655,1.163,1.43,1.43,0,0,1-1.163-1.655,1.43,1.43,0,0,1,1.655-1.161A1.429,1.429,0,0,1-178.543,447.08Z" transform="translate(212.038 -440.039)"/><path class="j" d="M-174.095,447.859a1.43,1.43,0,0,1-1.655,1.163,1.43,1.43,0,0,1-1.161-1.655,1.43,1.43,0,0,1,1.655-1.163A1.431,1.431,0,0,1-174.095,447.859Z" transform="translate(215.253 -439.477)"/><path class="j" d="M-169.644,448.638A1.43,1.43,0,0,1-171.3,449.8a1.431,1.431,0,0,1-1.163-1.655,1.432,1.432,0,0,1,1.655-1.163A1.43,1.43,0,0,1-169.644,448.638Z" transform="translate(218.467 -438.914)"/><path class="j" d="M-165.2,449.417a1.429,1.429,0,0,1-1.654,1.161,1.429,1.429,0,0,1-1.163-1.653,1.43,1.43,0,0,1,1.655-1.163A1.427,1.427,0,0,1-165.2,449.417Z" transform="translate(221.681 -438.352)"/><path class="j" d="M-160.746,450.2a1.43,1.43,0,0,1-1.655,1.161,1.43,1.43,0,0,1-1.161-1.655,1.43,1.43,0,0,1,1.655-1.161A1.43,1.43,0,0,1-160.746,450.2Z" transform="translate(224.896 -437.789)"/><path class="j" d="M-156.3,450.974a1.431,1.431,0,0,1-1.655,1.163,1.43,1.43,0,0,1-1.163-1.655,1.428,1.428,0,0,1,1.655-1.161A1.429,1.429,0,0,1-156.3,450.974Z" transform="translate(228.11 -437.226)"/><path class="j" d="M-151.847,451.753a1.43,1.43,0,0,1-1.655,1.163,1.431,1.431,0,0,1-1.161-1.655,1.43,1.43,0,0,1,1.655-1.163A1.431,1.431,0,0,1-151.847,451.753Z" transform="translate(231.325 -436.664)"/><path class="j" d="M-147.4,452.532a1.427,1.427,0,0,1-1.655,1.161,1.429,1.429,0,0,1-1.163-1.653,1.432,1.432,0,0,1,1.655-1.163A1.43,1.43,0,0,1-147.4,452.532Z" transform="translate(234.538 -436.101)"/></g><g transform="translate(0 5.5)"><path class="j" d="M-199.419,447.159a1.43,1.43,0,0,1-1.655,1.163,1.43,1.43,0,0,1-1.161-1.655,1.429,1.429,0,0,1,1.654-1.163A1.431,1.431,0,0,1-199.419,447.159Z" transform="translate(202.257 -445.482)"/><path class="j" d="M-194.968,447.938a1.431,1.431,0,0,1-1.655,1.163,1.431,1.431,0,0,1-1.163-1.655,1.43,1.43,0,0,1,1.655-1.163A1.43,1.43,0,0,1-194.968,447.938Z" transform="translate(205.471 -444.92)"/><path class="j" d="M-190.52,448.717a1.43,1.43,0,0,1-1.655,1.161,1.429,1.429,0,0,1-1.161-1.653,1.43,1.43,0,0,1,1.655-1.163A1.43,1.43,0,0,1-190.52,448.717Z" transform="translate(208.685 -444.357)"/><path class="j" d="M-186.069,449.5a1.43,1.43,0,0,1-1.655,1.161A1.43,1.43,0,0,1-188.887,449a1.431,1.431,0,0,1,1.655-1.161A1.43,1.43,0,0,1-186.069,449.5Z" transform="translate(211.899 -443.794)"/><path class="j" d="M-181.621,450.274a1.429,1.429,0,0,1-1.653,1.163,1.43,1.43,0,0,1-1.163-1.655,1.43,1.43,0,0,1,1.655-1.163A1.432,1.432,0,0,1-181.621,450.274Z" transform="translate(215.114 -443.232)"/><path class="j" d="M-177.171,451.053a1.43,1.43,0,0,1-1.655,1.163,1.431,1.431,0,0,1-1.161-1.655,1.429,1.429,0,0,1,1.654-1.163A1.43,1.43,0,0,1-177.171,451.053Z" transform="translate(218.329 -442.669)"/><path class="j" d="M-172.72,451.832a1.431,1.431,0,0,1-1.655,1.161,1.429,1.429,0,0,1-1.163-1.654,1.43,1.43,0,0,1,1.655-1.163A1.43,1.43,0,0,1-172.72,451.832Z" transform="translate(221.543 -442.107)"/><path class="j" d="M-168.272,452.611a1.43,1.43,0,0,1-1.655,1.161,1.43,1.43,0,0,1-1.161-1.655,1.43,1.43,0,0,1,1.655-1.161A1.43,1.43,0,0,1-168.272,452.611Z" transform="translate(224.757 -441.544)"/><path class="j" d="M-163.821,453.389a1.43,1.43,0,0,1-1.655,1.163,1.43,1.43,0,0,1-1.163-1.655,1.431,1.431,0,0,1,1.655-1.161A1.429,1.429,0,0,1-163.821,453.389Z" transform="translate(227.971 -440.981)"/><path class="j" d="M-159.373,454.168a1.429,1.429,0,0,1-1.653,1.163,1.43,1.43,0,0,1-1.163-1.655,1.43,1.43,0,0,1,1.655-1.163A1.431,1.431,0,0,1-159.373,454.168Z" transform="translate(231.186 -440.419)"/><path class="j" d="M-154.923,454.947a1.43,1.43,0,0,1-1.655,1.163,1.432,1.432,0,0,1-1.161-1.655,1.429,1.429,0,0,1,1.654-1.163A1.43,1.43,0,0,1-154.923,454.947Z" transform="translate(234.401 -439.856)"/><path class="j" d="M-150.472,455.726a1.431,1.431,0,0,1-1.655,1.161,1.43,1.43,0,0,1-1.163-1.655,1.43,1.43,0,0,1,1.655-1.161A1.43,1.43,0,0,1-150.472,455.726Z" transform="translate(237.615 -439.294)"/></g></g></g><g transform="translate(0 50.349)"><g transform="translate(2.218)"><g transform="translate(5.3)"><path class="j" d="M-197.642,451.388a1.429,1.429,0,0,1-1.655,1.161,1.429,1.429,0,0,1-1.161-1.654,1.43,1.43,0,0,1,1.655-1.163A1.43,1.43,0,0,1-197.642,451.388Z" transform="translate(200.48 -449.711)"/><path class="j" d="M-193.191,452.167a1.43,1.43,0,0,1-1.655,1.161,1.43,1.43,0,0,1-1.163-1.655,1.431,1.431,0,0,1,1.655-1.161A1.43,1.43,0,0,1-193.191,452.167Z" transform="translate(203.693 -449.149)"/><path class="j" d="M-188.743,452.945a1.429,1.429,0,0,1-1.654,1.163,1.43,1.43,0,0,1-1.163-1.655,1.43,1.43,0,0,1,1.655-1.161A1.429,1.429,0,0,1-188.743,452.945Z" transform="translate(206.908 -448.586)"/><path class="j" d="M-184.293,453.724a1.43,1.43,0,0,1-1.655,1.163,1.43,1.43,0,0,1-1.161-1.655,1.429,1.429,0,0,1,1.654-1.163A1.431,1.431,0,0,1-184.293,453.724Z" transform="translate(210.123 -448.024)"/><path class="j" d="M-179.842,454.5a1.431,1.431,0,0,1-1.655,1.163,1.431,1.431,0,0,1-1.163-1.655A1.43,1.43,0,0,1-181,452.848,1.43,1.43,0,0,1-179.842,454.5Z" transform="translate(213.337 -447.461)"/><path class="j" d="M-175.394,455.282a1.43,1.43,0,0,1-1.655,1.161,1.43,1.43,0,0,1-1.161-1.655,1.43,1.43,0,0,1,1.655-1.161A1.43,1.43,0,0,1-175.394,455.282Z" transform="translate(216.552 -446.898)"/><path class="j" d="M-170.943,456.061a1.43,1.43,0,0,1-1.655,1.161,1.43,1.43,0,0,1-1.163-1.655,1.431,1.431,0,0,1,1.655-1.161A1.43,1.43,0,0,1-170.943,456.061Z" transform="translate(219.766 -446.336)"/><path class="j" d="M-166.495,456.839A1.429,1.429,0,0,1-168.148,458a1.43,1.43,0,0,1-1.163-1.655,1.43,1.43,0,0,1,1.655-1.163A1.431,1.431,0,0,1-166.495,456.839Z" transform="translate(222.98 -445.774)"/><path class="j" d="M-162.045,457.618a1.43,1.43,0,0,1-1.655,1.163,1.431,1.431,0,0,1-1.161-1.655,1.429,1.429,0,0,1,1.653-1.163A1.43,1.43,0,0,1-162.045,457.618Z" transform="translate(226.195 -445.211)"/><path class="j" d="M-157.594,458.4a1.431,1.431,0,0,1-1.655,1.161,1.429,1.429,0,0,1-1.163-1.654,1.43,1.43,0,0,1,1.655-1.163A1.43,1.43,0,0,1-157.594,458.4Z" transform="translate(229.409 -444.648)"/><path class="j" d="M-153.146,459.176a1.43,1.43,0,0,1-1.655,1.161,1.43,1.43,0,0,1-1.161-1.655,1.43,1.43,0,0,1,1.655-1.161A1.43,1.43,0,0,1-153.146,459.176Z" transform="translate(232.624 -444.085)"/><path class="j" d="M-148.7,459.954a1.43,1.43,0,0,1-1.655,1.163,1.43,1.43,0,0,1-1.163-1.655,1.43,1.43,0,0,1,1.655-1.161A1.429,1.429,0,0,1-148.7,459.954Z" transform="translate(235.837 -443.523)"/></g><g transform="translate(0 5.501)"><path class="j" d="M-200.717,454.582a1.43,1.43,0,0,1-1.655,1.161,1.43,1.43,0,0,1-1.163-1.655,1.432,1.432,0,0,1,1.655-1.161A1.43,1.43,0,0,1-200.717,454.582Z" transform="translate(203.557 -452.905)"/><path class="j" d="M-196.269,455.36a1.429,1.429,0,0,1-1.654,1.163,1.43,1.43,0,0,1-1.163-1.655,1.43,1.43,0,0,1,1.655-1.161A1.427,1.427,0,0,1-196.269,455.36Z" transform="translate(206.771 -452.343)"/><path class="j" d="M-191.819,456.139a1.43,1.43,0,0,1-1.655,1.163,1.43,1.43,0,0,1-1.161-1.655,1.429,1.429,0,0,1,1.654-1.163A1.431,1.431,0,0,1-191.819,456.139Z" transform="translate(209.986 -451.781)"/><path class="j" d="M-187.368,456.918a1.431,1.431,0,0,1-1.655,1.163,1.431,1.431,0,0,1-1.163-1.655,1.43,1.43,0,0,1,1.655-1.163A1.43,1.43,0,0,1-187.368,456.918Z" transform="translate(213.2 -451.218)"/><path class="j" d="M-182.92,457.7a1.43,1.43,0,0,1-1.655,1.161,1.429,1.429,0,0,1-1.161-1.654,1.43,1.43,0,0,1,1.655-1.163A1.43,1.43,0,0,1-182.92,457.7Z" transform="translate(216.415 -450.655)"/><path class="j" d="M-178.469,458.476a1.43,1.43,0,0,1-1.655,1.161,1.43,1.43,0,0,1-1.163-1.655,1.432,1.432,0,0,1,1.655-1.161A1.43,1.43,0,0,1-178.469,458.476Z" transform="translate(219.629 -450.092)"/><path class="j" d="M-174.019,459.254a1.432,1.432,0,0,1-1.655,1.163,1.43,1.43,0,0,1-1.163-1.655,1.43,1.43,0,0,1,1.655-1.163A1.432,1.432,0,0,1-174.019,459.254Z" transform="translate(222.843 -449.53)"/><path class="j" d="M-169.571,460.033a1.43,1.43,0,0,1-1.655,1.163,1.431,1.431,0,0,1-1.161-1.655,1.43,1.43,0,0,1,1.655-1.163A1.43,1.43,0,0,1-169.571,460.033Z" transform="translate(226.058 -448.968)"/><path class="j" d="M-165.12,460.812a1.431,1.431,0,0,1-1.655,1.161,1.429,1.429,0,0,1-1.163-1.653,1.431,1.431,0,0,1,1.655-1.163A1.43,1.43,0,0,1-165.12,460.812Z" transform="translate(229.272 -448.405)"/><path class="j" d="M-160.672,461.591a1.43,1.43,0,0,1-1.655,1.161,1.43,1.43,0,0,1-1.161-1.655,1.43,1.43,0,0,1,1.655-1.161A1.43,1.43,0,0,1-160.672,461.591Z" transform="translate(232.487 -447.842)"/><path class="j" d="M-156.222,462.369a1.43,1.43,0,0,1-1.655,1.163,1.427,1.427,0,0,1-1.161-1.655,1.429,1.429,0,0,1,1.653-1.161A1.429,1.429,0,0,1-156.222,462.369Z" transform="translate(235.701 -447.279)"/><path class="j" d="M-151.771,463.148a1.432,1.432,0,0,1-1.655,1.163,1.43,1.43,0,0,1-1.163-1.655,1.43,1.43,0,0,1,1.655-1.163A1.431,1.431,0,0,1-151.771,463.148Z" transform="translate(238.915 -446.717)"/></g></g><g transform="translate(0 12.675)"><g transform="translate(5.3)"><path class="j" d="M-198.93,458.747a1.43,1.43,0,0,1-1.655,1.163,1.43,1.43,0,0,1-1.161-1.655,1.43,1.43,0,0,1,1.655-1.163A1.431,1.431,0,0,1-198.93,458.747Z" transform="translate(201.768 -457.07)"/><path class="j" d="M-194.479,459.526a1.43,1.43,0,0,1-1.655,1.163,1.431,1.431,0,0,1-1.163-1.655,1.431,1.431,0,0,1,1.655-1.163A1.43,1.43,0,0,1-194.479,459.526Z" transform="translate(204.982 -456.508)"/><path class="j" d="M-190.031,460.305a1.429,1.429,0,0,1-1.654,1.161,1.429,1.429,0,0,1-1.163-1.653,1.43,1.43,0,0,1,1.655-1.163A1.43,1.43,0,0,1-190.031,460.305Z" transform="translate(208.196 -455.945)"/><path class="j" d="M-185.581,461.084a1.43,1.43,0,0,1-1.655,1.161,1.43,1.43,0,0,1-1.161-1.655,1.429,1.429,0,0,1,1.654-1.161A1.43,1.43,0,0,1-185.581,461.084Z" transform="translate(211.411 -455.382)"/><path class="j" d="M-181.13,461.862a1.431,1.431,0,0,1-1.655,1.163,1.43,1.43,0,0,1-1.163-1.655,1.427,1.427,0,0,1,1.655-1.161A1.429,1.429,0,0,1-181.13,461.862Z" transform="translate(214.625 -454.82)"/><path class="j" d="M-176.682,462.641a1.43,1.43,0,0,1-1.655,1.163,1.431,1.431,0,0,1-1.161-1.655,1.43,1.43,0,0,1,1.655-1.163A1.43,1.43,0,0,1-176.682,462.641Z" transform="translate(217.84 -454.257)"/><path class="j" d="M-172.231,463.42a1.429,1.429,0,0,1-1.655,1.161,1.429,1.429,0,0,1-1.163-1.654,1.431,1.431,0,0,1,1.655-1.163A1.43,1.43,0,0,1-172.231,463.42Z" transform="translate(221.054 -453.695)"/><path class="j" d="M-167.783,464.2a1.429,1.429,0,0,1-1.653,1.161A1.43,1.43,0,0,1-170.6,463.7a1.43,1.43,0,0,1,1.655-1.161A1.43,1.43,0,0,1-167.783,464.2Z" transform="translate(224.268 -453.132)"/><path class="j" d="M-163.333,464.977a1.43,1.43,0,0,1-1.655,1.163,1.43,1.43,0,0,1-1.161-1.655,1.429,1.429,0,0,1,1.654-1.161A1.429,1.429,0,0,1-163.333,464.977Z" transform="translate(227.483 -452.569)"/><path class="j" d="M-158.882,465.756a1.431,1.431,0,0,1-1.655,1.163,1.43,1.43,0,0,1-1.163-1.655,1.43,1.43,0,0,1,1.655-1.163A1.431,1.431,0,0,1-158.882,465.756Z" transform="translate(230.697 -452.007)"/><path class="j" d="M-154.434,466.535a1.43,1.43,0,0,1-1.655,1.163,1.431,1.431,0,0,1-1.161-1.655,1.43,1.43,0,0,1,1.655-1.163A1.43,1.43,0,0,1-154.434,466.535Z" transform="translate(233.912 -451.444)"/><path class="j" d="M-149.983,467.314a1.43,1.43,0,0,1-1.655,1.161,1.43,1.43,0,0,1-1.163-1.655,1.431,1.431,0,0,1,1.655-1.161A1.43,1.43,0,0,1-149.983,467.314Z" transform="translate(237.126 -450.882)"/></g><g transform="translate(0 5.501)"><path class="j" d="M-202.005,461.941a1.43,1.43,0,0,1-1.655,1.163,1.431,1.431,0,0,1-1.163-1.655,1.431,1.431,0,0,1,1.655-1.163A1.43,1.43,0,0,1-202.005,461.941Z" transform="translate(204.845 -460.264)"/><path class="j" d="M-197.557,462.72a1.429,1.429,0,0,1-1.654,1.161,1.429,1.429,0,0,1-1.163-1.654,1.43,1.43,0,0,1,1.655-1.163A1.43,1.43,0,0,1-197.557,462.72Z" transform="translate(208.059 -459.702)"/><path class="j" d="M-193.107,463.5a1.43,1.43,0,0,1-1.655,1.161A1.43,1.43,0,0,1-195.923,463a1.429,1.429,0,0,1,1.654-1.161A1.43,1.43,0,0,1-193.107,463.5Z" transform="translate(211.274 -459.139)"/><path class="j" d="M-188.656,464.277a1.431,1.431,0,0,1-1.655,1.163,1.43,1.43,0,0,1-1.163-1.655,1.429,1.429,0,0,1,1.655-1.161A1.429,1.429,0,0,1-188.656,464.277Z" transform="translate(214.488 -458.576)"/><path class="j" d="M-184.208,465.056a1.43,1.43,0,0,1-1.655,1.163,1.431,1.431,0,0,1-1.161-1.655,1.43,1.43,0,0,1,1.655-1.163A1.431,1.431,0,0,1-184.208,465.056Z" transform="translate(217.703 -458.014)"/><path class="j" d="M-179.757,465.835A1.429,1.429,0,0,1-181.412,467a1.429,1.429,0,0,1-1.163-1.653,1.431,1.431,0,0,1,1.655-1.163A1.43,1.43,0,0,1-179.757,465.835Z" transform="translate(220.917 -457.451)"/><path class="j" d="M-175.309,466.614a1.429,1.429,0,0,1-1.654,1.161,1.43,1.43,0,0,1-1.163-1.655,1.43,1.43,0,0,1,1.655-1.161A1.429,1.429,0,0,1-175.309,466.614Z" transform="translate(224.131 -456.889)"/><path class="j" d="M-170.859,467.391a1.43,1.43,0,0,1-1.655,1.163,1.43,1.43,0,0,1-1.161-1.655,1.429,1.429,0,0,1,1.654-1.161A1.429,1.429,0,0,1-170.859,467.391Z" transform="translate(227.346 -456.326)"/><path class="j" d="M-166.408,468.171a1.431,1.431,0,0,1-1.655,1.163,1.43,1.43,0,0,1-1.163-1.655,1.43,1.43,0,0,1,1.655-1.163A1.431,1.431,0,0,1-166.408,468.171Z" transform="translate(230.56 -455.764)"/><path class="j" d="M-161.96,468.95a1.43,1.43,0,0,1-1.655,1.163,1.431,1.431,0,0,1-1.161-1.655,1.43,1.43,0,0,1,1.655-1.163A1.43,1.43,0,0,1-161.96,468.95Z" transform="translate(233.775 -455.201)"/><path class="j" d="M-157.509,469.729a1.43,1.43,0,0,1-1.655,1.161,1.429,1.429,0,0,1-1.163-1.654,1.432,1.432,0,0,1,1.655-1.163A1.43,1.43,0,0,1-157.509,469.729Z" transform="translate(236.989 -454.638)"/><path class="j" d="M-153.061,470.508a1.429,1.429,0,0,1-1.654,1.161,1.43,1.43,0,0,1-1.163-1.655,1.43,1.43,0,0,1,1.655-1.161A1.427,1.427,0,0,1-153.061,470.508Z" transform="translate(240.203 -454.076)"/></g></g></g></g></g></g><g transform="translate(32.587 42.214)"><g transform="translate(10.211 63.576)"><path class="g" d="M-175.944,442.726a6.6,6.6,0,0,0,1.664,3.471c1.33,1.719,5.2,4.416,2.926,5.326-2.286-.708-5.074-1.261-5.074-1.261-1.333-.567-2.472-2.7-2.919-4.182l-.81-4.754s1.545-1.905,1.6-2.007l.923.4A10.581,10.581,0,0,0-175.944,442.726Z" transform="translate(180.157 -439.319)"/><path class="g" d="M-176.456,443.454a1.863,1.863,0,0,0-.04.365c-.288-.126-.577-.236-.87-.334-.794-.81-1.616-1.593-2.418-2.393.56-.424,1.345-1.02,1.393-1.071l6.38,4.129s-.2,1-1.772.62A7.2,7.2,0,0,1-176.456,443.454Z" transform="translate(180.426 -438.812)"/></g><path class="g" d="M-173.721,402.62c9.446,2.658.32,22.4-1.97,28.955a9.92,9.92,0,0,0-.537,3.786l4.17,33.256-3.774-.191-9.9-33.806a13.411,13.411,0,0,1-.315-4.144C-185.43,422.745-183.127,399.973-173.721,402.62Z" transform="translate(186.086 -402.407)"/></g><path class="l" d="M-166.913,407.643l-11.416-1.567a1.722,1.722,0,0,1-.711-3.145h0a10.08,10.08,0,0,0,4.439-7.041l.589-4.289,6.683.918-.6,4.359a10.082,10.082,0,0,0,2.456,8.068h0A1.629,1.629,0,0,1-166.913,407.643Z" transform="translate(223.201 -368)"/><path class="g" d="M-178.681,390.958c1.467,5,2.473,10.16,6.709,13.2a13.93,13.93,0,0,0,5.217,1.808,5.95,5.95,0,0,0,4.339-1.016c2.213-1.659,2.649-4.785,2.566-7.547a34.361,34.361,0,0,0-1.561-9.241,12.315,12.315,0,0,0-2.448-4.737c-2.448-2.656-6.69-3.486-10.133-3.87-2.994-.334-5.129.706-5.651,3.844C-180.064,385.941-179.392,388.533-178.681,390.958Z" transform="translate(223.233 -376.744)"/><g transform="translate(43.46 2.752)"><g class="x"><g transform="translate(2.64 10.025)"><path class="y" d="M-169.039,389.721a1.47,1.47,0,0,1,.043.727.615.615,0,0,1-.5.477.621.621,0,0,1-.517-.262,1.686,1.686,0,0,1-.251-.544,17.462,17.462,0,0,1-.529-2.093.785.785,0,0,1,.047-.582C-170.241,386.706-169.127,389.385-169.039,389.721Z" transform="translate(183.597 -383.872)"/><g transform="translate(7.293 1.646)"><path class="p" d="M-172.061,387.916c.129.455.034.88-.212.951s-.553-.239-.682-.7-.036-.88.212-.951S-172.192,387.461-172.061,387.916Z" transform="translate(174.722 -385.595)"/><path class="z" d="M-174.006,387.488a2.928,2.928,0,0,1,2.888-1.166" transform="translate(174.006 -386.272)"/></g><g transform="translate(13.771)"><path class="p" d="M-168.472,387.05c.034.472-.145.868-.4.887s-.491-.348-.527-.82.145-.87.4-.889S-168.508,386.578-168.472,387.05Z" transform="translate(170.852 -384.658)"/><path class="z" d="M-170.245,386.082a2.931,2.931,0,0,1,3.066-.553" transform="translate(170.245 -385.316)"/></g><path class="o" d="M-174.4,389.688a3.352,3.352,0,0,1,2.849.329,3.4,3.4,0,0,1,.858.975,6.075,6.075,0,0,1,.408,5.52,3.326,3.326,0,0,1-.748,1.132,3.256,3.256,0,0,1-1.027.613,4.8,4.8,0,0,1-4.721-.6C-179.826,395.169-177.652,390.6-174.4,389.688Z" transform="translate(178.24 -382.279)"/><path class="o" d="M-168.8,393.408c.179.627.562,1.311,1.207,1.4a1.663,1.663,0,0,0,1.505-1.013,7.109,7.109,0,0,0,.639-1.671c.327-1.213.548-5.518-1.879-4.48C-169.164,388.431-169.243,391.85-168.8,393.408Z" transform="translate(184.899 -383.75)"/><path class="j" d="M-172.6,390.941l5.8.21s-.839,2.866-2.656,3.076C-172.013,394.524-172.6,390.941-172.6,390.941Z" transform="translate(182.316 -381.253)"/></g></g></g><path class="h" d="M-173.292,391.411c-.782,2.973-.884,6.287-2.787,8.7-2.243,2.84-6.2,3.483-9.716,4.32-4.259,1.011-8.5,2.663-11.671,5.679s-5.105,7.6-4.079,11.857a10.121,10.121,0,0,1,.617,3.422,7.1,7.1,0,0,1-1.03,2.565c-2.56,4.621-4.487,10.536-1.621,14.974,2.187,3.393,6.741,4.754,10.691,3.922s7.306-3.509,9.811-6.674c2.46-3.112,4.556-7,8.335-8.2,2.138-.684,4.494-.365,6.636-1.03,3.839-1.189,6.075-5.186,7.2-9.044s1.562-8,3.6-11.457a10.473,10.473,0,0,0,1.614-3.273c.484-2.687-1.917-4.995-2.553-7.651-.88-3.674,1.309-8.6,2.873-12.036,2.628-5.782.176-10.658-6.5-8.593C-167.324,380.577-171.878,386.02-173.292,391.411Z" transform="translate(205.005 -377.532)"/><path class="h" d="M-168.959,385.169c.772.241,1.564,2.193,2.175,3.877a32.17,32.17,0,0,1,5.179-.341c-.307-2.844-.751-5.965-2.9-7.858a7.282,7.282,0,0,0-2.771-1.467,10.034,10.034,0,0,0-9.528,2.451c-3.369,3.223-1.383,6.526-.288,10.489a32.5,32.5,0,0,1,8.736-3.011C-168.618,387.629-168.988,385.546-168.959,385.169Z" transform="translate(224.027 -377.089)"/><path class="h" d="M-163.573,380.543a11.7,11.7,0,0,0-5.593-2.377,14.491,14.491,0,0,0-8.305.782,6.392,6.392,0,0,0-2.785,2.131,3.444,3.444,0,0,0-.374,3.371,3.855,3.855,0,0,0,3.724,1.814,15.269,15.269,0,0,0,4.208-1.182,7.51,7.51,0,0,1,4.291-.536c1.337.334,2.425,1.283,3.684,1.841C-159.708,388.611-161.2,382.56-163.573,380.543Z" transform="translate(222.407 -377.899)"/><path class="aa" d="M-171.936,384.518c-3.383.606-6.848,3.739-5.784,7.007.729,2.231,3.379,4.232,2.324,6.326-2.685.784-5.443,1.662-7.554,3.5s-3.421,4.885-2.415,7.5c.31.808.822,1.535,1.051,2.368.872,3.169-2.449,5.789-5.315,7.4" transform="translate(216.112 -373.117)"/><path class="aa" d="M-190.618,397.138a20.469,20.469,0,0,0-5.066,2.728,6.907,6.907,0,0,0-2.744,4.883c-.136,3.347,2.933,6.075,3.216,9.413.264,3.112-1.917,5.841-3.968,8.2" transform="translate(209.213 -364)"/></g></g></svg>