<svg xmlns="http://www.w3.org/2000/svg" xmlns:xlink="http://www.w3.org/1999/xlink" width="1365.786" height="768.953" viewBox="0 0 1365.786 768.953"><defs><style>.a,.c{opacity:0.15;}.a{fill:url(#a);}.b{opacity:0.1;fill:url(#b);}.c{fill:url(#c);}</style><linearGradient id="a" x1="0.999" y1="0.12" x2="0.325" y2="1.259" gradientUnits="objectBoundingBox"><stop offset="0" stop-color="#abd5fd"/><stop offset="1" stop-color="#d9eeff"/></linearGradient><linearGradient id="b" x1="0.967" y1="0.006" x2="0.46" y2="0.542" xlink:href="#a"/><linearGradient id="c" x1="0.798" y1="-0.215" x2="-0.01" y2="0.582" xlink:href="#a"/></defs><g transform="translate(0)"><path class="a" d="M544.234,322.209c-39.817,0-134.4,41.092-178.538,102.473s-111.467,70.8-164.536,63.3c-65.519-9.264-111.678,14.409-130.17,61.612H544.234Z" transform="translate(821.552 219.363)"/><path class="b" d="M70.99,73.275c0,55.96,69.886,115.862,155.011,123.744s126.472,34.607,139.691,98.488,75.509,171.68,218.555,171.68V73.275Z" transform="translate(781.539 -73.275)"/><path class="c" d="M919.219,73.275s-.9,67.286-59.232,105.3c-71.615,46.666-170.584,26.681-208.58,37.361s-70.643,29.879-85.467,67.447,9.2,138.449-91.265,155.764V73.275Z" transform="translate(-474.675 -73.275)"/></g></svg>