<svg xmlns="http://www.w3.org/2000/svg" xmlns:xlink="http://www.w3.org/1999/xlink" width="228.229" height="242.224" viewBox="0 0 228.229 242.224"><defs><style>.a,.e,.p,.t,.u{fill:none;}.b{fill:#86eda7;}.c{fill:#8fe3ff;}.d{fill:#f0f6f7;}.e{stroke:#304965;stroke-width:0.683px;}.e,.u{stroke-miterlimit:10;}.f{fill:#7c62e3;}.g{fill:#fff;}.h{fill:#060f47;}.i{fill:#f8b791;}.j{fill:#18236b;}.k{fill:#006aff;}.l{fill:#f8a270;}.m{clip-path:url(#a);}.n{fill:url(#b);}.o{fill:#01010a;}.p{stroke:#18236b;stroke-width:0.351px;}.p,.t,.u{stroke-linecap:round;}.p,.t{stroke-linejoin:round;}.q{fill:#eb8574;}.r{fill:#cb3993;}.s{fill:#ff479d;}.t{stroke:#060f47;}.u{stroke:#ff479d;stroke-width:0.25px;}</style><clipPath id="a"><path class="a" d="M-466.133,453.794c-1.064,4.948-1.714,10.336.493,14.892a9.13,9.13,0,0,0,2.732,3.441,5.783,5.783,0,0,0,4.175,1.144c2.656-.391,4.477-2.857,5.686-5.255a33.321,33.321,0,0,0,2.95-8.609,11.935,11.935,0,0,0,.1-5.176c-.856-3.4-4.094-6.077-6.853-8-2.4-1.671-4.706-1.772-6.6.665A16.674,16.674,0,0,0-466.133,453.794Z" transform="translate(467.114 -445.017)"/></clipPath><linearGradient id="b" x1="-794.152" y1="-134.554" x2="-794.199" y2="-132.611" gradientUnits="objectBoundingBox"><stop offset="0" stop-color="#fff" stop-opacity="0"/><stop offset="0.795" stop-color="#f8b791"/></linearGradient></defs><g transform="translate(0)"><path class="b" d="M-479.505,591.31V370.089h151.74v52.969h-90.981v36.766h74.155v49.231h-74.155V591.31Z" transform="translate(555.994 -356.79)"/><g transform="translate(21.507 77.527)"><path class="c" d="M-504.648,494.608c-1.519-2.489-3.037-5.491-1.926-8.187,2.1-5.1,9.761-2.974,14.43-.033-8.035-7.635-16.451-15.917-18.946-26.716a7.539,7.539,0,0,1-.045-4.256c.968-2.666,4.4-3.722,7.144-3.006s4.943,2.713,7.022,4.642a56.936,56.936,0,0,1-3.884-46.55c.431-1.2,1.023-2.506,2.213-2.963,1.307-.5,2.739.248,3.9,1.037A36.824,36.824,0,0,1-479.856,430.1c-1.149-5.441,7.036-8.939,11.65-5.836s5.818,9.348,5.849,14.909-.649,11.4,1.674,16.456c-1.5-3.052,1.964-6.817,5.339-6.421s5.82,3.684,6.388,7.036-.317,6.76-1.194,10.043q-1.85,6.929-3.7,13.857a6.639,6.639,0,0,0,4.8-.92c5.186,3.717,4.861,11.392,3.994,17.713-2.222,16.191-4.244,34.928-14.174,48.342C-478.7,537.129-494.1,511.884-504.648,494.608Z" transform="translate(511.426 -407.379)"/><g transform="translate(17.749 22.687)"><path class="d" d="M-491.564,430.109c-.134-1.17-.486-2.949.911-2.9,2.05.071,1.617,6.238-.369,5.724-.8-.208-.377-2.012-.543-2.823" transform="translate(507.924 -415.742)"/><path class="d" d="M-478.021,458.132c-.134-1.169-.486-2.949.911-2.9,2.051.071,1.617,6.239-.369,5.722-.8-.208-.375-2.012-.542-2.821" transform="translate(517.708 -395.498)"/><path class="d" d="M-480.056,446.727c.555-1.039,1.278-2.7,2.4-1.867,1.645,1.226-2.222,6.051-3.56,4.5-.541-.629.835-1.869,1.161-2.63" transform="translate(515.41 -403.153)"/><path class="d" d="M-489.881,462.992c.555-1.039,1.278-2.7,2.4-1.867,1.645,1.226-2.222,6.051-3.56,4.5-.541-.627.835-1.867,1.159-2.628" transform="translate(508.314 -391.404)"/><path class="d" d="M-498.21,442.317c1.013.6,2.644,1.393,1.762,2.479-1.294,1.591-5.949-2.479-4.339-3.75.649-.513,1.831.915,2.577,1.271" transform="translate(501.121 -405.824)"/><path class="d" d="M-496.077,466.839c1.014.6,2.646,1.392,1.762,2.477-1.293,1.591-5.949-2.479-4.339-3.75.649-.512,1.831.915,2.577,1.273" transform="translate(502.662 -388.111)"/><path class="d" d="M-497.772,423.285c.288,1.142.87,2.859-.524,2.994-2.041.2-2.418-5.973-.382-5.72.82.1.635,1.945.906,2.727" transform="translate(501.91 -420.551)"/><path class="d" d="M-484.809,439.54c-.58,1.025-1.344,2.67-2.444,1.809-1.616-1.264,2.367-6,3.667-4.409.525.641-.88,1.848-1.223,2.6" transform="translate(510.866 -408.944)"/><path class="d" d="M-486.207,428.145c.288,1.142.87,2.861-.522,3-2.043.2-2.42-5.973-.384-5.722.822.1.635,1.945.906,2.726" transform="translate(510.266 -417.04)"/><path class="d" d="M-495.3,455.695c1.033.563,2.692,1.3,1.848,2.413-1.237,1.636-6.034-2.265-4.47-3.593.632-.536,1.862.849,2.622,1.18" transform="translate(503.209 -396.103)"/><path class="d" d="M-498.033,431.932c1.033.563,2.692,1.3,1.848,2.413-1.237,1.636-6.034-2.265-4.47-3.593.632-.536,1.862.849,2.621,1.18" transform="translate(501.234 -413.269)"/><path class="d" d="M-484.964,473.768c1.033.563,2.69,1.3,1.848,2.413-1.238,1.636-6.034-2.265-4.47-3.593.63-.536,1.862.849,2.621,1.18" transform="translate(510.675 -383.047)"/><path class="d" d="M-479.259,466.684c.461-1.083,1.037-2.8,2.227-2.069,1.746,1.078-1.686,6.221-3.154,4.788-.594-.577.668-1.934.927-2.72" transform="translate(516.131 -388.846)"/><path class="d" d="M-486.076,451.775c-.47-1.078-1.328-2.677.022-3.04,1.981-.532,3.372,5.491,1.323,5.581-.827.034-.949-1.814-1.345-2.541" transform="translate(511.482 -400.214)"/></g><path class="e" d="M-496.558,427.591A677.168,677.168,0,0,1-466.635,549.03" transform="translate(522.167 -392.777)"/></g><g transform="translate(0)"><path class="f" d="M-510.17,428.277l70.322-7.1a12.488,12.488,0,0,0,11.233-12.425V380.541A12.488,12.488,0,0,0-440.1,368.093l-70.324-5.684a12.488,12.488,0,0,0-13.493,12.449v40.993A12.488,12.488,0,0,0-510.17,428.277Z" transform="translate(523.913 -362.368)"/><path class="f" d="M-472.173,395.136l6.442,18.583a1.392,1.392,0,0,1-2.28,1.457l-21.809-21Z" transform="translate(548.541 -339.391)"/><g transform="translate(28.385 29.319)"><path class="g" d="M-499.1,383.555a4.166,4.166,0,0,1-4.165,4.165,4.166,4.166,0,0,1-4.165-4.165,4.166,4.166,0,0,1,4.165-4.165A4.166,4.166,0,0,1-499.1,383.555Z" transform="translate(507.433 -379.39)"/><path class="g" d="M-490.9,383.555a4.165,4.165,0,0,1-4.165,4.165,4.164,4.164,0,0,1-4.163-4.165,4.164,4.164,0,0,1,4.163-4.165A4.165,4.165,0,0,1-490.9,383.555Z" transform="translate(513.363 -379.39)"/><path class="g" d="M-482.6,383.555a4.166,4.166,0,0,1-4.165,4.165,4.166,4.166,0,0,1-4.165-4.165,4.166,4.166,0,0,1,4.165-4.165A4.166,4.166,0,0,1-482.6,383.555Z" transform="translate(519.355 -379.39)"/></g></g><g transform="translate(78.166 130.39)"><g transform="translate(0.204 56.553)"><g transform="translate(74.602 43.306)"><path class="h" d="M-433.386,501.342l15.211-3.755c2.072-.286,4.471-.265,5.279,1.393a10.485,10.485,0,0,1,.789,2.263c-.382.765-20.734,5.005-20.734,5.005l-.105-.052C-435.717,504.151-433.386,501.342-433.386,501.342Z" transform="translate(435.676 -495.035)"/><path class="g" d="M-412.72,499.652l-20.734,5,.377.762,20.564-5.052Z" transform="translate(436.289 -493.443)"/><g transform="translate(8.307 4.483)"><path class="g" d="M-430.277,498.977l1.372-.327.032,1.97-1.329.326Z" transform="translate(430.277 -498.65)"/></g><g transform="translate(11.244 3.761)"><path class="g" d="M-428.572,498.558l1.372-.327.032,1.97-1.329.326Z" transform="translate(428.572 -498.231)"/></g><path class="i" d="M-435.1,497.542l2.289,4.812h0a5.077,5.077,0,0,0,4.1-.906l.2-.158-.51-5.243Z" transform="translate(435.1 -496.047)"/></g><path class="h" d="M-478.413,498.4s3.445,21.244,24.708,18.986c17.923-1.9,34.841-26.714,34.841-26.714l15.279,27.266,6.549-2.591s-6.8-43.894-16.742-44.433-42.307,21.557-42.307,21.557Z" transform="translate(478.413 -470.904)"/><g transform="translate(0.15 21.212)"><g transform="translate(119.002 4.257)"><path class="h" d="M-406.143,505.4l2.7-15.434c.574-2.01,1.559-4.2,3.4-4.27a10.53,10.53,0,0,1,2.391.191c.544.658-3.781,20.993-3.781,20.993l-.09.076C-404.512,508.666-406.143,505.4-406.143,505.4Z" transform="translate(411.469 -485.691)"/><path class="g" d="M-399.628,485.806l-3.78,20.992.849-.038,3.668-20.855Z" transform="translate(413.444 -485.609)"/><g transform="translate(6.383 12.211)"><path class="g" d="M-405.529,494.169l.254-1.388,1.815.765-.237,1.348Z" transform="translate(405.529 -492.781)"/></g><g transform="translate(6.906 9.232)"><path class="g" d="M-405.225,492.439l.254-1.388,1.815.765-.237,1.347Z" transform="translate(405.225 -491.051)"/></g><path class="i" d="M-409.235,499.814l5.326-.155h0a5.079,5.079,0,0,0,.827-4.12l-.062-.252-5.005-1.647Z" transform="translate(409.235 -479.949)"/></g><path class="j" d="M-478.045,487.638c-1.256.374,1.566,13.381,11.339,18.8,7.067,3.92,18.516,1.865,24.544-2.441,24.53-5.6,84.961,3.612,84.961,3.612V501.38S-426.949,472.424-478.045,487.638Z" transform="translate(478.326 -483.219)"/></g></g><path class="k" d="M-410.123,470.247l-11.946,25.389-25.793-4.778-.38,2.054,27.377,5.071,12.63-26.847Z" transform="translate(500.413 -414.826)"/><g transform="translate(15.454)"><path class="l" d="M-464.72,454.118l-4.633,10.528,6.007,2.227,4.008-7.8Z" transform="translate(469.707 -426.478)"/><path class="i" d="M-466.133,453.794c-1.064,4.948-1.714,10.336.493,14.892a9.13,9.13,0,0,0,2.732,3.441,5.783,5.783,0,0,0,4.175,1.144c2.656-.391,4.477-2.857,5.686-5.255a33.321,33.321,0,0,0,2.95-8.609,11.935,11.935,0,0,0,.1-5.176c-.856-3.4-4.094-6.077-6.853-8-2.4-1.671-4.706-1.772-6.6.665A16.674,16.674,0,0,0-466.133,453.794Z" transform="translate(471.325 -433.052)"/><g transform="translate(4.212 11.965)"><g class="m"><g transform="translate(-3.217 13.807)"><path class="n" d="M-459.213,457.792a1.438,1.438,0,0,1-.3.641.6.6,0,0,1-.646.176.6.6,0,0,1-.32-.462,1.621,1.621,0,0,1,.038-.582,16.785,16.785,0,0,1,.518-2.031.756.756,0,0,1,.308-.475C-458.843,454.663-459.131,457.465-459.213,457.792Z" transform="translate(475.114 -451.598)"/><g transform="translate(11.085)"><path class="o" d="M-461.14,454.845c-.1.448-.379.768-.622.713s-.36-.462-.26-.909.377-.768.622-.715S-461.042,454.4-461.14,454.845Z" transform="translate(462.899 -452.387)"/><path class="p" d="M-462.546,453.314a2.844,2.844,0,0,1,3.006.343" transform="translate(462.546 -453.033)"/></g><g transform="translate(17.583 1.407)"><path class="o" d="M-457.633,455.75c-.19.419-.527.675-.754.572s-.258-.524-.069-.942.525-.675.753-.574S-457.445,455.332-457.633,455.75Z" transform="translate(458.912 -453.175)"/><path class="p" d="M-458.773,453.936a2.841,2.841,0,0,1,2.873.947" transform="translate(458.773 -453.85)"/></g><path class="q" d="M-462.954,454.566a3.261,3.261,0,0,1,2.279,1.6,3.28,3.28,0,0,1,.281,1.23,5.893,5.893,0,0,1-2.208,4.9,3.207,3.207,0,0,1-1.163.62,3.16,3.16,0,0,1-1.159.047,4.653,4.653,0,0,1-3.751-2.7C-470.121,456.733-466.149,453.838-462.954,454.566Z" transform="translate(468.982 -452.008)"/><path class="q" d="M-459.977,460.714a1.7,1.7,0,0,0,.381,1.755,1.618,1.618,0,0,0,1.755-.167,6.986,6.986,0,0,0,1.318-1.13c.842-.884,3.025-4.456.472-4.7C-457.984,456.3-459.636,459.177-459.977,460.714Z" transform="translate(475.431 -450.552)"/><path class="g" d="M-463.059,457.231l4.854,2.866s-2.043,2.058-3.691,1.4C-464.22,460.559-463.059,457.231-463.059,457.231Z" transform="translate(473.05 -450.001)"/></g></g></g><path class="r" d="M-468.717,444.573c-.16-1.743.856-3.371,1.984-4.711a4.382,4.382,0,0,1,2.584-1.771c1.579-.207,2.892,1.128,3.918,2.344a5.191,5.191,0,0,1,4.237-2.172c1.468.019,3.1.99,3.119,2.456.009.729-.274,1.693.379,2.015a2.492,2.492,0,0,0,.8.117c1.013.14,1.547,1.311,1.581,2.332.095,2.861-2.358,5.377-5.145,6.03C-459.256,452.15-468.264,449.5-468.717,444.573Z" transform="translate(470.155 -438.071)"/><path class="s" d="M-448.594,458.546a3.035,3.035,0,0,1-.7-1.815l-1.524.553c-.878-.537-.675-1.828-.632-2.856a.828.828,0,0,0-.071-.448c-.22-.381-.853-.2-1.085.172a9.934,9.934,0,0,0-.425,1.247c-.567,1.268-2.341,1.263-3.714,1.056-3.6-.544-7.411-1.178-10.185-3.545a4.659,4.659,0,0,1-1.917-3.8,4.364,4.364,0,0,1,1.528-2.649c2.7-2.461,6.786-2.716,10.374-2.013a14.908,14.908,0,0,1,8.755,4.681,9.278,9.278,0,0,1,2.132,5.431C-446.011,455.544-446.62,460.432-448.594,458.546Z" transform="translate(470.064 -433.712)"/><path class="s" d="M-460.677,456.215a7.725,7.725,0,0,1-5.518,3.633,2.772,2.772,0,0,1-2.491-.649,2.472,2.472,0,0,1-.455-1.163,22.8,22.8,0,0,1-.117-8.035,6.137,6.137,0,0,1,1.125-2.961,4.66,4.66,0,0,1,4.769-1.3C-458.334,447.167-458.88,453.241-460.677,456.215Z" transform="translate(469.559 -432.664)"/><path class="i" d="M-463.538,453.011a3.46,3.46,0,0,0-1.221-1.957,2.011,2.011,0,0,0-2.21-.152,2.085,2.085,0,0,0-.818,1.977,4.332,4.332,0,0,0,.909,2.034,3.754,3.754,0,0,0,1.35,1.235,1.7,1.7,0,0,0,1.752-.112c.787-.627.6-1.85.339-2.823" transform="translate(470.828 -428.992)"/><path class="t" d="M-466.838,445.31a11.552,11.552,0,0,1,12.5.751" transform="translate(471.524 -433.914)"/><path class="u" d="M-466.273,442.813a1.3,1.3,0,0,1,.756-1.65c.653-.181,1.409.541,1.144,1.164a1.545,1.545,0,0,1,1.2-.723,1.37,1.37,0,0,1,1.1.329.843.843,0,0,1,.127,1.075.99.99,0,0,1,1.187.088.989.989,0,0,1,.188,1.175" transform="translate(471.883 -435.857)"/><path class="u" d="M-461.5,439.276a1.017,1.017,0,0,0-.729,1.273,1.016,1.016,0,0,0,1.357.553,1.546,1.546,0,0,0,.382,2.141,2.089,2.089,0,0,0,2.3-.066" transform="translate(474.817 -437.2)"/></g><path class="k" d="M-478.519,507.317l29.756-2.556a62.542,62.542,0,0,1-1.5-13.321A24.535,24.535,0,0,1-448,481.9c-.875-11.363-4.26-22.591-14.292-22.057C-479.576,462.9-478.519,507.317-478.519,507.317Z" transform="translate(478.531 -422.354)"/><path class="i" d="M-467.644,473.512l11.754-1.009.382,13.1,20.927-5.114,4.749-2.728a5.738,5.738,0,0,1,4.053-.637l5.593,1.185a1.342,1.342,0,0,1,1.056,1.2l1.662,6.149s-1.405.906-3.25-4.3c-1.411,5.922-9.654,1.393-9.654,1.393l-2.985,1.827s-23.016,14.806-28.347,11.468S-467.644,473.512-467.644,473.512Z" transform="translate(486.396 -413.197)"/></g></g></svg>