<svg xmlns="http://www.w3.org/2000/svg" xmlns:xlink="http://www.w3.org/1999/xlink" width="286.442" height="343.728" viewBox="0 0 286.442 343.728"><defs><style>.a,.b,.g,.j,.r,.u,.w,.x{fill:none;}.b{stroke:#4144b3;stroke-width:0.704px;}.b,.g,.j,.w{stroke-miterlimit:10;}.c{fill:#4144b3;}.d{fill:#86eda7;}.e{fill:#8fe3ff;}.f{fill:#f0f6f7;}.g{stroke:#304965;stroke-width:0.683px;}.h{clip-path:url(#a);}.i{fill:#010354;}.j{stroke:#7c62e3;stroke-width:0.75px;}.k{fill:#f8b791;}.l{fill:#060f47;}.m{fill:#e0a228;}.n{fill:url(#b);}.o{fill:#f8a270;}.p{fill:#18236b;}.q{fill:url(#d);}.r,.u{stroke:#18236b;}.r,.u,.x{stroke-linecap:round;stroke-linejoin:round;}.r{stroke-width:0.416px;}.s{fill:#eb8574;}.t{fill:#01010a;}.u{stroke-width:0.416px;}.v{fill:#fff;}.w{stroke:#006aff;stroke-width:0.176px;}.x{stroke:#f8a17e;stroke-width:0.241px;}.y{fill:#f8f891;}</style><clipPath id="a"><path class="a" d="M125.573,822.756c7.832-30.142,6.347-62.31-3.064-91.988-5.414.555-10.588,1.144-11.767,1.135,3.484-1.784,6.976-3.462,10.4-5.262a172.907,172.907,0,0,0-15.837-33.7c-4.845,1.226-9.887,2.1-14.008,1.466.761-1.1,6.056-4.292,10.266-7.325a163.231,163.231,0,0,0-15.221-19.434,58.98,58.98,0,0,1-7.517,7.513c.253-.863,2.139-6.619,3.674-11.573-9.532-9.673-20.648-18.094-33.585-21.885-.422-.124-.847-.245-1.273-.358a221.441,221.441,0,0,0-.756,36.8c5.582,4.034,10.987,8.729,17.379,10.925l-17-5.842c.1,1.123.2,2.244.31,3.366a228.2,228.2,0,0,0,6.239,34.782c3.152.765,5.8,1.221,6.564.691q-2.648,1.834-5.463,3.4A226.993,226.993,0,0,0,68.9,762.6c12.04,25.037,24.849,50.5,51.736,62.17a4.45,4.45,0,0,0,3.388.429,2.022,2.022,0,0,0,.4-.234A3.866,3.866,0,0,0,125.573,822.756Z" transform="translate(-46.453 -641.348)"/></clipPath><linearGradient id="b" y1="0.5" x2="1" y2="0.5" gradientUnits="objectBoundingBox"><stop offset="0" stop-color="#ffd100"/><stop offset="1" stop-color="#ffad00"/></linearGradient><linearGradient id="d" x1="12.101" y1="6.203" x2="11.089" y2="6.282" gradientUnits="objectBoundingBox"><stop offset="0.006" stop-color="#f8b791"/><stop offset="0.942" stop-color="#f89b91"/></linearGradient></defs><g transform="translate(162.618 65.149)"><path class="b" d="M50.176,743.167a320.093,320.093,0,0,1,49.831-146.988" transform="translate(-38.015 -581.24)"/><g transform="translate(0)"><path class="c" d="M84.058,605.724a10.944,10.944,0,0,1,4.344-1.044,4.475,4.475,0,0,1,3.813,2,4.523,4.523,0,0,1-.949,5.159,10.982,10.982,0,0,1-4.9,2.628c-2.112.651-14.23,3.583-15.481.648C69.767,612.49,82.125,606.524,84.058,605.724Z" transform="translate(-23.107 -575.1)"/><path class="c" d="M81.976,613.518a10.913,10.913,0,0,1,4.449-.415,4.037,4.037,0,0,1,1.814,7.494,10.985,10.985,0,0,1-5.224,1.9c-2.182.343-14.6,1.517-15.415-1.566C66.867,618.176,79.951,614.033,81.976,613.518Z" transform="translate(-25.45 -569.08)"/><path class="c" d="M80.221,622.076a10.9,10.9,0,0,1,4.423.63,4.036,4.036,0,0,1,.022,7.709,10.983,10.983,0,0,1-5.524.637c-2.2-.172-14.547-1.915-14.628-5.1C64.442,623.1,78.13,622.106,80.221,622.076Z" transform="translate(-27.658 -562.535)"/><path class="c" d="M71.732,647.3a10.905,10.905,0,0,1,4.423.63,4.036,4.036,0,0,1,.022,7.71,11,11,0,0,1-5.524.639c-2.2-.174-14.547-1.915-14.628-5.105C55.953,648.321,69.641,647.331,71.732,647.3Z" transform="translate(-33.79 -544.312)"/><path class="c" d="M70.825,637.8a8.4,8.4,0,0,1,3.409.486,3.109,3.109,0,0,1,.017,5.939A8.451,8.451,0,0,1,70,644.72c-1.7-.134-11.209-1.476-11.271-3.932C58.668,638.589,69.215,637.825,70.825,637.8Z" transform="translate(-31.84 -551.173)"/><path class="c" d="M47.18,663.331a8.44,8.44,0,0,1-2.763-2.053,3.111,3.111,0,0,1,2.821-5.229,8.46,8.46,0,0,1,3.974,1.6c1.428.928,9.144,6.647,8.026,8.836C58.238,668.443,48.606,664.08,47.18,663.331Z" transform="translate(-42.797 -537.996)"/><path class="c" d="M49.273,656.43a8.423,8.423,0,0,1-3.126-1.442,3.11,3.11,0,0,1,1.686-5.7,8.473,8.473,0,0,1,4.216.747c1.588.615,10.317,4.626,9.673,7C61.146,659.16,50.824,656.869,49.273,656.43Z" transform="translate(-41.922 -542.91)"/><path class="c" d="M63.76,656.668a8.436,8.436,0,0,1,3.391-.594,3.11,3.11,0,0,1,1.857,5.643,8.462,8.462,0,0,1-3.893,1.786c-1.655.4-11.115,2.072-11.935-.245C52.445,661.184,62.235,657.189,63.76,656.668Z" transform="translate(-35.873 -537.985)"/><path class="c" d="M75.392,628.785a9.351,9.351,0,0,1,3.782.541,3.828,3.828,0,0,1,2.4,2.79,3.872,3.872,0,0,1-2.382,3.8,9.4,9.4,0,0,1-4.725.546c-1.884-.148-12.443-1.638-12.512-4.366C61.9,629.658,73.6,628.811,75.392,628.785Z" transform="translate(-29.503 -557.688)"/><path class="c" d="M83.347,591.714a10.9,10.9,0,0,1,2.968-3.34,4.035,4.035,0,0,1,6.44,4.237,10.985,10.985,0,0,1-2.516,4.957c-1.362,1.741-9.63,11.073-12.334,9.38C75.486,605.433,82.217,593.474,83.347,591.714Z" transform="translate(-18.36 -587.506)"/><path class="c" d="M69.067,601.136a10.89,10.89,0,0,1-.215-4.463,4.474,4.474,0,0,1,2.675-3.372,4.522,4.522,0,0,1,4.892,1.895,10.985,10.985,0,0,1,1.669,5.3c.246,2.2.866,14.649-2.249,15.329C73.049,616.438,69.49,603.184,69.067,601.136Z" transform="translate(-24.633 -583.454)"/><path class="c" d="M63.305,611.079a10.934,10.934,0,0,1-1.2-4.3,4.036,4.036,0,0,1,7.05-3.119,11,11,0,0,1,2.8,4.8c.725,2.088,4.092,14.093,1.2,15.447C70.58,625.116,64.173,612.98,63.305,611.079Z" transform="translate(-29.397 -576.768)"/><path class="c" d="M59.041,619.424a10.907,10.907,0,0,1-2.05-3.97,4.036,4.036,0,0,1,6.27-4.487,10.972,10.972,0,0,1,3.72,4.13c1.137,1.9,6.874,12.966,4.322,14.88C69.018,631.689,60.277,621.11,59.041,619.424Z" transform="translate(-33.185 -571.05)"/><path class="c" d="M55.459,628.015a10.91,10.91,0,0,1-2.575-3.65,4.478,4.478,0,0,1,.448-4.282,4.525,4.525,0,0,1,5.145-1.025,11,11,0,0,1,4.254,3.581c1.385,1.722,8.586,11.9,6.321,14.146C67.025,638.8,56.915,629.515,55.459,628.015Z" transform="translate(-36.302 -564.979)"/><path class="c" d="M52.306,635.991a10.874,10.874,0,0,1-2.575-3.651,4.035,4.035,0,0,1,5.593-5.3,10.982,10.982,0,0,1,4.253,3.581c1.387,1.722,8.588,11.9,6.323,14.146C63.872,646.771,53.762,637.491,52.306,635.991Z" transform="translate(-38.58 -559.218)"/><path class="c" d="M50.3,643.34a10.934,10.934,0,0,1-2.575-3.65,4.478,4.478,0,0,1,.45-4.284,4.523,4.523,0,0,1,5.145-1.023,10.993,10.993,0,0,1,4.253,3.581c1.385,1.722,8.588,11.9,6.321,14.146C61.866,654.12,51.755,644.84,50.3,643.34Z" transform="translate(-40.03 -553.909)"/><path class="c" d="M49.181,651.507a10.9,10.9,0,0,1-4.13-1.7,4.037,4.037,0,0,1,1.877-7.479,10.975,10.975,0,0,1,5.51.744c2.093.71,13.628,5.441,12.92,8.552C64.724,654.407,51.215,651.994,49.181,651.507Z" transform="translate(-43.116 -547.987)"/></g></g><g transform="translate(0 118.817)"><path class="d" d="M112.282,830.851a109.358,109.358,0,0,1-24.458,9.036A116.263,116.263,0,0,1,60.56,843q-25.237,0-45.8-9.5a111.187,111.187,0,0,1-35.209-25.237A114.885,114.885,0,0,1-43.2,772.274a111.367,111.367,0,0,1-8.1-41.751,108.622,108.622,0,0,1,8.414-42.064,112.935,112.935,0,0,1,59.356-60.6,110.578,110.578,0,0,1,45.335-9.191q25.239,0,45.8,9.814a113.662,113.662,0,0,1,57.8,61.85,112.543,112.543,0,0,1,7.947,41.439,107.94,107.94,0,0,1-7.324,39.415,109.93,109.93,0,0,1-20.719,33.806l33.651,36.455H122.253ZM61.183,789.1a45.347,45.347,0,0,0,11.528-1.247L36.257,747.971H92.965l12.152,13.4a63.513,63.513,0,0,0,4.985-14.956,80.889,80.889,0,0,0,1.557-15.889,75.438,75.438,0,0,0-3.114-21.656,55.188,55.188,0,0,0-9.5-18.538A47.248,47.248,0,0,0,83.151,677.4q-9.51-4.826-22.279-4.83-13.086,0-22.589,5.141a48.062,48.062,0,0,0-15.736,13.4A56.088,56.088,0,0,0,13.356,709.8a77.791,77.791,0,0,0-2.961,21.342A75.233,75.233,0,0,0,13.511,752.8a56.514,56.514,0,0,0,9.347,18.538,45.508,45.508,0,0,0,15.734,12.93Q48.095,789.1,61.183,789.1Z" transform="translate(51.298 -618.665)"/><path class="d" d="M44.476,695.252a63.453,63.453,0,0,1-4.93,14.828l40.192,43.687a109.775,109.775,0,0,0,19.718-31.454l-54.17-32.035C45.063,691.945,44.8,693.607,44.476,695.252Z" transform="translate(116.924 -566.932)"/><path class="d" d="M35.4,718.678a45.433,45.433,0,0,1-11.528,1.245q-12.908,0-22.321-4.705l4.1,57.357a122.136,122.136,0,0,0,17.594,1.25,116.172,116.172,0,0,0,27.264-3.116,109.361,109.361,0,0,0,24.458-9.036Z" transform="translate(89.474 -548.915)"/></g><g transform="translate(168.367 157.886)"><g transform="translate(52.939 19.447)"><path class="e" d="M77.907,734.346c-.744-2.818-1.337-6.128.5-8.393,3.476-4.285,10.2-.057,13.834,4.1-5.512-9.616-11.2-19.959-10.5-31.022a7.57,7.57,0,0,1,1.176-4.091c1.691-2.277,5.283-2.306,7.706-.834s3.96,4.015,5.4,6.457a56.94,56.94,0,0,1,9.6-45.714c.756-1.023,1.7-2.107,2.969-2.2,1.4-.107,2.553,1.021,3.436,2.108a36.83,36.83,0,0,1,8.1,24.884c.456-5.545,9.3-6.552,12.834-2.256s2.9,10.62,1.337,15.96-3.886,10.737-3.109,16.244c-.558-3.352,3.834-5.97,6.955-4.623s4.523,5.2,4.106,8.57-2.237,6.387-4.018,9.282l-7.513,12.215a6.637,6.637,0,0,0,4.859.493c3.9,5.047,1.4,12.307-1.245,18.114-6.764,14.878-14.067,32.252-27.421,42.263C90.6,782.518,83.069,753.919,77.907,734.346Z" transform="translate(-77.189 -652.639)"/><g transform="translate(10.799 23.863)"><path class="f" d="M101.382,677.794c.2-1.159.377-2.964,1.7-2.518,1.943.654-.238,6.44-1.993,5.377-.706-.429.215-2.034.289-2.859" transform="translate(-70.911 -660.199)"/><path class="f" d="M106.337,708.521c.2-1.159.377-2.964,1.7-2.518,1.943.655-.238,6.44-1.993,5.377-.708-.429.215-2.034.289-2.859" transform="translate(-67.332 -638.001)"/><path class="f" d="M107.661,696.751c.83-.835,2-2.222,2.835-1.1,1.225,1.645-3.862,5.16-4.7,3.288-.338-.756,1.335-1.552,1.864-2.187" transform="translate(-67.353 -645.734)"/><path class="f" d="M93.594,709.523c.828-.835,2-2.222,2.833-1.1,1.226,1.645-3.86,5.16-4.7,3.288-.338-.756,1.337-1.552,1.865-2.188" transform="translate(-77.516 -636.507)"/><path class="f" d="M91.115,687.617c.8.865,2.136,2.093.978,2.878-1.695,1.156-4.99-4.077-3.083-4.833.768-.307,1.492,1.4,2.1,1.955" transform="translate(-79.864 -652.672)"/><path class="f" d="M86.139,711.723c.8.863,2.136,2.091.98,2.878-1.7,1.154-4.992-4.079-3.085-4.835.768-.3,1.492,1.4,2.1,1.957" transform="translate(-83.459 -635.259)"/><path class="f" d="M97.268,669.443c-.053,1.176.014,2.988-1.359,2.72-2.013-.394-.608-6.416,1.269-5.593.758.332.053,2.046.09,2.873" transform="translate(-75.175 -666.493)"/><path class="f" d="M105.12,688.48c-.849.817-2.051,2.174-2.859,1.033-1.187-1.674,3.982-5.067,4.775-3.174.32.763-1.371,1.518-1.915,2.141" transform="translate(-70.003 -652.56)"/><path class="f" d="M106.957,677.411c-.052,1.176.014,2.988-1.359,2.72-2.012-.394-.608-6.416,1.271-5.591.758.332.053,2.044.088,2.871" transform="translate(-68.175 -660.736)"/><path class="f" d="M90.071,701.268c.83.835,2.208,2.015,1.08,2.842-1.654,1.214-5.131-3.9-3.254-4.721.758-.332,1.542,1.345,2.174,1.879" transform="translate(-80.643 -642.76)"/><path class="f" d="M94.253,677.717c.83.835,2.208,2.015,1.08,2.842-1.654,1.214-5.131-3.9-3.252-4.721.758-.332,1.54,1.345,2.172,1.879" transform="translate(-77.621 -659.773)"/><path class="f" d="M94.8,721.545c.83.834,2.208,2.013,1.08,2.84-1.654,1.214-5.131-3.9-3.254-4.721.758-.332,1.542,1.347,2.174,1.881" transform="translate(-77.228 -628.114)"/><path class="f" d="M102.737,716.14c.753-.906,1.8-2.389,2.727-1.344,1.364,1.531-3.4,5.477-4.394,3.684-.4-.723,1.2-1.662,1.667-2.341" transform="translate(-70.783 -631.858)"/><path class="f" d="M100.063,700.123c-.143-1.17-.506-2.945.89-2.907,2.051.057,1.66,6.228-.327,5.725-.8-.2-.391-2.008-.563-2.818" transform="translate(-71.572 -644.3)"/></g><path class="g" d="M99.35,674.049a677.3,677.3,0,0,1-6.094,124.924" transform="translate(-65.582 -637.172)"/></g><g transform="translate(0)"><g class="h"><path class="c" d="M47.643,641.348a221.441,221.441,0,0,0-.756,36.8c5.582,4.034,10.987,8.729,17.379,10.925l-17-5.842c.1,1.123.2,2.244.31,3.366a228.2,228.2,0,0,0,6.239,34.782c3.152.765,5.8,1.221,6.564.691q-2.648,1.834-5.463,3.4A226.993,226.993,0,0,0,68.9,762.6c12.04,25.037,24.849,50.5,51.736,62.17a4.45,4.45,0,0,0,3.388.429c-23.1-60.4-44.807-128.234-75.11-183.5C48.494,641.582,48.068,641.462,47.643,641.348Z" transform="translate(-46.453 -641.348)"/><path class="i" d="M122.993,825.052a2.025,2.025,0,0,0,.4-.234,3.866,3.866,0,0,0,1.145-2.212c7.832-30.142,6.347-62.31-3.064-91.988-5.414.555-10.588,1.144-11.767,1.135,3.484-1.784,6.976-3.462,10.4-5.262a172.906,172.906,0,0,0-15.837-33.7c-4.845,1.226-9.887,2.1-14.008,1.466.761-1.1,6.056-4.292,10.266-7.326A163.229,163.229,0,0,0,85.311,667.5a58.966,58.966,0,0,1-7.517,7.513c.253-.863,2.139-6.619,3.674-11.573-9.532-9.673-20.648-18.094-33.585-21.885C78.187,696.817,99.9,764.649,122.993,825.052Z" transform="translate(-45.42 -641.198)"/><path class="j" d="M47.383,641.02a35.933,35.933,0,0,1,5.961,9.031c22.205,42.757,38.5,88.287,54.714,133.655q9.04,25.283,18.078,50.565" transform="translate(-45.782 -641.585)"/><path class="j" d="M68.409,692a85.267,85.267,0,0,0,29.565-17.121" transform="translate(-30.592 -617.126)"/><path class="j" d="M71.7,701.8a59.539,59.539,0,0,0,31.358-17.584" transform="translate(-28.212 -610.378)"/><path class="j" d="M83.537,690.905c-4.089-.923-7.72-3.209-11.223-5.512q-16.036-10.541-31-22.6" transform="translate(-50.17 -625.859)"/><path class="j" d="M87.523,694.457c-17.892-4.986-33.354-16.1-48.258-27.188" transform="translate(-51.646 -622.623)"/><path class="j" d="M56.507,669.022a53.5,53.5,0,0,0-1.929-30.562" transform="translate(-40.584 -643.434)"/><path class="j" d="M57.824,674.037a201.948,201.948,0,0,0,2.665-31.775" transform="translate(-38.239 -640.688)"/><path class="j" d="M94.146,705.61c-6.864,3.422-14.9,3.879-22.481,2.689s-14.813-3.924-21.98-6.65" transform="translate(-44.118 -597.787)"/><path class="j" d="M95.332,708.8a59.854,59.854,0,0,1-44.441-3.44" transform="translate(-43.248 -595.102)"/><path class="j" d="M78.755,721.775a47.286,47.286,0,0,0,20.984-6.044,88.93,88.93,0,0,0,17.651-13.1" transform="translate(-23.119 -597.08)"/><path class="j" d="M100.964,723.294a40.365,40.365,0,0,1-23.58,3.448,63.848,63.848,0,0,1-22.617-8.178" transform="translate(-40.447 -585.567)"/></g></g></g><g transform="translate(43.143 0)"><g transform="translate(0 115.247)"><g transform="translate(0 85.381)"><g transform="translate(16.792)"><path class="k" d="M-15.016,666.163l-1.485,6.163h0a6.016,6.016,0,0,0,6.488.679l.381-.191,1.982-6.128Z" transform="translate(16.501 -666.163)"/></g><path class="l" d="M-9.6,670.047s-.5,6.628-14.094,9.666c-2.79.624-1.96,1.5-2.553,2.606l15.324,1.085,6.478-6.321,1.752,1.734,4.628-3.944s-.317-6.2-3.607-6.492C-4.458,669.116-9.6,670.047-9.6,670.047Z" transform="translate(26.25 -664.56)"/></g><path class="l" d="M.1,631.832l-16.635,70.592,10.3.729s27.669-62.616,31.432-81.335c.758-10.7-23.375-1.653-23.375-1.653Z" transform="translate(33.267 -616.592)"/></g><g transform="translate(39.353)"><path class="m" d="M30.8,586.618c-6.833,17.894-27.41,44.648-27.41,44.648L18.5,626.3l12.076-23.247S37.637,568.726,30.8,586.618Z" transform="translate(8.31 -526.731)"/><path class="n" d="M26.46,574.353s-.944-1.709,8.819-5.911c13.192,15.2,14.007,69.878,14.007,69.878l-37.121-2.627C13.1,604.588,26.46,574.353,26.46,574.353Z" transform="translate(14.647 -536.129)"/><g transform="translate(0 37.268)"><path class="k" d="M-3.259,607.853a1.642,1.642,0,0,1,.9-1.736l6.3-3.08a7.031,7.031,0,0,1,5.012-.45l6.542.725.785,1.1.952,5.9c-1.3-.412-2.051-.666-2.051-.666L11,609.459S2.626,616.2-.82,609.579c-.639,6.743-2.582,6.085-2.582,6.085Z" transform="translate(3.402 -548.923)"/><path class="n" d="M42.349,571.319s34.622,32.36,19.408,45.6c-14.828,12.907-54.462,17.83-54.462,17.83L6.223,624.579s28.149-6.6,36.511-14.959a4.853,4.853,0,0,0,.841-5.713C39.967,597.129,33.5,590.312,33.5,590.312" transform="translate(10.355 -571.319)"/><g transform="translate(17.603 18.614)"><path class="m" d="M37.184,596.36a4.275,4.275,0,0,1-.746,5.064c-3.813,3.812-13.528,7.486-21.962,10.048-.024.506-.047.537-.081,1.138,8.851-2.628,18.662-6.245,22.825-10.405a5.376,5.376,0,0,0,.939-6.366c-3.6-6.766-10.1-13.647-10.159-13.714l-.8.76C27.261,582.953,33.653,589.729,37.184,596.36Z" transform="translate(-1.344 -582.126)"/><path class="m" d="M52.782,600.7C37.2,607.741,14.789,611.989,6.818,613.074a7.941,7.941,0,0,0,.158,1.08c7.668-1.009,29.853-5.062,45.864-12.172A10.751,10.751,0,0,0,52.782,600.7Z" transform="translate(-6.818 -568.707)"/></g></g><g transform="translate(18.984)"><path class="o" d="M16.085,572.062l5.743,9.546,8.743-5.431-8.49-13.993Z" transform="translate(-1.504 -540.649)"/><path class="k" d="M10.773,579.786c1.242,3.188,3.646,6.521,7.065,6.588,2.826.057,4.292-2.64,5.782-5.041,4.5-7.258,7.391-15.8,4.831-23.993A10.851,10.851,0,0,0,25,551.715C19.119,547.3,11.816,553.63,9.875,559.2,7.736,565.351,8.465,573.854,10.773,579.786Z" transform="translate(-6.91 -549.283)"/><path class="p" d="M23.8,564.218a3.4,3.4,0,0,0,4.213.108c-1.037,3.279-.2,6.812.372,10.2s.8,7.17-1.194,9.973a9.648,9.648,0,0,1-7.029,3.645,24.392,24.392,0,0,1-8.071-.968c-1.647-.41-3.512-1.054-4.1-2.646-.517-1.392.195-2.952,1.157-4.082a34.992,34.992,0,0,0,3.006-3.276c1.049-1.6-.191-6.089-.191-6.089S19.787,573.126,23.8,564.218Z" transform="translate(-7.478 -539.18)"/><path class="q" d="M11.3,562.667a5.818,5.818,0,0,1-3.669,6.266,6.085,6.085,0,0,0,5.131,1.421q-.586-3.573-1.345-7.112" transform="translate(-7.613 -540.301)"/><path class="r" d="M10.118,560.064a1.71,1.71,0,0,0-1.516-.038" transform="translate(-6.91 -542.323)"/><g transform="translate(1.96 17.323)"><path class="s" d="M11.964,568.1a2.737,2.737,0,0,0,.355,2.077,2.136,2.136,0,0,0,2.029.7,4.189,4.189,0,0,0,1.977-1.025,8.308,8.308,0,0,0,2.136-2.785,3.219,3.219,0,0,0-.009-3.34C15.633,560.265,12.314,565.78,11.964,568.1Z" transform="translate(-6.48 -557.66)"/><path class="t" d="M10.932,563.85c.041.548.31.97.6.944s.493-.493.451-1.04-.312-.97-.6-.944S10.891,563.3,10.932,563.85Z" transform="translate(-7.191 -557.521)"/><path class="t" d="M8.822,563.754c.041.548.165,1.154.27,1.083a1.09,1.09,0,0,0,.453-1.04c-.041-.548-.312-.97-.6-.944S8.781,563.206,8.822,563.754Z" transform="translate(-8.758 -557.49)"/><path class="u" d="M14.827,560.976a3.27,3.27,0,0,0-3.357-1.137" transform="translate(-6.798 -559.739)"/><path class="v" d="M14.946,568.96a2.433,2.433,0,0,1-2.16,1.988,2.988,2.988,0,0,1-2.127-1.535c1.364.462,2.363.47,4.272-.458" transform="translate(-7.384 -553.081)"/></g><path class="p" d="M13.833,564.042c1,.067,2.256-.291,2.4-1.281a4.941,4.941,0,0,0,7.222.406c-.3,3.558.806,7.6,3.931,9.328a4.218,4.218,0,0,0,3.86.289,2.547,2.547,0,0,0,1.182-3.388c1.464.212,2.687-1.526,2.315-2.957a3.708,3.708,0,0,0-3.348-2.478,4.758,4.758,0,0,0-.222-6.116,6.829,6.829,0,0,0-6.125-1.936c-.562-2.043-2.585-3.329-4.578-4.049a11.679,11.679,0,0,0-7.842-.307C5.665,554.064,5.867,563.5,13.833,564.042Z" transform="translate(-7.62 -548.724)"/><path class="p" d="M11.706,554.269a5.069,5.069,0,0,1,1.833-2.659,9.14,9.14,0,0,1,8.881-1.333,10.393,10.393,0,0,1,6.085,6.738,3.709,3.709,0,0,1,.1,2.248,3.857,3.857,0,0,1-2.794,2.077C21.865,562.456,10.2,560.647,11.706,554.269Z" transform="translate(-4.764 -549.681)"/><path class="w" d="M12.684,555.023a1.943,1.943,0,0,1,2.594-1.752,1.945,1.945,0,0,1,.443,3.1,8.031,8.031,0,0,1,3.157-1.345,2.742,2.742,0,0,1,2.882,1.436c.432,1.07-.515,2.537-1.641,2.294" transform="translate(-3.962 -547.184)"/><path class="w" d="M9.361,553.789a3.266,3.266,0,0,0,2.1,4.439" transform="translate(-6.57 -546.714)"/><g transform="translate(15.971 20.132)"><path class="k" d="M17.24,563.03a2.742,2.742,0,0,0,.978,3.736,2.906,2.906,0,0,0,2.618-5.145A2.741,2.741,0,0,0,17.24,563.03Z" transform="translate(-16.892 -561.37)"/><path class="x" d="M18.387,562.08a1.385,1.385,0,0,1,1.366.567,1.493,1.493,0,0,1,.1,1.488,1.629,1.629,0,0,1-1.232.863" transform="translate(-15.812 -560.873)"/></g></g><path class="y" d="M30.239,568.484l2.293,3.439L20.8,588.768l-1.5-11.024Z" transform="translate(19.805 -536.098)"/></g><g transform="translate(27.653 99.589)"><g transform="translate(12.891 93.765)"><path class="k" d="M5.47,662.725l2.472,13.052h0a6.023,6.023,0,0,0,6.361-1.452l.3-.3L11.414,661.94Z" transform="translate(8.621 -661.94)"/><path class="p" d="M13.39,669.909s.05,6.724-13.548,9.761c-2.79.624-1.958,1.495-2.553,2.608l15.324,1.083,6.478-6.321,1.752,1.736,4.628-3.946s-1.585-6.294-4.876-6.581C17.811,668.983,13.39,669.909,13.39,669.909Z" transform="translate(2.711 -657.382)"/></g><path class="p" d="M60.8,609.774a5.251,5.251,0,0,1,4.873,4.973h0l.009.188A18.2,18.2,0,0,1,51,633.319a161.108,161.108,0,0,1-30.325,3.961,5.239,5.239,0,0,0-4.7,7.194c7.349,17.885,8.927,47.657,9.261,58.486a5.244,5.244,0,0,1-3.81,5.207l-.546.157a5.252,5.252,0,0,1-6.413-3.366L-9.261,633.073C-12.706,619.724-5.927,613.2-.219,612.4l27.989-4.852a5.33,5.33,0,0,1,1.1-.038Z" transform="translate(10.195 -607.502)"/></g><g transform="translate(15.393 64.656)"><path class="p" d="M-8.67,629.848l-8.643-42.184,2.165-.444,8.243,40.226,33.625-3.422.223,2.2Z" transform="translate(17.313 -587.22)"/></g></g></svg>