<svg xmlns="http://www.w3.org/2000/svg" width="459.726" height="336.071" viewBox="0 0 459.726 336.071"><defs><style>.a{fill:#ebebeb;}.b{fill:#fafafa;}.c{fill:#e0e0e0;}.d{fill:#f0f0f0;}.ae,.af,.ag,.e,.g,.j,.m,.n,.z{fill:#fff;}.e,.l,.o{opacity:0.1;}.ae,.f,.v{opacity:0.3;}.h{fill:#e6e6e6;}.i{fill:#f5f5f5;}.aa,.j{opacity:0.8;}.k{fill:#407bff;}.m{opacity:0.7;}.n,.u{opacity:0.5;}.p{fill:#263238;}.q{fill:#ffc3bd;}.ac,.af,.r,.s{opacity:0.2;}.r,.v{isolation:isolate;}.ag,.t{opacity:0.6;}.w{fill:#ed847e;}.x{fill:#2e353a;}.y{fill:#de5753;}.z{opacity:0.9;}.ab{fill:none;stroke:#407bff;stroke-miterlimit:10;}.ad{fill:#e8bfbf;}</style></defs><g transform="translate(0 -54.953)"><g transform="translate(0 54.953)"><rect class="a" width="30.454" height="0.23" transform="translate(383.208 315.87)"/><rect class="a" width="7.993" height="0.23" transform="translate(296.548 318.365)"/><rect class="a" width="17.646" height="0.23" transform="translate(364.641 307.332)"/><rect class="a" width="39.714" height="0.23" transform="translate(48.234 308.876)"/><rect class="a" width="5.823" height="0.23" transform="translate(96.134 308.876)"/><rect class="a" width="86.13" height="0.23" transform="translate(120.881 312.758)"/><path class="a" d="M221,315.017H43.455a5.255,5.255,0,0,1-5.248-5.248V60.2a5.254,5.254,0,0,1,5.248-5.247H221a5.254,5.254,0,0,1,5.247,5.247V309.769A5.254,5.254,0,0,1,221,315.017ZM43.455,55.183A5.023,5.023,0,0,0,38.437,60.2V309.769a5.024,5.024,0,0,0,5.018,5.018H221a5.023,5.023,0,0,0,5.017-5.018V60.2A5.023,5.023,0,0,0,221,55.183Z" transform="translate(-3.078 -54.953)"/><path class="a" d="M437.3,315.017H259.752a5.254,5.254,0,0,1-5.247-5.248V60.2a5.253,5.253,0,0,1,5.247-5.247H437.3a5.254,5.254,0,0,1,5.249,5.247V309.769A5.255,5.255,0,0,1,437.3,315.017ZM259.752,55.183a5.023,5.023,0,0,0-5.017,5.017V309.769a5.023,5.023,0,0,0,5.017,5.018H437.3a5.024,5.024,0,0,0,5.019-5.018V60.2a5.024,5.024,0,0,0-5.019-5.017Z" transform="translate(-20.5 -54.953)"/><rect class="a" width="459.726" height="0.23" transform="translate(0 301.07)"/><g transform="translate(35.416 6.775)"><g transform="translate(243.008)"><g transform="translate(60.296)"><rect class="b" width="65.514" height="222.241" transform="translate(14.723 8.323)"/><g transform="translate(0 67.199)"><rect class="c" width="81.907" height="141.629" transform="translate(0 19.792)"/><path class="c" d="M385.5,135.407v35.522h50.448V135.407Z" transform="translate(-369.772 -135.407)"/><rect class="b" width="10.486" height="10.486" transform="translate(5.243 25.035)"/><rect class="b" width="10.486" height="10.486" transform="translate(25.555 25.035)"/><rect class="b" width="10.486" height="10.486" transform="translate(45.866 25.035)"/><rect class="d" width="10.487" height="10.486" transform="translate(66.177 25.035)"/><rect class="d" width="10.486" height="10.487" transform="translate(5.243 44.088)"/><rect class="d" width="10.486" height="10.487" transform="translate(25.555 44.088)"/><rect class="b" width="10.486" height="10.487" transform="translate(45.866 44.088)"/><rect class="b" width="10.487" height="10.487" transform="translate(66.177 44.088)"/><rect class="d" width="10.486" height="10.486" transform="translate(5.243 63.142)"/><rect class="b" width="10.486" height="10.486" transform="translate(25.555 63.142)"/><rect class="b" width="10.486" height="10.486" transform="translate(45.866 63.142)"/><rect class="b" width="10.486" height="10.486" transform="translate(25.555 8.567)"/><rect class="d" width="10.486" height="10.486" transform="translate(45.866 8.567)"/><rect class="d" width="10.487" height="10.486" transform="translate(66.177 63.142)"/><rect class="b" width="10.486" height="10.486" transform="translate(5.243 82.195)"/><rect class="d" width="10.486" height="10.486" transform="translate(25.555 82.195)"/><rect class="d" width="10.486" height="10.486" transform="translate(45.866 82.195)"/><rect class="b" width="10.487" height="10.486" transform="translate(66.177 82.195)"/><rect class="d" width="10.486" height="10.486" transform="translate(5.243 101.248)"/><rect class="b" width="10.486" height="10.486" transform="translate(25.555 101.248)"/><rect class="b" width="10.486" height="10.486" transform="translate(45.866 101.248)"/><rect class="d" width="10.487" height="10.486" transform="translate(66.177 101.248)"/><rect class="d" width="10.486" height="10.486" transform="translate(5.243 120.302)"/><rect class="b" width="10.486" height="10.486" transform="translate(25.555 120.302)"/><rect class="d" width="10.486" height="10.486" transform="translate(45.866 120.302)"/><rect class="b" width="10.487" height="10.486" transform="translate(66.177 120.302)"/><rect class="b" width="10.486" height="10.487" transform="translate(5.243 139.355)"/><rect class="b" width="10.486" height="10.487" transform="translate(25.555 139.355)"/><rect class="d" width="10.486" height="10.487" transform="translate(45.866 139.355)"/><rect class="d" width="10.487" height="10.487" transform="translate(66.177 139.355)"/></g><rect class="e" width="65.514" height="222.241" transform="translate(14.593 8.323)"/><g class="f" transform="translate(29.96 8.323)"><path class="g" d="M444.716,71.373H423.829l-22.85,222.241h20.887Z" transform="translate(-400.978 -71.373)"/></g><rect class="c" width="66.611" height="5.636" transform="translate(14.174 5.505)"/><rect class="a" width="66.611" height="5.636" transform="translate(14.174 228.62)"/><g transform="translate(11.159)"><path class="a" d="M452.747,301.382H380.531V62.321h72.216Zm-66.71-5.5h61.205V67.826H386.037Z" transform="translate(-380.531 -62.321)"/></g></g><rect class="b" width="65.514" height="222.241" transform="translate(3.563 8.323)"/><g transform="translate(8.097 160.644)"><rect class="h" width="56.021" height="68.745"/><path class="h" d="M365.477,245.33h-20.2V252.5h20.2Z" transform="translate(-314.333 -237.706)"/><path class="b" d="M365.477,260.44h-20.2v7.172h20.2Z" transform="translate(-314.333 -238.923)"/><path class="h" d="M365.477,275.549h-20.2v7.172h20.2Z" transform="translate(-314.333 -240.14)"/><path class="b" d="M365.477,290.658h-20.2v7.172h20.2Z" transform="translate(-314.333 -241.357)"/><path class="b" d="M337.13,245.33h-20.2V252.5h20.2Z" transform="translate(-312.049 -237.706)"/><path class="b" d="M337.13,260.44h-20.2v7.172h20.2Z" transform="translate(-312.049 -238.923)"/><path class="h" d="M337.13,275.549h-20.2v7.172h20.2Z" transform="translate(-312.049 -240.14)"/><path class="b" d="M337.13,290.658h-20.2v7.172h20.2Z" transform="translate(-312.049 -241.357)"/></g><rect class="e" width="65.514" height="222.241" transform="translate(3.35 8.323)"/><g class="f" transform="translate(18.8 8.323)"><path class="g" d="M367,71.373H346.113l-22.85,222.241H344.15Z" transform="translate(-323.263 -71.373)"/></g><rect class="c" width="66.611" height="5.636" transform="translate(3.014 5.505)"/><rect class="a" width="66.611" height="5.636" transform="translate(3.014 228.62)"/><path class="a" d="M375.031,301.382H302.816V62.321h72.215Zm-66.71-5.5h61.205V67.826H308.321Z" transform="translate(-302.816 -62.321)"/></g><g transform="translate(71.36)"><rect class="b" width="65.514" height="222.241" transform="translate(3.563 8.323)"/><rect class="e" width="65.514" height="222.241" transform="translate(3.433 8.323)"/><g class="f" transform="translate(18.8 8.323)"><path class="g" d="M180.314,71.373H159.427l-22.85,222.241h20.887Z" transform="translate(-136.577 -71.373)"/></g><rect class="c" width="66.611" height="5.636" transform="translate(3.014 5.505)"/><rect class="a" width="66.611" height="5.636" transform="translate(3.014 228.62)"/><g transform="translate(0)"><path class="a" d="M188.345,301.382H116.13V62.321h72.215Zm-66.71-5.5H182.84V67.826H121.635Z" transform="translate(-116.13 -62.321)"/></g></g><rect class="b" width="65.514" height="222.241" transform="translate(3.563 8.323)"/><g transform="translate(8.491 102.435)"><rect class="h" width="50.705" height="42.55"/><rect class="b" width="6.492" height="6.492" transform="translate(3.246 5.303)"/><rect class="b" width="6.492" height="6.492" transform="translate(15.82 5.303)"/><rect class="b" width="6.492" height="6.492" transform="translate(28.394 5.303)"/><rect class="b" width="6.492" height="6.492" transform="translate(40.968 5.303)"/><rect class="b" width="6.492" height="6.492" transform="translate(3.246 17.098)"/><rect class="b" width="6.492" height="6.492" transform="translate(15.82 17.098)"/><rect class="b" width="6.492" height="6.492" transform="translate(28.394 17.098)"/><rect class="h" width="6.492" height="6.492" transform="translate(40.968 17.098)"/><rect class="h" width="6.492" height="6.492" transform="translate(3.246 28.894)"/><rect class="h" width="6.492" height="6.492" transform="translate(15.82 28.894)"/><rect class="b" width="6.492" height="6.492" transform="translate(28.394 28.894)"/><rect class="h" width="6.492" height="6.492" transform="translate(40.968 28.894)"/></g><g transform="translate(8.491 144.451)"><rect class="h" width="50.705" height="42.55"/><rect class="b" width="6.492" height="6.492" transform="translate(3.246 5.303)"/><rect class="b" width="6.492" height="6.492" transform="translate(15.82 5.303)"/><rect class="b" width="6.492" height="6.492" transform="translate(28.394 5.303)"/><rect class="b" width="6.492" height="6.492" transform="translate(40.968 5.303)"/><rect class="b" width="6.492" height="6.492" transform="translate(3.246 17.098)"/><rect class="b" width="6.492" height="6.492" transform="translate(15.82 17.098)"/><rect class="b" width="6.492" height="6.492" transform="translate(28.394 17.098)"/><rect class="h" width="6.492" height="6.492" transform="translate(40.968 17.098)"/><rect class="h" width="6.492" height="6.492" transform="translate(3.246 28.894)"/><rect class="h" width="6.492" height="6.492" transform="translate(15.82 28.894)"/><rect class="b" width="6.492" height="6.492" transform="translate(28.394 28.894)"/><rect class="h" width="6.492" height="6.492" transform="translate(40.968 28.894)"/></g><g transform="translate(8.491 186.467)"><rect class="h" width="50.705" height="42.55"/><rect class="b" width="6.492" height="6.492" transform="translate(3.246 5.303)"/><rect class="b" width="6.492" height="6.492" transform="translate(15.82 5.303)"/><rect class="b" width="6.492" height="6.492" transform="translate(28.394 5.303)"/><rect class="b" width="6.492" height="6.492" transform="translate(40.968 5.303)"/><rect class="b" width="6.492" height="6.492" transform="translate(3.246 17.098)"/><rect class="b" width="6.492" height="6.492" transform="translate(15.82 17.098)"/><rect class="b" width="6.492" height="6.492" transform="translate(28.394 17.098)"/><rect class="h" width="6.492" height="6.492" transform="translate(40.968 17.098)"/><rect class="h" width="6.492" height="6.492" transform="translate(3.246 28.894)"/><rect class="h" width="6.492" height="6.492" transform="translate(15.82 28.894)"/><rect class="b" width="6.492" height="6.492" transform="translate(28.394 28.894)"/><rect class="h" width="6.492" height="6.492" transform="translate(40.968 28.894)"/></g><rect class="e" width="65.514" height="222.241" transform="translate(2.692 8.323)"/><g class="f" transform="translate(18.8 8.323)"><path class="g" d="M102.7,71.373H81.816L58.966,293.615H79.853Z" transform="translate(-58.966 -71.373)"/></g><rect class="c" width="66.611" height="5.636" transform="translate(3.014 5.505)"/><rect class="a" width="66.611" height="5.636" transform="translate(3.014 228.62)"/><path class="a" d="M110.734,301.382H38.519V62.321h72.215Zm-66.71-5.5h61.205V67.826H44.024Z" transform="translate(-38.519 -62.321)"/></g><g transform="translate(195.385 150.949)"><g transform="translate(0 0)"><g transform="translate(0 4.057)"><g transform="translate(19.789 1.945)"><g transform="translate(6.873 0.149)"><path class="c" d="M243.359,344.237l-.737.091c-.046-.374-4.515-37.778,4.7-68.344,9.164-30.38,2.854-49.738,2.789-49.93l.7-.238c.065.195,6.449,19.777-2.782,50.382C238.863,306.612,243.313,343.864,243.359,344.237Z" transform="translate(-241.499 -225.816)"/></g><g transform="translate(10.592)"><path class="c" d="M251.756,230.207a11.6,11.6,0,0,0-6.212-3.83l.169-.724a12.34,12.34,0,0,1,6.612,4.077Z" transform="translate(-245.544 -225.654)"/></g><g transform="translate(17.835 7.659)"><rect class="c" width="2.439" height="0.742" transform="matrix(0.871, -0.492, 0.492, 0.871, 0, 1.2)"/></g><g transform="translate(6.46 14.942)"><path class="c" d="M250.6,251.855a17.653,17.653,0,0,0-9.546-9.261l.276-.69a18.4,18.4,0,0,1,9.95,9.653Z" transform="translate(-241.05 -241.905)"/></g><g transform="translate(9.432 39.878)"><path class="c" d="M248.865,277.409l-.742.009a10.2,10.2,0,0,0-3.841-7.81l.461-.582A10.948,10.948,0,0,1,248.865,277.409Z" transform="translate(-244.282 -269.026)"/></g><g transform="translate(11.669 49.797)"><path class="c" d="M247.406,284.252l-.691-.272a7.436,7.436,0,0,1,4.221-4.166l.263.694A6.685,6.685,0,0,0,247.406,284.252Z" transform="translate(-246.715 -279.814)"/></g><g transform="translate(6.978 82.895)"><path class="c" d="M242.185,325.063l-.572-.474c.9-1.09,1.586-5.235,1.953-7.463.087-.532.163-.987.225-1.315l.729.139c-.062.324-.135.77-.222,1.3C243.751,320.572,243.136,323.915,242.185,325.063Z" transform="translate(-241.613 -315.811)"/></g><g transform="translate(0 98.411)"><path class="c" d="M241.144,338.327a7.314,7.314,0,0,0-7.085-4.891l-.035-.741a8.075,8.075,0,0,1,7.825,5.4Z" transform="translate(-234.024 -332.687)"/></g><g transform="translate(7.566 111.803)"><rect class="c" width="7.851" height="0.742" transform="translate(0 5.854) rotate(-48.214)"/></g></g><path class="d" d="M250.252,305.2c1.185,3.836-7.083,11.14-7.083,11.14s-10.946-1.368-12.132-5.2,1.588-10.115,6.894-11.754S249.067,301.367,250.252,305.2Z" transform="translate(-213.973 -229.615)"/><path class="a" d="M260.762,254.13c-1.049,4.074-8.879,6.969-8.879,6.969s-5.46-6.316-4.411-10.39,5.378-8.565,9.047-7.619S261.81,250.055,260.762,254.13Z" transform="translate(-215.308 -225.103)"/><path class="i" d="M226.536,321.236c4.916,1.914,7.93,10.61,7.93,10.61s-8.1,4.368-13.017,2.453-10.12-7.308-8.715-10.915S221.62,319.321,226.536,321.236Z" transform="translate(-212.502 -231.318)"/><path class="h" d="M239.048,268.413a10.442,10.442,0,0,0,3.36,1.9,3.548,3.548,0,0,0,3.583-.845c1.052-1.212.77-3.088.107-4.549-1.313-2.894-6.158-7.806-9.88-6.4C230.846,260.554,236.652,266.636,239.048,268.413Z" transform="translate(-214.234 -226.336)"/><path class="a" d="M251.345,276.927c-.7.873-1.453,1.975-1.067,3.029a2.252,2.252,0,0,0,2.475,1.215,6.576,6.576,0,0,0,2.659-1.3c1.9-1.317,5.784-4.08,3.3-6.664C256.135,270.52,252.831,275.086,251.345,276.927Z" transform="translate(-215.536 -227.472)"/><path class="c" d="M234.035,237.324a1.953,1.953,0,0,0-1.772,1.437c-.162.941.619,1.764,1.375,2.346,1.883,1.452,7.543,5.368,8.807,1.59C243.638,239.127,236.537,237.047,234.035,237.324Z" transform="translate(-214.092 -224.647)"/><g transform="translate(24.63)"><path class="h" d="M245.036,223.785c-1.168.111-2.333-.313-3.5-.238s-2.47,1.016-2.209,2.16c.24,1.057,1.555,1.411,2.636,1.479a21.106,21.106,0,0,0,5.52-.382,1.692,1.692,0,0,0,1.12-.565c.474-.7-.28-1.631-1.085-1.878a11.474,11.474,0,0,1-2.447-.583Z" transform="translate(-239.289 -223.538)"/></g><g transform="translate(38.215 7.814)"><path class="d" d="M257.638,232.506c1.172.034,2.307-.466,3.479-.469s2.531.85,2.347,2.009c-.17,1.071-1.458,1.511-2.533,1.65a21.113,21.113,0,0,1-5.533-.017,1.7,1.7,0,0,1-1.155-.49c-.518-.665.172-1.647.959-1.947a11.419,11.419,0,0,0,2.4-.743Z" transform="translate(-254.064 -232.037)"/></g><g transform="translate(30.38 94.183)"><path class="d" d="M255.8,326.465a1.631,1.631,0,0,1,1-.493,1.133,1.133,0,0,1,1,.972,3.193,3.193,0,0,1-.188,1.481c-.794,2.659-9.719,21.918-11.772,18.459-1.214-2.044,1.769-8.816,2.649-10.732A28,28,0,0,1,255.8,326.465Z" transform="translate(-245.543 -325.972)"/></g></g><g transform="translate(35.296)"><path class="h" d="M250.89,224.163a10.051,10.051,0,0,1,2.882-4.276c1.408-1.023,3.662-1.1,4.687.306,1.146,1.572,0,3.962-1.756,4.8s-3.813.586-5.739.315l-.047-.859Z" transform="translate(-250.89 -219.126)"/></g></g><g transform="translate(1.429 117.126)"><path class="d" d="M254.159,379.652h0a86.463,86.463,0,0,1-28.873,0h0l-11.23-33.139h51.333Z" transform="translate(-214.056 -346.513)"/></g></g><g transform="translate(207.249 11.622)"><circle class="c" cx="19.064" cy="19.064" r="19.064" transform="translate(4.089 3.605)"/><circle class="a" cx="19.064" cy="19.064" r="19.064" transform="matrix(0.16, -0.987, 0.987, 0.16, 0, 37.636)"/><path class="j" d="M263.152,90.18a15.3,15.3,0,1,1-15.3-15.3A15.3,15.3,0,0,1,263.152,90.18Z" transform="translate(-225.981 -68.181)"/><g transform="translate(20.591 20.794)"><path class="c" d="M248.254,92.858a1.552,1.552,0,1,1,2.194,0A1.552,1.552,0,0,1,248.254,92.858Z" transform="translate(-247.8 -90.21)"/><g transform="translate(0.34 0.748)"><path class="c" d="M249.1,91.3l9.036-.274.028.932-8.186.248L249.1,106.44l-.93-.057Z" transform="translate(-248.17 -91.023)"/></g></g></g></g><g transform="translate(221.888 157.656)"><g transform="translate(63.852 55.138)"><g transform="translate(13.977)"><path class="k" d="M421.944,351.928l4.669-74.343a47.956,47.956,0,0,0-47.862-50.962h0a47.957,47.957,0,0,0-47.88,45.256l-4.9,86.832h88.747A7.236,7.236,0,0,0,421.944,351.928Z" transform="translate(-325.974 -226.622)"/><path class="l" d="M422.113,349.235l4.5-71.651a47.956,47.956,0,0,0-47.862-50.962h0a47.957,47.957,0,0,0-47.88,45.256l-4.9,86.832h86.05A10.109,10.109,0,0,0,422.113,349.235Z" transform="translate(-325.974 -226.622)"/></g><path class="k" d="M406.315,358.71l5.1-81.126a47.956,47.956,0,0,0-47.862-50.962h0a47.956,47.956,0,0,0-47.88,45.256l-4.9,86.832Z" transform="translate(-310.772 -226.622)"/></g><g transform="translate(157.806 187.23)"><path class="k" d="M416.074,384.249H417.3A1.4,1.4,0,0,0,418.608,383l1.809-12.717h-7.459L414.766,383A1.4,1.4,0,0,0,416.074,384.249Z" transform="translate(-412.957 -370.286)"/><path class="m" d="M416.074,384.249H417.3A1.4,1.4,0,0,0,418.608,383l1.809-12.717h-7.459L414.766,383A1.4,1.4,0,0,0,416.074,384.249Z" transform="translate(-412.957 -370.286)"/></g><g transform="translate(37.971 187.23)"><path class="k" d="M285.448,384.249h1.112A1.328,1.328,0,0,0,287.746,383l1.639-12.717h-6.763L284.262,383A1.328,1.328,0,0,0,285.448,384.249Z" transform="translate(-282.623 -370.286)"/><path class="n" d="M285.448,384.249h1.112A1.328,1.328,0,0,0,287.746,383l1.639-12.717h-6.763L284.262,383A1.328,1.328,0,0,0,285.448,384.249Z" transform="translate(-282.623 -370.286)"/></g><g transform="translate(72.557 187.23)"><path class="k" d="M323.064,384.249h1.112A1.328,1.328,0,0,0,325.362,383L327,370.286h-6.763L321.878,383A1.328,1.328,0,0,0,323.064,384.249Z" transform="translate(-320.239 -370.286)"/><path class="m" d="M323.064,384.249h1.112A1.328,1.328,0,0,0,325.362,383L327,370.286h-6.763L321.878,383A1.328,1.328,0,0,0,323.064,384.249Z" transform="translate(-320.239 -370.286)"/></g><g transform="translate(120.57 187.23)"><path class="k" d="M375.576,384.249H376.8A1.4,1.4,0,0,0,378.11,383l1.809-12.717h-7.459L374.268,383A1.4,1.4,0,0,0,375.576,384.249Z" transform="translate(-372.459 -370.286)"/><path class="n" d="M375.576,384.249H376.8A1.4,1.4,0,0,0,378.11,383l1.809-12.717h-7.459L374.268,383A1.4,1.4,0,0,0,375.576,384.249Z" transform="translate(-372.459 -370.286)"/></g><g transform="translate(31.948 98.715)"><path class="k" d="M327.329,331.89H294.635l-2.165-31.522-.462-6.766v-.01l-.213-3.114a21.8,21.8,0,0,0-.32-2.438c-.036-.176-.08-.362-.115-.538a2,2,0,0,0-.1-.393,18.872,18.872,0,0,0-4.981-8.46,16.02,16.02,0,0,0-10.209-4.6h30.75q.506-.029,1.012-.029a15.967,15.967,0,0,1,11.14,4.632,18.863,18.863,0,0,1,4.98,8.46,1.874,1.874,0,0,1,.1.393,20,20,0,0,1,.436,2.976l.212,3.114v.01Z" transform="translate(-276.073 -274.017)"/><path class="l" d="M327.329,331.89H294.635l-2.165-31.522-.462-6.766v-.01l-.213-3.114a21.8,21.8,0,0,0-.32-2.438c-.036-.176-.08-.362-.115-.538a2,2,0,0,0-.1-.393,18.872,18.872,0,0,0-4.981-8.46,16.02,16.02,0,0,0-10.209-4.6h30.75q.506-.029,1.012-.029a15.967,15.967,0,0,1,11.14,4.632,18.863,18.863,0,0,1,4.98,8.46,1.874,1.874,0,0,1,.1.393,20,20,0,0,1,.436,2.976l.212,3.114v.01Z" transform="translate(-276.073 -274.017)"/></g><g class="o" transform="translate(109.115 139.798)"><path d="M360,318.7h13.134c3.192,0,5.781,2.021,5.781,4.514v7.768c0,2.493-2.588,4.514-5.781,4.514H360Z" transform="translate(-360 -318.698)"/></g><g transform="translate(50.513 139.797)"><rect class="k" width="67.799" height="16.795" rx="5.425" transform="translate(67.799 16.795) rotate(180)"/></g><path class="k" d="M444.66,292.642A18.63,18.63,0,0,1,429.208,311l-3.388,44.8c-.294,3.809-3.055,6.728-6.365,6.728H383.389c3.31,0,6.072-2.918,6.365-6.728l1.811-23.913L393.143,311a18.585,18.585,0,0,0,13.366-9.8c.177-.323.334-.666.48-1.009a18.338,18.338,0,0,0,1.606-7.55,18.646,18.646,0,0,0-.392-3.8c-.1-.5-.225-1-.362-1.479a18.9,18.9,0,0,0-3.095-6.061l-.009-.01a18.663,18.663,0,0,0-14.767-7.276h36.065a18.663,18.663,0,0,1,14.767,7.276l.009.01A18.574,18.574,0,0,1,444.66,292.642Z" transform="translate(-252.769 -175.302)"/><path class="l" d="M444.66,292.642A18.63,18.63,0,0,1,429.208,311l-3.388,44.8c-.294,3.809-3.055,6.728-6.365,6.728H383.389c3.31,0,6.072-2.918,6.365-6.728l1.811-23.913L393.143,311a18.585,18.585,0,0,0,13.366-9.8c.177-.323.334-.666.48-1.009a18.338,18.338,0,0,0,1.606-7.55,18.646,18.646,0,0,0-.392-3.8c-.1-.5-.225-1-.362-1.479a18.9,18.9,0,0,0-3.095-6.061l-.009-.01a18.663,18.663,0,0,0-14.767-7.276h36.065a18.663,18.663,0,0,1,14.767,7.276l.009.01A18.574,18.574,0,0,1,444.66,292.642Z" transform="translate(-252.769 -175.302)"/><path class="k" d="M398.393,292.644c0,9.2-6.055,16.862-14.012,18.357l-3.071,44.8c-.265,3.813-2.767,6.732-5.774,6.732h-96.3c-3,0-5.5-2.919-5.774-6.732l-3.08-44.87c-7.8-1.637-13.69-9.2-13.69-18.286a19.846,19.846,0,0,1,3.112-10.767,17.521,17.521,0,0,1,6.231-5.892,15.431,15.431,0,0,1,7.547-1.972,15.992,15.992,0,0,1,11.139,4.635,18.816,18.816,0,0,1,4.98,8.458,2.209,2.209,0,0,1,.1.4,19.8,19.8,0,0,1,.433,2.973l.216,3.114v.008l2.622,38.289H361.7l2.839-41.411c.409-5.848,3.256-10.723,7.209-13.031a15.689,15.689,0,0,1,8.741-3.388,9.536,9.536,0,0,1,1.01-.044,15.292,15.292,0,0,1,7.338,1.866c.073.027.136.071.209.106a17.405,17.405,0,0,1,5.846,5.308l.008.009A19.848,19.848,0,0,1,398.393,292.644Z" transform="translate(-242.564 -175.301)"/><g transform="translate(14.129 98.712)"><path class="e" d="M360.115,362.532H279.237c-3,0-5.5-2.919-5.774-6.732l-3.08-44.87c-7.8-1.637-13.69-9.2-13.69-18.286a19.846,19.846,0,0,1,3.112-10.767,17.521,17.521,0,0,1,6.231-5.892,15.431,15.431,0,0,1,7.547-1.972,15.992,15.992,0,0,1,11.139,4.635,18.816,18.816,0,0,1,4.98,8.458,2.209,2.209,0,0,1,.1.4,19.8,19.8,0,0,1,.433,2.973l.216,3.114v.008l2.622,38.289H361.7Z" transform="translate(-256.693 -274.013)"/></g><g transform="translate(32.398 48.356)"><path class="p" d="M351.221,230.717c-1.6.885-3.064,1.682-4.573,2.458s-3.042,1.5-4.573,2.216c-3.089,1.411-6.217,2.748-9.441,3.926a101.484,101.484,0,0,1-9.893,3.131,62.758,62.758,0,0,1-10.626,1.9l-.759.07-.365-.028c-3.244-.374-6.122-.964-9.008-1.562s-5.749-1.277-8.582-2-5.645-1.476-8.453-2.284-5.606-1.642-8.385-2.592l1.279-6.385c5.78.373,11.554.953,17.275,1.52l8.541.856c2.812.27,5.689.51,8.209.607l-1.113.026a61.359,61.359,0,0,0,8.512-2.149c2.884-.943,5.765-1.967,8.635-3.206s5.733-2.5,8.567-3.847c1.447-.664,2.861-1.366,4.239-2.053s2.848-1.421,4.106-2.08Z" transform="translate(-276.562 -219.246)"/><path class="l" d="M351.221,230.717c-1.6.885-3.064,1.682-4.573,2.458s-3.042,1.5-4.573,2.216c-3.089,1.411-6.217,2.748-9.441,3.926a101.484,101.484,0,0,1-9.893,3.131,62.758,62.758,0,0,1-10.626,1.9l-.759.07-.365-.028c-3.244-.374-6.122-.964-9.008-1.562s-5.749-1.277-8.582-2-5.645-1.476-8.453-2.284-5.606-1.642-8.385-2.592l1.279-6.385c5.78.373,11.554.953,17.275,1.52l8.541.856c2.812.27,5.689.51,8.209.607l-1.113.026a61.359,61.359,0,0,0,8.512-2.149c2.884-.943,5.765-1.967,8.635-3.206s5.733-2.5,8.567-3.847c1.447-.664,2.861-1.366,4.239-2.053s2.848-1.421,4.106-2.08Z" transform="translate(-276.562 -219.246)"/></g><path class="q" d="M276.029,226.514a15.67,15.67,0,0,0-4.447-2.174l-2.38,9.294,7.13,3,.81-.992A6.33,6.33,0,0,0,276.029,226.514Z" transform="translate(-243.571 -171.3)"/><path class="q" d="M268.652,233.316l2.379-9.294-6.657-3.629-2.008,6.545Z" transform="translate(-243.021 -170.982)"/><path class="r" d="M333.409,240.741l.257-.013.114.023c3.512-.382,13.832-2.117,21.3-9.48-1.12-2.147-2.644-3.819-4.511-4.194C345.43,226.138,339.122,229.825,333.409,240.741Z" transform="translate(-248.743 -171.509)"/><path class="k" d="M339.98,287.817c8.807-23.783,3.013-45.656,4.12-57.763a13.828,13.828,0,0,1,11.158-12.3c6.021-1.164,13.451-2.467,20.547-3.424a13.9,13.9,0,0,1,15.76,13.961c-.621,35.882-12.116,59.529-12.116,59.529l-18.567-.08Z" transform="translate(-249.272 -170.483)"/><path class="j" d="M339.98,287.817c8.807-23.783,3.013-45.656,4.12-57.763a13.828,13.828,0,0,1,11.158-12.3c6.021-1.164,13.451-2.467,20.547-3.424a13.9,13.9,0,0,1,15.76,13.961c-.621,35.882-12.116,59.529-12.116,59.529l-18.567-.08Z" transform="translate(-249.272 -170.483)"/><g transform="translate(0 111.756)"><path class="q" d="M263.153,382.54,260.8,398.017h7.482l4.911-15.477Z" transform="translate(-242.894 -295.799)"/><path class="p" d="M258.275,395.6l10-.234a.564.564,0,0,1,.627.548l.022,7.338a1.679,1.679,0,0,1-1.646,1.5c-3.476.026-5.13-.129-9.527-.024a112.761,112.761,0,0,1-13.989-.922c-3.56-.609-2.6-3.951-.988-4.005,7.27-.266,11.33-1.781,13.938-3.656A2.748,2.748,0,0,1,258.275,395.6Z" transform="translate(-241.326 -296.832)"/><path class="s" d="M262.332,388.747l.945-6.207h10.036l-2.417,7.738Z" transform="translate(-243.018 -295.799)"/><g transform="translate(18.308 0.009)"><path class="k" d="M329.027,288.21s-60.817.6-61.764,19.867C265.918,335.772,261.238,378,261.238,378l11.47,3.153s16.36-41.866,17-63.495c17.106-3.409,61.092,0,66.257-11.236a30.2,30.2,0,0,0,1.95-18.209Z" transform="translate(-261.238 -288.21)"/><path class="t" d="M329.027,288.21s-60.817.6-61.764,19.867C265.918,335.772,261.238,378,261.238,378l11.47,3.153s16.36-41.866,17-63.495c17.106-3.409,61.092,0,66.257-11.236a30.2,30.2,0,0,0,1.95-18.209Z" transform="translate(-261.238 -288.21)"/></g><path class="q" d="M321.558,389l4.061,10.5h8.2l-2.824-11.045Z" transform="translate(-247.789 -296.276)"/><path class="s" d="M331.6,390.991l-1.591-8.08L319.655,384.2l2.648,7.024Z" transform="translate(-247.635 -295.829)"/><path class="p" d="M322.185,396.685h10.464a.646.646,0,0,1,.69.594v.011l.512,7.844a1.62,1.62,0,0,1-1.632,1.577c-3.642-.06-5.389-.268-9.993-.268-2.825,0-8.539.278-12.453.278s-3.8-3.659-2.144-3.967c7.439-1.488,10.317-3.541,12.943-5.5A2.8,2.8,0,0,1,322.185,396.685Z" transform="translate(-246.579 -296.938)"/><path class="k" d="M348.073,288.209s-55.161,3.738-53.8,22.993c1.482,21.078,23.572,69.946,23.572,69.946h11.153s-7.413-44.35-10.777-65.823c15.555,0,51.614,2.346,56.792-8.917a30.14,30.14,0,0,0,1.939-18.209Z" transform="translate(-245.589 -288.2)"/><path class="u" d="M348.073,288.209s-55.161,3.738-53.8,22.993c1.482,21.078,23.572,69.946,23.572,69.946h11.153s-7.413-44.35-10.777-65.823c15.555,0,51.614,2.346,56.792-8.917a30.14,30.14,0,0,0,1.939-18.209Z" transform="translate(-245.589 -288.2)"/></g><path class="q" d="M361.3,202.373c1.273,4.908,1.671,11.019-5.189,13.56-1.9,3.032-2.836,6.228,4.5,5.09a22.554,22.554,0,0,0,14.793-8.369c-4.39-3.837-3.587-15.622-2.477-22.272Z" transform="translate(-250.463 -168.565)"/><g transform="translate(88.519 42.739)"><path class="p" d="M359.14,213.137c-6.292,1.082-11.475,5.949-14.252,11.7s-3.443,12.295-3.391,18.679.781,12.758.612,19.141c-.195,7.376-1.974,12.57-4.51,19.5,0,1.648,2.492,2.577,4.606,3,4.391-9.592,7.279-18.76,6.974-29.3-.221-7.65-.33-16.362.917-23.913,1.228-7.437,10.271-17.388,9.839-18.745Z" transform="translate(-337.6 -213.137)"/></g><path class="v" d="M367.273,206.575a6.13,6.13,0,0,1-4.651,1.127,21.824,21.824,0,0,0-.259-3.566l7.61-6.253a16.459,16.459,0,0,1,.322,2.461A6.97,6.97,0,0,1,367.273,206.575Z" transform="translate(-251.075 -169.169)"/><g transform="translate(95.09)"><path class="q" d="M354.7,171.7c-8.052,4.545-8.134,17.412-5.654,24.847a11.146,11.146,0,0,0,19.525,3.276c3.932-4.978,3.367-10,3.174-18.635S362.755,167.154,354.7,171.7Z" transform="translate(-344.977 -166.927)"/><path class="r" d="M357.435,196.173c-2.594,1.11-5.438,2.555-8.056,2.243a11.135,11.135,0,0,0,19.338,2.765c3.217-4.072,4.234-6.832,3.287-14.262C366.983,192.821,362.983,193.8,357.435,196.173Z" transform="translate(-345.119 -168.286)"/><path class="p" d="M366.508,174.657a7.34,7.34,0,0,0,.817,8.8c.726.76,1.616,1.355,2.318,2.14a6.3,6.3,0,0,1,1.579,4.465,4.614,4.614,0,0,1,4.365-3.886q-1.638,5.057-3.276,10.116a13.989,13.989,0,0,0,7.987-11.031C381,178.765,372.941,164.771,366.508,174.657Z" transform="translate(-346.41 -167.022)"/><path class="p" d="M346.068,174.78a5.5,5.5,0,0,0-1.282,2.4,2.247,2.247,0,0,0,.968,2.379,3.4,3.4,0,0,0,2.184.1l7.341-1.276c4.21-.732,8.424-1.465,12.58-2.46,1.866-.447,3.962-1.149,4.7-2.92,2.383-5.746-7.793-6.493-11.187-6.329A21.946,21.946,0,0,0,346.068,174.78Z" transform="translate(-344.746 -166.654)"/><path class="q" d="M374.987,185.915c-2.416.544-3.442,4.011-3.373,6.235.016,2.521,1.868,4.168,3.967,2.646a7.784,7.784,0,0,0,3.018-4.854C379.027,187.555,377.4,185.369,374.987,185.915Z" transform="translate(-346.91 -168.198)"/><path class="w" d="M356.547,195.051a2.969,2.969,0,0,1-2.5.38c.931-2.074.807-1.606,1.09-5.144Z" transform="translate(-345.495 -168.557)"/><path class="p" d="M361.021,182.8a4.888,4.888,0,0,0-3.6-.919h0l-.024,0a.392.392,0,0,1-.448-.329.438.438,0,0,1,.348-.485c1.286-.195,3.431.193,4.3,1.159l.008.009a.412.412,0,0,1-.037.58.584.584,0,0,1-.181.115A.4.4,0,0,1,361.021,182.8Z" transform="translate(-345.729 -167.811)"/><path class="p" d="M348.418,184.633l-.026-.016a.393.393,0,0,1-.108-.545,4.317,4.317,0,0,1,3.156-2.165h.029a.385.385,0,0,1,.384.384.43.43,0,0,1-.4.443,3.442,3.442,0,0,0-2.481,1.746.437.437,0,0,1-.331.211A.366.366,0,0,1,348.418,184.633Z" transform="translate(-345.026 -167.882)"/><g transform="translate(10.332 26.357)"><path class="x" d="M355.983,199.2a35.945,35.945,0,0,1,2.434,3.537c.193-.077.386-.154.575-.243,2.588-1.12,3.325-2.681,3.357-4.071a5.8,5.8,0,0,0-.982-3.1c-.928,1.592-3.24,2.863-4.509,3.477C356.33,199.061,355.983,199.2,355.983,199.2Z" transform="translate(-355.983 -195.319)"/><path class="g" d="M356.934,198.8l.369.512a.773.773,0,0,0,.951.251c1.913-.9,3.181-1.86,3.642-2.879a.748.748,0,0,0-.029-.621,4.943,4.943,0,0,0-.423-.741C360.515,196.911,358.2,198.182,356.934,198.8Z" transform="translate(-356.06 -195.319)"/><path class="y" d="M359.255,202.761c2.588-1.12,3.325-2.681,3.357-4.071a7.589,7.589,0,0,0-2.565,1.937A3.638,3.638,0,0,0,359.255,202.761Z" transform="translate(-356.247 -195.591)"/></g><g transform="translate(5.744 19.659)"><path class="p" d="M351.6,188.043c-.45.082-.705.722-.571,1.411s.616,1.188,1.062,1.1.705-.722.571-1.411S352.049,187.96,351.6,188.043Z" transform="translate(-350.993 -188.034)"/></g><g transform="translate(13.633 18.349)"><path class="p" d="M360.18,186.619c-.45.082-.705.722-.571,1.411s.616,1.188,1.063,1.1.705-.721.57-1.411C361.123,187.039,360.629,186.536,360.18,186.619Z" transform="translate(-359.573 -186.61)"/></g><g transform="translate(2.87 19.715)"><path class="z" d="M347.867,191.947l5.8-1.3.1,2.462-5.392,1.29Z" transform="translate(-347.867 -188.301)"/><g class="aa" transform="translate(7.57)"><path class="z" d="M356.1,190.051l.694,2.264,7.441-1.6-.441-2.617Z" transform="translate(-356.1 -188.096)"/></g><g transform="translate(5.802 1.955)"><path class="p" d="M354.214,191.516l-.036-.906,1.767-.387.262.856Z" transform="translate(-354.178 -190.222)"/></g></g></g><path class="p" d="M351.92,286.613s10.472,4.057,12.862,4.853a30.6,30.6,0,0,0,8.62,1.977,10.6,10.6,0,0,0,8.154-3.047c2.5-2.665,3.277-6.717,3.93-10.507q2.881-16.728,5.76-33.455c.947-5.5,3.336-13.761,3.133-16.91-.374-5.79-4.064-12.626-13.453-16.392-3.647-1.464-7.249-.9-10.324,2.777-1.834,2.195-7.186,7.469-8.5,16.763-1.055,7.449-2.686,17.1-2.585,24.662C359.647,267.26,355.693,279.805,351.92,286.613Z" transform="translate(-250.234 -170.337)"/><g transform="translate(94.9 51.662)"><path class="p" d="M393.278,227.309c1.068,9.694-4.289,34.124-5.325,35.587-4.39,14.174-16.462,6.535-18.212,5.882C366.7,267.653,363.6,265.46,360.7,264c-5.621-2.791-10.939-5.037-16.165-8.51l2.944-5.81c5.723,1.956,21.936,6.141,24.607,6.794,1.162.3,5.675,2.673,5.627-.451.641-1.038,1.524-21.271,3.464-28.424a6.071,6.071,0,0,1,1.128-2.2l.177-.221a6.2,6.2,0,0,1,10.792,2.135Z" transform="translate(-344.54 -222.841)"/><path class="e" d="M393.278,227.309c1.068,9.694-4.289,34.124-5.325,35.587-4.39,14.174-16.462,6.535-18.212,5.882C366.7,267.653,363.6,265.46,360.7,264c-5.621-2.791-10.939-5.037-16.165-8.51l2.944-5.81c5.723,1.956,21.936,6.141,24.607,6.794,1.162.3,5.675,2.673,5.627-.451.641-1.038,1.524-21.271,3.464-28.424a6.071,6.071,0,0,1,1.128-2.2l.177-.221a6.2,6.2,0,0,1,10.792,2.135Z" transform="translate(-344.54 -222.841)"/></g><g transform="translate(64.258 54.428)"><g transform="translate(0 0.39)"><g transform="translate(0.961 2.398)"><path class="p" d="M342.579,264.392H315.365l-3.107-35.511h27.214Z" transform="translate(-312.258 -228.881)"/><path class="n" d="M342.579,264.392H315.365l-3.107-35.511h27.214Z" transform="translate(-312.258 -228.881)"/></g><path class="k" d="M341.534,264.2H314.32l-3.107-35.511h27.214Z" transform="translate(-311.213 -226.468)"/><path class="j" d="M341.534,264.2H314.32l-3.107-35.511h27.214Z" transform="translate(-311.213 -226.468)"/><path class="k" d="M331.411,230.711H319.965l-.388-4.437h11.446Z" transform="translate(-311.887 -226.273)"/></g><g transform="translate(7.69)"><path class="k" d="M319.576,226.239l1.128-.39h11.851l.16,1.889-.881,1.022-.059,1.543-.366.373-.388-4.437Z" transform="translate(-319.576 -225.849)"/><path class="u" d="M319.576,226.239l1.128-.39h11.851l.16,1.889-.881,1.022-.059,1.543-.366.373-.388-4.437Z" transform="translate(-319.576 -225.849)"/></g></g><path class="q" d="M349.281,253.8l.622,3.318c-1.47,3.829-9.909,2.817-9.909,2.817l-.014-9.808,7.44,1.729A2.476,2.476,0,0,1,349.281,253.8Z" transform="translate(-249.272 -173.377)"/><path class="q" d="M339.179,250.129l.042,9.83-7.468.185L330.04,251.5Z" transform="translate(-248.472 -173.377)"/><g transform="translate(117.551 98.712)"><path class="k" d="M370.763,331.888l2.839-41.411c.409-5.848,3.256-10.723,7.209-13.031a15.689,15.689,0,0,1,8.741-3.388,9.536,9.536,0,0,1,1.01-.044,15.292,15.292,0,0,1,7.338,1.866c.073.027.136.071.209.106a17.405,17.405,0,0,1,5.846,5.308l.008.009a19.848,19.848,0,0,1,3.489,11.341c0,9.2-6.055,16.862-14.012,18.357l-3.071,44.8c-.265,3.813-2.767,6.732-5.774,6.732H369.175Z" transform="translate(-369.175 -274.013)"/><path class="e" d="M370.763,331.888l2.839-41.411c.409-5.848,3.256-10.723,7.209-13.031a15.689,15.689,0,0,1,8.741-3.388,9.536,9.536,0,0,1,1.01-.044,15.292,15.292,0,0,1,7.338,1.866c.073.027.136.071.209.106a17.405,17.405,0,0,1,5.846,5.308l.008.009a19.848,19.848,0,0,1,3.489,11.341c0,9.2-6.055,16.862-14.012,18.357l-3.071,44.8c-.265,3.813-2.767,6.732-5.774,6.732H369.175Z" transform="translate(-369.175 -274.013)"/></g></g><g transform="translate(127.79 105.775)"><g transform="translate(5.678 12.36)"><path class="ab" d="M212.409,127.283v38.442a3.634,3.634,0,0,1-3.632,3.632H169.36l-14.068,10.877a2.685,2.685,0,0,1-4.3-2.152v-8.726h-2.2a3.634,3.634,0,0,1-3.632-3.632V127.274a3.622,3.622,0,0,1,3.632-3.6h60A3.614,3.614,0,0,1,212.409,127.283Z" transform="translate(-145.16 -123.67)"/></g><g transform="translate(0 6.94)"><rect class="k" width="7.512" height="0.919" transform="translate(28.548 0.009)"/><path class="k" d="M139.9,128.615h-.919v-4.533a6.316,6.316,0,0,1,6.316-6.307h16.762v.919H145.3a5.4,5.4,0,0,0-5.4,5.388Z" transform="translate(-138.985 -117.775)"/></g><g transform="translate(46.304)"><path class="k" d="M197.093,150.75a2.9,2.9,0,0,1-2.908-3.111l0-.04c.981-11.211,9.864-12.237,10.979-24.988.321-3.664-1.022-5.056-3.588-5.056s-4.152,1.392-4.472,5.056l-.185,2.1a3.8,3.8,0,0,1-3.781,3.465h0a3.8,3.8,0,0,1-3.782-4.126l.081-.93c.718-8.207,5.159-12.9,13-12.9s11.46,4.69,10.742,12.9c-1.167,13.337-10.873,15.389-11.693,24.768l-.011.137a2.928,2.928,0,0,1-2.906,2.721Zm3.978,7.8,0,.029a3.868,3.868,0,0,1-3.854,3.532h0a3.869,3.869,0,0,1-3.854-4.206l0-.029a3.868,3.868,0,0,1,3.854-3.532h0A3.869,3.869,0,0,1,201.071,158.547Z" transform="translate(-189.345 -110.227)"/></g><g transform="translate(20.741 27.847)"><path class="k" d="M184.492,144.192h-21.11a1.839,1.839,0,0,1,0-3.678h21.11a1.839,1.839,0,1,1,0,3.678Z" transform="translate(-161.543 -140.514)"/><g transform="translate(0 7.276)"><path class="k" d="M181.566,152.1H163.382a1.839,1.839,0,1,1,0-3.678h18.184a1.839,1.839,0,1,1,0,3.678Z" transform="translate(-161.543 -148.427)"/></g><g transform="translate(0 14.55)"><path class="k" d="M178.64,160.017H163.382a1.839,1.839,0,0,1,0-3.678H178.64a1.839,1.839,0,0,1,0,3.678Z" transform="translate(-161.543 -156.339)"/></g></g></g><g transform="translate(41.835 173.994)"><g transform="translate(61.173 127.889)"><path class="k" d="M131.386,323.515H117.948c-3.267,0-5.916,2.068-5.916,4.618v7.947c0,2.551,2.649,4.618,5.916,4.618h13.438Z" transform="translate(-112.032 -323.515)"/></g><g transform="translate(13.327 39.989)"><path class="k" d="M64.76,353.222l-4.669-74.344a47.956,47.956,0,0,1,47.862-50.962h0a47.957,47.957,0,0,1,47.88,45.256l4.9,86.833H71.982A7.236,7.236,0,0,1,64.76,353.222Z" transform="translate(-59.994 -227.915)"/><path class="l" d="M64.59,350.528l-4.5-71.651a47.956,47.956,0,0,1,47.862-50.962h0a47.957,47.957,0,0,1,47.88,45.256l4.9,86.833H74.679A10.109,10.109,0,0,1,64.59,350.528Z" transform="translate(-59.994 -227.915)"/><path class="k" d="M80.387,360l-5.095-81.127a47.956,47.956,0,0,1,47.862-50.962h0a47.957,47.957,0,0,1,47.88,45.256l4.9,86.833Z" transform="translate(-61.219 -227.915)"/></g><g transform="translate(26.625 172.082)"><path class="k" d="M78.8,385.542H77.574a1.4,1.4,0,0,1-1.307-1.247L74.458,371.58h7.46L80.109,384.3A1.4,1.4,0,0,1,78.8,385.542Z" transform="translate(-74.458 -371.58)"/><path class="m" d="M78.8,385.542H77.574a1.4,1.4,0,0,1-1.307-1.247L74.458,371.58h7.46L80.109,384.3A1.4,1.4,0,0,1,78.8,385.542Z" transform="translate(-74.458 -371.58)"/></g><g transform="translate(147.158 172.082)"><path class="k" d="M209.487,385.542h-1.112a1.329,1.329,0,0,1-1.186-1.247L205.55,371.58h6.762L210.672,384.3A1.327,1.327,0,0,1,209.487,385.542Z" transform="translate(-205.55 -371.58)"/><path class="n" d="M209.487,385.542h-1.112a1.329,1.329,0,0,1-1.186-1.247L205.55,371.58h6.762L210.672,384.3A1.327,1.327,0,0,1,209.487,385.542Z" transform="translate(-205.55 -371.58)"/></g><g transform="translate(112.572 172.082)"><path class="k" d="M171.87,385.542h-1.111a1.328,1.328,0,0,1-1.186-1.247l-1.639-12.716H174.7L173.056,384.3A1.327,1.327,0,0,1,171.87,385.542Z" transform="translate(-167.934 -371.58)"/><path class="m" d="M171.87,385.542h-1.111a1.328,1.328,0,0,1-1.186-1.247l-1.639-12.716H174.7L173.056,384.3A1.327,1.327,0,0,1,171.87,385.542Z" transform="translate(-167.934 -371.58)"/></g><g transform="translate(63.861 172.082)"><path class="k" d="M119.3,385.542h-1.227a1.4,1.4,0,0,1-1.308-1.247l-1.808-12.716h7.459L120.607,384.3A1.4,1.4,0,0,1,119.3,385.542Z" transform="translate(-114.956 -371.58)"/><path class="n" d="M119.3,385.542h-1.227a1.4,1.4,0,0,1-1.308-1.247l-1.808-12.716h7.459L120.607,384.3A1.4,1.4,0,0,1,119.3,385.542Z" transform="translate(-114.956 -371.58)"/></g><g transform="translate(108.687 83.567)"><path class="k" d="M163.708,333.183H196.4l2.166-31.522.462-6.766v-.01l.213-3.114a21.545,21.545,0,0,1,.319-2.437c.036-.177.08-.362.116-.539a1.924,1.924,0,0,1,.1-.392,18.862,18.862,0,0,1,4.981-8.461,16.019,16.019,0,0,1,10.208-4.6H184.215q-.506-.03-1.012-.03a15.969,15.969,0,0,0-11.141,4.632,18.869,18.869,0,0,0-4.98,8.461,1.922,1.922,0,0,0-.1.392,20.015,20.015,0,0,0-.435,2.976l-.213,3.114v.01Z" transform="translate(-163.708 -275.31)"/><path class="l" d="M163.708,333.183H196.4l2.166-31.522.462-6.766v-.01l.213-3.114a21.545,21.545,0,0,1,.319-2.437c.036-.177.08-.362.116-.539a1.924,1.924,0,0,1,.1-.392,18.862,18.862,0,0,1,4.981-8.461,16.019,16.019,0,0,1,10.208-4.6H184.215q-.506-.03-1.012-.03a15.969,15.969,0,0,0-11.141,4.632,18.869,18.869,0,0,0-4.98,8.461,1.922,1.922,0,0,0-.1.392,20.015,20.015,0,0,0-.435,2.976l-.213,3.114v.01Z" transform="translate(-163.708 -275.31)"/></g><g class="o" transform="translate(63.861 124.649)"><path d="M133.87,319.991H120.737c-3.193,0-5.782,2.021-5.782,4.514v7.768c0,2.493,2.588,4.514,5.782,4.514H133.87Z" transform="translate(-114.955 -319.991)"/></g><g transform="translate(73.579 124.649)"><rect class="k" width="67.799" height="16.795" rx="5.425"/></g><path class="k" d="M45.5,293.935A18.629,18.629,0,0,0,60.952,312.3l3.388,44.8c.293,3.809,3.055,6.728,6.365,6.728H106.77c-3.31,0-6.071-2.918-6.364-6.728l-1.812-23.913L97.018,312.3a18.583,18.583,0,0,1-13.367-9.8c-.177-.324-.333-.667-.48-1.009a18.345,18.345,0,0,1-1.605-7.551,18.651,18.651,0,0,1,.392-3.8c.1-.5.225-1,.361-1.478a18.908,18.908,0,0,1,3.095-6.062l.01-.009a18.657,18.657,0,0,1,14.766-7.277H64.125a18.66,18.66,0,0,0-14.767,7.277l-.01.009A18.575,18.575,0,0,0,45.5,293.935Z" transform="translate(-45.5 -191.743)"/><path class="l" d="M45.5,293.935A18.629,18.629,0,0,0,60.952,312.3l3.388,44.8c.293,3.809,3.055,6.728,6.365,6.728H106.77c-3.31,0-6.071-2.918-6.364-6.728l-1.812-23.913L97.018,312.3a18.583,18.583,0,0,1-13.367-9.8c-.177-.324-.333-.667-.48-1.009a18.345,18.345,0,0,1-1.605-7.551,18.651,18.651,0,0,1,.392-3.8c.1-.5.225-1,.361-1.478a18.908,18.908,0,0,1,3.095-6.062l.01-.009a18.657,18.657,0,0,1,14.766-7.277H64.125a18.66,18.66,0,0,0-14.767,7.277l-.01.009A18.575,18.575,0,0,0,45.5,293.935Z" transform="translate(-45.5 -191.743)"/><path class="k" d="M84.721,293.937c0,9.2,6.055,16.862,14.011,18.357l3.072,44.8c.264,3.813,2.767,6.733,5.773,6.733h96.3c3,0,5.5-2.92,5.774-6.733l3.079-44.87c7.8-1.637,13.69-9.2,13.69-18.286a19.84,19.84,0,0,0-3.111-10.766,17.5,17.5,0,0,0-6.231-5.892,15.437,15.437,0,0,0-7.547-1.973,15.993,15.993,0,0,0-11.139,4.636,18.8,18.8,0,0,0-4.98,8.457,2.133,2.133,0,0,0-.1.4,19.564,19.564,0,0,0-.433,2.973l-.217,3.114v.008l-2.622,38.289H121.411l-2.838-41.411c-.409-5.848-3.256-10.723-7.209-13.031a15.69,15.69,0,0,0-8.742-3.388,9.772,9.772,0,0,0-1.01-.044,15.3,15.3,0,0,0-7.337,1.866,2.131,2.131,0,0,0-.209.107,17.389,17.389,0,0,0-5.847,5.308l-.008.008A19.854,19.854,0,0,0,84.721,293.937Z" transform="translate(-48.659 -191.743)"/><g transform="translate(72.752 83.563)"><path class="e" d="M126.214,363.826h80.878c3,0,5.5-2.92,5.774-6.733l3.079-44.87c7.8-1.637,13.69-9.2,13.69-18.286a19.84,19.84,0,0,0-3.111-10.766,17.5,17.5,0,0,0-6.231-5.892,15.437,15.437,0,0,0-7.547-1.973,15.993,15.993,0,0,0-11.139,4.636,18.8,18.8,0,0,0-4.98,8.457,2.133,2.133,0,0,0-.1.4,19.564,19.564,0,0,0-.433,2.973l-.217,3.114v.008l-2.622,38.289H124.625Z" transform="translate(-124.625 -275.306)"/></g><g transform="translate(55.479)"><g transform="translate(9.188 94.181)"><path class="q" d="M153.13,387.173l7.846,2.173,7.037-18.438-7.839-2.174Z" transform="translate(-118.836 -293.449)"/><path class="p" d="M164.252,388.217a4.112,4.112,0,0,0-2.515-1.527l-8.08-1.57a.734.734,0,0,0-.869.5l-2.5,7.368a1.613,1.613,0,0,0,.987,2.058l.053.017c2.977,1.174,4.992.77,9.651,1.671,2.87.559,8.9,2.468,12.926,2.3s4.016-4.15,2.323-4.443C170.217,393.644,165.618,390.034,164.252,388.217Z" transform="translate(-118.6 -294.768)"/><g class="ac" transform="translate(37.701 75.286)"><path d="M168.312,370.916l-3.629,9.506-7.846-2.18,3.629-9.506Z" transform="translate(-156.836 -368.736)"/></g><path class="k" d="M138.839,294.382s47.22-.258,45.747,15.559c-.995,10.677-6.124,21.911-10.124,32.752-5.8,15.711-10.826,29.4-10.826,29.4l-10.761-3.722s9.663-45.441,16.177-50.091H129.125c-13.213,0-18.924-14.511-6.061-31.424C130.927,286.86,138.839,294.382,138.839,294.382Z" transform="translate(-115.832 -286.854)"/><path class="t" d="M138.839,294.382s47.22-.258,45.747,15.559c.732,9.824-20.95,62.15-20.95,62.15l-10.761-3.722s9.663-45.441,16.177-50.091H129.125c-13.213,0-18.924-14.511-6.061-31.424C130.927,286.86,138.839,294.382,138.839,294.382Z" transform="translate(-115.832 -286.854)"/></g><g transform="translate(31.518 42.671)"><path class="p" d="M174.095,261.117c-5.808,5.31-17.223-7.251-19.057-8.747-3.939-3.211-15.507-14.013-14.9-17.764,1.8-11.04,19.93,4.6,25.158,15.373Z" transform="translate(-140.119 -230.832)"/></g><path class="k" d="M120.755,227.623c-2.912.619-6.067-.434-8.114,1.726s-2.906,5.2-3.205,8.161a54.458,54.458,0,0,0,.644,12.374q.961,7.468,1.923,14.936a44.677,44.677,0,0,1-.469,12.3l0,.025a1.979,1.979,0,0,0,1.127,2.14s22.609.779,29.182.53c3.5-.132,1.1-9.322,2.169-14.681.237-1.189,2.578-6.1,2.923-7.361,1.624-5.934.548-10.009-.958-15.975-1.093-4.328-1.542-10.574-3.75-11.053C138.292,229.891,128.869,225.9,120.755,227.623Z" transform="translate(-106.117 -187.868)"/><path class="j" d="M120.755,227.623c-2.912.619-6.067-.434-8.114,1.726s-2.906,5.2-3.205,8.161a54.458,54.458,0,0,0,.644,12.374q.961,7.468,1.923,14.936a44.677,44.677,0,0,1-.469,12.3l0,.025a1.979,1.979,0,0,0,1.127,2.14s22.609.779,29.182.53c3.5-.132,1.1-9.322,2.169-14.681.237-1.189,2.578-6.1,2.923-7.361,1.624-5.934.548-10.009-.958-15.975-1.093-4.328-1.542-10.574-3.75-11.053C138.292,229.891,128.869,225.9,120.755,227.623Z" transform="translate(-106.117 -187.868)"/><path class="p" d="M117.348,232c-.3-.458-8.25-7.153-9.7.582-2.015,10.766,2.152,21.361,2.152,21.361s.958,11.652,4.338,12.814,6.606,1.451,7.745-.541a11.85,11.85,0,0,0,1.138-4.978S122.618,240.045,117.348,232Z" transform="translate(-105.941 -188.003)"/><path class="ad" d="M124.058,211.59c.824,4.958,1.515,14.015-2.032,17.207a46.437,46.437,0,0,1,14.337,12.436,7.49,7.49,0,0,0,2.629-8.362,7.308,7.308,0,0,0-3.647-4.4c-3.362-1.85-3.04-5.312-2.118-8.567Z" transform="translate(-107.143 -186.611)"/><path class="r" d="M125.467,220.742l3.227,1.238a10.767,10.767,0,0,0,4.339.7h0a6.974,6.974,0,0,0,0,3.065,6.192,6.192,0,0,1-6.414-2.058A10.618,10.618,0,0,1,125.467,220.742Z" transform="translate(-107.42 -187.348)"/><path class="q" d="M212.045,369.615h8.784l-9.2-22.039-5.957,10.119Z" transform="translate(-113.881 -197.564)"/><path class="p" d="M220.138,369.075l-10.31-2.342a.721.721,0,0,0-.866.461l-2.875,7.928a1.583,1.583,0,0,0,1.079,1.961l.049.013c3.614.756,5.392.937,9.925,1.967,2.791.634,9.854,2.487,13.7,3.361s4.864-2.9,3.33-3.614c-6.874-3.183-10.6-6.227-12.6-8.818A2.487,2.487,0,0,0,220.138,369.075Z" transform="translate(-113.909 -199.105)"/><g class="ac" transform="translate(91.789 150.019)"><path d="M211.626,347.584l3.918,9.385-7.9,4.415L205.67,357.7Z" transform="translate(-205.67 -347.584)"/></g><path class="p" d="M111.451,283.909l-.95,3c-.125.231.14.474.531.489l34.056,1.033c.308,0,.559-.133.587-.328l.392-3.01c0-.209-.231-.391-.559-.4l-33.463-1.012A.628.628,0,0,0,111.451,283.909Z" transform="translate(-106.212 -192.416)"/><g transform="translate(0 89.027)"><g transform="translate(0.09)"><path class="k" d="M153.644,308.311c-11.19,4.767-23.333,9.537-29.932,9.537-13.219,0-24.961-9.545-12.444-31.249,7.863-.028,21.536.223,21.536.223s25.783-7.314,44.484-5.182a21.109,21.109,0,0,1,18.285,16.891c4.747,23.885,12.056,49.758,12.056,49.758l-9.406,6.4s-14.665-30.837-23.108-55.307C170.653,300.814,162.443,304.562,153.644,308.311Z" transform="translate(-105.937 -281.249)"/></g><path class="u" d="M195.566,298.53a21.109,21.109,0,0,0-18.285-16.891c-18.7-2.132-44.484,5.182-44.484,5.182s-13.673-.251-21.536-.223c-12.722,21.63-.775,31.249,12.444,31.249,6.6,0,18.742-4.769,29.932-9.537,8.8-3.75,17.009-7.5,21.472-8.927,8.442,24.469,23.108,55.307,23.108,55.307l9.406-6.4S200.313,322.416,195.566,298.53Z" transform="translate(-105.839 -281.249)"/></g><g transform="translate(69.271 107.172)"><path class="k" d="M189.852,311.081a87.929,87.929,0,0,1-1.383,9.148c-.041-.1-.084-.188-.119-.286-.014-.029-.021-.05-.035-.077-.042-.1-.07-.2-.119-.293-2.507-6.215-4.951-12.591-7.018-18.589a.545.545,0,0,1,.063.021V301C186.633,303.281,190.278,306.507,189.852,311.081Z" transform="translate(-181.179 -300.983)"/><path class="t" d="M189.852,311.081a87.929,87.929,0,0,1-1.383,9.148c-.041-.1-.084-.188-.119-.286-.014-.029-.021-.05-.035-.077-.042-.1-.07-.2-.119-.293-2.507-6.215-4.951-12.591-7.018-18.589a.545.545,0,0,1,.063.021V301C186.633,303.281,190.278,306.507,189.852,311.081Z" transform="translate(-181.179 -300.983)"/></g><g transform="translate(1.99)"><g transform="translate(0 5.073)"><path class="ad" d="M117.622,205.083c2.76,7.773,3.763,11.119,8.932,14.03,7.788,4.4,16.707-.714,16.322-9.155-.347-7.591-4.805-19.029-13.451-19.948a11.25,11.25,0,0,0-11.8,15.073Z" transform="translate(-108.723 -189.94)"/><path class="p" d="M132.864,205.186c.195.676.676,1.072,1.1.946s.588-.732.427-1.385-.675-1.065-1.1-.946S132.682,204.543,132.864,205.186Z" transform="translate(-110.001 -191.055)"/><path class="p" d="M140.719,202.712c.188.677.676,1.071,1.094.947s.589-.732.427-1.385-.675-1.065-1.1-.948S140.529,202.07,140.719,202.712Z" transform="translate(-110.633 -190.856)"/><path class="p" d="M140.982,201.353l1.418-.895S141.968,201.893,140.982,201.353Z" transform="translate(-110.66 -190.787)"/><path class="w" d="M137.906,204.431a18.077,18.077,0,0,0,3.475,3.454,2.824,2.824,0,0,1-2.176,1.061Z" transform="translate(-110.413 -191.108)"/><path class="p" d="M111.822,210.963a22.694,22.694,0,0,1,1.278,4.33,6,6,0,0,1-5.1,6.252,5.761,5.761,0,0,0,6.641-3,7.819,7.819,0,0,1-3.932,4.246,8.353,8.353,0,0,0,6.666-3.208l-1.309,3.354a14.335,14.335,0,0,0,5.193-5.441c.494-.915.862-2.114.217-2.928-.583-.736-1.669-.75-2.608-.769s-2.061-.236-2.405-1.11c-.332-.84.286-1.752.963-2.349s1.5-1.148,1.747-2.017a3.728,3.728,0,0,0-.129-1.895q-.622-2.542-1.245-5.084a5.236,5.236,0,0,0-.637-1.707c-1.85-2.754-3.887,1.284-4.565,2.661A12.034,12.034,0,0,0,111.822,210.963Z" transform="translate(-108.004 -190.646)"/><path class="ad" d="M117.025,214.265a6.462,6.462,0,0,0,4.272,2.476c2.253.279,3.044-1.817,2.141-3.764-.816-1.756-2.971-4.011-5.1-3.418S115.76,212.574,117.025,214.265Z" transform="translate(-108.674 -191.513)"/><path class="p" d="M132.649,199.229a.416.416,0,0,1-.34.345c-1.868.353-2.906,2.573-2.913,2.591a.41.41,0,1,1-.748-.338c.079-.079,1.225-2.63,3.5-3.065a.416.416,0,0,1,.479.327A.319.319,0,0,1,132.649,199.229Z" transform="translate(-109.664 -190.65)"/><g transform="translate(27.238 6.738)"><path class="p" d="M138.278,197.272a.435.435,0,0,0-.347.091c-.1.113-.436.3-.245.4,1.123.578,2.674,1.512,3.868,1.322.2-.041.68-.216.577-.358a.583.583,0,0,0-.548-.184c-.952.137-2.212-.756-3.1-1.215A.709.709,0,0,0,138.278,197.272Z" transform="translate(-137.629 -197.268)"/></g><path class="p" d="M133.142,203.825l1.42-.888S134.115,204.368,133.142,203.825Z" transform="translate(-110.029 -190.987)"/></g><g transform="translate(1.883 1.056)"><path class="p" d="M131.155,186.225c-3.142-.571-3.54-.779-6.727-.581a15.945,15.945,0,0,0-8.911,3.093,14.482,14.482,0,0,0-4.863,7.779,22.539,22.539,0,0,0-.236,9.267,6.014,6.014,0,0,0,1.78,3.875,23.676,23.676,0,0,1,.842-4.882,7.939,7.939,0,0,1,2.722-4.054,4.353,4.353,0,0,0,1.474-1.307,5.514,5.514,0,0,0,.329-1.67,5.139,5.139,0,0,1,2.147-3.151,17.341,17.341,0,0,1,3.468-1.785c3.868-1.672,8.092-2.624,11.662-4.863A16.763,16.763,0,0,0,131.155,186.225Z" transform="translate(-110.052 -185.571)"/></g><path class="p" d="M115.4,198.437a6.084,6.084,0,0,0,3.282,2.041c1.525.351,5.34.266,5.569-.135.273-.478-1.125-4.681-2.67-4.938a10.464,10.464,0,0,0,3.731,2.319,12.268,12.268,0,0,0,4.784-.023c.8-.188-1-3.532-2.318-4.491,3.964.828,8.151,1.77,11.071,4.574,3,2.884,4.112,7.3,3.964,11.459a5.668,5.668,0,0,0,2.127-4.52,16.845,16.845,0,0,1-1.17,13.122c4.218-3.457,5.793-9.5,4.683-14.838s-4.579-9.971-8.834-13.38c-3.639-2.916-8.055-5.095-12.716-5.2C120.756,184.28,109.428,191.233,115.4,198.437Z" transform="translate(-108.464 -184.423)"/></g><g transform="translate(1.429 27.337)"><path class="ad" d="M119.849,225.41c.036-.3.072-.7.108-1.132a3.919,3.919,0,0,0-3.194-4.187l-.05-.009a1.631,1.631,0,0,1-1.248-1.069c-.713-2.06-.987-2.684-1.67-4.709-1.859-.446-4.048.238-5.975.446a16.694,16.694,0,0,0-.106,7.022,3.022,3.022,0,0,0,.588,1.439,25.046,25.046,0,0,0,5.735,3.532C115.743,227.25,118.078,225.575,119.849,225.41Z" transform="translate(-107.393 -214.155)"/><g transform="translate(4.678 10.652)"><path class="ad" d="M114.688,227.728s-5.065,32.683.153,37.664c3.066,2.928,5.714,1.313,7.375-.517a6.489,6.489,0,0,0,1.6-5.038l-3.556-33.495S116.743,224.3,114.688,227.728Z" transform="translate(-112.481 -225.74)"/></g></g><g transform="translate(56.5 25.267)"><path class="ad" d="M173.651,257.515a11.317,11.317,0,0,0,4.474-9.726c-.05-5.92-1.719-16.776-1.719-16.776l-4.812-1.59s-1.5,8.259-1.827,12.8c-.065.892-.166,1.943-.274,3.05-.215,2.022-.474,4.252-.7,6.094Z" transform="translate(-167.409 -213.314)"/><g transform="translate(0 30.239)"><path class="p" d="M176.285,262.242c1.475-1.353,1.727-2.985,2.489-6.475.727-3.294-.093-7.316-.77-6.741a.731.731,0,0,0-.187.288c-1.166,2.755-5.712.338-7-1.036a9.557,9.557,0,0,1-1.446-1.77,1.487,1.487,0,0,1-.036-1.675c-1.4-.576-2.517,4.92-1.848,6.272l.34,1.018a14.125,14.125,0,0,0,2.528,4.541l2.528,3.045Z" transform="translate(-167.289 -244.791)"/></g><path class="ad" d="M171.653,229.452l-.575-8.4a35.367,35.367,0,0,0,4.641,1.788c2.341.8,5.49-.61,4.788.908a64.835,64.835,0,0,1-3.918,6.587Z" transform="translate(-167.594 -212.64)"/><path class="ad" d="M171.078,220.318l3.582-8.415,4.7,2.88c1.3,2.812,1.145,8.232,1.145,8.232S173.989,223.311,171.078,220.318Z" transform="translate(-167.594 -211.903)"/></g><path class="p" d="M137.308,213.9c.122.6.55,1.021.942.933s.6-.636.471-1.238-.549-1.012-.942-.925S137.177,213.331,137.308,213.9Z" transform="translate(-108.371 -186.697)"/></g><g transform="translate(36.062 83.563)"><path class="k" d="M121.411,333.181l-2.838-41.411c-.409-5.848-3.256-10.723-7.209-13.031a15.69,15.69,0,0,0-8.742-3.388,9.772,9.772,0,0,0-1.01-.044,15.3,15.3,0,0,0-7.337,1.866,2.131,2.131,0,0,0-.209.107,17.389,17.389,0,0,0-5.847,5.308l-.008.008a19.854,19.854,0,0,0-3.488,11.341c0,9.2,6.055,16.862,14.011,18.357l3.072,44.8c.264,3.813,2.767,6.733,5.773,6.733H123Z" transform="translate(-84.721 -275.306)"/><path class="e" d="M121.411,333.181l-2.838-41.411c-.409-5.848-3.256-10.723-7.209-13.031a15.69,15.69,0,0,0-8.742-3.388,9.772,9.772,0,0,0-1.01-.044,15.3,15.3,0,0,0-7.337,1.866,2.131,2.131,0,0,0-.209.107,17.389,17.389,0,0,0-5.847,5.308l-.008.008a19.854,19.854,0,0,0-3.488,11.341c0,9.2,6.055,16.862,14.011,18.357l3.072,44.8c.264,3.813,2.767,6.733,5.773,6.733H123Z" transform="translate(-84.721 -275.306)"/></g></g><g transform="translate(121.404 277.05)"><g transform="translate(0 27.338)"><g transform="translate(72.25 70.861)"><ellipse class="p" cx="30.84" cy="7.887" rx="30.84" ry="7.887"/><ellipse class="ae" cx="30.84" cy="6.576" rx="30.84" ry="6.576"/></g><g transform="translate(94.657 10.621)"><path class="p" d="M245.967,404.893h-5.089l-5.889-63.462h16.867Z" transform="translate(-234.989 -338.084)"/><path class="p" d="M251.856,341.138c0,1.848-3.776,3.347-8.434,3.347s-8.433-1.5-8.433-3.347,3.776-3.347,8.433-3.347S251.856,339.289,251.856,341.138Z" transform="translate(-234.989 -337.791)"/><path class="m" d="M251.856,341.138c0,1.848-3.776,3.347-8.434,3.347s-8.433-1.5-8.433-3.347,3.776-3.347,8.433-3.347S251.856,339.289,251.856,341.138Z" transform="translate(-234.989 -337.791)"/></g><path class="m" d="M132.04,342.336a2.85,2.85,0,0,1,.984-1.986c7.126,7.172,52.335,12.7,107.043,12.7s99.917-5.526,107.052-12.7a2.85,2.85,0,0,1,.984,1.986c0,8.1-48.372,14.674-108.036,14.674S132.04,350.436,132.04,342.336Z" transform="translate(-132.04 -327.377)"/><path class="m" d="M133.11,343.389c7.126-7.172,52.335-12.688,107.043-12.688s99.917,5.517,107.052,12.688c-7.135,7.172-52.344,12.7-107.052,12.7S140.236,350.561,133.11,343.389Z" transform="translate(-132.126 -326.599)"/><path class="m" d="M132.04,340.914c0-8.11,48.363-14.674,108.026-14.674S348.1,332.8,348.1,340.914a2.815,2.815,0,0,1-.984,1.977c-7.135-7.172-52.344-12.688-107.052-12.688s-99.917,5.517-107.043,12.688A2.815,2.815,0,0,1,132.04,340.914Z" transform="translate(-132.04 -326.24)"/></g><g transform="translate(100.989)"><g transform="translate(2.684 29.554)"><path class="p" d="M290.817,334.175l-45.2-.852a.939.939,0,0,1-.826-1.027h0a.948.948,0,0,1,.873-.995l45.2.852a.939.939,0,0,1,.826,1.027h0A.948.948,0,0,1,290.817,334.175Z" transform="translate(-244.795 -328.863)"/><path class="af" d="M290.817,334.175l-45.2-.852a.939.939,0,0,1-.826-1.027h0a.948.948,0,0,1,.873-.995l45.2.852a.939.939,0,0,1,.826,1.027h0A.948.948,0,0,1,290.817,334.175Z" transform="translate(-244.795 -328.863)"/><path class="p" d="M316.749,330.664l-21.61,3.266a.884.884,0,0,1-.941-.876h0a1.006,1.006,0,0,1,.747-1.13l21.611-3.267a.885.885,0,0,1,.941.876h0A1.008,1.008,0,0,1,316.749,330.664Z" transform="translate(-248.774 -328.649)"/><g transform="translate(0.873 0.008)"><path class="p" d="M312.653,328.658H266.969l-21.225,2.429,43.965.83Z" transform="translate(-245.744 -328.658)"/><path class="ag" d="M312.653,328.658H266.969l-21.225,2.429,43.965.83Z" transform="translate(-245.744 -328.658)"/></g><path class="n" d="M316.749,330.664l-21.61,3.266a.884.884,0,0,1-.941-.876h0a1.006,1.006,0,0,1,.747-1.13l21.611-3.267a.885.885,0,0,1,.941.876h0A1.008,1.008,0,0,1,316.749,330.664Z" transform="translate(-248.774 -328.649)"/></g><g transform="translate(1.237 0.133)"><path class="k" d="M289.506,329.339l-42.145-.8a3.27,3.27,0,0,1-2.865-3.275l-1.27-25.444a2.771,2.771,0,0,1,2.543-3.173l42.144.794a3.27,3.27,0,0,1,2.865,3.275l1.27,25.445A2.771,2.771,0,0,1,289.506,329.339Z" transform="translate(-243.222 -296.652)"/><path class="af" d="M289.506,329.339l-42.145-.8a3.27,3.27,0,0,1-2.865-3.275l-1.27-25.444a2.771,2.771,0,0,1,2.543-3.173l42.144.794a3.27,3.27,0,0,1,2.865,3.275l1.27,25.445A2.771,2.771,0,0,1,289.506,329.339Z" transform="translate(-243.222 -296.652)"/></g><path class="k" d="M288.16,329.194l-42.144-.794a3.27,3.27,0,0,1-2.865-3.275l-1.271-25.444a2.773,2.773,0,0,1,2.543-3.174l42.145.8a3.27,3.27,0,0,1,2.865,3.275l1.27,25.444C290.792,327.795,289.648,329.223,288.16,329.194Z" transform="translate(-241.876 -296.507)"/><path class="ag" d="M288.16,329.194l-42.144-.794a3.27,3.27,0,0,1-2.865-3.275l-1.271-25.444a2.773,2.773,0,0,1,2.543-3.174l42.145.8a3.27,3.27,0,0,1,2.865,3.275l1.27,25.444C290.792,327.795,289.648,329.223,288.16,329.194Z" transform="translate(-241.876 -296.507)"/><path class="g" d="M262.354,313.433a4.98,4.98,0,0,0,4.864,4.473,4.033,4.033,0,0,0,4.081-4.473,4.979,4.979,0,0,0-4.864-4.472A4.033,4.033,0,0,0,262.354,313.433Z" transform="translate(-243.524 -297.51)"/></g></g></g></svg>