<svg xmlns="http://www.w3.org/2000/svg" width="59.616" height="59.616" viewBox="0 0 59.616 59.616"><defs><style>.a{fill:#fb0;}</style></defs><path class="a" d="M59.616,29.808a12.545,12.545,0,0,0-5.348-10.246A9.6,9.6,0,0,0,46.154,4.808c-.289,0-.583.016-.886.045a8.65,8.65,0,0,0-16.421,3.8v4.808H26.923V9.615H25v3.846H21.154V9.615H19.231v3.846H15.385V9.615H13.462v3.846H9.615V9.615H7.692v3.846h-.4L3.846,16.91v.4H0v1.923H3.846v3.846H0V25H3.846v3.846H0v1.923H3.846v3.846H0v1.923H3.846v3.846H0v1.923H3.846v3.846H7.692V50H9.615V46.154h3.846V50h1.923V46.154h3.846V50h1.923V46.154H25V50h1.923V46.154h1.923v4.808a8.647,8.647,0,0,0,16.492,3.644l.047-.01a10.606,10.606,0,0,0,8.461-10.365,10.4,10.4,0,0,0-.615-3.534A12.554,12.554,0,0,0,59.616,29.808ZM35.944,27.053c.054.12.1.242.149.365l.162.424,2.206.737v2.46l-2.208.736-.162.426c-.047.125-.1.245-.148.364l-.186.416L36.8,35.059,35.058,36.8l-2.079-1.039-.416.186c-.119.053-.239.1-.364.148l-.426.162-.736,2.207h-2.46l-.736-2.208-.426-.162c-.125-.047-.245-.1-.364-.148l-.416-.186L24.557,36.8l-1.739-1.739,1.039-2.079-.186-.416c-.053-.119-.1-.239-.148-.364l-.162-.426-2.207-.736v-2.46l2.206-.736.162-.424c.048-.123.1-.246.149-.365l.186-.416-1.039-2.079,1.739-1.739,2.079,1.039.416-.186c.118-.053.238-.1.361-.147l.428-.162.737-2.209h2.46l.737,2.21.428.162c.122.046.242.094.361.147l.416.186,2.079-1.04,1.74,1.74-1.039,2.079ZM5.769,44.231V17.706l2.321-2.321H28.846v3.846H27.191L26.4,21.592l-2.226-1.114-3.7,3.7L21.592,26.4l-2.361.787v5.232l2.362.786-1.114,2.226,3.7,3.7L26.4,38.022l.786,2.363h1.655v3.846ZM51.6,39.375l-.862.4.4.865a8.559,8.559,0,0,1,.786,3.587,8.679,8.679,0,0,1-5.9,8.2A8.507,8.507,0,0,0,45,46.634l-1.663.963a6.732,6.732,0,1,1-12.563,3.364V40.385h1.655l.786-2.362,2.226,1.114,3.7-3.7-1.114-2.226,2.362-.786V27.192L38.024,26.4l1.113-2.225-3.7-3.7-2.226,1.114-.786-2.363H30.769V8.654a6.727,6.727,0,0,1,13.01-2.4l.283.739.778-.135a7.555,7.555,0,0,1,1.313-.122,7.692,7.692,0,0,1,0,15.385v1.923a9.583,9.583,0,0,0,6.913-2.948A10.544,10.544,0,0,1,51.6,39.375Z"/><path class="a" d="M272,36.808h1.923a2.888,2.888,0,0,1,2.885-2.885V32A4.813,4.813,0,0,0,272,36.808Z" transform="translate(-239.308 -28.154)"/><path class="a" d="M387.846,77.769h1.923A5.775,5.775,0,0,0,384,72v1.923A3.85,3.85,0,0,1,387.846,77.769Z" transform="translate(-337.846 -63.346)"/><path class="a" d="M357.845,233.758a2.885,2.885,0,0,1,0,4.08,2.954,2.954,0,0,1-4.079,0l-1.36,1.36a4.808,4.808,0,1,0,6.8-6.8Z" transform="translate(-310.049 -204.465)"/><path class="a" d="M273.923,424H272a4.813,4.813,0,0,0,4.808,4.808v-1.923A2.889,2.889,0,0,1,273.923,424Z" transform="translate(-239.308 -373.038)"/><path class="a" d="M320,88v1.923a2.885,2.885,0,0,1,0,5.769v1.923A4.808,4.808,0,1,0,320,88Z" transform="translate(-281.538 -77.423)"/><path class="a" d="M212.808,208a4.808,4.808,0,1,0,4.808,4.808A4.813,4.813,0,0,0,212.808,208Zm0,7.692a2.885,2.885,0,1,1,2.885-2.885A2.888,2.888,0,0,1,212.808,215.692Z" transform="translate(-183 -183)"/><path class="a" d="M128,144h9.615v1.923H128Z" transform="translate(-112.615 -126.692)"/><path class="a" d="M65.923,208H64v17.308H81.308v-1.923H65.923Z" transform="translate(-56.308 -183)"/><path class="a" d="M66.885,149.769A2.885,2.885,0,1,0,64,146.885,2.888,2.888,0,0,0,66.885,149.769Zm0-3.846a.962.962,0,1,1-.962.962A.963.963,0,0,1,66.885,145.923Z" transform="translate(-56.308 -126.692)"/></svg>