<svg xmlns="http://www.w3.org/2000/svg" xmlns:xlink="http://www.w3.org/1999/xlink" width="342.592" height="205.07" viewBox="0 0 342.592 205.07"><defs><style>.a,.ab,.b,.d,.f,.w{fill:none;}.a,.b{stroke:#bdd2f4;}.a,.b,.d,.f,.w{stroke-miterlimit:10;}.ab,.b,.d,.f{stroke-linecap:round;}.c{fill:#abd5fd;}.d{stroke:#fff;}.e{fill:#21c2b5;}.f{stroke:#def1f8;}.g{fill:#c1e4ff;}.h{fill:url(#a);}.i{fill:url(#b);}.j{fill:url(#c);}.k{fill:#f3ae92;}.l{fill:#315095;}.m{fill:#242357;}.n{fill:#f8c6a3;}.o{fill:#ee9681;}.p{fill:#d9eeff;}.q{fill:#ebf7ff;}.r{fill:#284477;}.s{fill:#ef6579;}.t{fill:#fcd430;}.u{fill:#ffeaa8;}.v{fill:#fab300;}.w{stroke:#fab300;}.ab,.w{stroke-width:2px;}.x{fill:#fcc231;}.aa,.y{fill:#fecb2f;}.y{opacity:0.5;}.z{fill:#f59d10;}.aa{opacity:0.7;}.ab{stroke:#c1e4ff;stroke-linejoin:round;}</style><linearGradient id="a" x1="0.5" y1="0.013" x2="0.5" y2="1.093" gradientUnits="objectBoundingBox"><stop offset="0" stop-color="#abd5fd"/><stop offset="1" stop-color="#d9eeff"/></linearGradient><linearGradient id="b" x1="0.5" y1="-1.643" x2="0.5" y2="1.248" gradientUnits="objectBoundingBox"><stop offset="0" stop-color="#bdd2f4"/><stop offset="1" stop-color="#c1e4ff"/></linearGradient><linearGradient id="c" x1="0.5" y1="0.052" x2="0.5" y2="4.317" xlink:href="#b"/></defs><g transform="translate(69.367 -453.118)"><g transform="translate(227.547 580.609)"><g transform="translate(0 0)"><path class="a" d="M283.7,660.244s.482-22.744,5.348-36.107c4.732-12.992,12.24-21.232,16.83-19.012,5.616,2.716,2.4,9.507-2.8,17.172-3.235,4.765-13.056,23.395-14.539,37.913" transform="translate(-283.705 -604.764)"/><path class="b" d="M305.673,607.586C292.7,623.124,287.6,645.022,286.789,660.66" transform="translate(-284.196 -605.213)"/><line class="b" x1="5.28" y2="0.352" transform="translate(17.31 7.615)"/><line class="b" x1="5.753" y2="0.101" transform="translate(14.813 11.905)"/><line class="b" x1="5.438" transform="translate(12.699 15.948)"/><line class="b" x1="5.438" transform="translate(10.608 20.499)"/><line class="b" x2="1.663" y2="3.75" transform="translate(14.813 5.5)"/><line class="b" x2="2.62" y2="4.328" transform="translate(11.315 9.25)"/><line class="b" x2="1.961" y2="3.537" transform="translate(3.856 31.093)"/><line class="b" x1="3.251" transform="translate(5.095 37.62)"/><line class="b" x2="2.023" y2="2.99" transform="translate(2.593 36.853)"/><line class="b" x2="1.818" y2="2.017" transform="translate(1.944 42.502)"/></g><g transform="translate(3.856 2.373)"><path class="c" d="M288.292,660.66a72.978,72.978,0,0,1,14.549-39.447c14.416-19.183,24.065-13.423,26.029-10.427,2.142,3.268,2.135,7.395-5.072,14.737s-21.318,21.755-25.649,35.136Z" transform="translate(-288.292 -607.586)"/><path class="d" d="M325.267,612.3c-12.087,7.149-29.526,30.692-31.007,49.14" transform="translate(-289.243 -608.338)"/><line class="d" x1="8.117" y1="1.674" transform="translate(29.649 8.796)"/><line class="d" x1="9.927" y1="1.462" transform="translate(23.153 15.538)"/><line class="d" x1="8.905" y1="1.007" transform="translate(17.621 22.721)"/><line class="d" x1="7.067" y1="0.767" transform="translate(13.454 29.268)"/><line class="d" x2="1.85" y2="6.128" transform="translate(23.938 6.468)"/><line class="d" x2="2.554" y2="6.627" transform="translate(17.621 12.596)"/><line class="d" x2="2.9" y2="5.881" transform="translate(12.62 19.99)"/><line class="d" x1="6.331" y1="0.571" transform="translate(10.078 35.722)"/><line class="d" x2="3.17" y2="5.591" transform="translate(8.331 27.238)"/><line class="d" x1="5.161" y1="0.4" transform="translate(7.458 42.147)"/><line class="d" x2="3.642" y2="4.102" transform="translate(5.017 34.863)"/></g></g><g transform="translate(192.429 583.998)"><path class="e" d="M249.665,627.7s-2.89-4.207-1.708-11.222c.947-5.624,3.394-7.878,3.96-7.675s1.1,2.65.122,8.932C251.633,620.355,249.665,627.7,249.665,627.7Z" transform="translate(-242.848 -608.794)"/><path class="e" d="M251.689,641.6a37.385,37.385,0,0,1,1.628-12.081c.937-3.09,2.327-4.386,2.879-3.925.325.271.819,2.718-.614,7.41S251.832,642.165,251.689,641.6Z" transform="translate(-243.479 -611.455)"/><path class="e" d="M249,635.513c-.04-.606-1.016-2.4-3.124-5.076-1.424-1.8-2.948-4.019-3.634-3.7s-.22,3.237,1.427,5.334S249.036,636.12,249,635.513Z" transform="translate(-241.934 -611.647)"/><path class="e" d="M251.124,648.425c-.126-.684-2.81-3.688-4.056-5.059s-2.959-2.706-3.9-2.493-.187,2.645,2.1,4.787S251.25,649.107,251.124,648.425Z" transform="translate(-242.068 -613.9)"/><path class="e" d="M254.8,652.764c-.372-.415-.058-3.824.525-7.033s2.063-6.875,3-6.159.993,3.075.036,6.386C257.311,649.627,255.176,653.178,254.8,652.764Z" transform="translate(-243.958 -613.682)"/><path class="e" d="M255.039,659.423c.027-.356-2.4-1.941-4.775-3.759-2.317-1.777-3.355-2.576-4.1-2.066s-.377,2.5,2.432,4.256S255.013,659.779,255.039,659.423Z" transform="translate(-242.555 -615.906)"/><path class="f" d="M251.226,612.781c-2.844,12.487-1.84,38.75,11.913,48.706" transform="translate(-243.209 -609.429)"/></g><g transform="translate(10.304 580.133)"><path class="e" d="M44.326,616.611a7.382,7.382,0,0,1-4.139-3.908c-1.3-3-.084-7.972.668-8.443s4.709,1.787,5.18,5.882C46.574,614.842,44.326,616.611,44.326,616.611Z" transform="translate(-27.583 -604.197)"/><path class="e" d="M43.07,625.655a8.88,8.88,0,0,0-2.02-5.688c-2.681-3.042-5.143-2.468-5.143-2.468S35.906,624.631,43.07,625.655Z" transform="translate(-26.992 -606.309)"/><path class="e" d="M45.023,627.059s1.438-3.187,4.019-4.173a6.392,6.392,0,0,1,4.325-.3,9.075,9.075,0,0,1-2.807,3.08A7.4,7.4,0,0,1,45.023,627.059Z" transform="translate(-28.444 -607.089)"/><path class="e" d="M42.107,633.384a6.864,6.864,0,0,0-1.817-5.06,9.807,9.807,0,0,0-5.444-2.561,8.372,8.372,0,0,0,2.178,5.112A8.941,8.941,0,0,0,42.107,633.384Z" transform="translate(-26.823 -607.632)"/><path class="e" d="M43.595,634.811a5.964,5.964,0,0,1,2.69-3.718,7.119,7.119,0,0,1,4.373-.547s-.121,1.8-2.69,3.294A7.174,7.174,0,0,1,43.595,634.811Z" transform="translate(-28.217 -608.374)"/><path class="e" d="M39.936,641.437a7.209,7.209,0,0,0-1.187-4.446,7.485,7.485,0,0,0-4.444-3.039c-.318,0-.16,3.216,1.855,5.262A7.858,7.858,0,0,0,39.936,641.437Z" transform="translate(-26.717 -608.937)"/><path class="e" d="M40.495,643.24a9.662,9.662,0,0,1,3.807-2.526,7.232,7.232,0,0,1,3.822,0s-.344,2.1-3.209,2.909S40.495,643.24,40.495,643.24Z" transform="translate(-27.723 -609.973)"/><path class="e" d="M37.128,649.207a6.776,6.776,0,0,0-.3-4.114c-.9-1.662-2.134-2.549-2.691-2.249S33.4,647.762,37.128,649.207Z" transform="translate(-26.661 -610.344)"/><path class="e" d="M37.53,650.924a8.019,8.019,0,0,1,3.646-2.347c1.949-.4,2.661.383,2.661.383a4.2,4.2,0,0,1-2.547,2A4.56,4.56,0,0,1,37.53,650.924Z" transform="translate(-27.251 -611.248)"/><path class="e" d="M34.5,654.651a6.015,6.015,0,0,0-.352-3.62,3.959,3.959,0,0,0-2.172-1.976S31.274,653.1,34.5,654.651Z" transform="translate(-26.356 -611.342)"/><path class="e" d="M34.719,655.949a6.408,6.408,0,0,1,3.312-1.15,4.579,4.579,0,0,1,2.818.767s-.787,1.077-3.064,1.136S34.719,655.949,34.719,655.949Z" transform="translate(-26.803 -612.257)"/><path class="f" d="M39.683,606.4c4.389,10.042,3.351,34.5-14.38,51.118" transform="translate(-25.303 -604.548)"/></g><g transform="translate(-68.862 562.517)"><g transform="translate(0 39.641)"><path class="a" d="M-39.844,664.326s-12.738.095-22.166-8.78-9.376-23.6,1.71-25.1S-39.844,664.326-39.844,664.326Z" transform="translate(68.862 -630.395)"/><path class="b" d="M-63.616,635.49s13.329,10.037,24.608,29.648" transform="translate(68.027 -631.207)"/><line class="b" y1="2.398" x2="8.37" transform="translate(2.42 10.021)"/><line class="b" y1="3.174" x2="10.713" transform="translate(5.017 15.304)"/><line class="b" y1="2.992" x2="9.916" transform="translate(10.276 20.766)"/><line class="b" y1="1.989" x2="6.715" transform="translate(17.272 25.944)"/></g><g transform="translate(5.649 0)"><path class="g" d="M.116,656.816s1.443-27.6-12.13-44.7c-15.643-19.7-45.082-30.388-48.17-28.7s-6.176,54.732,21.41,73.4Z" transform="translate(62.143 -583.244)"/><g transform="translate(2.779 2.468)"><path class="d" d="M-57.184,586.179s32.328,23.137,40.164,71.1" transform="translate(58.574 -586.179)"/><line class="d" x2="14.077" y2="0.748" transform="translate(0 11.381)"/><line class="d" x1="3.38" y2="9.779" transform="translate(18.093 7.219)"/><line class="d" y1="0.486" x2="21.899" transform="translate(1.39 24.222)"/><line class="d" x1="7.25" y2="14.869" transform="translate(26.928 15.21)"/><line class="d" y1="0.925" x2="26.903" transform="translate(3.975 37.465)"/><line class="d" x1="10.033" y2="20.099" transform="translate(34.607 25.79)"/><line class="d" y1="0.984" x2="26.796" transform="translate(9.873 51.494)"/><line class="d" x1="12.441" y2="20.23" transform="translate(40.073 42.095)"/><line class="d" y1="1.169" x2="18.95" transform="translate(21.473 65.106)"/><line class="d" x1="9.453" y2="11.881" transform="translate(46.293 59.224)"/></g></g></g><g transform="translate(-60.435 636.089)"><path class="h" d="M264.242,673.552h0a2.8,2.8,0,0,0-2.8-2.8H-54.711a4.127,4.127,0,0,0-4.127,4.127h0a4.127,4.127,0,0,0,4.127,4.126H-2.624a2.8,2.8,0,0,1,2.8,2.8h0a2.8,2.8,0,0,1-2.8,2.8H-18.391a4.126,4.126,0,0,0-4.126,4.126h0a4.126,4.126,0,0,0,4.126,4.126H205.077a2.8,2.8,0,0,0,2.8-2.8h0a2.8,2.8,0,0,0-2.8-2.8H193.242a5.455,5.455,0,0,1-5.455-5.455h0a5.454,5.454,0,0,1,5.455-5.454h68.2A2.8,2.8,0,0,0,264.242,673.552Z" transform="translate(58.838 -670.755)"/><path class="i" d="M-27.8,695.477h0a4.126,4.126,0,0,1-4.126-4.126h0a4.126,4.126,0,0,1,4.126-4.126h0a4.126,4.126,0,0,1,4.126,4.126h0A4.126,4.126,0,0,1-27.8,695.477Z" transform="translate(54.551 -673.378)"/><path class="j" d="M330.787,676.348h0a2.8,2.8,0,0,1-2.8-2.8h0a2.8,2.8,0,0,1,2.8-2.8h0a2.8,2.8,0,0,1,2.8,2.8h0A2.8,2.8,0,0,1,330.787,676.348Z" transform="translate(-2.777 -670.755)"/></g><g transform="translate(-38.131 476.075)"><g transform="translate(44.902 34.935)"><path class="g" d="M25.347,521.978c1.045.465,2.8,2.834,5.17,6.432s9.567,13.341,10.005,14.043,1.616,1.907,0,3.6C38.74,547.918,27.632,558.6,27.632,558.6l-3.444-3.684,7.821-11.23-7.285-8.162Z" transform="translate(-21.593 -521.978)"/><path class="k" d="M23.7,560.991l-2.6-.849s1.292,6.568,2.246,6.576,2.276-1.461,3.422-2.441Z" transform="translate(-21.101 -528.057)"/><path class="c" d="M27.518,562.692a.523.523,0,1,1,.523.523A.523.523,0,0,1,27.518,562.692Z" transform="translate(-22.123 -528.38)"/><path class="c" d="M30.19,562.655l-2.671-2.948,3.233,2.406Z" transform="translate(-22.123 -527.988)"/></g><path class="l" d="M17.111,560.517c1.395,11.836,3.067,37.754,3.4,52.8s-.785,37.653-.785,37.653H14.2L5.015,587.367-8.454,650.973h-5.532s1.755-61.079,8.337-89.49Z" transform="translate(29.39 -493.181)"/><path class="m" d="M-2.516,500.84-1.427,507a3.347,3.347,0,0,0,3.821,2.722h0L.648,500.84Z" transform="translate(27.563 -483.676)"/><path class="n" d="M1.718,507.721l.774,9.413s1.116,6.987,5.8,6.823,2.171-6.823,2.171-6.823l-.319-4.868Z" transform="translate(26.888 -484.772)"/><path class="o" d="M1.718,507.721l.33,4.016a8.984,8.984,0,0,0,8.24,2.75l-.146-2.221Z" transform="translate(26.888 -484.772)"/><path class="m" d="M-2.671,498.07s-.677-3.555-.982-4.892c-.42-1.84-1.013-4.213,1.018-5.286,2.193-1.158,6.532-2.724,10.548-5.046,3.22-1.861,4.624-3.062,5.026-2.057a8.864,8.864,0,0,1-.655,6.15,9.676,9.676,0,0,0,3.269-2c.635-.8,1.862,3.6-1.869,6.321L.017,500.151l-2.663-1.945" transform="translate(27.81 -480.424)"/><path class="n" d="M11.2,508.946l-1.359.244a7.689,7.689,0,0,1-8.924-6.212l-.99-5.524a7.689,7.689,0,0,1,6.211-8.924h0a7.689,7.689,0,0,1,8.924,6.212l1.233,6.883A6.307,6.307,0,0,1,11.2,508.946Z" transform="translate(27.194 -481.696)"/><path class="n" d="M-.3,502.045s-1.961-1.613-3.488,0c-1.6,1.695-.026,4.488,1.364,5.1a2.819,2.819,0,0,0,3.16-.446,3.175,3.175,0,0,0,0-2.241A6.731,6.731,0,0,0-.3,502.045Z" transform="translate(27.873 -483.754)"/><path class="m" d="M.323,499.811l.257,1.436h0a1.755,1.755,0,0,0,1.333-1.983l-.668-4.215s6.685-.284,7.926-6.618h0a1.425,1.425,0,0,0-1.744-1.087l-2.555.646a7.17,7.17,0,0,0-5.312,8.079Z" transform="translate(27.248 -481.519)"/><path class="m" d="M-4.683,492.689a1.543,1.543,0,0,1-1.7-1.364l3.067-.34A1.542,1.542,0,0,1-4.683,492.689Z" transform="translate(28.179 -482.106)"/><path class="m" d="M6.953,496.922a1.029,1.029,0,0,1,1.434.246l-1.68,1.188A1.029,1.029,0,0,1,6.953,496.922Z" transform="translate(26.124 -483.022)"/><path class="o" d="M10.7,508.523a1.746,1.746,0,0,1-1.426-2.016l3.442.59A1.746,1.746,0,0,1,10.7,508.523Z" transform="translate(25.689 -484.578)"/><path class="m" d="M16.059,495.145a1.028,1.028,0,0,1,.83,1.195l-2.025-.365A1.029,1.029,0,0,1,16.059,495.145Z" transform="translate(24.794 -482.766)"/><path class="m" d="M-5.349,490.335a1.542,1.542,0,0,1,.332-2.156l1.824,2.489A1.543,1.543,0,0,1-5.349,490.335Z" transform="translate(28.062 -481.659)"/><g transform="translate(24.436 18.688)"><path class="o" d="M-1.534,505.57a.981.981,0,0,1,.981-.98.981.981,0,0,1,.981.98.981.981,0,0,1-.981.981A.981.981,0,0,1-1.534,505.57Z" transform="translate(2.971 -502.961)"/><path class="o" d="M-3.243,503.392c.259-.735,1.412-.964,2.3-.5a2.427,2.427,0,0,1,1.016,2.75l-1.048-.3a2.52,2.52,0,0,0-.546-1.79A2.016,2.016,0,0,0-3.243,503.392Z" transform="translate(3.243 -502.652)"/></g><circle class="m" cx="0.939" cy="0.939" r="0.939" transform="translate(33.822 15.534)"/><path class="m" d="M14.961,498.306a.939.939,0,1,1,.939.938A.939.939,0,0,1,14.961,498.306Z" transform="translate(24.779 -483.123)"/><path class="o" d="M15.613,502.417a9.659,9.659,0,0,0-.857-1.153c-.231-.319-.414-.646-.8-.789-.088-.033-.312.015-.286.15a5.538,5.538,0,0,0,1.144,2.225c-.085.154-.2.308-.275.445-.167.313-.314.634-.5.937-.125.205.236.215.34.137C14.918,503.961,16.027,503.252,15.613,502.417Z" transform="translate(24.985 -483.616)"/><path class="p" d="M7.114,525.281A19.213,19.213,0,0,1,.3,516.839S-10.217,520.9-10.737,521.2s-.686,1.593.132,5.159,3.6,16.77,4.093,20.262.991,6.937,1.311,7.9,7.057,2.526,12.68,2.155,9.709-2.155,10.081-3.121,1.784-11.444,2.156-18.876.817-12.633,0-13.525-11.383-3.745-11.383-3.745S8.709,522.51,7.114,525.281Z" transform="translate(28.942 -486.224)"/><path class="g" d="M7.918,559.118C13.54,558.746,17.627,556.963,18,556a46.581,46.581,0,0,0,.845-5.167c-19.316,2.883-24.9-18.69-24.9-18.69-.474,2.543-1.322,3.952-2.355,4.8h0c1,4.789,2.055,10.089,2.342,12.116.5,3.493.991,6.937,1.311,7.9S2.295,559.489,7.918,559.118Z" transform="translate(28.502 -488.661)"/><path class="q" d="M8.739,524.8a1.709,1.709,0,0,0-1.861.131,11.6,11.6,0,0,0-1.91,2.867A13.6,13.6,0,0,1-.975,517.542s1.422-3.856,2.684-3.744l.09,1.093A18.423,18.423,0,0,0,8.739,524.8Z" transform="translate(27.317 -485.739)"/><path class="q" d="M10.579,524.922s1.054-1.462,2.126-.995c.758.331,1.111,1.727,1.311,2.776a12.334,12.334,0,0,0-.1-9.058c-1.083-2.976-2.287-3.06-2.287-3.06S12.062,521.3,10.579,524.922Z" transform="translate(25.477 -485.865)"/><path class="n" d="M-9.1,561.954l1.938,1s2.225-2.943,2.943-3.947,3.577-1.795,4.05-2.01,1.621-.072.472.933a25.78,25.78,0,0,1-2.737,2l-.494.941a10.558,10.558,0,0,1,2.758-.941,30.341,30.341,0,0,1,3.63,0c.574.079.647.986-1.037,1.211a25.47,25.47,0,0,0-2.546.481l-1.032.739s1.888.4,2.606.543a16.575,16.575,0,0,1,2.459.911c.785.308.418.931-.673.82-.928-.094-2.114-.228-2.114-.228H-1.424s-2.225,2.924-3.8,3.426-3.086.359-7.034-2.441Z" transform="translate(29.115 -492.608)"/><path class="p" d="M-13.806,521.866a5.491,5.491,0,0,1,3.118,4.346,13.832,13.832,0,0,1-1.4,8.891L-20.6,548l8.585,8.513-3.111,4.468s-14.262-7.709-15.948-8.9-1.407-3.094-.562-4.851,7.411-10.959,9.723-14.829C-18.454,526.608-15.745,522.534-13.806,521.866Z" transform="translate(32.308 -487.025)"/><path class="g" d="M-8.415,536.944a15.309,15.309,0,0,0,2.355-4.8,11.833,11.833,0,0,1-1.952,6.751Z" transform="translate(28.502 -488.661)"/><path class="g" d="M-15.836,565.6l3.262-3.426-2.567,3.8Z" transform="translate(29.684 -493.445)"/><path class="g" d="M-13.025,566.057a.523.523,0,0,1,.523-.523.522.522,0,0,1,.523.523.522.522,0,0,1-.523.522A.523.523,0,0,1-13.025,566.057Z" transform="translate(29.237 -493.98)"/><path class="m" d="M19.535,668.111v5.212h4.411l.027-1.187.856.407a8.053,8.053,0,0,0,3.458.78h5.062c1.9,0,3.447-.588,3.981-1.377.679-1.007.089-1.416.089-1.416s-.937-.032-4.561-.216a14.568,14.568,0,0,1-7.791-2.2Z" transform="translate(24.05 -510.319)"/><path class="m" d="M-10.839,668.111v5.212h-4.411l-.027-1.187-.856.407a8.057,8.057,0,0,1-3.459.78h-5.062c-1.9,0-3.446-.588-3.98-1.377-.68-1.007-.09-1.416-.09-1.416s.937-.032,4.562-.216a14.57,14.57,0,0,0,7.791-2.2Z" transform="translate(31.775 -510.319)"/></g><g transform="translate(197.891 485.726)"><path class="k" d="M250.054,542.6c1.177-1.178,8.241-8.875,11.14-12.316s4.359-4.538,7.053-4.538c-.193,2.834-1.18,6.419-1.406,9.479l-10.824,10.279,7.571,8.706s1.557-2.058,2.182-2.933,3.115-1.562,3.527-1.75,1.412-.062.411.813a22.35,22.35,0,0,1-2.383,1.744l-.43.819a9.2,9.2,0,0,1,2.4-.819,26.632,26.632,0,0,1,3.162,0c.5.069.562.859-.9,1.055a21.879,21.879,0,0,0-2.217.419l-.9.643s1.644.348,2.269.472a14.509,14.509,0,0,1,2.142.794c.684.269.364.811-.585.715-.809-.083-1.84-.2-1.84-.2h-2.217s-1.938,2.547-3.313,2.984-2.686-.677-5.567-3.107a133.158,133.158,0,0,1-10.121-9.107C247.554,544.936,248.877,543.782,250.054,542.6Z" transform="translate(-248.43 -497.295)"/><path class="k" d="M265.791,569.64s-1.208,11.546-1.85,35.138c-.5,18.329-.223,35.512-.407,37.779-.42,5.185-3.152,10-3.713,12.147s-4.656,2.606-4.656,2.606,7.466.741,8.443,0,4.831-8.448,6.372-9.568a3.386,3.386,0,0,0,1.454-4.2c-.614-1.681-1.595-2.942-1.174-6.585s2.914-18.637,3.195-22.14-.087-7.511.371-12.353c.606-6.4,4.16-31.526,4.16-31.526Z" transform="translate(-249.503 -504.285)"/><path class="m" d="M260.094,667.142c-.251.679-2.606.955-4.261,1.252s-2.3,2.935-.823,2.935H263.7c.827,0,2.66-3.289,3.488-5a9.379,9.379,0,0,1,1.7-2.542v7.545h1.378s.414-3.644.887-7.191,1.772-4.506-.533-8.549a5.921,5.921,0,0,0-2.659,2.933C267.183,660.532,265.361,667.958,260.094,667.142Z" transform="translate(-249.347 -517.976)"/><path class="n" d="M294.645,569.64s1.208,11.546,1.85,35.138c.5,18.329.223,35.512.406,37.779.42,5.185,3.153,10,3.713,12.147s4.656,2.606,4.656,2.606-7.466.741-8.443,0-4.83-8.448-6.371-9.568a3.384,3.384,0,0,1-1.454-4.2c.614-1.681,1.594-2.942,1.174-6.585s-2.914-18.637-3.194-22.14.087-7.511-.371-12.353c-.606-6.4-4.161-31.526-4.161-31.526Z" transform="translate(-253.849 -504.285)"/><path class="o" d="M294.645,569.64l-12.2,1.293s3.555,25.124,4.161,31.526c.071.762.119,1.5.156,2.218a42.457,42.457,0,0,0,9.682-1.534C295.8,580.657,294.645,569.64,294.645,569.64Z" transform="translate(-253.849 -504.285)"/><path class="o" d="M265.661,603.107a41.9,41.9,0,0,0,9.681,1.562c.037-.72.084-1.451.156-2.21.606-6.4,4.16-31.526,4.16-31.526l-12.195-1.293S266.313,580.645,265.661,603.107Z" transform="translate(-251.175 -504.285)"/><path class="m" d="M301.3,667.142c.252.679,2.606.955,4.262,1.252s2.3,2.935.823,2.935H297.7c-.827,0-2.66-3.289-3.488-5a9.378,9.378,0,0,0-1.7-2.542v7.545h-1.378s-.414-3.644-.887-7.191-1.773-4.506.532-8.549a5.92,5.92,0,0,1,2.66,2.933C294.213,660.532,296.036,667.958,301.3,667.142Z" transform="translate(-254.965 -517.976)"/><path class="l" d="M292.837,567.8c-1.123-10.374-3.733-13.594-5.281-15.146l-17.052.162c-1.008,1.786-3.46,4.611-4.584,14.984s-2.75,29.458-2.75,29.458,4.551,2.494,16.208,2.494,16.208-2.494,16.208-2.494S293.961,578.177,292.837,567.8Z" transform="translate(-250.778 -501.58)"/><path class="r" d="M288.382,561.416c.808-.082,1.84-.2,1.84-.2h2.217s1.937,2.547,3.312,2.984a1.879,1.879,0,0,0,.414.074,26.493,26.493,0,0,0-2.8-8.756c-.858-.377-1.775-.649-2.01-.756-.412-.188-1.412-.063-.412.812a22.329,22.329,0,0,0,2.383,1.744l.43.819a9.2,9.2,0,0,0-2.4-.819,26.592,26.592,0,0,0-3.162,0c-.5.069-.563.859.9,1.055a21.936,21.936,0,0,1,2.217.419l.9.643s-1.644.347-2.269.473a14.543,14.543,0,0,0-2.142.794C287.111,560.97,287.432,561.513,288.382,561.416Z" transform="translate(-254.642 -501.904)"/><path class="r" d="M290.7,554.88l0-.005a11.637,11.637,0,0,0-1.75-2.219l-17.052.162S277.069,558.227,290.7,554.88Z" transform="translate(-252.167 -501.58)"/><path class="m" d="M279.006,493.105h3.707a9.675,9.675,0,0,1,9.675,9.675v19.038a5.854,5.854,0,0,1-5.854,5.854h-7.528a5.853,5.853,0,0,1-5.854-5.854V498.959a5.855,5.855,0,0,1,4.785-5.756h0A5.853,5.853,0,0,1,279.006,493.105Z" transform="translate(-252.368 -492.095)"/><circle class="m" cx="7.614" cy="7.614" r="7.614" transform="translate(15.143)"/><path class="n" d="M285.75,512.794l-.677,10.968,4.848.453s-.467,6.408-8.952,6.408-7.8-6.691-7.8-6.691l5.165-.464.279-6.227Z" transform="translate(-252.368 -495.231)"/><path class="o" d="M286.757,512.794l-.224,3.638s-1.316,3.98-7.059,3.98l.142-3.171Z" transform="translate(-253.375 -495.231)"/><g transform="translate(18.931 2.431)"><path class="n" d="M276.343,515.427h0a8.033,8.033,0,0,0,9.171-5.808l1.565-5.781a7.688,7.688,0,0,0-6.211-8.923h0a7.876,7.876,0,0,0-8.924,6.211,52.805,52.805,0,0,0-.974,7.36A6.54,6.54,0,0,0,276.343,515.427Z" transform="translate(-270.948 -494.795)"/></g><path class="o" d="M276.688,496.018s-1.722,7.714,8.778,9.842l.268-.948Z" transform="translate(-252.914 -492.559)"/><path class="n" d="M289.14,507.118s1.961-1.613,3.488,0c1.6,1.695.026,4.488-1.363,5.1a2.82,2.82,0,0,1-3.161-.446,3.181,3.181,0,0,1,0-2.241A6.731,6.731,0,0,1,289.14,507.118Z" transform="translate(-254.722 -494.213)"/><path class="m" d="M286.435,508.52h0a1.851,1.851,0,0,1-1.13-2.237l.448-1.585s-9.3-1.655-9.046-8.894a4.9,4.9,0,0,1,2.325-1.028,13.459,13.459,0,0,1,3.872.131c3.566.9,6.858,4.154,4.762,10.127Z" transform="translate(-252.933 -492.345)"/><path class="m" d="M294.638,497.874a1.543,1.543,0,0,0,.72-2.06l-2.78,1.34A1.543,1.543,0,0,0,294.638,497.874Z" transform="translate(-255.462 -492.526)"/><path class="m" d="M282.773,503.306a1.029,1.029,0,0,0-1.434.246l1.68,1.188A1.03,1.03,0,0,0,282.773,503.306Z" transform="translate(-253.672 -493.69)"/><path class="o" d="M278.724,514.907a1.746,1.746,0,0,0,1.426-2.016l-3.442.59A1.746,1.746,0,0,0,278.724,514.907Z" transform="translate(-252.934 -495.246)"/><path class="m" d="M273.591,502.44a.977.977,0,0,0-.788,1.134l1.922-.346A.976.976,0,0,0,273.591,502.44Z" transform="translate(-252.31 -493.579)"/><path class="m" d="M294.3,495.534a1.543,1.543,0,0,0-1.427-1.651l-.224,3.078A1.543,1.543,0,0,0,294.3,495.534Z" transform="translate(-255.473 -492.219)"/><g transform="translate(34.101 13.302)"><path class="o" d="M291.017,510.643a.981.981,0,1,0-.981.981A.98.98,0,0,0,291.017,510.643Z" transform="translate(-289.002 -508.034)"/><path class="o" d="M292.444,508.465c-.259-.735-1.412-.964-2.3-.5a2.428,2.428,0,0,0-1.016,2.751l1.048-.3a2.52,2.52,0,0,1,.547-1.79A2.016,2.016,0,0,1,292.444,508.465Z" transform="translate(-288.992 -507.725)"/></g><path class="m" d="M281.8,506.223a.939.939,0,1,0-.939.939A.939.939,0,0,0,281.8,506.223Z" transform="translate(-253.446 -494.035)"/><path class="m" d="M274.662,505.44a.891.891,0,1,0-.891.89A.891.891,0,0,0,274.662,505.44Z" transform="translate(-252.324 -493.918)"/><path class="o" d="M274.468,508.853a8.045,8.045,0,0,1,.715-.962c.193-.266.345-.539.666-.659.074-.028.261.013.239.124a4.607,4.607,0,0,1-.955,1.857c.071.129.169.257.23.372.139.261.261.529.416.782.105.171-.2.179-.283.114C275.047,510.141,274.121,509.55,274.468,508.853Z" transform="translate(-252.565 -494.344)"/><path class="p" d="M286.726,526.053a7.864,7.864,0,0,1-7.894,4.505c-4.463-.155-3.718-4.807-3.718-4.807h-3.706a62.868,62.868,0,0,0-2.869,11.023c-.76,5.321.3,9.619.691,10.254.712,1.15,3.57,2.784,10.716,2.784s9.368-1.866,10.226-2.694,1.065-4.975.72-9.881-.72-10.917-.72-10.917Z" transform="translate(-251.59 -497.295)"/><path class="g" d="M268.738,545.467a7.618,7.618,0,0,0,.567,1.992c.712,1.15,3.57,2.784,10.716,2.784s9.368-1.866,10.226-2.694,1.065-4.975.72-9.881c-.23-3.272-.473-7.026-.61-9.171l-.162-.04C289.744,535.394,285.332,546.653,268.738,545.467Z" transform="translate(-251.665 -497.726)"/><path class="n" d="M310.592,542.713c-1.177-1.178-8.24-8.875-11.14-12.316s-3.71-3.8-6.227-3.969c.192,2.835.355,5.85.581,8.91l10.823,10.279-7.329,9.026s-1.8-2.378-2.423-3.253-3.115-1.562-3.526-1.75-1.412-.062-.412.813a22.324,22.324,0,0,0,2.383,1.744l.43.819a9.2,9.2,0,0,0-2.4-.819,26.631,26.631,0,0,0-3.162,0c-.5.069-.563.859.9,1.055a21.936,21.936,0,0,1,2.217.419l.9.643s-1.644.348-2.269.472a14.544,14.544,0,0,0-2.142.794c-.684.269-.363.811.586.715.808-.083,1.84-.2,1.84-.2h2.217s1.937,2.547,3.312,2.984,2.686-.677,5.567-3.107a133.179,133.179,0,0,0,10.121-9.107C313.092,545.044,311.769,543.89,310.592,542.713Z" transform="translate(-254.642 -497.403)"/></g><path class="s" d="M176.625,464.483l-38.778,52.4a1.454,1.454,0,0,1-2.337,0l-11.83-15.987a1.453,1.453,0,0,0-2.336,0l-42.863,57.9a1.454,1.454,0,0,0,.3,2.034l2.525,1.868a1.455,1.455,0,0,0,2.034-.3l37.993-51.344a1.454,1.454,0,0,1,2.337,0L135.51,527.04a1.454,1.454,0,0,0,2.337,0l43.633-58.959Z" transform="translate(-23.424 -1.81)"/><path class="s" d="M200.652,453.358l-21.934,14.285a1.453,1.453,0,0,0-.362,2.1l1.907,2.5a1.455,1.455,0,0,0,1.95.337l12.463-8.119-3.067,14.551a1.455,1.455,0,0,0,1.02,1.7l3.024.873a1.454,1.454,0,0,0,1.826-1.1l5.39-25.612A1.454,1.454,0,0,0,200.652,453.358Z" transform="translate(-39.33)"/><g transform="translate(36.061 563.494)"><g transform="translate(0 0)"><circle class="t" cx="18.354" cy="18.354" r="18.354" transform="translate(0 25.956) rotate(-45)"/><path class="u" d="M103.2,611.8a18.35,18.35,0,0,1-8.838,15.7,18.352,18.352,0,0,0-19.907-30.817A18.344,18.344,0,0,1,103.2,611.8Z" transform="translate(-58.889 -585.847)"/><circle class="v" cx="13.925" cy="13.925" r="13.925" transform="translate(9.971 37.457) rotate(-80.734)"/><circle class="w" cx="13.925" cy="13.925" r="13.925" transform="translate(9.971 37.457) rotate(-80.734)"/><path class="x" d="M64.979,612.3a18.351,18.351,0,0,1,8.838-15.7,18.352,18.352,0,0,0,19.908,30.817A18.344,18.344,0,0,1,64.979,612.3Z" transform="translate(-57.379 -586.349)"/><path class="y" d="M70.253,612.64a13.556,13.556,0,0,0,.072,1.439v.007l12.407,12.407a13.341,13.341,0,0,0,1.439.073,13.785,13.785,0,0,0,2.7-.262l-16.361-16.36A13.762,13.762,0,0,0,70.253,612.64Zm1.882-7,19.043,19.036a13.95,13.95,0,0,0,4.652-4.42L76.554,600.989A13.877,13.877,0,0,0,72.135,605.641Zm25.94,6.178L84.993,598.735c-.277-.014-.546-.021-.821-.021a13.918,13.918,0,0,0-4.426.719l17.632,17.626a13.884,13.884,0,0,0,.72-4.419C98.1,612.364,98.091,612.095,98.076,611.818Z" transform="translate(-58.219 -586.685)"/><g transform="translate(20.738 16.701)"><path class="z" d="M89.713,613.519a4.244,4.244,0,0,1,1.339,1.47,4.744,4.744,0,0,1,.534,2.374,4.313,4.313,0,0,1-.555,2.146,4.473,4.473,0,0,1-1.645,1.645,5.984,5.984,0,0,1-2.592.784v1.328h-1.83v-1.373a9.039,9.039,0,0,1-4.357-1.655L82,617.777a7.594,7.594,0,0,0,1.427.807,7.7,7.7,0,0,0,1.536.5v-4.292a7.494,7.494,0,0,1-2.571-1.678,3.8,3.8,0,0,1-.958-2.744,4.39,4.39,0,0,1,1.187-3.159,5.2,5.2,0,0,1,3.214-1.5v-1.438h1.829v1.459a7.59,7.59,0,0,1,2.2.49,11.185,11.185,0,0,1,1.873.991l-1.2,2.418a9.661,9.661,0,0,0-2.876-1.089v3.987l.109.044A9.278,9.278,0,0,1,89.713,613.519ZM84.7,610.131q0,.85,1.133,1.547v-3.05A1.449,1.449,0,0,0,84.7,610.131Zm3.181,8.355a1.544,1.544,0,0,0,.414-1.122q0-1-1.5-1.786v3.486A2.134,2.134,0,0,0,87.883,618.486Z" transform="translate(-80.606 -604.271)"/></g><g transform="translate(20.116 16.214)"><path class="t" d="M88.974,612.941a4.23,4.23,0,0,1,1.34,1.471,4.75,4.75,0,0,1,.533,2.374,4.313,4.313,0,0,1-.555,2.146,4.458,4.458,0,0,1-1.645,1.644,5.969,5.969,0,0,1-2.592.784v1.329h-1.83v-1.373a9.058,9.058,0,0,1-4.357-1.655l1.395-2.462a8.189,8.189,0,0,0,2.963,1.307v-4.291a7.505,7.505,0,0,1-2.571-1.678,3.806,3.806,0,0,1-.958-2.745,4.391,4.391,0,0,1,1.186-3.159,5.21,5.21,0,0,1,3.214-1.5v-1.438h1.83v1.459a7.588,7.588,0,0,1,2.2.491,11.23,11.23,0,0,1,1.873.99l-1.2,2.419a9.659,9.659,0,0,0-2.875-1.089v3.986l.108.045A9.278,9.278,0,0,1,88.974,612.941Zm-5.011-3.388q0,.85,1.133,1.547v-3.05A1.449,1.449,0,0,0,83.963,609.553Zm3.181,8.355a1.544,1.544,0,0,0,.414-1.122q0-1-1.5-1.787v3.486A2.14,2.14,0,0,0,87.144,617.908Z" transform="translate(-79.867 -603.692)"/></g></g><g transform="translate(7.55 70.372)"><g transform="translate(0 0)"><rect class="x" width="36.702" height="5.213" rx="1.482"/></g><path class="aa" d="M104.057,668.111H86.969v5.212h17.088a1.076,1.076,0,0,0,1.077-1.077v-3.058A1.077,1.077,0,0,0,104.057,668.111Z" transform="translate(-68.432 -668.111)"/><path class="t" d="M101.581,668.878a1.074,1.074,0,0,0-1.027-.767H66.007a1.073,1.073,0,0,0-1.026.767Z" transform="translate(-64.93 -668.111)"/><path class="v" d="M68.433,668.111H66a1.078,1.078,0,0,0-1.077,1.078v3.058A1.077,1.077,0,0,0,66,673.323h2.436Z" transform="translate(-64.92 -668.111)"/><path class="v" d="M64.981,673.4a1.072,1.072,0,0,0,1.026.766h34.548a1.073,1.073,0,0,0,1.027-.766Z" transform="translate(-64.93 -668.953)"/><rect class="t" width="2.656" height="4.446" transform="translate(28.239 0)"/><path class="z" d="M66,673.323h.679v-5.212H66a1.078,1.078,0,0,0-1.077,1.078v3.058A1.077,1.077,0,0,0,66,673.323Z" transform="translate(-64.92 -668.111)"/></g><g transform="translate(5.402 65.16)"><g transform="translate(0 0)"><rect class="x" width="36.702" height="5.213" rx="1.482"/></g><path class="aa" d="M101.5,661.911H84.415v5.212H101.5a1.077,1.077,0,0,0,1.077-1.077v-3.058A1.078,1.078,0,0,0,101.5,661.911Z" transform="translate(-65.878 -661.911)"/><path class="t" d="M99.026,662.678A1.073,1.073,0,0,0,98,661.911H63.453a1.074,1.074,0,0,0-1.027.767Z" transform="translate(-62.375 -661.911)"/><path class="v" d="M65.879,661.911H63.443a1.077,1.077,0,0,0-1.077,1.078v3.058a1.076,1.076,0,0,0,1.077,1.077h2.436Z" transform="translate(-62.366 -661.911)"/><path class="v" d="M62.426,667.2a1.073,1.073,0,0,0,1.027.766H98a1.072,1.072,0,0,0,1.026-.766Z" transform="translate(-62.375 -662.753)"/><rect class="t" width="2.656" height="4.446" transform="translate(28.239 0)"/><path class="z" d="M63.443,667.123h.679v-5.212h-.679a1.077,1.077,0,0,0-1.077,1.078v3.058A1.076,1.076,0,0,0,63.443,667.123Z" transform="translate(-62.366 -661.911)"/></g><g transform="translate(8.64 59.947)"><g transform="translate(0 0)"><rect class="x" width="36.702" height="5.213" rx="1.482"/></g><path class="aa" d="M105.354,655.711H88.266v5.212h17.088a1.077,1.077,0,0,0,1.077-1.077v-3.058A1.078,1.078,0,0,0,105.354,655.711Z" transform="translate(-69.729 -655.711)"/><path class="t" d="M102.878,656.478a1.075,1.075,0,0,0-1.027-.767H67.3a1.075,1.075,0,0,0-1.027.767Z" transform="translate(-66.226 -655.711)"/><path class="v" d="M69.73,655.711H67.294a1.077,1.077,0,0,0-1.077,1.078v3.058a1.076,1.076,0,0,0,1.077,1.077H69.73Z" transform="translate(-66.217 -655.711)"/><path class="v" d="M66.277,661a1.074,1.074,0,0,0,1.027.767h34.548a1.074,1.074,0,0,0,1.027-.767Z" transform="translate(-66.226 -656.553)"/><rect class="t" width="2.656" height="4.446" transform="translate(28.239 0)"/><path class="z" d="M67.294,660.923h.679v-5.212h-.679a1.077,1.077,0,0,0-1.077,1.078v3.058A1.076,1.076,0,0,0,67.294,660.923Z" transform="translate(-66.217 -655.711)"/></g><g transform="translate(7.55 54.735)"><rect class="x" width="36.702" height="5.213" rx="1.482"/><path class="aa" d="M104.057,649.511H86.969v5.212h17.088a1.077,1.077,0,0,0,1.077-1.077v-3.059A1.077,1.077,0,0,0,104.057,649.511Z" transform="translate(-68.432 -649.511)"/><path class="t" d="M101.581,650.278a1.074,1.074,0,0,0-1.027-.767H66.007a1.073,1.073,0,0,0-1.026.767Z" transform="translate(-64.93 -649.511)"/><path class="v" d="M68.433,649.511H66a1.077,1.077,0,0,0-1.077,1.077v3.059A1.077,1.077,0,0,0,66,654.723h2.436Z" transform="translate(-64.92 -649.511)"/><path class="v" d="M64.981,654.8a1.073,1.073,0,0,0,1.026.767h34.548a1.074,1.074,0,0,0,1.027-.767Z" transform="translate(-64.93 -650.353)"/><rect class="t" width="2.656" height="4.446" transform="translate(28.239)"/><path class="z" d="M66,654.723h.679v-5.212H66a1.077,1.077,0,0,0-1.077,1.077v3.059A1.077,1.077,0,0,0,66,654.723Z" transform="translate(-64.92 -649.511)"/></g><g transform="translate(9.261 49.522)"><g transform="translate(0)"><rect class="x" width="36.702" height="5.213" rx="1.482"/></g><path class="aa" d="M106.092,643.311H89v5.213h17.087a1.078,1.078,0,0,0,1.078-1.077v-3.059A1.078,1.078,0,0,0,106.092,643.311Z" transform="translate(-70.467 -643.311)"/><path class="t" d="M103.616,644.078a1.074,1.074,0,0,0-1.027-.767H68.043a1.074,1.074,0,0,0-1.027.767Z" transform="translate(-66.965 -643.311)"/><path class="v" d="M70.468,643.311H68.033a1.078,1.078,0,0,0-1.078,1.077v3.059a1.078,1.078,0,0,0,1.078,1.077h2.436Z" transform="translate(-66.955 -643.311)"/><path class="v" d="M67.016,648.6a1.073,1.073,0,0,0,1.027.767h34.547a1.073,1.073,0,0,0,1.027-.767Z" transform="translate(-66.965 -644.153)"/><rect class="t" width="2.656" height="4.446" transform="translate(28.239)"/><path class="z" d="M68.033,648.523h.679v-5.213h-.679a1.078,1.078,0,0,0-1.078,1.077v3.059A1.078,1.078,0,0,0,68.033,648.523Z" transform="translate(-66.955 -643.311)"/></g><g transform="translate(7.169 44.31)"><g transform="translate(0 0)"><rect class="x" width="36.702" height="5.213" rx="1.482"/></g><path class="aa" d="M103.6,637.111H86.516v5.212H103.6a1.078,1.078,0,0,0,1.078-1.078v-3.058A1.077,1.077,0,0,0,103.6,637.111Z" transform="translate(-67.979 -637.111)"/><path class="t" d="M101.128,637.878a1.072,1.072,0,0,0-1.027-.767H65.555a1.072,1.072,0,0,0-1.027.767Z" transform="translate(-64.477 -637.111)"/><path class="v" d="M67.98,637.111H65.545a1.077,1.077,0,0,0-1.078,1.077v3.058a1.078,1.078,0,0,0,1.078,1.078H67.98Z" transform="translate(-64.467 -637.111)"/><path class="v" d="M64.528,642.4a1.073,1.073,0,0,0,1.027.767H100.1a1.073,1.073,0,0,0,1.027-.767Z" transform="translate(-64.477 -637.953)"/><rect class="t" width="2.656" height="4.446" transform="translate(28.239)"/><path class="z" d="M65.545,642.323h.679v-5.212h-.679a1.077,1.077,0,0,0-1.078,1.077v3.058A1.078,1.078,0,0,0,65.545,642.323Z" transform="translate(-64.467 -637.111)"/></g></g><g transform="translate(83.192 526.994)"><g transform="translate(0 0)"><circle class="t" cx="18.354" cy="18.354" r="18.354" transform="translate(0 25.956) rotate(-45)"/><path class="u" d="M159.262,568.386a18.351,18.351,0,0,1-8.838,15.7,18.353,18.353,0,0,0-19.907-30.818,18.344,18.344,0,0,1,28.746,15.119Z" transform="translate(-114.95 -542.431)"/><circle class="v" cx="13.925" cy="13.925" r="13.925" transform="translate(12.031 12.031)"/><circle class="w" cx="13.925" cy="13.925" r="13.925" transform="translate(12.031 12.031)"/><path class="x" d="M121.04,568.888a18.352,18.352,0,0,1,8.838-15.7,18.352,18.352,0,0,0,19.908,30.817,18.345,18.345,0,0,1-28.747-15.118Z" transform="translate(-113.44 -542.934)"/><path class="y" d="M126.314,569.224a13.31,13.31,0,0,0,.073,1.439v.008l12.406,12.407a13.565,13.565,0,0,0,1.439.072,13.839,13.839,0,0,0,2.7-.261l-16.361-16.361A13.774,13.774,0,0,0,126.314,569.224Zm1.882-7,19.043,19.036a13.939,13.939,0,0,0,4.652-4.419l-19.275-19.268A13.887,13.887,0,0,0,128.2,562.225Zm25.941,6.178L141.054,555.32c-.277-.014-.545-.022-.821-.022a13.924,13.924,0,0,0-4.426.72l17.633,17.626a13.912,13.912,0,0,0,.72-4.419C154.159,568.948,154.152,568.679,154.138,568.4Z" transform="translate(-114.281 -543.27)"/><g transform="translate(20.737 16.7)"><path class="z" d="M145.774,570.1a4.24,4.24,0,0,1,1.34,1.471,4.75,4.75,0,0,1,.533,2.374,4.313,4.313,0,0,1-.555,2.146,4.458,4.458,0,0,1-1.645,1.644,5.972,5.972,0,0,1-2.592.784v1.328h-1.83V578.48a9.058,9.058,0,0,1-4.357-1.655l1.395-2.462a8.19,8.19,0,0,0,2.963,1.307v-4.291a7.52,7.52,0,0,1-2.571-1.678,3.808,3.808,0,0,1-.958-2.745,4.389,4.389,0,0,1,1.186-3.159,5.208,5.208,0,0,1,3.214-1.5v-1.438h1.83v1.46a7.562,7.562,0,0,1,2.2.491,11.171,11.171,0,0,1,1.873.99l-1.2,2.419a9.685,9.685,0,0,0-2.875-1.089v3.987l.108.044A9.356,9.356,0,0,1,145.774,570.1Zm-5.011-3.387q0,.849,1.133,1.546v-3.049A1.449,1.449,0,0,0,140.763,566.716Zm3.181,8.355a1.544,1.544,0,0,0,.414-1.122q0-1-1.5-1.786v3.486A2.14,2.14,0,0,0,143.944,575.071Z" transform="translate(-136.667 -560.855)"/></g><g transform="translate(20.117 16.214)"><path class="t" d="M145.036,569.525A4.24,4.24,0,0,1,146.375,571a4.739,4.739,0,0,1,.534,2.374,4.313,4.313,0,0,1-.556,2.146,4.458,4.458,0,0,1-1.645,1.644,5.981,5.981,0,0,1-2.592.784v1.328h-1.829V577.9a9.042,9.042,0,0,1-4.357-1.655l1.395-2.462a8.192,8.192,0,0,0,2.963,1.307V570.8a7.5,7.5,0,0,1-2.571-1.677,3.8,3.8,0,0,1-.958-2.745,4.386,4.386,0,0,1,1.187-3.159,5.2,5.2,0,0,1,3.213-1.5v-1.438h1.83v1.46a7.591,7.591,0,0,1,2.2.49,11.236,11.236,0,0,1,1.873.991l-1.2,2.418a9.707,9.707,0,0,0-2.875-1.089v3.987l.108.044A9.286,9.286,0,0,1,145.036,569.525Zm-5.012-3.388q0,.85,1.133,1.547v-3.05A1.449,1.449,0,0,0,140.024,566.137Zm3.181,8.355a1.537,1.537,0,0,0,.414-1.122q0-1-1.5-1.786v3.486A2.137,2.137,0,0,0,143.205,574.492Z" transform="translate(-135.929 -560.277)"/></g></g><g transform="translate(7.823 106.872)"><g transform="translate(0 0)"><rect class="x" width="36.702" height="5.213" rx="1.482"/></g><path class="aa" d="M160.443,668.111H143.355v5.212h17.088a1.077,1.077,0,0,0,1.078-1.077v-3.058A1.078,1.078,0,0,0,160.443,668.111Z" transform="translate(-124.818 -668.111)"/><path class="t" d="M157.967,668.878a1.073,1.073,0,0,0-1.027-.767H122.394a1.073,1.073,0,0,0-1.027.767Z" transform="translate(-121.316 -668.111)"/><path class="v" d="M124.819,668.111h-2.436a1.078,1.078,0,0,0-1.078,1.078v3.058a1.077,1.077,0,0,0,1.078,1.077h2.436Z" transform="translate(-121.306 -668.111)"/><path class="v" d="M121.367,673.4a1.073,1.073,0,0,0,1.027.766H156.94a1.073,1.073,0,0,0,1.027-.766Z" transform="translate(-121.316 -668.953)"/><rect class="t" width="2.656" height="4.446" transform="translate(28.239 0)"/><path class="z" d="M122.384,673.323h.678v-5.212h-.678a1.078,1.078,0,0,0-1.078,1.078v3.058A1.077,1.077,0,0,0,122.384,673.323Z" transform="translate(-121.306 -668.111)"/></g><g transform="translate(8.913 101.66)"><g transform="translate(0 0)"><rect class="x" width="36.702" height="5.213" rx="1.482"/></g><path class="aa" d="M161.74,661.911H144.652v5.212H161.74a1.076,1.076,0,0,0,1.077-1.077v-3.058A1.077,1.077,0,0,0,161.74,661.911Z" transform="translate(-126.115 -661.911)"/><path class="t" d="M159.264,662.678a1.075,1.075,0,0,0-1.027-.767H123.69a1.075,1.075,0,0,0-1.027.767Z" transform="translate(-122.612 -661.911)"/><path class="v" d="M126.116,661.911H123.68a1.077,1.077,0,0,0-1.077,1.078v3.058a1.076,1.076,0,0,0,1.077,1.077h2.436Z" transform="translate(-122.603 -661.911)"/><path class="v" d="M122.663,667.2a1.074,1.074,0,0,0,1.027.766h34.548a1.074,1.074,0,0,0,1.027-.766Z" transform="translate(-122.612 -662.753)"/><rect class="t" width="2.656" height="4.446" transform="translate(28.239 0)"/><path class="z" d="M123.68,667.123h.679v-5.212h-.679a1.077,1.077,0,0,0-1.077,1.078v3.058A1.076,1.076,0,0,0,123.68,667.123Z" transform="translate(-122.603 -661.911)"/></g><g transform="translate(6.257 96.447)"><g transform="translate(0 0)"><rect class="x" width="36.702" height="5.213" rx="1.482"/></g><path class="aa" d="M158.58,655.711H141.492v5.212H158.58a1.076,1.076,0,0,0,1.077-1.077v-3.058A1.077,1.077,0,0,0,158.58,655.711Z" transform="translate(-122.955 -655.711)"/><path class="t" d="M156.1,656.478a1.075,1.075,0,0,0-1.026-.767H120.53a1.075,1.075,0,0,0-1.027.767Z" transform="translate(-119.452 -655.711)"/><path class="v" d="M122.956,655.711H120.52a1.077,1.077,0,0,0-1.077,1.078v3.058a1.076,1.076,0,0,0,1.077,1.077h2.436Z" transform="translate(-119.443 -655.711)"/><path class="v" d="M119.5,661a1.074,1.074,0,0,0,1.027.767h34.548A1.074,1.074,0,0,0,156.1,661Z" transform="translate(-119.452 -656.553)"/><rect class="t" width="2.656" height="4.446" transform="translate(28.239 0)"/><path class="z" d="M120.52,660.923h.679v-5.212h-.679a1.077,1.077,0,0,0-1.077,1.078v3.058A1.076,1.076,0,0,0,120.52,660.923Z" transform="translate(-119.443 -655.711)"/></g><g transform="translate(7.823 91.235)"><g transform="translate(0)"><rect class="x" width="36.702" height="5.213" rx="1.482"/></g><path class="aa" d="M160.443,649.511H143.355v5.212h17.088a1.078,1.078,0,0,0,1.078-1.077v-3.059A1.078,1.078,0,0,0,160.443,649.511Z" transform="translate(-124.818 -649.511)"/><path class="t" d="M157.967,650.278a1.073,1.073,0,0,0-1.027-.767H122.394a1.073,1.073,0,0,0-1.027.767Z" transform="translate(-121.316 -649.511)"/><path class="v" d="M124.819,649.511h-2.436a1.078,1.078,0,0,0-1.078,1.077v3.059a1.078,1.078,0,0,0,1.078,1.077h2.436Z" transform="translate(-121.306 -649.511)"/><path class="v" d="M121.367,654.8a1.073,1.073,0,0,0,1.027.767H156.94a1.073,1.073,0,0,0,1.027-.767Z" transform="translate(-121.316 -650.353)"/><rect class="t" width="2.656" height="4.446" transform="translate(28.239)"/><path class="z" d="M122.384,654.723h.678v-5.212h-.678a1.078,1.078,0,0,0-1.078,1.077v3.059A1.078,1.078,0,0,0,122.384,654.723Z" transform="translate(-121.306 -649.511)"/></g><g transform="translate(8.913 75.594)"><g transform="translate(0 0)"><rect class="x" width="36.702" height="5.213" rx="1.482"/></g><path class="aa" d="M161.74,630.907H144.652v5.213H161.74a1.077,1.077,0,0,0,1.077-1.078v-3.058A1.077,1.077,0,0,0,161.74,630.907Z" transform="translate(-126.115 -630.907)"/><path class="t" d="M159.264,631.674a1.075,1.075,0,0,0-1.027-.767H123.69a1.075,1.075,0,0,0-1.027.767Z" transform="translate(-122.612 -630.907)"/><path class="v" d="M126.116,630.907H123.68a1.077,1.077,0,0,0-1.077,1.078v3.058a1.077,1.077,0,0,0,1.077,1.078h2.436Z" transform="translate(-122.603 -630.907)"/><path class="v" d="M122.663,636.2a1.075,1.075,0,0,0,1.027.767h34.548a1.075,1.075,0,0,0,1.027-.767Z" transform="translate(-122.612 -631.749)"/><rect class="t" width="2.656" height="4.446" transform="translate(28.239 0)"/><path class="z" d="M123.68,636.12h.679v-5.213h-.679a1.077,1.077,0,0,0-1.077,1.078v3.058A1.077,1.077,0,0,0,123.68,636.12Z" transform="translate(-122.603 -630.907)"/></g><g transform="translate(5.473 70.382)"><g transform="translate(0 0)"><rect class="x" width="36.702" height="5.213" rx="1.482"/></g><path class="aa" d="M157.648,624.707H140.56v5.212h17.088a1.077,1.077,0,0,0,1.078-1.077v-3.058A1.078,1.078,0,0,0,157.648,624.707Z" transform="translate(-122.023 -624.707)"/><path class="t" d="M155.172,625.474a1.074,1.074,0,0,0-1.027-.767H119.6a1.073,1.073,0,0,0-1.026.767Z" transform="translate(-118.521 -624.707)"/><path class="v" d="M122.024,624.707h-2.436a1.078,1.078,0,0,0-1.077,1.078v3.058a1.077,1.077,0,0,0,1.077,1.077h2.436Z" transform="translate(-118.511 -624.707)"/><path class="v" d="M118.572,630a1.072,1.072,0,0,0,1.026.766h34.548a1.074,1.074,0,0,0,1.027-.766Z" transform="translate(-118.521 -625.549)"/><rect class="t" width="2.656" height="4.446" transform="translate(28.239 0)"/><path class="z" d="M119.588,629.919h.679v-5.212h-.679a1.078,1.078,0,0,0-1.077,1.078v3.058A1.077,1.077,0,0,0,119.588,629.919Z" transform="translate(-118.511 -624.707)"/></g><g transform="translate(7.04 65.169)"><g transform="translate(0 0)"><rect class="x" width="36.702" height="5.213" rx="1.482"/></g><path class="aa" d="M159.512,618.507H142.424v5.212h17.088a1.077,1.077,0,0,0,1.077-1.077v-3.058A1.078,1.078,0,0,0,159.512,618.507Z" transform="translate(-123.886 -618.507)"/><path class="t" d="M157.035,619.274a1.073,1.073,0,0,0-1.026-.767H121.462a1.074,1.074,0,0,0-1.027.767Z" transform="translate(-120.384 -618.507)"/><path class="v" d="M123.887,618.507h-2.436a1.078,1.078,0,0,0-1.078,1.078v3.058a1.077,1.077,0,0,0,1.078,1.077h2.436Z" transform="translate(-120.374 -618.507)"/><path class="v" d="M120.435,623.795a1.073,1.073,0,0,0,1.027.767h34.548a1.072,1.072,0,0,0,1.026-.767Z" transform="translate(-120.384 -619.349)"/><rect class="t" width="2.656" height="4.446" transform="translate(28.239 0)"/><path class="z" d="M121.452,623.719h.679v-5.212h-.679a1.078,1.078,0,0,0-1.078,1.078v3.058A1.077,1.077,0,0,0,121.452,623.719Z" transform="translate(-120.374 -618.507)"/></g><g transform="translate(10.956 86.022)"><rect class="x" width="36.702" height="5.213" rx="1.482"/><path class="aa" d="M164.169,643.311H147.081v5.213h17.088a1.077,1.077,0,0,0,1.077-1.077v-3.059A1.077,1.077,0,0,0,164.169,643.311Z" transform="translate(-128.544 -643.311)"/><path class="t" d="M161.693,644.078a1.074,1.074,0,0,0-1.027-.767H126.119a1.075,1.075,0,0,0-1.027.767Z" transform="translate(-125.042 -643.311)"/><path class="v" d="M128.545,643.311h-2.436a1.078,1.078,0,0,0-1.077,1.077v3.059a1.077,1.077,0,0,0,1.077,1.077h2.436Z" transform="translate(-125.032 -643.311)"/><path class="v" d="M125.092,648.6a1.075,1.075,0,0,0,1.027.767h34.548a1.074,1.074,0,0,0,1.027-.767Z" transform="translate(-125.042 -644.153)"/><rect class="t" width="2.656" height="4.446" transform="translate(28.239)"/><path class="z" d="M126.109,648.523h.679v-5.213h-.679a1.078,1.078,0,0,0-1.077,1.077v3.059A1.077,1.077,0,0,0,126.109,648.523Z" transform="translate(-125.032 -643.311)"/></g><g transform="translate(7.442 80.81)"><g transform="translate(0 0)"><rect class="x" width="36.702" height="5.213" rx="1.482"/></g><path class="aa" d="M159.99,637.111H142.9v5.212H159.99a1.078,1.078,0,0,0,1.078-1.078v-3.058A1.077,1.077,0,0,0,159.99,637.111Z" transform="translate(-124.365 -637.111)"/><path class="t" d="M157.514,637.878a1.072,1.072,0,0,0-1.027-.767H121.941a1.072,1.072,0,0,0-1.027.767Z" transform="translate(-120.863 -637.111)"/><path class="v" d="M124.366,637.111h-2.436a1.077,1.077,0,0,0-1.078,1.077v3.058a1.078,1.078,0,0,0,1.078,1.078h2.436Z" transform="translate(-120.853 -637.111)"/><path class="v" d="M120.914,642.4a1.073,1.073,0,0,0,1.027.767h34.547a1.073,1.073,0,0,0,1.027-.767Z" transform="translate(-120.863 -637.953)"/><rect class="t" width="2.656" height="4.446" transform="translate(28.239)"/><path class="z" d="M121.931,642.323h.679v-5.212h-.679a1.077,1.077,0,0,0-1.078,1.077v3.058A1.078,1.078,0,0,0,121.931,642.323Z" transform="translate(-120.853 -637.111)"/></g><g transform="translate(5.85 59.95)"><g transform="translate(0)"><rect class="x" width="36.702" height="5.213" rx="1.482"/></g><path class="aa" d="M158.1,612.3H141.008v5.212H158.1a1.078,1.078,0,0,0,1.078-1.077v-3.059A1.077,1.077,0,0,0,158.1,612.3Z" transform="translate(-122.471 -612.299)"/><path class="t" d="M155.62,613.066a1.072,1.072,0,0,0-1.027-.767H120.046a1.072,1.072,0,0,0-1.027.767Z" transform="translate(-118.969 -612.299)"/><path class="v" d="M122.472,612.3h-2.436a1.077,1.077,0,0,0-1.078,1.077v3.059a1.078,1.078,0,0,0,1.078,1.077h2.436Z" transform="translate(-118.959 -612.299)"/><path class="v" d="M119.02,617.587a1.073,1.073,0,0,0,1.027.767h34.547a1.073,1.073,0,0,0,1.027-.767Z" transform="translate(-118.969 -613.141)"/><rect class="t" width="2.656" height="4.446" transform="translate(28.239)"/><path class="z" d="M120.037,617.511h.679V612.3h-.679a1.077,1.077,0,0,0-1.078,1.077v3.059A1.078,1.078,0,0,0,120.037,617.511Z" transform="translate(-118.959 -612.299)"/></g><g transform="translate(6.94 44.309)"><g transform="translate(0 0)"><rect class="x" width="36.702" height="5.213" rx="1.482"/></g><path class="aa" d="M159.393,593.695H142.3v5.212h17.088a1.076,1.076,0,0,0,1.077-1.077v-3.058A1.077,1.077,0,0,0,159.393,593.695Z" transform="translate(-123.768 -593.695)"/><path class="t" d="M156.917,594.462a1.074,1.074,0,0,0-1.027-.767H121.343a1.075,1.075,0,0,0-1.027.767Z" transform="translate(-120.266 -593.695)"/><path class="v" d="M123.768,593.695h-2.436a1.078,1.078,0,0,0-1.077,1.078v3.058a1.077,1.077,0,0,0,1.077,1.077h2.436Z" transform="translate(-120.256 -593.695)"/><path class="v" d="M120.316,598.984a1.074,1.074,0,0,0,1.027.766H155.89a1.073,1.073,0,0,0,1.027-.766Z" transform="translate(-120.266 -594.537)"/><rect class="t" width="2.656" height="4.446" transform="translate(28.239 0)"/><path class="z" d="M121.333,598.907h.679v-5.212h-.679a1.078,1.078,0,0,0-1.077,1.078v3.058A1.077,1.077,0,0,0,121.333,598.907Z" transform="translate(-120.256 -593.695)"/></g><g transform="translate(8.982 54.737)"><g transform="translate(0)"><rect class="x" width="36.702" height="5.213" rx="1.482"/></g><path class="aa" d="M161.822,606.1H144.734v5.212h17.088a1.078,1.078,0,0,0,1.078-1.078v-3.058A1.077,1.077,0,0,0,161.822,606.1Z" transform="translate(-126.197 -606.099)"/><path class="t" d="M159.346,606.866a1.072,1.072,0,0,0-1.027-.767H123.773a1.072,1.072,0,0,0-1.027.767Z" transform="translate(-122.695 -606.099)"/><path class="v" d="M126.2,606.1h-2.436a1.077,1.077,0,0,0-1.078,1.077v3.058a1.078,1.078,0,0,0,1.078,1.078H126.2Z" transform="translate(-122.685 -606.099)"/><path class="v" d="M122.746,611.387a1.073,1.073,0,0,0,1.027.767h34.547a1.073,1.073,0,0,0,1.027-.767Z" transform="translate(-122.695 -606.941)"/><rect class="t" width="2.656" height="4.446" transform="translate(28.239)"/><path class="z" d="M123.763,611.311h.678V606.1h-.678a1.077,1.077,0,0,0-1.078,1.077v3.058A1.078,1.078,0,0,0,123.763,611.311Z" transform="translate(-122.685 -606.099)"/></g><g transform="translate(5.47 49.525)"><g transform="translate(0 0)"><rect class="x" width="36.702" height="5.213" rx="1.482"/></g><path class="aa" d="M157.644,599.9H140.556v5.212h17.088a1.078,1.078,0,0,0,1.077-1.078v-3.058A1.077,1.077,0,0,0,157.644,599.9Z" transform="translate(-122.019 -599.899)"/><path class="t" d="M155.168,600.665a1.074,1.074,0,0,0-1.027-.766H119.594a1.074,1.074,0,0,0-1.027.766Z" transform="translate(-118.516 -599.899)"/><path class="v" d="M122.02,599.9h-2.436a1.076,1.076,0,0,0-1.077,1.077v3.058a1.077,1.077,0,0,0,1.077,1.078h2.436Z" transform="translate(-118.507 -599.899)"/><path class="v" d="M118.567,605.187a1.074,1.074,0,0,0,1.027.767h34.548a1.075,1.075,0,0,0,1.027-.767Z" transform="translate(-118.516 -600.741)"/><rect class="t" width="2.656" height="4.446" transform="translate(28.239)"/><path class="z" d="M119.584,605.111h.679V599.9h-.679a1.076,1.076,0,0,0-1.077,1.077v3.058A1.077,1.077,0,0,0,119.584,605.111Z" transform="translate(-118.507 -599.899)"/></g></g><g transform="translate(130.324 495.885)"><g transform="translate(3.846 3.692)"><circle class="t" cx="18.354" cy="18.354" r="18.354" transform="translate(0 35.706) rotate(-76.59)"/><path class="u" d="M215.323,531.2a18.351,18.351,0,0,1-8.838,15.7,18.352,18.352,0,0,0-19.908-30.817A18.344,18.344,0,0,1,215.323,531.2Z" transform="translate(-174.857 -509.091)"/><circle class="v" cx="13.925" cy="13.925" r="13.925" transform="translate(6.125 33.611) rotate(-80.734)"/><circle class="w" cx="13.925" cy="13.925" r="13.925" transform="translate(6.125 33.611) rotate(-80.734)"/><path class="x" d="M177.1,531.7A18.352,18.352,0,0,1,185.94,516a18.353,18.353,0,0,0,19.908,30.818A18.344,18.344,0,0,1,177.1,531.7Z" transform="translate(-173.348 -509.593)"/><path class="y" d="M182.375,532.038a13.335,13.335,0,0,0,.073,1.439v.008l12.406,12.406a13.342,13.342,0,0,0,1.439.073,13.839,13.839,0,0,0,2.7-.261l-16.36-16.361A13.7,13.7,0,0,0,182.375,532.038Zm1.883-7L203.3,544.074a13.947,13.947,0,0,0,4.652-4.419l-19.275-19.268A13.862,13.862,0,0,0,184.258,525.039Zm25.94,6.178-13.083-13.082c-.276-.015-.545-.022-.821-.022a13.9,13.9,0,0,0-4.426.72L209.5,536.457a13.917,13.917,0,0,0,.72-4.42C210.22,531.762,210.213,531.493,210.2,531.216Z" transform="translate(-174.188 -509.929)"/><g transform="translate(16.892 12.854)"><path class="z" d="M201.836,532.917a4.251,4.251,0,0,1,1.339,1.47,4.744,4.744,0,0,1,.534,2.375,4.314,4.314,0,0,1-.556,2.146,4.465,4.465,0,0,1-1.645,1.644,5.98,5.98,0,0,1-2.592.784v1.328h-1.829v-1.373a9.035,9.035,0,0,1-4.357-1.655l1.395-2.462a8.189,8.189,0,0,0,2.963,1.307v-4.292a7.5,7.5,0,0,1-2.571-1.677,3.8,3.8,0,0,1-.958-2.745,4.389,4.389,0,0,1,1.186-3.159,5.2,5.2,0,0,1,3.214-1.5v-1.438h1.83v1.46a7.589,7.589,0,0,1,2.2.49,11.183,11.183,0,0,1,1.873.991l-1.2,2.418a9.682,9.682,0,0,0-2.875-1.089v3.987l.108.044A9.283,9.283,0,0,1,201.836,532.917Zm-5.012-3.388q0,.85,1.133,1.547v-3.05A1.449,1.449,0,0,0,196.824,529.529Zm3.181,8.355a1.538,1.538,0,0,0,.414-1.122q0-1-1.5-1.787v3.486A2.137,2.137,0,0,0,200.005,537.884Z" transform="translate(-192.729 -523.669)"/></g><g transform="translate(16.271 12.368)"><path class="t" d="M201.1,532.339a4.244,4.244,0,0,1,1.339,1.47,4.741,4.741,0,0,1,.534,2.374,4.321,4.321,0,0,1-.555,2.146,4.479,4.479,0,0,1-1.645,1.645,5.973,5.973,0,0,1-2.593.784v1.329h-1.829v-1.373a9.047,9.047,0,0,1-4.357-1.655l1.395-2.462a7.544,7.544,0,0,0,1.427.806,7.681,7.681,0,0,0,1.536.5v-4.292a7.494,7.494,0,0,1-2.571-1.678,3.8,3.8,0,0,1-.958-2.745,4.385,4.385,0,0,1,1.187-3.159,5.2,5.2,0,0,1,3.214-1.5v-1.438h1.829v1.459a7.567,7.567,0,0,1,2.2.49,11.149,11.149,0,0,1,1.873.991l-1.2,2.418a9.656,9.656,0,0,0-2.875-1.089v3.986l.108.045A9.266,9.266,0,0,1,201.1,532.339Zm-5.012-3.388q0,.85,1.134,1.547v-3.05A1.449,1.449,0,0,0,196.085,528.951Zm3.181,8.355a1.541,1.541,0,0,0,.414-1.122q0-1-1.5-1.786v3.486A2.127,2.127,0,0,0,199.266,537.306Z" transform="translate(-191.99 -523.091)"/></g></g><g transform="translate(0 0)"><circle class="t" cx="18.354" cy="18.354" r="18.354" transform="translate(0 25.956) rotate(-45)"/><path class="u" d="M215.323,531.383a18.351,18.351,0,0,1-8.838,15.7,18.352,18.352,0,0,0-19.908-30.817,18.344,18.344,0,0,1,28.746,15.118Z" transform="translate(-171.011 -505.429)"/><circle class="v" cx="13.925" cy="13.925" r="13.925" transform="translate(7.731 18.497) rotate(-22.742)"/><circle class="w" cx="13.925" cy="13.925" r="13.925" transform="translate(7.731 18.497) rotate(-22.742)"/><path class="x" d="M177.1,531.886a18.352,18.352,0,0,1,8.838-15.7A18.352,18.352,0,0,0,205.848,547,18.343,18.343,0,0,1,177.1,531.886Z" transform="translate(-169.502 -505.931)"/><path class="y" d="M182.375,532.222a13.335,13.335,0,0,0,.073,1.439v.008l12.406,12.406a13.357,13.357,0,0,0,1.439.073,13.769,13.769,0,0,0,2.7-.262l-16.36-16.36A13.7,13.7,0,0,0,182.375,532.222Zm1.883-7L203.3,544.258a13.949,13.949,0,0,0,4.652-4.419l-19.275-19.268A13.861,13.861,0,0,0,184.258,525.223ZM210.2,531.4l-13.083-13.082c-.276-.015-.545-.022-.821-.022a13.92,13.92,0,0,0-4.426.719L209.5,536.641a13.917,13.917,0,0,0,.72-4.42C210.22,531.946,210.213,531.677,210.2,531.4Z" transform="translate(-170.342 -506.267)"/><g transform="translate(20.738 16.701)"><path class="z" d="M201.836,533.1a4.243,4.243,0,0,1,1.339,1.47,4.743,4.743,0,0,1,.534,2.374,4.317,4.317,0,0,1-.556,2.147,4.465,4.465,0,0,1-1.645,1.644,5.98,5.98,0,0,1-2.592.784v1.328h-1.829v-1.373a9.043,9.043,0,0,1-4.357-1.655l1.395-2.462a8.189,8.189,0,0,0,2.963,1.307v-4.292a7.486,7.486,0,0,1-2.571-1.678,3.8,3.8,0,0,1-.958-2.744,4.388,4.388,0,0,1,1.186-3.159,5.207,5.207,0,0,1,3.214-1.5v-1.438h1.83v1.459a7.6,7.6,0,0,1,2.2.49,11.179,11.179,0,0,1,1.873.991l-1.2,2.418a9.681,9.681,0,0,0-2.875-1.089v3.987l.108.044A9.283,9.283,0,0,1,201.836,533.1Zm-5.012-3.388q0,.85,1.133,1.547v-3.05A1.449,1.449,0,0,0,196.824,529.713Zm3.181,8.355a1.54,1.54,0,0,0,.414-1.122q0-1-1.5-1.786v3.486A2.137,2.137,0,0,0,200.005,538.068Z" transform="translate(-192.729 -523.853)"/></g><g transform="translate(20.117 16.215)"><path class="t" d="M201.1,532.523a4.242,4.242,0,0,1,1.339,1.47,4.741,4.741,0,0,1,.534,2.374,4.322,4.322,0,0,1-.555,2.146,4.47,4.47,0,0,1-1.645,1.644,5.974,5.974,0,0,1-2.593.784v1.329h-1.829V540.9a9.054,9.054,0,0,1-4.357-1.655l1.395-2.462a8.19,8.19,0,0,0,2.963,1.307V533.8a7.506,7.506,0,0,1-2.571-1.678,3.8,3.8,0,0,1-.958-2.745,4.389,4.389,0,0,1,1.187-3.159,5.207,5.207,0,0,1,3.214-1.5v-1.438h1.829v1.459a7.59,7.59,0,0,1,2.2.491,11.147,11.147,0,0,1,1.873.99l-1.2,2.419a9.659,9.659,0,0,0-2.875-1.089v3.986l.108.044A9.305,9.305,0,0,1,201.1,532.523Zm-5.012-3.388q0,.85,1.134,1.547v-3.05A1.449,1.449,0,0,0,196.085,529.135Zm3.181,8.355a1.541,1.541,0,0,0,.414-1.122q0-1-1.5-1.786v3.486A2.133,2.133,0,0,0,199.266,537.49Z" transform="translate(-191.99 -523.275)"/></g></g><g transform="translate(7.563 137.981)"><g transform="translate(0 0)"><rect class="x" width="36.702" height="5.213" rx="1.482"/></g><path class="aa" d="M216.2,668.111H199.108v5.212H216.2a1.077,1.077,0,0,0,1.077-1.077v-3.058A1.078,1.078,0,0,0,216.2,668.111Z" transform="translate(-180.57 -668.111)"/><path class="t" d="M213.719,668.878a1.073,1.073,0,0,0-1.026-.767H178.145a1.074,1.074,0,0,0-1.027.767Z" transform="translate(-177.068 -668.111)"/><path class="v" d="M180.571,668.111h-2.436a1.078,1.078,0,0,0-1.078,1.078v3.058a1.077,1.077,0,0,0,1.078,1.077h2.436Z" transform="translate(-177.058 -668.111)"/><path class="v" d="M177.119,673.4a1.073,1.073,0,0,0,1.027.766h34.548a1.072,1.072,0,0,0,1.026-.766Z" transform="translate(-177.068 -668.953)"/><rect class="t" width="2.656" height="4.446" transform="translate(28.239 0)"/><path class="z" d="M178.136,673.323h.679v-5.212h-.679a1.078,1.078,0,0,0-1.078,1.078v3.058A1.077,1.077,0,0,0,178.136,673.323Z" transform="translate(-177.058 -668.111)"/></g><g transform="translate(5.997 132.769)"><g transform="translate(0 0)"><rect class="x" width="36.702" height="5.213" rx="1.482"/></g><path class="aa" d="M214.332,661.911H197.244v5.212h17.088a1.077,1.077,0,0,0,1.078-1.077v-3.058A1.078,1.078,0,0,0,214.332,661.911Z" transform="translate(-178.707 -661.911)"/><path class="t" d="M211.856,662.678a1.073,1.073,0,0,0-1.026-.767H176.283a1.073,1.073,0,0,0-1.027.767Z" transform="translate(-175.205 -661.911)"/><path class="v" d="M178.708,661.911h-2.436a1.078,1.078,0,0,0-1.078,1.078v3.058a1.077,1.077,0,0,0,1.078,1.077h2.436Z" transform="translate(-175.195 -661.911)"/><path class="v" d="M175.256,667.2a1.073,1.073,0,0,0,1.027.766h34.547a1.073,1.073,0,0,0,1.026-.766Z" transform="translate(-175.205 -662.753)"/><rect class="t" width="2.656" height="4.446" transform="translate(28.239 0)"/><path class="z" d="M176.273,667.123h.678v-5.212h-.678a1.078,1.078,0,0,0-1.078,1.078v3.058A1.077,1.077,0,0,0,176.273,667.123Z" transform="translate(-175.195 -661.911)"/></g><g transform="translate(7.87 127.556)"><g transform="translate(0 0)"><rect class="x" width="36.702" height="5.213" rx="1.482"/></g><path class="aa" d="M216.561,655.711H199.473v5.212h17.088a1.077,1.077,0,0,0,1.077-1.077v-3.058A1.078,1.078,0,0,0,216.561,655.711Z" transform="translate(-180.935 -655.711)"/><path class="t" d="M214.084,656.478a1.073,1.073,0,0,0-1.026-.767H178.51a1.074,1.074,0,0,0-1.027.767Z" transform="translate(-177.433 -655.711)"/><path class="v" d="M180.936,655.711H178.5a1.078,1.078,0,0,0-1.078,1.078v3.058a1.077,1.077,0,0,0,1.078,1.077h2.436Z" transform="translate(-177.423 -655.711)"/><path class="v" d="M177.484,661a1.073,1.073,0,0,0,1.027.767h34.548a1.072,1.072,0,0,0,1.026-.767Z" transform="translate(-177.433 -656.553)"/><rect class="t" width="2.656" height="4.446" transform="translate(28.239 0)"/><path class="z" d="M178.5,660.923h.679v-5.212H178.5a1.078,1.078,0,0,0-1.078,1.078v3.058A1.077,1.077,0,0,0,178.5,660.923Z" transform="translate(-177.423 -655.711)"/></g><g transform="translate(6.183 122.344)"><rect class="x" width="36.702" height="5.213" rx="1.482"/><path class="aa" d="M214.554,649.511H197.466v5.212h17.088a1.077,1.077,0,0,0,1.077-1.077v-3.059A1.078,1.078,0,0,0,214.554,649.511Z" transform="translate(-178.929 -649.511)"/><path class="t" d="M212.078,650.278a1.075,1.075,0,0,0-1.027-.767H176.5a1.074,1.074,0,0,0-1.027.767Z" transform="translate(-175.426 -649.511)"/><path class="v" d="M178.93,649.511h-2.436a1.077,1.077,0,0,0-1.077,1.077v3.059a1.077,1.077,0,0,0,1.077,1.077h2.436Z" transform="translate(-175.417 -649.511)"/><path class="v" d="M175.477,654.8a1.074,1.074,0,0,0,1.027.767h34.548a1.075,1.075,0,0,0,1.027-.767Z" transform="translate(-175.426 -650.353)"/><rect class="t" width="2.656" height="4.446" transform="translate(28.239)"/><path class="z" d="M176.494,654.723h.679v-5.212h-.679a1.077,1.077,0,0,0-1.077,1.077v3.059A1.077,1.077,0,0,0,176.494,654.723Z" transform="translate(-175.417 -649.511)"/></g><g transform="translate(10.629 106.703)"><g transform="translate(0 0)"><rect class="x" width="36.702" height="5.213" rx="1.482"/></g><path class="aa" d="M219.842,630.907H202.754v5.213h17.088a1.077,1.077,0,0,0,1.077-1.078v-3.058A1.077,1.077,0,0,0,219.842,630.907Z" transform="translate(-184.217 -630.907)"/><path class="t" d="M217.366,631.674a1.075,1.075,0,0,0-1.027-.767H181.792a1.075,1.075,0,0,0-1.027.767Z" transform="translate(-180.714 -630.907)"/><path class="v" d="M184.217,630.907h-2.436a1.078,1.078,0,0,0-1.077,1.078v3.058a1.078,1.078,0,0,0,1.077,1.078h2.436Z" transform="translate(-180.705 -630.907)"/><path class="v" d="M180.765,636.2a1.075,1.075,0,0,0,1.027.767h34.548a1.075,1.075,0,0,0,1.027-.767Z" transform="translate(-180.714 -631.749)"/><rect class="t" width="2.656" height="4.446" transform="translate(28.239 0)"/><path class="z" d="M181.782,636.12h.679v-5.213h-.679a1.078,1.078,0,0,0-1.077,1.078v3.058A1.078,1.078,0,0,0,181.782,636.12Z" transform="translate(-180.705 -630.907)"/></g><g transform="translate(7.189 101.49)"><g transform="translate(0 0)"><rect class="x" width="36.702" height="5.213" rx="1.482"/></g><path class="aa" d="M215.75,624.707H198.662v5.212H215.75a1.077,1.077,0,0,0,1.078-1.077v-3.058A1.078,1.078,0,0,0,215.75,624.707Z" transform="translate(-180.125 -624.707)"/><path class="t" d="M213.274,625.474a1.073,1.073,0,0,0-1.027-.767H177.7a1.073,1.073,0,0,0-1.027.767Z" transform="translate(-176.623 -624.707)"/><path class="v" d="M180.126,624.707h-2.436a1.078,1.078,0,0,0-1.078,1.078v3.058a1.077,1.077,0,0,0,1.078,1.077h2.436Z" transform="translate(-176.613 -624.707)"/><path class="v" d="M176.674,630a1.073,1.073,0,0,0,1.027.766h34.547a1.073,1.073,0,0,0,1.027-.766Z" transform="translate(-176.623 -625.549)"/><rect class="t" width="2.656" height="4.446" transform="translate(28.239 0)"/><path class="z" d="M177.691,629.919h.678v-5.212h-.678a1.078,1.078,0,0,0-1.078,1.078v3.058A1.077,1.077,0,0,0,177.691,629.919Z" transform="translate(-176.613 -624.707)"/></g><g transform="translate(8.756 96.278)"><g transform="translate(0 0)"><rect class="x" width="36.702" height="5.213" rx="1.482"/></g><path class="aa" d="M217.614,618.507H200.526v5.212h17.088a1.077,1.077,0,0,0,1.077-1.077v-3.058A1.078,1.078,0,0,0,217.614,618.507Z" transform="translate(-181.989 -618.507)"/><path class="t" d="M215.137,619.274a1.073,1.073,0,0,0-1.026-.767H179.564a1.074,1.074,0,0,0-1.027.767Z" transform="translate(-178.486 -618.507)"/><path class="v" d="M181.99,618.507h-2.436a1.077,1.077,0,0,0-1.077,1.078v3.058a1.076,1.076,0,0,0,1.077,1.077h2.436Z" transform="translate(-178.477 -618.507)"/><path class="v" d="M178.537,623.795a1.073,1.073,0,0,0,1.027.767h34.548a1.072,1.072,0,0,0,1.026-.767Z" transform="translate(-178.486 -619.349)"/><rect class="t" width="2.656" height="4.446" transform="translate(28.239 0)"/><path class="z" d="M179.554,623.719h.679v-5.212h-.679a1.077,1.077,0,0,0-1.077,1.078v3.058A1.076,1.076,0,0,0,179.554,623.719Z" transform="translate(-178.477 -618.507)"/></g><g transform="translate(10.696 117.131)"><g transform="translate(0)"><rect class="x" width="36.702" height="5.213" rx="1.482"/></g><path class="aa" d="M219.921,643.311H202.834v5.213h17.087A1.078,1.078,0,0,0,221,647.446v-3.059A1.078,1.078,0,0,0,219.921,643.311Z" transform="translate(-184.296 -643.311)"/><path class="t" d="M217.445,644.078a1.074,1.074,0,0,0-1.027-.767H181.871a1.074,1.074,0,0,0-1.027.767Z" transform="translate(-180.794 -643.311)"/><path class="v" d="M184.3,643.311h-2.436a1.078,1.078,0,0,0-1.078,1.077v3.059a1.078,1.078,0,0,0,1.078,1.077H184.3Z" transform="translate(-180.784 -643.311)"/><path class="v" d="M180.845,648.6a1.073,1.073,0,0,0,1.027.767h34.547a1.073,1.073,0,0,0,1.027-.767Z" transform="translate(-180.794 -644.153)"/><rect class="t" width="2.656" height="4.446" transform="translate(28.239)"/><path class="z" d="M181.862,648.523h.679v-5.213h-.679a1.078,1.078,0,0,0-1.078,1.077v3.059A1.078,1.078,0,0,0,181.862,648.523Z" transform="translate(-180.784 -643.311)"/></g><g transform="translate(7.183 111.918)"><g transform="translate(0 0)"><rect class="x" width="36.702" height="5.213" rx="1.482"/></g><path class="aa" d="M215.743,637.111H198.655v5.212h17.088a1.077,1.077,0,0,0,1.077-1.078v-3.058A1.076,1.076,0,0,0,215.743,637.111Z" transform="translate(-180.118 -637.111)"/><path class="t" d="M213.267,637.878a1.074,1.074,0,0,0-1.027-.767H177.692a1.074,1.074,0,0,0-1.027.767Z" transform="translate(-176.615 -637.111)"/><path class="v" d="M180.118,637.111h-2.436a1.076,1.076,0,0,0-1.077,1.077v3.058a1.077,1.077,0,0,0,1.077,1.078h2.436Z" transform="translate(-176.606 -637.111)"/><path class="v" d="M176.666,642.4a1.075,1.075,0,0,0,1.027.767H212.24a1.075,1.075,0,0,0,1.027-.767Z" transform="translate(-176.615 -637.953)"/><rect class="t" width="2.656" height="4.446" transform="translate(28.239)"/><path class="z" d="M177.683,642.323h.679v-5.212h-.679a1.076,1.076,0,0,0-1.077,1.077v3.058A1.077,1.077,0,0,0,177.683,642.323Z" transform="translate(-176.606 -637.111)"/></g><g transform="translate(7.87 70.372)"><g transform="translate(0 0)"><rect class="x" width="36.702" height="5.213" rx="1.482"/></g><path class="aa" d="M216.561,587.693H199.473v5.213h17.088a1.078,1.078,0,0,0,1.077-1.078v-3.058A1.078,1.078,0,0,0,216.561,587.693Z" transform="translate(-180.935 -587.693)"/><path class="t" d="M214.084,588.46a1.073,1.073,0,0,0-1.026-.767H178.51a1.074,1.074,0,0,0-1.027.767Z" transform="translate(-177.433 -587.693)"/><path class="v" d="M180.936,587.693H178.5a1.078,1.078,0,0,0-1.078,1.078v3.058a1.078,1.078,0,0,0,1.078,1.078h2.436Z" transform="translate(-177.423 -587.693)"/><path class="v" d="M177.484,592.982a1.074,1.074,0,0,0,1.027.767h34.548a1.073,1.073,0,0,0,1.026-.767Z" transform="translate(-177.433 -588.535)"/><rect class="t" width="2.656" height="4.446" transform="translate(28.239 0)"/><path class="z" d="M178.5,592.906h.679v-5.213H178.5a1.078,1.078,0,0,0-1.078,1.078v3.058A1.078,1.078,0,0,0,178.5,592.906Z" transform="translate(-177.423 -587.693)"/></g><g transform="translate(6.183 65.16)"><g transform="translate(0 0)"><rect class="x" width="36.702" height="5.213" rx="1.482"/></g><path class="aa" d="M214.554,581.493H197.466v5.212h17.088a1.077,1.077,0,0,0,1.077-1.077v-3.058A1.078,1.078,0,0,0,214.554,581.493Z" transform="translate(-178.929 -581.493)"/><path class="t" d="M212.078,582.26a1.075,1.075,0,0,0-1.027-.767H176.5a1.074,1.074,0,0,0-1.027.767Z" transform="translate(-175.426 -581.493)"/><path class="v" d="M178.93,581.493h-2.436a1.077,1.077,0,0,0-1.077,1.078v3.058a1.076,1.076,0,0,0,1.077,1.077h2.436Z" transform="translate(-175.417 -581.493)"/><path class="v" d="M175.477,586.781a1.073,1.073,0,0,0,1.027.767h34.548a1.074,1.074,0,0,0,1.027-.767Z" transform="translate(-175.426 -582.335)"/><rect class="t" width="2.656" height="4.446" transform="translate(28.239 0)"/><path class="z" d="M176.494,586.705h.679v-5.212h-.679a1.077,1.077,0,0,0-1.077,1.078v3.058A1.076,1.076,0,0,0,176.494,586.705Z" transform="translate(-175.417 -581.493)"/></g><g transform="translate(8.9 49.522)"><g transform="translate(0)"><rect class="x" width="36.702" height="5.213" rx="1.482"/></g><path class="aa" d="M217.785,562.893H200.7v5.212h17.087a1.078,1.078,0,0,0,1.078-1.077V563.97A1.078,1.078,0,0,0,217.785,562.893Z" transform="translate(-182.16 -562.893)"/><path class="t" d="M215.309,563.66a1.073,1.073,0,0,0-1.026-.767H179.736a1.073,1.073,0,0,0-1.027.767Z" transform="translate(-178.658 -562.893)"/><path class="v" d="M182.161,562.893h-2.436a1.078,1.078,0,0,0-1.078,1.077v3.059a1.078,1.078,0,0,0,1.078,1.077h2.436Z" transform="translate(-178.648 -562.893)"/><path class="v" d="M178.709,568.181a1.073,1.073,0,0,0,1.027.767h34.547a1.073,1.073,0,0,0,1.026-.767Z" transform="translate(-178.658 -563.735)"/><rect class="t" width="2.656" height="4.446" transform="translate(28.239)"/><path class="z" d="M179.726,568.105h.679v-5.212h-.679a1.078,1.078,0,0,0-1.078,1.077v3.059A1.078,1.078,0,0,0,179.726,568.105Z" transform="translate(-178.648 -562.893)"/></g><g transform="translate(7.213 44.31)"><g transform="translate(0)"><rect class="x" width="36.702" height="5.213" rx="1.482"/></g><path class="aa" d="M215.779,556.693H198.691v5.212h17.088a1.078,1.078,0,0,0,1.077-1.077V557.77A1.077,1.077,0,0,0,215.779,556.693Z" transform="translate(-180.153 -556.693)"/><path class="t" d="M213.3,557.46a1.072,1.072,0,0,0-1.026-.767H177.729a1.073,1.073,0,0,0-1.027.767Z" transform="translate(-176.651 -556.693)"/><path class="v" d="M180.154,556.693h-2.436a1.077,1.077,0,0,0-1.078,1.077v3.058a1.078,1.078,0,0,0,1.078,1.077h2.436Z" transform="translate(-176.641 -556.693)"/><path class="v" d="M176.7,561.981a1.074,1.074,0,0,0,1.027.767h34.548a1.073,1.073,0,0,0,1.026-.767Z" transform="translate(-176.651 -557.535)"/><rect class="t" width="2.656" height="4.446" transform="translate(28.239)"/><path class="z" d="M177.719,561.905h.679v-5.212h-.679a1.077,1.077,0,0,0-1.078,1.077v3.058A1.078,1.078,0,0,0,177.719,561.905Z" transform="translate(-176.641 -556.693)"/></g><g transform="translate(10.696 59.947)"><g transform="translate(0 0)"><rect class="x" width="36.702" height="5.213" rx="1.482"/></g><path class="aa" d="M219.921,575.293H202.834v5.212h17.087A1.077,1.077,0,0,0,221,579.428v-3.058A1.078,1.078,0,0,0,219.921,575.293Z" transform="translate(-184.296 -575.293)"/><path class="t" d="M217.445,576.06a1.073,1.073,0,0,0-1.027-.767H181.871a1.073,1.073,0,0,0-1.027.767Z" transform="translate(-180.794 -575.293)"/><path class="v" d="M184.3,575.293h-2.436a1.078,1.078,0,0,0-1.078,1.078v3.058a1.077,1.077,0,0,0,1.078,1.077H184.3Z" transform="translate(-180.784 -575.293)"/><path class="v" d="M180.845,580.581a1.072,1.072,0,0,0,1.027.767h34.547a1.072,1.072,0,0,0,1.027-.767Z" transform="translate(-180.794 -576.135)"/><rect class="t" width="2.656" height="4.446" transform="translate(28.239 0)"/><path class="z" d="M181.862,580.505h.679v-5.212h-.679a1.078,1.078,0,0,0-1.078,1.078v3.058A1.077,1.077,0,0,0,181.862,580.505Z" transform="translate(-180.784 -575.293)"/></g><g transform="translate(7.183 54.735)"><g transform="translate(0 0)"><rect class="x" width="36.702" height="5.213" rx="1.482"/></g><path class="aa" d="M215.743,569.093H198.655v5.212h17.088a1.077,1.077,0,0,0,1.077-1.077V570.17A1.077,1.077,0,0,0,215.743,569.093Z" transform="translate(-180.118 -569.093)"/><path class="t" d="M213.267,569.86a1.075,1.075,0,0,0-1.027-.767H177.692a1.075,1.075,0,0,0-1.027.767Z" transform="translate(-176.615 -569.093)"/><path class="v" d="M180.118,569.093h-2.436a1.077,1.077,0,0,0-1.077,1.077v3.059a1.077,1.077,0,0,0,1.077,1.077h2.436Z" transform="translate(-176.606 -569.093)"/><path class="v" d="M176.666,574.381a1.075,1.075,0,0,0,1.027.767H212.24a1.075,1.075,0,0,0,1.027-.767Z" transform="translate(-176.615 -569.935)"/><rect class="t" width="2.656" height="4.446" transform="translate(28.239 0)"/><path class="z" d="M177.683,574.305h.679v-5.212h-.679a1.077,1.077,0,0,0-1.077,1.077v3.059A1.077,1.077,0,0,0,177.683,574.305Z" transform="translate(-176.606 -569.093)"/></g><g transform="translate(5.591 91.064)"><rect class="x" width="36.702" height="5.213" rx="1.482"/><path class="aa" d="M213.849,612.3H196.761v5.212h17.088a1.077,1.077,0,0,0,1.077-1.077v-3.059A1.077,1.077,0,0,0,213.849,612.3Z" transform="translate(-178.224 -612.305)"/><path class="t" d="M211.373,613.072a1.075,1.075,0,0,0-1.027-.767H175.8a1.075,1.075,0,0,0-1.027.767Z" transform="translate(-174.721 -612.305)"/><path class="v" d="M178.225,612.3h-2.436a1.077,1.077,0,0,0-1.077,1.077v3.059a1.077,1.077,0,0,0,1.077,1.077h2.436Z" transform="translate(-174.712 -612.305)"/><path class="v" d="M174.772,617.593a1.075,1.075,0,0,0,1.027.767h34.548a1.075,1.075,0,0,0,1.027-.767Z" transform="translate(-174.721 -613.147)"/><rect class="t" width="2.656" height="4.446" transform="translate(28.239)"/><path class="z" d="M175.789,617.517h.679V612.3h-.679a1.077,1.077,0,0,0-1.077,1.077v3.059A1.077,1.077,0,0,0,175.789,617.517Z" transform="translate(-174.712 -612.305)"/></g><g transform="translate(6.68 75.423)"><g transform="translate(0 0)"><rect class="x" width="36.702" height="5.213" rx="1.482"/></g><path class="aa" d="M215.145,593.7H198.058v5.212h17.087a1.077,1.077,0,0,0,1.078-1.077v-3.058A1.078,1.078,0,0,0,215.145,593.7Z" transform="translate(-179.52 -593.701)"/><path class="t" d="M212.669,594.468a1.073,1.073,0,0,0-1.027-.767H177.1a1.073,1.073,0,0,0-1.027.767Z" transform="translate(-176.018 -593.701)"/><path class="v" d="M179.521,593.7h-2.436a1.078,1.078,0,0,0-1.078,1.078v3.058a1.077,1.077,0,0,0,1.078,1.077h2.436Z" transform="translate(-176.008 -593.701)"/><path class="v" d="M176.069,598.989a1.072,1.072,0,0,0,1.027.767h34.547a1.072,1.072,0,0,0,1.027-.767Z" transform="translate(-176.018 -594.543)"/><rect class="t" width="2.656" height="4.446" transform="translate(28.239 0)"/><path class="z" d="M177.086,598.913h.679V593.7h-.679a1.078,1.078,0,0,0-1.078,1.078v3.058A1.077,1.077,0,0,0,177.086,598.913Z" transform="translate(-176.008 -593.701)"/></g><g transform="translate(8.723 85.851)"><rect class="x" width="36.702" height="5.213" rx="1.482"/><path class="aa" d="M217.575,606.1H200.487v5.212h17.088a1.078,1.078,0,0,0,1.077-1.078v-3.058A1.077,1.077,0,0,0,217.575,606.1Z" transform="translate(-181.95 -606.105)"/><path class="t" d="M215.1,606.872a1.072,1.072,0,0,0-1.026-.767H179.525a1.073,1.073,0,0,0-1.027.767Z" transform="translate(-178.447 -606.105)"/><path class="v" d="M181.951,606.1h-2.436a1.076,1.076,0,0,0-1.077,1.077v3.058a1.077,1.077,0,0,0,1.077,1.078h2.436Z" transform="translate(-178.438 -606.105)"/><path class="v" d="M178.5,611.393a1.074,1.074,0,0,0,1.027.767h34.548a1.073,1.073,0,0,0,1.026-.767Z" transform="translate(-178.447 -606.947)"/><rect class="t" width="2.656" height="4.446" transform="translate(28.239)"/><path class="z" d="M179.515,611.317h.679V606.1h-.679a1.076,1.076,0,0,0-1.077,1.077v3.058A1.077,1.077,0,0,0,179.515,611.317Z" transform="translate(-178.438 -606.105)"/></g><g transform="translate(5.21 80.639)"><g transform="translate(0 0)"><rect class="x" width="36.702" height="5.213" rx="1.482"/></g><path class="aa" d="M213.4,599.9H196.308v5.212H213.4a1.077,1.077,0,0,0,1.077-1.078v-3.058A1.076,1.076,0,0,0,213.4,599.9Z" transform="translate(-177.771 -599.905)"/><path class="t" d="M210.92,600.672a1.073,1.073,0,0,0-1.027-.767H175.346a1.072,1.072,0,0,0-1.026.767Z" transform="translate(-174.269 -599.905)"/><path class="v" d="M177.772,599.9h-2.436a1.077,1.077,0,0,0-1.077,1.077v3.058a1.078,1.078,0,0,0,1.077,1.078h2.436Z" transform="translate(-174.259 -599.905)"/><path class="v" d="M174.32,605.193a1.073,1.073,0,0,0,1.026.767h34.548a1.074,1.074,0,0,0,1.027-.767Z" transform="translate(-174.269 -600.747)"/><rect class="t" width="2.656" height="4.446" transform="translate(28.239)"/><path class="z" d="M175.336,605.117h.679V599.9h-.679a1.077,1.077,0,0,0-1.077,1.077v3.058A1.078,1.078,0,0,0,175.336,605.117Z" transform="translate(-174.259 -599.905)"/></g></g><path class="r" d="M10.881,580.435l-2.266,9.925L17.8,653.967h2.777l-4.934-74.654A25.7,25.7,0,0,1,10.881,580.435Z" transform="translate(-12.341 -20.101)"/><g transform="translate(-53.164 457.02)"><path class="ab" d="M-32.751,469.065l5.653-5.653-5.653-5.653" transform="translate(47.412 -457.76)"/><path class="ab" d="M-38.564,469.065l5.653-5.653-5.653-5.653" transform="translate(48.338 -457.76)"/><path class="ab" d="M-44.377,469.065l5.653-5.653-5.653-5.653" transform="translate(49.264 -457.76)"/><path class="ab" d="M-50.19,469.065l5.653-5.653-5.653-5.653" transform="translate(50.19 -457.76)"/></g><g transform="translate(181.876 497.636)"><path class="ab" d="M235.034,506.07l-5.653,5.653,5.653,5.653" transform="translate(-229.381 -506.07)"/><path class="ab" d="M240.846,506.07l-5.653,5.653,5.653,5.653" transform="translate(-230.307 -506.07)"/><path class="ab" d="M246.659,506.07l-5.653,5.653,5.653,5.653" transform="translate(-231.233 -506.07)"/><path class="ab" d="M252.472,506.07l-5.653,5.653,5.653,5.653" transform="translate(-232.159 -506.07)"/></g><path class="p" d="M83.529,474.383a5.306,5.306,0,0,0-8.647-5.79A7.955,7.955,0,0,0,59.049,469.7l0,1.494H53.92a3.233,3.233,0,0,0-3.233,3.233h0a3.233,3.233,0,0,0,3.233,3.233H89.013a1.637,1.637,0,0,0,1.638-1.637h0a1.638,1.638,0,0,0-1.638-1.638Z" transform="translate(-19.042 -1.373)"/></g></svg>