<svg xmlns="http://www.w3.org/2000/svg" width="193.344" height="528.974" viewBox="0 0 193.344 528.974"><defs><style>.a{fill:#363a68;}.b{fill:#260e0d;}.c{fill:#2f1954;}.d{fill:#0e0e0e;}.e{fill:#f1a97e;}.f{fill:#fc7575;}.g{fill:#fd5e5a;}.h{fill:#121841;}.i{fill:#2f499f;}.j{fill:#555da2;}.k{fill:#777eb5;}.l{fill:#1e3340;}.m{fill:#eef1f9;}.n{fill:#2b3278;}.o{fill:#6e52f1;}.p{fill:#ff8c2b;}.q{fill:#00d7ea;}</style></defs><g transform="translate(-567 -3106.718)"><g transform="translate(580.187 3106.718)"><path class="a" d="M2818.124,924.707s-4.521,26.483-18.707,44.313c-10.605,13.326-32.789,28.181-32.789,28.181l12.565,13.483,34.644-28Z" transform="translate(-2733.387 -808.221)"/><path class="b" d="M2861.4,889.982h27.784l-.9,89.463-36.888,2.435Z" transform="translate(-2757.693 -798.265)"/><path class="b" d="M2815.627,1483.841c-15.65,0-15.267,6.3-15.267,6.3h45.808s-2.28-19.36-2.627-23.94h-10.755C2831.6,1471.8,2827.646,1483.841,2815.627,1483.841Z" transform="translate(-2743.059 -963.475)"/><path class="b" d="M2916.845,1486.152c-14.253,0-17.166-16.912-17.573-19.95h-10.292c0,.828,0,1.347,0,1.476,0,2.1-2.674,24.772-2.674,24.772h45.809S2932.493,1486.152,2916.845,1486.152Z" transform="translate(-2767.699 -963.475)"/><path class="c" d="M2891.627,1260.372l14.627-121.086-4.13-35.836h-80.5l-.574,31.579-8.45,123.034s21,102.444,20.638,104.133h15.2c-.028-.37-4.293-112.323-4.293-112.323l17.37-99.729,6.793,104.68s-3.084,94.357-3.136,107.372h14.309C2879.438,1361.9,2891.627,1260.372,2891.627,1260.372Z" transform="translate(-2746.567 -859.469)"/><path class="d" d="M2906.26,1108.158l-.54-4.709h-80.5l-.074,4.127,16.9,5.628a72.187,72.187,0,0,0,42.383,1.054Z" transform="translate(-2750.163 -859.469)"/><path class="e" d="M2910.687,914.558c-8.754-9.627-29.014-24.991-51.346-21.283l-23.331,10.144-6.86,49.307-6.145,93.92,83.2.935,7.915-91.423S2919.439,924.188,2910.687,914.558Z" transform="translate(-2749.551 -799.046)"/><path class="f" d="M2869.05,858.637s-.243,19.266-2.12,29.077c-.728,3.8,1.05,7.682,4.341,9.081a16.547,16.547,0,0,0,9.672.887c10.469-1.953,10.825-13.471,10.825-13.471l-3.532-35.133Z" transform="translate(-2762.099 -786.537)"/><path class="g" d="M2888.921,849.077l-19.187,9.56s-.088,7.112-.58,14.894c5.007.242,11.3-2.538,17.973-10.92.993-1.247,1.917-2.483,2.782-3.706Z" transform="translate(-2762.783 -786.537)"/><path class="f" d="M2865.788,792.945a33.681,33.681,0,0,0-9.4,14.642c-2.842,9.176-5.325,15.813-5.325,15.813l3.017,1.952s-2.4,12.808-.535,17.182c2.842,6.636,14.82,12.005,28.4-2.929s14.731-28.114,12.423-34.556S2871.114,789.626,2865.788,792.945Z" transform="translate(-2757.595 -770.238)"/><path class="h" d="M2885.657,798.391a16.55,16.55,0,0,0-14.73-3.123c-8.7,2.343-11.626-1.269-9.939-3.124,0,0-7.633.194-10.471-6.639s-2.132-27.526,11.36-23.622,10.763,13.276,10.763,13.276,4.32-4.491,8.4-2.148,3.553,5.662,3.553,5.662,3.728,7.614,8.873,8.589,4.614,12.3,4.614,12.3,3.018,2.343.887,10.543-14.687,20.75-14.687,24.654c0,0-3.059-4.937-.575-12.943s2.484-12.689-.177-12.689S2885.657,798.391,2885.657,798.391Z" transform="translate(-2757.052 -761.398)"/><path class="f" d="M2894.775,833.032s.863-6.736,2.792-6.736,3.729.732,3.264,4.539-2.465,8.053-4.99,6.3A2.977,2.977,0,0,1,2894.775,833.032Z" transform="translate(-2770.008 -780.005)"/><path class="h" d="M2923.812,813.219a2.447,2.447,0,0,0-1.184-1.44c-1.8-.846-4.216.975-5.807,2.235l-.268-.353a12.421,12.421,0,0,1,3.795-3.21,3.781,3.781,0,0,1,5.308,2.082Z" transform="translate(-2776.373 -775.341)"/><path class="h" d="M2924.177,823.187a8.078,8.078,0,0,0-.061-3.131c-1.154-5.066-6.765-4.625-7.038-4.775v-.315c.16.061,8.115-1.637,9.253,6.544a9.238,9.238,0,0,1,.088,2.175Z" transform="translate(-2776.523 -776.726)"/><path class="i" d="M2868.348,820.531c0,1.658-.663,3-1.484,3s-1.487-1.344-1.487-3,.668-3,1.487-3S2868.348,818.874,2868.348,820.531Z" transform="translate(-2761.7 -777.492)"/><path class="i" d="M2871.233,816.023a6.138,6.138,0,0,0-6.886-1.018l-.562-2.158a6.671,6.671,0,0,1,7.659,1.183Z" transform="translate(-2761.243 -775.944)"/><path class="j" d="M2843.524,894.755l-6.2,182.3h-38.6l11.381-82.8,7.462-50.344s3.62-33.851,11.48-39.9A92.974,92.974,0,0,1,2843.524,894.755Z" transform="translate(-2742.59 -799.633)"/><path class="g" d="M2896.428,831.129s1.124-2.283,2.132-1.957,1.237,4.912-.552,6.842S2894.709,834.781,2896.428,831.129Z" transform="translate(-2770.386 -780.82)"/><path class="j" d="M2903.332,893.358l-4.062,183.294h41.338s1.556-145.274-3.021-160.461S2903.332,893.358,2903.332,893.358Z" transform="translate(-2771.417 -799.232)"/><path class="k" d="M2840.494,900.164l17.781-10.181-5.728,90.2-9.767-50.979,3.443-2.32Z" transform="translate(-2754.565 -798.265)"/><path class="k" d="M2902.2,981.42l1.552-91.438,15.841,7.052-8.626,29.784,2.187,1.675Z" transform="translate(-2772.257 -798.265)"/><path class="l" d="M2777.323,1033.735l-57.3-42.9,60.686-5.511,45.89,48.412Z" transform="translate(-2720.025 -825.6)"/><path class="f" d="M2839.174,1027.663s6.225,1.394,8.527,3.858c2.937,3.146,9.909,8.259,12.841,8.259s15.409,1.219,15.409,1.219l2.094,13.732s-46.557-10.663-48.748-13.01,10.915,1.745,10.915.7-15.792-2.219-14.978-4.858,14.573,3.553,15.792,2.245-16.606-3.487-16.606-6.277,17.748,4.031,17.748,4.031.325-1.417-4.477-3.683-9.46-4.092-8.394-5.23,13.339,6.083,14.959,4.351Z" transform="translate(-2749.957 -837.74)"/><path class="k" d="M2922.115,918.766s-6.768,12.376-5.418,30.2,3.657,45.167-.131,54.08-31.541,0-31.541,0v21.1s40.238,16.344,51.893,11,10.543-51.408,10.543-73.992S2929.546,902.564,2922.115,918.766Z" transform="translate(-2767.333 -805.353)"/><path class="m" d="M2922.115,920.4c-3.338,7.168-5.539,17.789-4.837,28.817,1.254,16.6,5.205,52.617-2.024,58.094-6.973,4.285-22.726.014-30.229-2.627,7.366,1.955,28.209,6.764,30.912-.323,2.308-5.67,1.938-19.369,1.722-25.459-.839-26.329-4.067-35.619,1.494-51.684A41.452,41.452,0,0,1,2922.115,920.4Z" transform="translate(-2767.333 -806.986)"/><path class="n" d="M2858.981,852.214l.534,3.315a14.3,14.3,0,0,0,10.052-6.452C2865.577,853.068,2858.981,852.214,2858.981,852.214Z" transform="translate(-2759.866 -786.537)"/><path class="f" d="M2775.758,1026.325a18.6,18.6,0,0,0-2.094,4.018c-1.242,2.937,2.22,5.954,2.9,6.586a32.577,32.577,0,0,0,5.061,3.678,12.046,12.046,0,0,0,3.773,1.549c2.045.447,6.637-6.848,6.005-7.545-.424-.467-.938-.835-1.415-.688-.5.154-5.6,4.135-5.6,4.135s4.6-5.737,4.075-7.446-1.512-1.495-1.91-1.063-6.245,5.821-6.245,5.821,3.939-6.856,3.6-7.971-1.936-1.9-3.739.868a33.031,33.031,0,0,1-3.676,4.071s2.217-5.175,1.706-6.845S2775.758,1026.325,2775.758,1026.325Z" transform="translate(-2735.328 -836.953)"/></g><circle class="o" cx="12.5" cy="12.5" r="12.5" transform="translate(567 3199)"/><circle class="p" cx="3.5" cy="3.5" r="3.5" transform="translate(622 3217)"/><circle class="q" cx="8.5" cy="8.5" r="8.5" transform="translate(585 3236)"/></g></svg>