<svg xmlns="http://www.w3.org/2000/svg" width="55.625" height="55.153" viewBox="0 0 55.625 55.153"><defs><style>.a{fill:#9831ff;}</style></defs><g transform="translate(0 -2)"><path class="a" d="M443.777,7.935H443V4.065A2.064,2.064,0,0,0,440.938,2h-1.575A2.063,2.063,0,0,0,437.3,4.065V50.257c0,.008,0,.015,0,.023a.022.022,0,0,0,0,0c0,.006,0,.012,0,.018a.016.016,0,0,1,0,0v.022a.8.8,0,0,0,.022.132l1.3,5.488a1.568,1.568,0,0,0,3.051,0l1.3-5.488a.82.82,0,0,0,.022-.132v0c0-.007,0-.013,0-.02v0c0-.006,0-.012,0-.018a.018.018,0,0,1,0,0c0-.008,0-.015,0-.023V9.565h.777a.01.01,0,0,1,.01.01V20.14a.815.815,0,0,0,1.63,0V9.575A1.641,1.641,0,0,0,443.777,7.935Zm-4.846,41.507V11.15h2.439V49.442ZM441.37,9.52h-2.439V7.98h2.439Zm-2.007-5.887h1.575a.432.432,0,0,1,.432.432V6.351h-2.439V4.065A.432.432,0,0,1,439.363,3.634Zm.788,51.686-1-4.248h2.009Z" transform="translate(-389.792 -0.004)"/><path class="a" d="M145.083,363.633H130.366a.815.815,0,0,0,0,1.63h14.717a.815.815,0,0,0,0-1.63Z" transform="translate(-115.476 -322.344)"/><path class="a" d="M145.083,405.926H130.366a.815.815,0,1,0,0,1.63h14.717a.815.815,0,0,0,0-1.63Z" transform="translate(-115.476 -360.042)"/><path class="a" d="M137.724,448.215h-7.358a.815.815,0,1,0,0,1.63h7.358a.815.815,0,0,0,0-1.63Z" transform="translate(-115.476 -397.737)"/><path class="a" d="M90.585,153.814h27.757a.815.815,0,1,0,0-1.63H90.585a.815.815,0,1,0,0,1.63Z" transform="translate(-80.017 -133.868)"/><path class="a" d="M90.585,202.923h27.757a.815.815,0,1,0,0-1.63H90.585a.815.815,0,0,0,0,1.63Z" transform="translate(-80.017 -177.641)"/><path class="a" d="M90.585,252.032h13.447a.815.815,0,1,0,0-1.63H90.585a.815.815,0,1,0,0,1.63Z" transform="translate(-80.017 -221.415)"/><path class="a" d="M75.44,13.885v0a.811.811,0,0,0-.159-.444l-.011-.014,0,0-.009-.012,0,0-.008-.01,0-.006-.006-.007-.007-.008,0,0-.009-.01h0l-.013-.014L64.094,2.239a.781.781,0,0,0-.085-.074l0,0L64,2.155l-.008-.006-.005,0-.012-.008h0A.811.811,0,0,0,63.559,2H36.9a2.988,2.988,0,0,0-2.985,2.985V32.5a.815.815,0,1,0,1.63,0V4.985A1.356,1.356,0,0,1,36.9,3.63H62.7V12.8a1.937,1.937,0,0,0,1.936,1.935h9.173v39.43a1.355,1.355,0,0,1-1.351,1.355l-5.1-.022h0a.815.815,0,0,0,0,1.63l5.107.022a2.988,2.988,0,0,0,2.985-2.985V13.923c0-.007,0-.014,0-.02S75.44,13.891,75.44,13.885ZM64.332,12.8V4.782l8.326,8.326h-8.02A.306.306,0,0,1,64.332,12.8Z" transform="translate(-30.233 0)"/><path class="a" d="M32.668,306.184H2.43A2.433,2.433,0,0,0,0,308.614v17.223a2.433,2.433,0,0,0,2.43,2.43H32.668a2.433,2.433,0,0,0,2.43-2.43V308.614A2.433,2.433,0,0,0,32.668,306.184Zm.8,19.653a.8.8,0,0,1-.8.8H2.43a.8.8,0,0,1-.8-.8V308.614a.8.8,0,0,1,.8-.8H32.668a.8.8,0,0,1,.8.8Z" transform="translate(0 -271.137)"/><path class="a" d="M91.467,53.016h5.77a1.7,1.7,0,0,0,1.7-1.7V45.549a1.7,1.7,0,0,0-1.7-1.7h-5.77a1.7,1.7,0,0,0-1.7,1.7v5.769A1.7,1.7,0,0,0,91.467,53.016ZM91.4,45.549a.068.068,0,0,1,.067-.067h5.77a.067.067,0,0,1,.067.067v5.769a.067.067,0,0,1-.067.067h-5.77a.067.067,0,0,1-.067-.067Z" transform="translate(-80.017 -37.305)"/><path class="a" d="M42.331,358.016h-4.51a1.428,1.428,0,0,0-1.426,1.426v4.51a1.427,1.427,0,0,0,1.426,1.426h4.51a1.428,1.428,0,0,0,1.426-1.426v-4.51A1.428,1.428,0,0,0,42.331,358.016Zm-.2,5.732h-4.1v-4.1h4.1Z" transform="translate(-32.441 -317.337)"/></g></svg>