<svg xmlns="http://www.w3.org/2000/svg" xmlns:xlink="http://www.w3.org/1999/xlink" width="1366" height="445" viewBox="0 0 1366 445"><defs><style>.a{fill:#fafcfc;}.b{fill:#5db9f4;}.c{fill:#b098ee;}.d{fill:url(#a);}.e{fill:#f8e74a;}.f{fill:#1179c5;}.g{fill:#5a4496;}.h{fill:#d9ccff;}.i{fill:#ffba00;}.j{fill:#fff7cf;}.k{fill:#cd3179;}.l{fill:#002b32;}.m{fill:#411026;}.ak,.n{fill:#fd5e5a;}.o{fill:#50576d;}.p{fill:#0089a9;}.q{fill:#196a7d;}.r{fill:#403952;}.s{fill:#f9ad15;}.t{fill:#003645;}.u{fill:#00485c;}.v{fill:#7f71a4;}.w{fill:#5f557b;opacity:0.42;}.x{fill:#b2aac8;}.y{fill:#fc7575;}.z{fill:#1b2b80;}.aa{fill:#2b3278;}.ab{fill:#464a7f;}.ac{fill:#70c3f8;}.ad{fill:#3c1047;}.ae{fill:#cef2fa;}.af{fill:#e2f7fc;}.ag{fill:#8b2d5f;}.ah{fill:#510b5e;}.ai{fill:#42004a;}.aj{fill:#fff;}.ak{opacity:0.53;mix-blend-mode:multiply;isolation:isolate;}.al{fill:#560d68;}.am{fill:#730033;}.an{fill:#904;}.ao{fill:#3a1425;}.ap{fill:#571a35;}.aq{fill:#1d1b22;}.ar{fill:#393644;}.as{fill:#363a68;}.at{fill:#260e0d;}.au{fill:#2f1954;}.av{fill:#0e0e0e;}.aw{fill:#f1a97e;}.ax{fill:#121841;}.ay{fill:#2f499f;}.az{fill:#555da2;}.ba{fill:#777eb5;}.bb{fill:#1e3340;}.bc{fill:#eef1f9;}.bd{fill:#635258;}.be{fill:#846d75;}.bf{fill:#603e6b;}.bg{fill:#1c0f00;}.bh{fill:#3c405e;}.bi{fill:#242744;}.bj{fill:#595e7a;}.bk{fill:#733953;}.bl{fill:#ab99a1;}.bm{fill:#ad3369;}.bn{fill:#ce85a5;}.bo{fill:#deadc3;}.bp{fill:#2e0a29;}.bq{fill:#172866;}.br{fill:#023135;}.bs{fill:#8dfdb0;}.bt{fill:#13447a;}.bu{fill:#be1e2d;}.bv{fill:#20c9ac;}.bw{fill:#5b1432;}</style><linearGradient id="a" y1="0.5" x2="1" y2="0.5" gradientUnits="objectBoundingBox"><stop offset="0" stop-color="#f20000"/><stop offset="1" stop-color="#ffa630"/></linearGradient></defs><g transform="translate(0 -323)"><rect class="a" width="1366" height="88" transform="translate(0 680)"/><path class="b" d="M1895.487,1467.749c0,5.546-183.635,10.04-410.16,10.04s-410.158-4.494-410.158-10.04,183.635-10.037,410.158-10.037S1895.487,1462.207,1895.487,1467.749Z" transform="translate(-640.17 -739.096)"/><g transform="translate(437.757 323)"><g transform="translate(0 194.024)"><path class="c" d="M1132.12,1294.459a11.024,11.024,0,0,1-14.518-.525,11.025,11.025,0,0,1,14.518.525Z" transform="translate(-1101.549 -1163.57)"/><path class="c" d="M1223.259,1234.384a264.431,264.431,0,0,1-2.776-42.643c.058-7.123.45-14.237,1.014-21.33.541-7.1,1.407-14.162,2.4-21.2a390.917,390.917,0,0,1,8.4-41.79q2.661-10.32,5.88-20.482c2.153-6.772,4.455-13.488,7.11-20.1l.839.341c-2.553,6.588-4.772,13.331-6.832,20.1s-3.922,13.61-5.606,20.486a389.69,389.69,0,0,0-7.847,41.708c-.9,7.015-1.667,14.049-2.118,21.1-.473,7.053-.774,14.115-.742,21.178a261.491,261.491,0,0,0,3.271,42.155Z" transform="translate(-1158.801 -1038.528)"/><path class="c" d="M1275.335,1002.975c-4.023,2.426-7.23,7.565-8.121,13.851s.758,12.114,3.949,15.563c4.023-2.426,7.231-7.565,8.122-13.851S1278.525,1006.424,1275.335,1002.975Z" transform="translate(-1184.702 -1002.975)"/><path class="c" d="M1232.247,1051.81c-.493,3.638,1.067,8.106,4.459,11.724s7.747,5.466,11.409,5.211c.492-3.636-1.067-8.1-4.459-11.724S1235.908,1051.555,1232.247,1051.81Z" transform="translate(-1165.32 -1030.148)"/><path class="c" d="M1268.871,1080.481c3.081,1.994,7.789,2.484,12.507.957s8.244-4.685,9.572-8.1c-3.082-2-7.788-2.484-12.506-.957S1270.2,1077.06,1268.871,1080.481Z" transform="translate(-1185.758 -1041.11)"/><path class="c" d="M1259.3,1113.5c3.082,1.993,7.788,2.483,12.506.956s8.244-4.684,9.572-8.106c-3.081-1.992-7.788-2.484-12.506-.956S1260.624,1110.078,1259.3,1113.5Z" transform="translate(-1180.428 -1059.491)"/><path class="c" d="M1248.426,1149.543c3.081,1.994,7.789,2.484,12.506.957s8.245-4.685,9.572-8.106c-3.082-1.994-7.788-2.484-12.506-.957S1249.753,1146.122,1248.426,1149.543Z" transform="translate(-1174.377 -1079.556)"/><path class="c" d="M1241.136,1183.11c3.082,1.994,7.79,2.484,12.506.957s8.245-4.683,9.573-8.106c-3.082-1.994-7.788-2.484-12.508-.956S1242.463,1179.687,1241.136,1183.11Z" transform="translate(-1170.318 -1098.242)"/><path class="c" d="M1216.441,1176.314c-3.083,2-7.789,2.486-12.507.957s-8.245-4.683-9.574-8.1c3.083-2,7.79-2.484,12.508-.957S1215.111,1172.892,1216.441,1176.314Z" transform="translate(-1144.279 -1094.459)"/><path class="c" d="M1222.488,1083.748c-.493,3.636,1.068,8.105,4.459,11.724s7.747,5.466,11.41,5.211c.492-3.638-1.068-8.1-4.459-11.725S1226.151,1083.492,1222.488,1083.748Z" transform="translate(-1159.888 -1047.927)"/><path class="c" d="M1211.31,1120.029c-.493,3.636,1.067,8.1,4.459,11.724s7.747,5.467,11.41,5.211c.492-3.637-1.068-8.1-4.461-11.723S1214.971,1119.772,1211.31,1120.029Z" transform="translate(-1153.665 -1068.124)"/><g transform="translate(62.001 45.717)"><path class="c" d="M1315.018,1150.91a148.038,148.038,0,0,0-17.567,11.648,197.219,197.219,0,0,0-16.07,13.651,198.745,198.745,0,0,0-27.493,31.973,196.872,196.872,0,0,0-20.15,37.122,205.315,205.315,0,0,0-11.663,40.672l2.987.5a202.557,202.557,0,0,1,10.882-40.291,194.992,194.992,0,0,1,19.367-37.033,197.689,197.689,0,0,1,26.811-32.168,197.1,197.1,0,0,1,15.784-13.836,147.723,147.723,0,0,1,17.31-11.866Z" transform="translate(-1221.709 -1131.046)"/><path class="c" d="M1452.579,1114.443c-.329,4.684-3.447,9.879-8.639,13.531s-11.133,4.835-15.656,3.564c.329-4.688,3.447-9.882,8.639-13.535S1448.056,1113.17,1452.579,1114.443Z" transform="translate(-1336.503 -1110.469)"/><path class="c" d="M1395.458,1106.1c3.469,3.171,5.6,8.841,5.236,15.178s-3.129,11.728-6.937,14.48c-3.466-3.169-5.6-8.841-5.235-15.178S1391.652,1108.854,1395.458,1106.1Z" transform="translate(-1314.345 -1106.101)"/><path class="c" d="M1353.435,1129.471c4.186,2.134,7.749,7.032,9.087,13.238s.1,12.137-2.831,15.8c-4.187-2.132-7.752-7.03-9.088-13.236S1350.5,1133.139,1353.435,1129.471Z" transform="translate(-1292.959 -1119.111)"/><path class="c" d="M1322.029,1158.363c4.187,2.133,7.752,7.032,9.088,13.238s.106,12.137-2.832,15.806c-4.186-2.134-7.749-7.032-9.087-13.24S1319.094,1162.03,1322.029,1158.363Z" transform="translate(-1275.476 -1135.194)"/><path class="c" d="M1288.61,1188.061c4.593.991,9.292,4.814,12.172,10.472s3.206,11.707,1.306,16c-4.592-.99-9.292-4.815-12.171-10.472S1286.709,1192.357,1288.61,1188.061Z" transform="translate(-1258.084 -1151.727)"/><path class="c" d="M1264.461,1225.226c4.193-.178,9.115,2.069,12.88,6.309s5.409,9.394,4.732,13.537c-4.19.178-9.114-2.068-12.878-6.309S1263.787,1229.369,1264.461,1225.226Z" transform="translate(-1245.222 -1172.411)"/><path class="c" d="M1245.99,1248.6c4.193-.178,9.114,2.068,12.878,6.309s5.407,9.4,4.732,13.536c-4.192.179-9.114-2.066-12.878-6.307S1245.314,1252.744,1245.99,1248.6Z" transform="translate(-1234.94 -1185.424)"/><path class="c" d="M1235.465,1283.084c3.593-.153,7.813,1.771,11.039,5.406s4.637,8.054,4.057,11.6c-3.593.153-7.812-1.771-11.038-5.407S1234.886,1286.633,1235.465,1283.084Z" transform="translate(-1229.092 -1204.62)"/><path class="c" d="M1225.389,1317.535c2.614-1.476,6.5-1.652,10.312-.182s6.573,4.209,7.52,7.061c-2.615,1.476-6.5,1.652-10.314.182S1226.333,1320.387,1225.389,1317.535Z" transform="translate(-1223.554 -1223.135)"/><path class="c" d="M1221.249,1345.179a10.981,10.981,0,0,1,15.3.66,10.984,10.984,0,0,1-15.3-.66Z" transform="translate(-1221.249 -1237.64)"/><path class="c" d="M1428.365,1178.836c-4,2.474-10.03,2.98-16.032.905s-10.434-6.2-12.044-10.616c3.993-2.474,10.029-2.98,16.03-.906S1426.753,1174.423,1428.365,1178.836Z" transform="translate(-1320.918 -1139.961)"/><path class="c" d="M1399.778,1202.358c-4,2.475-10.03,2.982-16.03.905s-10.432-6.2-12.045-10.618c3.993-2.473,10.032-2.98,16.03-.905S1398.167,1197.945,1399.778,1202.358Z" transform="translate(-1305.005 -1153.055)"/><path class="c" d="M1369.307,1231.365c-4,2.472-10.03,2.982-16.03.905s-10.432-6.2-12.045-10.618c3.994-2.472,10.03-2.98,16.03-.905S1367.694,1226.952,1369.307,1231.365Z" transform="translate(-1288.042 -1169.203)"/><path class="c" d="M1341.5,1253.452c-3.249,2.013-8.16,2.425-13.038.738s-8.485-5.046-9.8-8.635c3.247-2.011,8.158-2.424,13.038-.737S1340.184,1249.863,1341.5,1253.452Z" transform="translate(-1275.477 -1182.737)"/><path class="c" d="M1321.252,1274.063c-2.658,1.718-6.643,2.113-10.586.749s-6.834-4.136-7.86-7.128c2.656-1.717,6.644-2.113,10.586-.749S1320.224,1271.072,1321.252,1274.063Z" transform="translate(-1266.651 -1195.178)"/><path class="c" d="M1305.866,1297.76c-2.658,1.716-6.644,2.111-10.588.748s-6.832-4.137-7.859-7.129c2.656-1.718,6.643-2.113,10.584-.749S1304.838,1294.768,1305.866,1297.76Z" transform="translate(-1258.086 -1208.369)"/><path class="c" d="M1289.426,1322.626c-2.153,1.834-5.761,2.719-9.629,2.093s-7.014-2.606-8.478-5.025c2.153-1.833,5.761-2.718,9.63-2.091S1287.963,1320.208,1289.426,1322.626Z" transform="translate(-1249.123 -1223.729)"/><path class="c" d="M1279.107,1344.414a11.69,11.69,0,1,1-4.845-7.232C1277.113,1339.129,1278.867,1341.905,1279.107,1344.414Z" transform="translate(-1246.029 -1233.544)"/><path class="c" d="M1266.719,1361.314a8.943,8.943,0,1,1-2.614-6.124A8.082,8.082,0,0,1,1266.719,1361.314Z" transform="translate(-1241.687 -1243.296)"/><path class="c" d="M1258.913,1369.781a5.009,5.009,0,1,1-1.453-3.891A4.681,4.681,0,0,1,1258.913,1369.781Z" transform="translate(-1239.219 -1249.889)"/><path class="c" d="M1255.03,1377.753a5,5,0,1,1-1.451-3.891A4.673,4.673,0,0,1,1255.03,1377.753Z" transform="translate(-1237.058 -1254.327)"/></g><g transform="translate(0 32.986)"><path class="c" d="M1121.827,1124.181a137.306,137.306,0,0,1,11.958,15.467,182.981,182.981,0,0,1,10.045,16.783,184.527,184.527,0,0,1,14.617,36.279,182.731,182.731,0,0,1,6.63,38.615,190.441,190.441,0,0,1-1.883,39.2l-2.773-.453a187.7,187.7,0,0,0,2.455-38.633,180.827,180.827,0,0,0-5.97-38.3,183.3,183.3,0,0,0-13.959-36.247,181.919,181.919,0,0,0-9.739-16.859,136.95,136.95,0,0,0-11.666-15.583Z" transform="translate(-1103.742 -1103.434)"/><path class="c" d="M1087.257,1077.382c-1.107,4.214.084,9.7,3.556,14.462s8.337,7.565,12.688,7.8c1.108-4.215-.082-9.707-3.552-14.463S1091.61,1077.612,1087.257,1077.382Z" transform="translate(-1084.433 -1077.382)"/><path class="c" d="M1147.248,1093.022c-3.991,1.751-7.554,6.1-9.124,11.771s-.746,11.235,1.776,14.788c3.992-1.752,7.555-6.1,9.124-11.772S1149.771,1096.576,1147.248,1093.022Z" transform="translate(-1112.529 -1086.089)"/><path class="c" d="M1174.909,1127.433c-4.313.625-8.9,3.865-11.928,8.917s-3.71,10.629-2.224,14.726c4.313-.626,8.9-3.865,11.928-8.917S1176.4,1131.528,1174.909,1127.433Z" transform="translate(-1125.152 -1105.245)"/><path class="c" d="M1193.878,1162.173c-4.312.623-8.9,3.864-11.928,8.916s-3.712,10.631-2.225,14.727c4.313-.625,8.906-3.864,11.929-8.917S1195.364,1166.27,1193.878,1162.173Z" transform="translate(-1135.71 -1124.584)"/><path class="c" d="M1210.67,1198.938c-4.329-.5-9.6,1.459-13.813,5.568s-6.306,9.327-5.917,13.669c4.329.5,9.6-1.46,13.812-5.57S1211.058,1203.279,1210.67,1198.938Z" transform="translate(-1142.349 -1145.008)"/><path class="c" d="M1219.927,1238.317c-3.631-1.406-8.624-.9-13.193,1.7s-7.551,6.641-8.193,10.48c3.628,1.407,8.621.9,13.192-1.7S1219.285,1242.156,1219.927,1238.317Z" transform="translate(-1146.606 -1166.546)"/><path class="c" d="M1229.182,1264.359c-3.631-1.407-8.622-.9-13.193,1.7s-7.552,6.64-8.194,10.477c3.631,1.407,8.624.9,13.194-1.7S1228.54,1268.2,1229.182,1264.359Z" transform="translate(-1151.758 -1181.042)"/><path class="c" d="M1232.006,1297.924c-3.11-1.208-7.389-.773-11.306,1.458s-6.474,5.693-7.024,8.982c3.112,1.2,7.391.772,11.308-1.459S1231.457,1301.214,1232.006,1297.924Z" transform="translate(-1155.032 -1199.788)"/><path class="c" d="M1231.056,1329.3c-1.857-2.078-5.219-3.391-9-3.236s-7.029,1.736-8.709,3.959c1.857,2.078,5.219,3.391,9,3.236S1229.376,1331.523,1231.056,1329.3Z" transform="translate(-1154.846 -1215.814)"/><path class="c" d="M1230.972,1354.09a10.187,10.187,0,1,0-7.628.779A9.244,9.244,0,0,0,1230.972,1354.09Z" transform="translate(-1157.069 -1228.517)"/><path class="c" d="M1081.39,1145.136c2.771,3.365,7.922,5.609,13.812,5.575s11.013-2.339,13.744-5.735c-2.772-3.365-7.922-5.609-13.81-5.574S1084.122,1141.742,1081.39,1145.136Z" transform="translate(-1081.39 -1111.908)"/><path class="c" d="M1099.486,1174.322c2.771,3.363,7.921,5.609,13.811,5.575s11.012-2.34,13.744-5.736c-2.771-3.363-7.921-5.609-13.809-5.573S1102.218,1170.927,1099.486,1174.322Z" transform="translate(-1091.464 -1128.155)"/><path class="c" d="M1117.6,1208.881c2.772,3.365,7.922,5.61,13.81,5.576s11.014-2.339,13.745-5.734c-2.77-3.363-7.922-5.609-13.811-5.576S1120.335,1205.488,1117.6,1208.881Z" transform="translate(-1101.549 -1147.393)"/><path class="c" d="M1142.058,1237.43c2.253,2.734,6.443,4.562,11.232,4.533s8.956-1.9,11.18-4.665c-2.254-2.736-6.445-4.56-11.234-4.534S1144.279,1234.667,1142.058,1237.43Z" transform="translate(-1115.163 -1163.881)"/><path class="c" d="M1159.185,1262.231a12.531,12.531,0,0,0,18.1-.106,11.5,11.5,0,0,0-9.076-3.812C1164.346,1258.335,1160.98,1259.91,1159.185,1262.231Z" transform="translate(-1124.698 -1178.104)"/><path class="c" d="M1165.634,1287.633c1.822,2.3,5.207,3.835,9.075,3.813s7.236-1.6,9.03-3.919c-1.821-2.3-5.206-3.836-9.073-3.812S1167.43,1285.311,1165.634,1287.633Z" transform="translate(-1128.288 -1192.245)"/><path class="c" d="M1174.052,1313.8c1.346,2.251,4.25,4.1,7.836,4.707s6.937-.2,8.942-1.886c-1.343-2.251-4.248-4.1-7.833-4.708S1176.061,1312.111,1174.052,1313.8Z" transform="translate(-1132.974 -1207.831)"/><path class="c" d="M1180.318,1338.271a10.845,10.845,0,1,0,6.412-4.907A9.808,9.808,0,0,0,1180.318,1338.271Z" transform="translate(-1136.462 -1219.633)"/><path class="c" d="M1191.457,1357.624a8.292,8.292,0,1,0,4.121-4.6A7.506,7.506,0,0,0,1191.457,1357.624Z" transform="translate(-1142.663 -1230.307)"/><path class="c" d="M1200.772,1367.482a4.644,4.644,0,1,0,2.435-2.984A4.331,4.331,0,0,0,1200.772,1367.482Z" transform="translate(-1147.848 -1236.929)"/><path class="c" d="M1201.807,1375.643a4.642,4.642,0,1,0,2.435-2.984A4.331,4.331,0,0,0,1201.807,1375.643Z" transform="translate(-1148.425 -1241.472)"/></g><g transform="translate(17.253 111.829)"><path class="c" d="M1159.134,1311.4c-6.634-9.72-13.621-19.215-21.078-28.333l.121-.1c7.648,8.972,14.834,18.329,21.677,27.935a337.753,337.753,0,0,1,19.063,29.827q2.093,3.746,4.072,7.57c-.515.288-1.029.575-1.54.874q-1.9-3.874-3.93-7.677A336,336,0,0,0,1159.134,1311.4Z" transform="translate(-1130.188 -1270.669)"/><path class="c" d="M1120.864,1255.233a9.612,9.612,0,1,1,.9,7.934A8.976,8.976,0,0,1,1120.864,1255.233Z" transform="translate(-1120.308 -1255.233)"/><path class="c" d="M1155.046,1268.039a11.025,11.025,0,0,1-5.235,13.551,11.027,11.027,0,0,1,5.235-13.551Z" transform="translate(-1136.309 -1262.362)"/><path class="c" d="M1145.886,1311.482a11.029,11.029,0,0,1-14.393-1.982,11.025,11.025,0,0,1,14.393,1.982Z" transform="translate(-1126.535 -1284.421)"/><path class="c" d="M1162.445,1332.856a11.023,11.023,0,0,1-14.392-1.982,11.023,11.023,0,0,1,14.392,1.982Z" transform="translate(-1135.753 -1296.319)"/><path class="c" d="M1173.693,1349.88a11.025,11.025,0,0,1-14.393-1.983,11.029,11.029,0,0,1,14.393,1.983Z" transform="translate(-1142.014 -1305.797)"/><path class="c" d="M1186.162,1368.677a11.027,11.027,0,0,1-14.393-1.984,11.029,11.029,0,0,1,14.393,1.984Z" transform="translate(-1148.956 -1316.26)"/><path class="c" d="M1169.459,1286.376a11.026,11.026,0,0,1-5.236,13.552,11.024,11.024,0,0,1,5.236-13.552Z" transform="translate(-1144.332 -1272.57)"/><path class="c" d="M1183.235,1305.252A11.026,11.026,0,0,1,1178,1318.8a11.026,11.026,0,0,1,5.236-13.551Z" transform="translate(-1152.002 -1283.078)"/><path class="c" d="M1196.345,1324.277a11.027,11.027,0,0,1-5.237,13.553,11.034,11.034,0,0,1,5.237-13.553Z" transform="translate(-1159.299 -1293.669)"/><path class="c" d="M1209.052,1342.922a11.029,11.029,0,0,1-5.237,13.551,11.026,11.026,0,0,1,5.237-13.551Z" transform="translate(-1166.373 -1304.048)"/></g><path class="d" d="M1160.7,1397.32h44.037c7.314,3.736,11.958,9.295,11.958,15.508,0,6.632-5.291,12.523-13.476,16.242h-41c-8.186-3.719-13.476-9.61-13.476-16.242C1148.745,1406.615,1153.389,1401.056,1160.7,1397.32Z" transform="translate(-1118.886 -1222.501)"/><path class="e" d="M1170.15,1405.107c-4.341-.506-10.158,2.768-11.66,9.347-2.049,12.985,10.956,16.8,18.053,13.5-6.186-1.55-12.947-4.389-13.146-10.78a12.378,12.378,0,0,1,1.678-6.669,17.987,17.987,0,0,1,1.864-2.5A18.859,18.859,0,0,1,1170.15,1405.107Z" transform="translate(-1124.19 -1226.808)"/><rect class="f" width="48.646" height="3.054" transform="translate(88.408 175.968) rotate(180)"/></g><g transform="translate(558.43 0)"><rect class="g" width="250.73" height="246.072" transform="translate(246.072) rotate(90)"/><rect class="h" width="236.617" height="241.276" transform="translate(4.727 4.728)"/><g transform="translate(32.401 23.332)"><path class="c" d="M2585.391,730.454h-44.212l38.885,21.068A47.392,47.392,0,0,0,2585.391,730.454Z" transform="translate(-2484.866 -680.574)"/><path class="c" d="M2425.955,730.454a47.636,47.636,0,0,0,24.181,40.627l22.012-40.627Z" transform="translate(-2420.722 -680.574)"/><path class="c" d="M2535.366,731.713v46.229a47.646,47.646,0,0,0,40.645-24.208Z" transform="translate(-2481.63 -681.275)"/><path class="c" d="M2425.955,700.073h44.3L2431.3,678.966A47.4,47.4,0,0,0,2425.955,700.073Z" transform="translate(-2420.722 -651.911)"/><path class="i" d="M2558.677,634.912l-22.02,40.636h46.216A47.643,47.643,0,0,0,2558.677,634.912Z" transform="translate(-2482.349 -627.387)"/><path class="c" d="M2480.485,667.216v-46.18a47.641,47.641,0,0,0-40.622,24.171Z" transform="translate(-2428.465 -619.663)"/><path class="j" d="M2536.658,617.938v44.237l21.081-38.906A47.424,47.424,0,0,0,2536.658,617.938Z" transform="translate(-2482.349 -617.938)"/><path class="c" d="M2505,736.114l-21.1,38.938a47.435,47.435,0,0,0,21.1,5.34Z" transform="translate(-2452.981 -683.725)"/><g transform="translate(11.517 101.203)"><rect class="c" width="10.439" height="39.489" transform="translate(0 64.241)"/><rect class="c" width="10.439" height="46.628" transform="translate(18.897 57.103)"/><rect class="c" width="10.438" height="53.765" transform="translate(37.795 49.965)"/><rect class="c" width="10.438" height="60.904" transform="translate(56.692 42.826)"/><rect class="c" width="10.438" height="68.041" transform="translate(75.589 35.689)"/><rect class="c" width="10.437" height="75.18" transform="translate(94.488 28.55)"/><rect class="c" width="10.438" height="82.317" transform="translate(113.384 21.413)"/><rect class="c" width="10.439" height="89.455" transform="translate(132.281 14.276)"/><rect class="c" width="10.438" height="96.593" transform="translate(151.179 7.138)"/><rect class="c" width="10.439" height="103.731" transform="translate(170.076)"/></g><path class="k" d="M2608.889,754.813h0c-.928.166-25.916,4.618-26.823,4.618l8.536,2.319-25.6,9.713c-1.337,5.843-2.286,9.988-3.036,13.276l-18.225-1.7c-2.481,2.233-21.615,19.443-24.093,21.671l-18.871-2.4c-5.165,4.4-30,25.559-34.942,29.769-4.936-1.666-11.989-4.049-16.291-5.5-1.829,1.27-33.509,23.247-35.392,24.554l1.763,2.541L2450.027,830c5.055,1.708,11.687,3.945,16.478,5.564,4.163-3.546,31.467-26.807,35.235-30.02,5.995.765,13.475,1.717,18.92,2.409,1.361-1.222,23.255-20.917,24.142-21.712l19.571,1.826c.838-3.668,2.873-12.556,3.288-14.369l24.293-11.129-1.884,8.35Z" transform="translate(-2414.151 -694.134)"/></g></g><path class="l" d="M2495.742,818.432l3.441-2.323s-8.98-14.768-8.053-27.495c.487-6.717-10.527-16.616-13.455-15.087-.178-.069-9.781.213-10.633,22.152L2465,821.38l10.377,9.19s6.54-11.212,14.858-6.284,10.869,4.78,10.869,4.78S2495.742,820.8,2495.742,818.432Z" transform="translate(-1851.626 -681.133)"/><path class="m" d="M2497.592,868.587s-9.18-4.57-16.514.377l.695,5.463,7.563,16.1,7.233-1.626,3.5-16.99Z" transform="translate(-1860.577 -733.069)"/><path class="m" d="M2425.022,1096.6s33.246-12.987,64.137-.387l-14.193-121.851-27.179,6.126Z" transform="translate(-1829.372 -793.026)"/><path class="n" d="M2583.577,1438.356c-1.716-4.582-2.748-11.453-4.924-20.728-.256-1.087-.605-2.646-1.021-4.54-2.829-.366-5.735,1.029-8.105,2.3.933,2.508,2.188,5.5,2.257,6.587.167,2.623-.633,2.867-.633,2.867.021,4.52,1.414,9.366,2.352,10.3,1.2,1.2,2.541,7.163,3.684,7.163s10.819,1.066,10.819,1.066C2588.262,1441.173,2585.294,1442.935,2583.577,1438.356Z" transform="translate(-1909.815 -1037.222)"/><g transform="translate(85.925 244.773)"><rect width="10.064" height="49.407" transform="translate(48.009 52.98)"/><rect class="o" width="7.693" height="39.31" transform="translate(49.195 102.388)"/><path class="p" d="M1365.513,1137.961c.5.075,2.016-5.009,2.1-5.623a6.242,6.242,0,0,0-1.343-4.892c-3.657-4.727-9.634-7.214-15.715-8.252-7.922-1.352-16.7-1.294-24.779-1.543-13.763-.425-30.64-.969-41.89,7.6-5.454,4.154-4.172,7.436-1.246,13.412-9.088,1.832-9.552,4.018-2.907,5.833a5.972,5.972,0,0,1,4.591,5.625v.707c0,15.359,13.612,27.809,30.4,27.809h19.792c16.792,0,30.4-12.45,30.4-27.809a6.048,6.048,0,0,1,5.054-5.736c4.452-.93,7.01-2.014,7.01-3.172C1376.984,1140.418,1372.681,1139.04,1365.513,1137.961Zm-39.414,28.191c-13.871,0-25.122-6.548-25.216-14.646h50.429C1351.22,1159.6,1339.97,1166.152,1326.1,1166.152Z" transform="translate(-1275.214 -1117.451)"/><path d="M1384.282,1443.7a2.772,2.772,0,0,0-2.76-2.787l-33.408-11.559v-1.792h-9.565v1.57l-34.07,12.492a2.778,2.778,0,0,0-2.714,2.839v1.444h11.261v-3.337l26.548-7.866h1.751l.7,7.563h-1.933a2.691,2.691,0,0,0-2.627,2.749v.892h12.353v-.892a2.69,2.69,0,0,0-2.625-2.749h-2.02l.655-7.562h.716l26.452,7.312.055,3.337,11.261-.209Z" transform="translate(-1289.995 -1290.085)"/><path class="q" d="M1364.261,1128.59c-9.6-3.7-20.641-3.365-30.88-3.282q-4.114.03-8.227.079c-12.009.165-34.891,2.079-33.346,17.407.008.072.013.145.025.216a34.517,34.517,0,0,1,10.58,6.1c4.588,4.1,6.354,15.1,6.4,15.274a7,7,0,0,0,2.221,3.35c5.494,5.019,14.66,6.567,22.23,6.513,5.235-.038,11.294-.269,16.2-1.9,15.177-5.061,10.356-19.137,14.944-23.233a49.567,49.567,0,0,1,10.31-6.806S1376.57,1133.334,1364.261,1128.59ZM1335.3,1170.5c-13.871,0-25.122-6.548-25.216-14.646h50.429C1360.416,1163.952,1349.166,1170.5,1335.3,1170.5Z" transform="translate(-1284.41 -1121.8)"/></g><g transform="translate(297.309 242.397)"><rect width="10.065" height="49.407" transform="translate(48.009 52.98)"/><rect class="o" width="7.696" height="34.382" transform="translate(49.193 102.387)"/><path class="p" d="M1842.344,1132.6c.5.075,2.013-5.009,2.094-5.624a6.246,6.246,0,0,0-1.345-4.892c-3.655-4.727-9.633-7.214-15.715-8.252-7.921-1.352-16.7-1.294-24.778-1.543-13.764-.425-30.64-.967-41.891,7.6-5.453,4.155-4.172,7.438-1.247,13.412-9.088,1.833-9.551,4.02-2.905,5.834a5.973,5.973,0,0,1,4.591,5.626v.708c0,15.357,13.613,27.808,30.4,27.808h19.792c16.794,0,30.4-12.451,30.4-27.808a6.048,6.048,0,0,1,5.054-5.738c4.453-.929,7.008-2.014,7.008-3.171C1853.812,1135.059,1849.51,1133.681,1842.344,1132.6Zm-39.417,28.19c-13.873,0-25.121-6.547-25.214-14.644h50.428C1828.049,1154.246,1816.8,1160.792,1802.927,1160.792Z" transform="translate(-1752.042 -1112.093)"/><path d="M1861.111,1430.077a2.924,2.924,0,0,0-2.758-3.074l-33.409-12.749v-1.978h-9.564v1.734l-34.073,13.781a2.943,2.943,0,0,0-2.711,3.128v1.594h11.261v-3.68l26.546-8.676h1.751l.7,8.341h-1.933a2.852,2.852,0,0,0-2.628,3.031v.983h12.353v-.983a2.851,2.851,0,0,0-2.627-3.031H1822l.658-8.341h.715l26.451,8.064.056,3.68,11.26-.228Z" transform="translate(-1766.824 -1279.2)"/><path class="q" d="M1841.088,1123.232c-9.594-3.7-20.642-3.363-30.88-3.282q-4.115.03-8.226.081c-12.008.165-34.892,2.078-33.348,17.406.008.072.015.145.026.216a34.533,34.533,0,0,1,10.58,6.1c4.588,4.095,6.354,15.1,6.4,15.272a7,7,0,0,0,2.22,3.352c5.5,5.019,14.664,6.566,22.233,6.513,5.235-.038,11.292-.269,16.195-1.9,15.177-5.059,10.356-19.137,14.944-23.232a49.542,49.542,0,0,1,10.31-6.806S1853.4,1127.976,1841.088,1123.232Zm-28.966,41.91c-13.873,0-25.121-6.547-25.213-14.645h50.428C1837.245,1158.595,1826,1165.141,1812.122,1165.141Z" transform="translate(-1761.238 -1116.442)"/></g><g transform="translate(475.133 255.245)"><rect width="10.064" height="49.407" transform="translate(47.893 46.229)"/><rect class="o" width="7.695" height="34.382" transform="translate(49.078 95.636)"/><path d="M2261.971,1440.142a2.616,2.616,0,0,0-2.76-2.438L2225.8,1427.6v-1.566h-9.563v1.374l-34.072,10.924a2.6,2.6,0,0,0-2.713,2.481v1.264h11.261v-2.918l26.549-6.878h1.75l.7,6.612h-1.935a2.525,2.525,0,0,0-2.627,2.405v.779H2227.5v-.779a2.525,2.525,0,0,0-2.629-2.405h-2.019l.657-6.612h.715l26.451,6.394.056,2.918,11.26-.182Z" transform="translate(-2167.8 -1299.705)"/><path class="q" d="M2235.941,1186.053c-.541-1.818-2.374-1-3.736-.6l-.716.117c-2.122-20.087-21.607-31.143-38.649-27.083-1.752-9.193-6.107-16.017-21.886-17.193a72.545,72.545,0,0,0-14.13.263,4.142,4.142,0,0,0,.642,8.252c-.142.006,10.219-.7,18.462,1.413,6.138,1.667,6.961,3.808,8.28,10.678,1.966,10.573,1.389,22.291,6.666,26.61C2198.55,1194.489,2237.833,1192.418,2235.941,1186.053Zm-39.933-4.027c.107.022.043,0,.107.048C2196.078,1182.058,2196.042,1182.04,2196.008,1182.026Zm.19.085c-1.634-6.16-1.958-12.359-2.566-18.005,11.46-1.87,23.647,2.251,29.915,12.574a32.56,32.56,0,0,1,4.035,9.225C2218.179,1186.2,2201.567,1184.481,2196.2,1182.111Z" transform="translate(-2153.165 -1141.074)"/></g><path class="r" d="M1442.966,1044.718c-3.072-2.307-7.2-15.168-8.2-17.557-6.319-15.048-14.584-33.705-20.825-32.9-8.892,1.153-10.521,7.83-8.466,18.1.863,4.316,11.622,26.635,12.987,25.969,6.043,8.851,13.224,16.753,19.433,18.71,4.539,1.432,10.365,1.372,16.03.691.38-3.126,1.08-6.254,1.23-9.38C1450.521,1048.025,1446.029,1047.014,1442.966,1044.718Z" transform="translate(-1261.363 -804.088)"/><path class="s" d="M1551.218,1122.968l-3.659-5.2s-6.483-5.008-11.234-4.75a80.092,80.092,0,0,1-19.327,1.453c-.15,3.126-.85,6.254-1.23,9.38a114.024,114.024,0,0,0,20.622-4.733s7.316.063,8.988,3.271,2.438,5.455,2.759,5.135-1.09-5.455-1.09-5.455,2.043,5.9,2.69,5.9-.7-4.621-.7-4.621l-1.8-3.4,3.145,3.593s-.128,2.889.449,2.889S1551.218,1122.968,1551.218,1122.968Z" transform="translate(-1323.202 -870.206)"/><path class="t" d="M1441.112,1192.246s42.633,24.684,42.633,26.531-29.586,74.347-29.586,74.347l1.1,13.216s6.984,5.833,4.961,5.833H1452.5s-2.574-6.22-4.226-7.97-5.512-6.026-5.512-6.026l5.512-6.8-2.756-.2,16.907-65.308-24.625-13.659-8.591-18.8Z" transform="translate(-1275.018 -914.316)"/><path class="u" d="M1362.03,1210.058l-.63,4.3,27.642,11.109,2.941,67.654h2.572l-2.388,14.544s-2.229,7.009-1.608,7.655,10.8,0,10.8,0l-1.286-22.2,1.286-.191s5.513-72.919,5.513-77.7-16.309-20.477-16.309-20.477Z" transform="translate(-1237.267 -915.709)"/><path class="v" d="M1366.618,988.306c-4.4-.059-23.413.586-28.079,15.795-5.288,17.231-11.257,78.358,6.191,95.9,0,0,33.739-21.471,49.419-17.255,0,0-21.979-19.109-16.955-35.747,3.5-11.584,6.409-40.854,4.039-50.02C1379.523,990.372,1373.386,988.4,1366.618,988.306Z" transform="translate(-1221.518 -800.784)"/><path class="w" d="M1382.931,1078.791a9.463,9.463,0,0,1-.9-.6c-3.057-2.293-39.5-46.651-37.445-36.381.986,4.937,4.474,18.957,10.346,28.012,3.057,5.732,16.094,21.718,22.135,23.624a20.007,20.007,0,0,0,9.188.264C1383.848,1089.015,1382.3,1083.847,1382.931,1078.791Z" transform="translate(-1227.86 -829.713)"/><path class="x" d="M1432.553,1057.891c2.282-11.088,5.63-39.368,4.039-50.02C1439.873,1019.455,1436.769,1046.13,1432.553,1057.891Z" transform="translate(-1276.878 -811.677)"/><g transform="translate(128.719 136.798)"><path class="y" d="M1386.367,942.359s-1.443,13.52-.4,22.394a7.182,7.182,0,0,0,3.433,5.323c3.83,2.3,10.5,5.7,13.011,3.138l-3.2-21.153Z" transform="translate(-1379.451 -912.005)"/><path class="n" d="M1387.2,942.359l12.842,9.7,1.621,10.732c-5.035.654-11.047-6.1-13.185-15.017a25.549,25.549,0,0,0-1.4-4.174C1387.149,942.81,1387.2,942.359,1387.2,942.359Z" transform="translate(-1380.28 -912.005)"/><path class="y" d="M1398.793,898.2a3.134,3.134,0,0,1,.668.829,21.168,21.168,0,0,1,2.193,11.5c-.438,6.494-.808,20.1-5.56,20.943s-12.256-4.532-14.142-12.179-5.843-10.94-4.072-17.385S1398.793,898.2,1398.793,898.2Z" transform="translate(-1374.914 -887.098)"/><g transform="translate(2.523 10.519)"><path class="n" d="M1398.793,898.2s-19.139-2.74-20.911,3.7,2.188,9.736,4.072,17.385c1.7-.455,4.389-.68,2.905-9.938,1.45-4.958,4.319-4.461,4.82-6.641,4.44.967,4.964,3.291,5.251,3.55,2.013,3.3,4.106,5.983,6.543,7.195.067-1.071.123-2.063.182-2.929C1402.033,904.94,1400.244,899.291,1398.793,898.2Z" transform="translate(-1377.437 -897.617)"/><path class="n" d="M1387.493,946.223c-.319-.763.2.817,0,0Z" transform="translate(-1382.976 -924.556)"/></g><path class="z" d="M1381.393,896.488a26.54,26.54,0,0,1,2.383-5.98c1.35-2.093.568-3.521.568-3.521s6.191.043,8.726,4.155,5.762,10.243,11.85,6.171,3.292-13.128,1.751-12.856a5.1,5.1,0,0,1-3.2-.861s-7.013-7.452-9.965-6.93-.9-2.833-6.054-2.776-8.277,5.6-8.277,5.6-2.647-2.24-6.034,1.068.2,13.222,2.2,16.575,3.123,9.212,3.123,9.212S1383.179,906.58,1381.393,896.488Z" transform="translate(-1371.746 -873.888)"/><path class="y" d="M1386.734,919.693a2.009,2.009,0,0,1,3.656-1.043c.995,1.267,1.741,2.918.754,4.447-1.974,3.058-4.672.542-4.464-2.774C1386.692,920.1,1386.711,919.89,1386.734,919.693Z" transform="translate(-1380.053 -898.329)"/><path class="n" d="M1393.178,922.692c-.192-.752-1.359-2.823-2.348-1.865s-1.41,3.849.535,4.075S1393.365,923.416,1393.178,922.692Z" transform="translate(-1381.906 -899.88)"/><g transform="translate(21.501 26.656)"><path class="aa" d="M1420.557,941.825l2.7-.477L1422,934.254a.261.261,0,1,0-.513.089l1.158,6.543-2.182.385a.282.282,0,0,0,.1.554Z" transform="translate(-1420.246 -934.017)"/></g><path class="aa" d="M1413.468,932.265c.143.8.753,1.363,1.365,1.257a1.336,1.336,0,0,0,.849-1.647c-.142-.8-.753-1.363-1.363-1.256A1.337,1.337,0,0,0,1413.468,932.265Z" transform="translate(-1394.956 -905.461)"/><path class="aa" d="M1426.554,932.116c.13.738.658,1.262,1.177,1.169s.836-.764.706-1.5-.659-1.261-1.178-1.169S1426.424,931.379,1426.554,932.116Z" transform="translate(-1402.241 -905.461)"/><g transform="translate(16.414 38.005)"><path class="aa" d="M1413.28,961.679a3.406,3.406,0,0,0,.88-.269.266.266,0,0,0,.1-.349.247.247,0,0,0-.33-.125c-.094.056-2.306,1.157-4.753-1.248a.236.236,0,0,0-.347.01.281.281,0,0,0,.02.375A4.949,4.949,0,0,0,1413.28,961.679Z" transform="translate(-1408.773 -959.617)"/></g><path class="aa" d="M1412.247,923.892a4.48,4.48,0,0,0-3.047-.887c-1.541.273-2.392,2.421-2.392,2.421s.876-1.771,2.251-1.73a9.831,9.831,0,0,1,3.352,1.117Z" transform="translate(-1391.265 -901.208)"/></g><path class="x" d="M1395.662,1054.26c-4.94-.264-9.8-1.255-13.052-3.693-3.058-2.292-8.891-16.62-8.646-16.763-6.388-15.137-14.063-34.508-20.376-33.691-8.894,1.154-11.751,9.059-9.7,19.329.988,4.937,8.647,16.322,14.518,25.38.034-.017.069-.033.1-.049,5.958,8.608,12.958,16.206,19.027,18.119,4.887,1.541,11.264,1.357,17.327.526A36.676,36.676,0,0,1,1395.662,1054.26Z" transform="translate(-1227.168 -807.344)"/><path class="y" d="M1493.767,1128.818l-3.659-5.2s-6.483-5.007-11.234-4.75a81.265,81.265,0,0,1-18.467,1.509,36.667,36.667,0,0,0-.794,9.159,115.069,115.069,0,0,0,19.325-4.567s7.318.062,8.988,3.271,2.44,5.456,2.76,5.136-1.091-5.457-1.091-5.457,2.043,5.905,2.691,5.905-.7-4.623-.7-4.623l-1.8-3.4,3.145,3.593s-.127,2.891.449,2.891S1493.767,1128.818,1493.767,1128.818Z" transform="translate(-1291.913 -873.463)"/><g transform="translate(102.639 179.721)"><path class="ab" d="M1313.262,1001.893a.345.345,0,0,1-.345-.344,34.438,34.438,0,0,1,18.054-30.8.344.344,0,1,1,.29.625,33.739,33.739,0,0,0-17.655,30.18A.346.346,0,0,1,1313.262,1001.893Z" transform="translate(-1312.917 -970.712)"/></g><g transform="translate(304.115 135.59)"><path class="ac" d="M1791.03,971.864s-18.423,24.329-23.636,29.259c1.786,3.439,8.411,6.071,9.839,9.7,8.43-3.036,12.828-11.9,14.227-15.11C1793.225,991.653,1791.03,971.864,1791.03,971.864Z" transform="translate(-1767.394 -927.223)"/><path class="ad" d="M1830.835,921.05s25.264-.629,27.274,2.763,7.307-5.353,2.988-9.672-22.155-29.825-22.155-29.825Z" transform="translate(-1802.711 -878.486)"/><path class="ae" d="M1835.008,967.178s-10.888,1.051-14.594,2c-.591.153.318,20.163.451,23.922.416,11.739,11.031,35.92,3.814,55.423-2.614,7.067,34.737,5.267,32.657-.148-.977-2.542-4.714-9.451-4.948-18.541-.265-10.319,3.087-23.1,3.93-29.257,1.66-12.142.466-28.177-.374-31.73A199.966,199.966,0,0,0,1835.008,967.178Z" transform="translate(-1796.799 -924.614)"/><path class="af" d="M1820.119,971.7c-.256.389.019,5.06.016,4.984.029.494,1.384,24.967,1.49,22.439,2.055,13.616,10.076,33.863,2.759,51.922,6.148-22.734-4.244-40.805-4.5-56.791-.052-2.593-.176-6.52-.2-12.542C1819.7,980.36,1819.666,972.266,1820.119,971.7Z" transform="translate(-1796.504 -927.13)"/><path class="y" d="M1877.979,1046.123c3.663,5.436,6.929,11.113,5.775,12.645-2.169,2.873-15.261,4.729-17.556,5.035l-1.88-.577c-.628,0-9.118-3.024-11.647-2.151-2.5.86-10.344,11.176-8.442,11.176s5.587-4.193,5.587-4.193-.832,2.646,1.07,2.646c0,0,1.07,2.406,2.259,2.406a23.927,23.927,0,0,0,3.565-.516s5.11-2.577,8.44-2.577c.672,0,21.754,3.259,29.243-2.315,3.642-2.711,1.217-15.341-3.82-27.982C1886.081,1040.832,1882.132,1043.591,1877.979,1046.123Z" transform="translate(-1810.004 -964.997)"/><path class="n" d="M1933.324,1039.719c-4.494,1.113-8.443,3.872-12.6,6.4.83,1.231,1.64,2.475,2.383,3.681,3.18-2.2,8.488-5.73,11.435-6.878Q1933.967,1041.329,1933.324,1039.719Z" transform="translate(-1852.753 -964.997)"/><path class="ac" d="M1899.781,970.952s-2.214,23.227.641,25.666a129.764,129.764,0,0,0,7.364,12.8c4.151-2.533,11.737-6.009,16.23-7.122C1918.7,988.95,1906.862,972.676,1899.781,970.952Z" transform="translate(-1840.637 -926.715)"/><path class="r" d="M1808.992,1146.311s-15.215,13.5-16.843,19.552c-1.613,6-2.128,15.967,6.016,15.967,3.819,0,12.212-1.484,21.079-.847,10.048.721,20.572,3.435,23.331.847,5.189-4.875,9.773-11.821,9.773-18.334s-11.684-17.186-11.684-17.186Z" transform="translate(-1780.636 -1024.335)"/><path class="v" d="M1850.943,1146.311h-31.671a120.009,120.009,0,0,0-9.624,8.641c6.666-2.23,15.894-3.619,28.5-2.583a123.073,123.073,0,0,1,21.2,3.407A66.694,66.694,0,0,0,1850.943,1146.311Z" transform="translate(-1790.916 -1024.335)"/><g transform="translate(11.263 137.479)"><path class="y" d="M1795.636,1398.931a39.648,39.648,0,0,1-2.261,10.228c-.167.387,2.358,5.791,4.151,5.688,2.464-.141,5.876-5.876,5.876-5.876s-1.833-8.012,1.318-21.587c.355-1.533.827-3.619,1.381-6.125-3.291-1.53-6.478-3.262-9.925-3.77C1795.864,1389.027,1795.7,1397.529,1795.636,1398.931Z" transform="translate(-1793.116 -1290.508)"/><path class="v" d="M1815.489,1181.536s-10.162-2.357-14.351,7.3c-2.951,6.809-7.591,52.826-8.337,80.435,3.447.509,10,1.5,13.292,3.03,4.348-19.68,13.572-65.594,13.942-74.04C1820.455,1188.739,1819.8,1181.7,1815.489,1181.536Z" transform="translate(-1792.801 -1181.282)"/><path class="ag" d="M1803.24,1448.5s-.363,7.323-5.9,7.526c-3.9.145-4.626-5.551-4.131-7.338C1793.213,1448.691,1797.8,1455.222,1803.24,1448.5Z" transform="translate(-1792.954 -1330.04)"/></g><g transform="translate(25.088 139.377)"><path class="y" d="M1835.352,1405.485a39.32,39.32,0,0,0-1.038,10.4c.038.415-4.069,4.881-5.75,4.289-2.309-.812-3.776-7.237-3.776-7.237s4.259-7.15,5.495-21c.141-1.563.345-3.688.6-6.235,3.624-.555,7.213-1.332,10.666-.866C1838.235,1395.953,1835.734,1404.126,1835.352,1405.485Z" transform="translate(-1824.433 -1296.418)"/><path class="v" d="M1857.351,1185.671s10.453.552,11.433,10.937c.691,7.323-9.279,52.587-17.207,79.184-3.455-.465-9.837-1.5-13.462-.941,2-20.009,7.366-66.274,9.655-74.45C1850.351,1191.185,1853.175,1184.639,1857.351,1185.671Z" transform="translate(-1831.852 -1185.564)"/><path class="ag" d="M1824.342,1448.4s-1.948,7.1,3.279,8.821c3.679,1.213,6.159-4.028,6.247-5.872C1833.868,1451.347,1827.439,1456.322,1824.342,1448.4Z" transform="translate(-1823.987 -1331.88)"/></g><path class="ad" d="M1813.466,903.845s1.589,17.771-3.3,22.658-5.584,4.758-7.281,4.287a5.154,5.154,0,0,0,4.241,3.208,5.256,5.256,0,0,0,.658,0c3.616-.222-.282,2.726-2.167,3.387s3.767,1.412,7.726.47,17.319-1.15,16.008-15.507S1813.466,903.845,1813.466,903.845Z" transform="translate(-1787.152 -889.357)"/><path class="y" d="M1848.715,933.347l-1.414,16.2a16.142,16.142,0,0,0,13.233-.5l-2.932-26.571Z" transform="translate(-1811.877 -899.734)"/><path class="n" d="M1849.727,934.719l-.607,6.968a4.616,4.616,0,0,0,2.033-.581c5.638-3.037,6.47-11.395,6.568-16.157Z" transform="translate(-1812.89 -901.105)"/><path class="y" d="M1823.474,883.332a9.638,9.638,0,0,0-3.168,5.7c-.578,3.671,1.87,7.783,1.87,10.875s5.74,17.814,12.888,14.338,6.57-14.683,6.57-17.2-3.477-11.206-7.728-13.233S1823.474,883.332,1823.474,883.332Z" transform="translate(-1796.8 -877.625)"/><path class="ah" d="M1826.588,924.44c.227.538.708.836,1.076.669a.974.974,0,0,0,.254-1.277c-.225-.536-.705-.836-1.073-.668A.973.973,0,0,0,1826.588,924.44Z" transform="translate(-1800.282 -900.086)"/><path class="ai" d="M1827.016,923.85c-3.132-2.98-4.057-.225-4.994.125.778-.083,1.582-1.231,2.451-1.12A10.652,10.652,0,0,1,1827.016,923.85Z" transform="translate(-1797.805 -899.731)"/><g transform="translate(23.76 15.731)"><path class="ah" d="M1832.185,922.479a48.156,48.156,0,0,1,1.989,5.651,3.571,3.571,0,0,0,2.048-.615,3.32,3.32,0,0,1-2.274.93A50.44,50.44,0,0,1,1832.185,922.479Z" transform="translate(-1827.223 -915.462)"/><path class="ah" d="M1835.291,911.1a6.982,6.982,0,0,1,1.333-3c1.058-1.263,3.989-1.447,3.989-1.447s-2.767.674-3.443,1.547a6.325,6.325,0,0,0-.956,2.13Z" transform="translate(-1828.952 -906.65)"/><path class="ah" d="M1825.738,917.846a5.244,5.244,0,0,0-2.329-1.233c-1.2-.183-2.418,1.439-2.418,1.439s1.426-1.16,2.231-1a4.688,4.688,0,0,1,1.659.871Z" transform="translate(-1820.991 -912.188)"/><path class="aj" d="M1843.617,938.56c-2.163.912-3.151,1.838-6,1.7A5.583,5.583,0,0,0,1843.617,938.56Z" transform="translate(-1830.246 -924.414)"/><path class="ah" d="M1841.683,916.972c.2.7.77,1.15,1.263,1.006s.728-.829.522-1.53-.77-1.148-1.264-1S1841.476,916.272,1841.683,916.972Z" transform="translate(-1832.468 -911.53)"/><path class="ai" d="M1843.826,915.994c-4.335-2.366-4.868.509-5.91,1.02.907-.22,1.626-1.492,2.683-1.54A15.121,15.121,0,0,1,1843.826,915.994Z" transform="translate(-1830.413 -911.339)"/><path class="n" d="M1847.361,921.4a2.494,2.494,0,1,0,1.793-2.413A2.168,2.168,0,0,0,1847.361,921.4Z" transform="translate(-1835.64 -913.449)"/></g><path class="ak" d="M1823.474,883.332a9.638,9.638,0,0,0-3.168,5.7c-.578,3.671,1.87,7.783,1.87,10.875,0,.175.056.638.056.638,2.461.792,6.045-12.9,6.088-17.775A22.942,22.942,0,0,0,1823.474,883.332Z" transform="translate(-1796.8 -877.624)"/><path class="ah" d="M1824.422,878.713c-.058-.2,2.26-6.464,7.96-7.394,6.818-1.115,14.876,3.96,17.339,10.843s4.686,14.73,11.423,16.686,7.97,11.882,5.869,18.112-8.55,4.637-8.55,4.637,3.949-3.441,2.9-4.492c0,0-3.011,5.833-6.416,4.675a10.113,10.113,0,0,1-4.78-3.051s5.872-.9,2.008-4.159c-2.692-2.27-4.058-4.348-7.247-8.187-3.048-3.673-1.452-13.509-4.1-20.569a3.01,3.01,0,0,1-1.677.623c-3.606.377-1.967-2.256-5.4-6.186C1827.863,876.935,1824.818,878.726,1824.422,878.713Z" transform="translate(-1799.14 -871.165)"/><path class="ah" d="M1818.5,884.861c-5.726,1.442-7.978,7.042-5.117,11.351a2.883,2.883,0,0,0,2.014,1.481v-1.236c-.322.052-.934-.616-1.132-.872C1811.4,891.941,1813.166,886.643,1818.5,884.861Z" transform="translate(-1792.304 -878.789)"/><path class="ah" d="M1824.3,876.049a10.873,10.873,0,0,0-6.984,2.979c-2.961,2.963-2.073,14.651,0,16.387s-5.278,3.375-.875,3.375S1828.242,876.461,1824.3,876.049Z" transform="translate(-1793.903 -873.884)"/><path class="al" d="M1875.968,905.789a26.082,26.082,0,0,0-1.467,8.868c.439,8.689,9.66,4.154,12.219,4.333a2.587,2.587,0,0,1,2.343,3.475c-.462,1.614-1.508,2.1-2.052,2.749a1.653,1.653,0,0,0,.567,2.636c1.9.953,4.244-1.2,5.008,1.371a5.342,5.342,0,0,1-1.4,5.324,5.484,5.484,0,0,0,1.985-5.48c-.464-2.12-1.934-2.02-3.958-1.87-1.252.082-1.708-.523-1.606-.907.079-.758,1.82-1.045,2.575-3.484a3.774,3.774,0,0,0-1.7-4.555c-4.227-2.443-13.651,6.344-13.249-6.578A34.464,34.464,0,0,1,1875.968,905.789Z" transform="translate(-1827.011 -890.44)"/><path class="y" d="M1860.038,906.035s-.141-3.343,1.6-3.062,2.961,2.566,2.117,4.794S1859.8,909,1860.038,906.035Z" transform="translate(-1818.961 -888.863)"/><path class="n" d="M1861.551,908.242s-.237-2.049.53-2.239,1.566,1.413,1.4,2.474A.981.981,0,0,1,1861.551,908.242Z" transform="translate(-1819.79 -890.551)"/><path class="n" d="M1950.958,1094.737s-3.388,3.345-1.507,3.863,3.686-.8,3.686-1.932S1952.888,1093.938,1950.958,1094.737Z" transform="translate(-1868.426 -995.504)"/><g transform="translate(61.676 10.584)"><path class="ab" d="M1926.635,919.7a.377.377,0,0,1-.377-.378c0-18.843-19.252-23.5-19.447-23.541a.377.377,0,0,1-.283-.451.382.382,0,0,1,.454-.283c.2.046,20.031,4.824,20.031,24.275A.376.376,0,0,1,1926.635,919.7Z" transform="translate(-1906.518 -895.039)"/></g><g transform="translate(68.43 22.165)"><path class="ab" d="M1931.272,941.938a.483.483,0,0,1-.074-.005.379.379,0,0,1-.3-.443c3.226-16.533-8.735-19.555-8.857-19.584a.377.377,0,0,1,.174-.733c.127.028,12.784,3.224,9.425,20.462A.379.379,0,0,1,1931.272,941.938Z" transform="translate(-1921.754 -921.163)"/></g></g><path class="y" d="M2475.668,1441.736c-.507-1.57-1.009-8.424-1.412-17.431-2.521-.035-5.35-.9-8.022-.367.2,1.238.675,3.375.675,3.715,0,3.264-1.592,2.05-2.173,4.4-.386,1.557,1.131,4.527,1.131,4.527,2.232,0,3.172,7.953,4.26,10.262.629,1.337,3.486,1.969,6.749,1.969,2.54,0,2.111-.662.227-3.911A16.282,16.282,0,0,1,2475.668,1441.736Z" transform="translate(-1851.445 -1043.199)"/><g transform="translate(604.837 197.29)"><path class="am" d="M2513.058,1116.64c-.32-1.381-9.209-76.641-12.535-104.411l-17.937-.624-9.912,41.061,23.586,74.349c-.8,6.87-.494,12.412,1.682,21.8,1.8,7.75,9.16,33.659,13.566,45.506,2.371-1.277,9.635-3.808,12.207-4.7C2513.682,1127.475,2516.429,1131.169,2513.058,1116.64Z" transform="translate(-2460.736 -1011.046)"/><path class="an" d="M2466.247,1123.629l15.022-84.392-1.812-28.893h-14.7s-14.724,15.914-18.035,36.068,2.83,77.577,2.83,77.577a109.842,109.842,0,0,1-2.114,13.4c-1.54,6.465,1.183,47.005,2.942,57.7a107.182,107.182,0,0,1,13.337-.929c-.962-21.514-1.357-55.319.1-58.83C2464.771,1133.018,2465.617,1128.168,2466.247,1123.629Z" transform="translate(-2445.745 -1010.344)"/><path class="ao" d="M2506.137,1014.521l-24.3-.525,3.016-3.652h21.286Z" transform="translate(-2465.836 -1010.344)"/></g><path class="n" d="M2581.76,853.442c.347-2.234.194-3.775-.5-4.469s-.352-1.1-1-1.748-2.158-.063-2.352-1.757.271-11.4-.924-11.172-1.328,13.078-1.809,13.56-1.351,1-1.657-1,1.233-2.967.616-3.583-2.393,1.463-2.543,2.2c0,0-1.541,6.625,0,11.093a33.986,33.986,0,0,1,1.952,9.257h0c.227,6.508-.637,13.174-2.636,23.335-.445,2.257-2.471,1.685-3.67,1.011l-5.5,8.527c3.836,4.569,8.958,7.169,11.393,6.873,6.252-.764,5.437-38.825,5.437-38.825-.017-.467-.007-.194-.035-.921h0c-.088-2.307-.162-4.427-.162-4.711C2578.37,859.412,2581.412,855.675,2581.76,853.442Z" transform="translate(-1905.479 -715.047)"/><path class="y" d="M2596.426,862.763s-5.716,5.58-4.619,6.677,5.683-4.832,5.683-4.832-5.09,5.188-4.19,6.086,5.3-3.483,5.3-3.483-4.641,3.991-3.81,4.45,3.81-2.727,3.81-2.727a4.548,4.548,0,0,0,.268-1.91c-.159-.717.1-1.02-.029-1.463a4.452,4.452,0,0,0-.947-1.365C2597.642,863.945,2597.544,862.346,2596.426,862.763Z" transform="translate(-1922.141 -730.859)"/><path class="ap" d="M2544.592,911.016c.468-1.159,1.146-2.539-.315-3.556-1.994-1.388-1.921-.383-1.921-3.464,0-2.877-.772-3.3-2.982-4-.08-.26-.157-.524-.236-.787-2.773-9.477-11.256-23.892-13.9-25.022s-3.317,6.06-3.317,6.06,17.012,43.108,17.651,43.87l5.5-11.809-.423-1.238C2544.63,911.051,2544.611,911.034,2544.592,911.016Z" transform="translate(-1883.314 -737.187)"/><path class="aq" d="M2467.716,1453.284l.138,10.678-1.189.032-1.491-12.177Z" transform="translate(-1851.724 -1058.816)"/><path class="v" d="M2495.418,872.545s-5.395-4.179-23.574-.364c-.89.188-2.234,21.1-2.234,21.1s6.06,32.693,4.347,41.346c0,0,12.79,10.616,27.929,3.223,0,0-1.873-27.252-.479-33.316s4.156-11.559.285-17.87A71.314,71.314,0,0,1,2495.418,872.545Z" transform="translate(-1854.193 -735.246)"/><path class="n" d="M2536.814,1018.652a6.62,6.62,0,0,1-.988,1.274c-.614.618-5.8,2.334-5.8,2.334l3.093-1.8S2536.814,1018.137,2536.814,1018.652Z" transform="translate(-1887.828 -817.637)"/><path class="ar" d="M2465.525,1436.432c.983,5.973,4.9,17.749,7.193,17.757,3.093.009,3.274-.153,3.256-2.241,1.884,3.247,4.024,4.913,1.485,4.913-3.262,0-8.354.2-8.982-1.142-1.088-2.311-1.683-11.053-3.914-11.053l.694,10.762-1.187.031s-1.755-14.818-1.369-16.3C2463.229,1437.133,2464.895,1436.795,2465.525,1436.432Z" transform="translate(-1850.316 -1050.251)"/><path class="ar" d="M2584.783,1455.336c2.267,2.119,5.917,1.666,5.71,3.434,0,0-12.526-.537-13.671-.537s-2.119-7.04-3.32-8.243-.458,8.243-.458,8.243h-1.235s-.827-9.731-1.971-13.511c-.912-3.01.385-4.276,1.313-5.035C2574.91,1446.874,2575.307,1457.017,2584.783,1455.336Z" transform="translate(-1909.816 -1052.062)"/><g transform="translate(726.429 86.929)"><path class="as" d="M2798.634,924.707s-2.81,16.459-11.626,27.541c-6.591,8.282-20.378,17.515-20.378,17.515l7.81,8.38,21.532-17.4Z" transform="translate(-2745.969 -852.31)"/><path class="at" d="M2857.617,889.982h17.268l-.558,55.6L2851.4,947.1Z" transform="translate(-2793.16 -832.979)"/><path class="at" d="M2809.849,1477.165c-9.727,0-9.489,3.916-9.489,3.916h28.47s-1.417-12.032-1.633-14.879h-6.684C2819.774,1469.683,2817.319,1477.165,2809.849,1477.165Z" transform="translate(-2764.747 -1153.752)"/><path class="at" d="M2905.284,1478.6c-8.858,0-10.668-10.511-10.922-12.4h-6.4c0,.515,0,.837,0,.917,0,1.3-1.662,15.4-1.662,15.4h28.471S2915.01,1478.6,2905.284,1478.6Z" transform="translate(-2812.589 -1153.752)"/><path class="au" d="M2861.715,1200.978l9.091-75.256-2.567-22.273h-50.033l-.357,19.626-5.251,76.467s13.052,63.67,12.827,64.72h9.447c-.018-.23-2.668-69.81-2.668-69.81l10.8-61.982,4.222,65.06s-1.917,58.644-1.949,66.732h8.893C2854.139,1264.077,2861.715,1200.978,2861.715,1200.978Z" transform="translate(-2771.559 -951.813)"/><path class="av" d="M2875.557,1106.376l-.336-2.927h-50.034l-.046,2.565,10.5,3.5a44.865,44.865,0,0,0,26.342.655Z" transform="translate(-2778.542 -951.813)"/><path class="aw" d="M2877.5,906.288c-5.441-5.983-18.032-15.532-31.912-13.228l-14.5,6.3-4.264,30.644L2823,988.382l51.711.581,4.919-56.82S2882.939,912.273,2877.5,906.288Z" transform="translate(-2777.352 -834.496)"/><path class="y" d="M2868.186,855.019s-.151,11.974-1.317,18.072a5.042,5.042,0,0,0,2.7,5.644,10.284,10.284,0,0,0,6.011.551c6.506-1.214,6.728-8.372,6.728-8.372l-2.195-21.836Z" transform="translate(-2801.715 -810.208)"/><path class="n" d="M2881.439,849.077l-11.925,5.942s-.055,4.42-.361,9.257c3.112.151,7.02-1.577,11.171-6.787.617-.775,1.191-1.543,1.729-2.3Z" transform="translate(-2803.043 -810.208)"/><path class="y" d="M2860.213,792.675a20.933,20.933,0,0,0-5.845,9.1c-1.767,5.7-3.309,9.828-3.309,9.828l1.875,1.213s-1.494,7.96-.333,10.679c1.767,4.124,9.211,7.461,17.65-1.821s9.156-17.473,7.721-21.477S2863.523,790.612,2860.213,792.675Z" transform="translate(-2792.97 -778.563)"/><path class="ax" d="M2871.845,784.389a10.286,10.286,0,0,0-9.155-1.941c-5.405,1.456-7.226-.789-6.177-1.941,0,0-4.744.121-6.508-4.126s-1.325-17.108,7.06-14.681,6.689,8.251,6.689,8.251,2.685-2.791,5.221-1.335,2.208,3.519,2.208,3.519,2.317,4.732,5.515,5.338,2.867,7.644,2.867,7.644,1.876,1.456.551,6.553-9.128,12.9-9.128,15.323c0,0-1.9-3.069-.357-8.044s1.544-7.886-.11-7.886S2871.845,784.389,2871.845,784.389Z" transform="translate(-2791.916 -761.398)"/><path class="y" d="M2894.616,830.483s.536-4.187,1.735-4.187,2.318.455,2.029,2.821-1.532,5.005-3.1,3.913A1.85,1.85,0,0,1,2894.616,830.483Z" transform="translate(-2817.071 -797.526)"/><path class="ax" d="M2921.065,812.012a1.522,1.522,0,0,0-.736-.9c-1.121-.526-2.62.606-3.609,1.389l-.167-.219a7.719,7.719,0,0,1,2.359-1.995,2.35,2.35,0,0,1,3.3,1.294Z" transform="translate(-2829.43 -788.47)"/><path class="ax" d="M2921.49,820.035a5.019,5.019,0,0,0-.038-1.946c-.717-3.148-4.2-2.875-4.374-2.968v-.2c.1.038,5.043-1.017,5.751,4.067a5.757,5.757,0,0,1,.055,1.352Z" transform="translate(-2829.722 -791.159)"/><path class="ay" d="M2867.224,819.4c0,1.03-.412,1.866-.922,1.866s-.924-.836-.924-1.866.415-1.865.924-1.865S2867.224,818.365,2867.224,819.4Z" transform="translate(-2800.941 -792.646)"/><path class="ay" d="M2868.414,814.551a3.815,3.815,0,0,0-4.28-.633l-.349-1.341a4.146,4.146,0,0,1,4.76.735Z" transform="translate(-2800.054 -789.641)"/><path class="az" d="M2826.568,894.755l-3.855,113.3h-23.988l7.073-51.462,4.638-31.289s2.25-21.039,7.135-24.8A57.787,57.787,0,0,1,2826.568,894.755Z" transform="translate(-2763.836 -835.636)"/><path class="n" d="M2896.142,830.377s.7-1.419,1.325-1.216.769,3.053-.343,4.252S2895.074,832.646,2896.142,830.377Z" transform="translate(-2817.806 -799.109)"/><path class="az" d="M2901.795,893.358l-2.525,113.919h25.692s.967-90.289-1.877-99.728S2901.795,893.358,2901.795,893.358Z" transform="translate(-2819.808 -834.858)"/><path class="ba" d="M2840.494,896.31l11.051-6.328-3.56,56.06-6.07-31.684,2.14-1.442Z" transform="translate(-2787.089 -832.979)"/><path class="ba" d="M2902.2,946.812l.964-56.829,9.846,4.383-5.362,18.511,1.359,1.041Z" transform="translate(-2821.439 -832.979)"/><path class="bb" d="M2755.637,1015.412l-35.611-26.663,37.717-3.425,28.521,30.089Z" transform="translate(-2720.025 -886.054)"/><path class="y" d="M2833.59,1027.663s3.868.866,5.3,2.4c1.825,1.955,6.158,5.133,7.98,5.133s9.577.758,9.577.758l1.3,8.534s-28.936-6.627-30.3-8.086,6.784,1.084,6.784.433-9.815-1.379-9.309-3.019,9.057,2.208,9.815,1.4-10.321-2.167-10.321-3.9,11.03,2.505,11.03,2.505.2-.88-2.782-2.289-5.879-2.543-5.217-3.25,8.291,3.781,9.3,2.7Z" transform="translate(-2778.14 -909.624)"/><path class="ba" d="M2908.077,917.229A36.523,36.523,0,0,0,2904.71,936c.841,11.082,2.273,28.072-.081,33.611s-19.6,0-19.6,0v13.114s25.009,10.158,32.252,6.834,6.553-31.951,6.553-45.987S2912.7,907.159,2908.077,917.229Z" transform="translate(-2811.879 -846.741)"/><path class="bc" d="M2908.077,920.4a38.554,38.554,0,0,0-3.006,17.91c.779,10.315,3.235,32.7-1.258,36.106-4.333,2.663-14.124.009-18.787-1.633,4.578,1.215,17.532,4.2,19.212-.2,1.435-3.524,1.2-12.038,1.07-15.823-.522-16.364-2.528-22.137.928-32.122A25.772,25.772,0,0,1,2908.077,920.4Z" transform="translate(-2811.879 -849.911)"/><path class="aa" d="M2858.981,851.027l.332,2.06a8.885,8.885,0,0,0,6.248-4.01C2863.081,851.557,2858.981,851.027,2858.981,851.027Z" transform="translate(-2797.38 -810.208)"/><path class="y" d="M2774.865,1025.793a11.555,11.555,0,0,0-1.3,2.5c-.772,1.825,1.38,3.7,1.8,4.094a20.255,20.255,0,0,0,3.145,2.286,7.487,7.487,0,0,0,2.345.963c1.271.278,4.125-4.256,3.732-4.689-.263-.29-.583-.519-.879-.428-.313.1-3.479,2.57-3.479,2.57s2.857-3.566,2.533-4.627-.94-.929-1.187-.661-3.881,3.618-3.881,3.618,2.448-4.261,2.237-4.954-1.2-1.178-2.324.54a20.521,20.521,0,0,1-2.284,2.53s1.378-3.216,1.06-4.254S2774.865,1025.793,2774.865,1025.793Z" transform="translate(-2749.737 -908.097)"/></g><rect class="bd" width="5.687" height="129.444" transform="translate(264.282 268.413)"/><rect class="bd" width="5.687" height="131.611" transform="translate(166.977 268.413)"/><rect class="be" width="5.686" height="130.176" transform="translate(557.472 267.437)"/><rect class="be" width="5.687" height="135.728" transform="translate(574.882 268.413)"/><rect class="bf" width="57.179" height="2.705" transform="translate(187.458 262.197)"/><rect class="bg" width="468.641" height="7.024" transform="translate(121.183 264.902)"/><rect class="ab" width="62.078" height="52.792" transform="translate(183.999 201.381)"/><rect class="bh" width="39.254" height="30.357" transform="translate(198.881 214.068)"/><rect class="bi" width="17.109" height="17.109" transform="translate(215.038 219.956)"/><rect class="bi" width="6.11" height="30.308" transform="translate(222.126 233.153)"/><rect class="bi" width="39.593" height="3.641" transform="translate(193.531 261.261)"/><path class="bj" d="M1565.518,1061.471v17.109h7.088v24.2h-.72V1079h-7.118v-17.534Z" transform="translate(-1350.48 -841.515)"/><rect class="ab" width="62.08" height="52.792" transform="translate(355.383 254.173) rotate(180)"/><rect class="bh" width="39.255" height="30.357" transform="translate(340.502 244.425) rotate(180)"/><rect class="bi" width="17.109" height="17.109" transform="translate(324.343 237.064) rotate(180)"/><rect class="bi" width="6.111" height="30.308" transform="translate(317.256 263.461) rotate(180)"/><rect class="bi" width="39.595" height="3.641" transform="translate(345.852 264.902) rotate(180)"/><path class="bj" d="M1804.124,1061.471v17.109h-7.087v24.2h.719V1079h7.119v-17.534Z" transform="translate(-1479.781 -841.515)"/><rect class="ab" width="62.08" height="52.792" transform="translate(499.867 254.173) rotate(180)"/><rect class="bh" width="39.257" height="30.357" transform="translate(484.987 244.425) rotate(180)"/><rect class="bi" width="17.108" height="17.109" transform="translate(468.828 237.064) rotate(180)"/><rect class="bi" width="39.595" height="3.641" transform="translate(490.335 264.902) rotate(180)"/><path class="bj" d="M2130.043,1061.471v17.109h-7.088v24.2h.719V1079h7.118v-17.534Z" transform="translate(-1661.215 -841.515)"/><path class="bj" d="M1558.522,1019.57h-62.078v52.792l2.416-50.837Z" transform="translate(-1312.445 -818.19)"/><rect class="bi" width="6.649" height="25.067" transform="translate(455.091 237.064)"/><path class="bk" d="M2448.9,871.853s12.016,118.584-.685,153.079c-7.408,20.121-14.665,21.739-19.425,19.594a9.7,9.7,0,0,1-5.515-9.011c.129-13.114,1.24-55.459,9.961-84.921,10.58-35.739,5.417-40.185,5.417-46.093,0-10.237,1.589-25.093,4-30.925C2442.979,872.767,2448.9,871.853,2448.9,871.853Z" transform="translate(-1828.398 -735.957)"/><path class="bl" d="M2482.753,865.861c2.042-.036,4.294.493,8.1.905.353.037.618-.2,1-.155-3.919-3.748-18.79-5.743-19.648.632-5.86,43.468,8.481,124.894,2.448,152.824,13.83-28.044,10.968-104.238,2.807-147.837C2476.744,868.417,2478.872,865.929,2482.753,865.861Z" transform="translate(-1854.837 -731.093)"/><path class="bk" d="M2518.33,871c8.362,9.452,11.808,164.066,22.773,167.674,0,0-.609-45.169-.609-56.521s-4.986-86.444-7.369-92.75-9.886-16.927-9.886-16.927Z" transform="translate(-1881.315 -735.484)"/><path class="bl" d="M2516.729,870.292c-.372-.325-1.362-.71-1.269-.512,4.793,10.23,7.063,103.249,18.351,150.96C2532.282,1000.914,2526.358,880.3,2516.729,870.292Z" transform="translate(-1879.714 -734.773)"/><g transform="translate(590.788 137.617)"><path class="y" d="M2512.143,1035.659l.7-.5a12.967,12.967,0,0,0,4.133-.57c1.22-.6,2.715-.58,2.164,0s-3.315,1.205-2.761,2.7S2512.143,1035.659,2512.143,1035.659Z" transform="translate(-2468.659 -963.921)"/><path class="y" d="M2472.627,1018.684a24.517,24.517,0,0,1-2.781.849c-1.151.395,5.2-2.4,5.2-3.329s-5.321,1.9-6.87,2.56c-1.76.747-4.56-.558-5.3-1.392,0,0-21.929-7.354-27.754-11.484a5.331,5.331,0,0,1-1.709-3.695,27.662,27.662,0,0,0-10.758,2.917c.037,2.3-.616,5.1,0,6.233,3.8,7,28.554,9.625,33.755,9.625s10.3,1.24,11.748,1.24,8.175-3.684,8.375-5.406C2476.725,1015.182,2473.313,1018.26,2472.627,1018.684Z" transform="translate(-2418.697 -946.132)"/><path class="bm" d="M2431.187,912.677c3.8-4.289,5.122-15.7,5.122-23.714a62.275,62.275,0,0,0-1.252-13.226s-8.44-.334-13.136,8.693c-4.931,9.477-11.61,19.217-5.284,49.692,3.334-1.792,8.4-1.99,12.139-2.327C2429.634,924.127,2427.983,916.294,2431.187,912.677Z" transform="translate(-2414.054 -875.735)"/><g transform="translate(1.584 52.981)"><path class="bn" d="M2417.967,998.507s-.762,2.428,0,3.223-.168,2.609.338,3.622,8.774-1.63,12.685-2.74,1.483-2.462,1.018-3.911.063-2.2-.834-3.139S2418.656,995.851,2417.967,998.507Z" transform="translate(-2417.627 -995.247)"/><path class="bo" d="M2420.675,1007.088c2.98-1.194,8.593-3.13,11.751-2.668.493.073.37.866-.125.761-.079,0-1.64-.5-5.833.355A51.065,51.065,0,0,0,2420.675,1007.088Z" transform="translate(-2419.324 -1000.315)"/></g></g><path class="y" d="M2497.6,834.051c.418.418-1.275,12.5.4,15.852,0,0,4.4,17.278,1.412,17.635-2.6.312-12.347-14.782-12.865-17.171-.7-3.208-.077-18.677-.077-18.677Z" transform="translate(-1863.435 -713.599)"/><path class="n" d="M2497.582,838.127c-3.977,3.6-8.074,1.1-11.089-3.408.069-2.274.014-4.56.019-4.692l11.243,3.1A29.576,29.576,0,0,1,2497.582,838.127Z" transform="translate(-1863.592 -712.673)"/><path class="y" d="M2492.658,775.485s5.034.958,5.633,5.274,1.437,7.91.6,12.944-3.835,11.746-8.748,12.824-10.068-7.07-10.068-11.506-1.8-11.865,1.557-16.42S2492.658,775.485,2492.658,775.485Z" transform="translate(-1859.75 -682.191)"/><g transform="translate(627.225 116.508)"><path class="aj" d="M2496.245,828.119a20.211,20.211,0,0,0,6.572,1.183,6.949,6.949,0,0,1-.759,1.118,20.094,20.094,0,0,1-5.24-.927A8.6,8.6,0,0,1,2496.245,828.119Z" transform="translate(-2496.245 -828.119)"/><path class="bp" d="M2497.537,831.218a20.094,20.094,0,0,0,5.24.927C2500.9,834.381,2498.916,833.84,2497.537,831.218Z" transform="translate(-2496.964 -829.844)"/></g><path class="n" d="M2500.913,771.157s4.718,2.785,5.316,7.1c.544,3.91,1.284,7.23.792,11.566a13.876,13.876,0,0,0-3.538-1.637c-4.439-1.463-9.052-7.914-9.6-13.346C2493.286,769.027,2500.913,771.157,2500.913,771.157Z" transform="translate(-1867.688 -679.689)"/><g transform="translate(630.51 109.464)"><path class="bq" d="M2506.1,816.373a38.763,38.763,0,0,1-.211-4.143,42.325,42.325,0,0,1,.481,4.315,3.934,3.934,0,0,1-2.715.192A4.57,4.57,0,0,0,2506.1,816.373Z" transform="translate(-2503.656 -812.23)"/></g><path class="bq" d="M2495.956,809.612a2.734,2.734,0,0,0-1.852-1.8c-1.644-.43-2.649,1.937-3.776,1.914.81.415,2.107-.97,3-1.322a1.633,1.633,0,0,1,1.386.165A4.269,4.269,0,0,1,2495.956,809.612Z" transform="translate(-1865.726 -700.278)"/><path class="bq" d="M2496.31,809.193a.806.806,0,1,0,.8-.906A.858.858,0,0,0,2496.31,809.193Z" transform="translate(-1869.057 -700.571)"/><path class="bq" d="M2511.27,810.9a2.739,2.739,0,0,1,1.933-1.713c1.662-.356,2.558,2.055,3.686,2.083-.828.377-2.062-1.064-2.934-1.455a1.627,1.627,0,0,0-1.39.1A4.271,4.271,0,0,0,2511.27,810.9Z" transform="translate(-1877.385 -701.052)"/><path class="bq" d="M2516.042,810.612a.806.806,0,1,1-.758-.94A.856.856,0,0,1,2516.042,810.612Z" transform="translate(-1879.151 -701.342)"/><path class="bq" d="M2496.1,801.108c.18-.116-1.255-1.558-2.977-1.72s-3.582,1.72-3.582,1.72,2.535-1.511,3.6-1.024S2495.112,801.752,2496.1,801.108Z" transform="translate(-1865.291 -695.611)"/><path class="z" d="M2456.573,767.458c-3.67.419-9.481-.478-12.191,5.513a45.882,45.882,0,0,0-4.875,21.608c0,17.359-16.746,25.042-16.746,25.042l7.341,3.546,4.381-3.546L2431.5,826l12.035,1.2.512-8.314,2.487,9.455,5.625-1.141s-2.216-28.408-2.461-39.135l.06.071s-.048-1.381-.052-3.159v-.012c.029-.522.033-1.056.012-1.6a32.376,32.376,0,0,1,.341-4.7c.538-2.936,1.618-4.435,4.256-5.693s12.079,2.326,12.079,2.326C2466.064,769.833,2460.243,767.038,2456.573,767.458Z" transform="translate(-1828.114 -677.819)"/><path class="ay" d="M2501.1,769.513c4.615,1.019,6.008,8.119,9.784,11.9s2.815,9.228,1.018,12.824-4.679,1.259-4.679,1.259,1.5.838,2.461-2.158-.717-5.333-5.813-7.011-9.946-12.285-9.946-12.285C2493.792,771.963,2496.483,768.493,2501.1,769.513Z" transform="translate(-1867.725 -678.884)"/><path class="br" d="M2507.225,801.4c1.748,1.02,4.217-3.265,2.418-6.062-1.31-2.165-4.179-3.075-6.475-4.024-3.633-2.087-7.125-7.848-9.241-11.368,1.534,4.2,4.789,10.027,8.711,12.348l.944.409c.969.391,3.922,1.186,5.346,3.107,1.149,1.509.6,3.851-.163,4.96A1.355,1.355,0,0,1,2507.225,801.4Z" transform="translate(-1867.73 -684.795)"/><path class="y" d="M2480.449,809.8s-1.281-5.565-3.417-4.22.158,7.5,2.147,7.5S2480.449,809.8,2480.449,809.8Z" transform="translate(-1857.848 -698.948)"/><path class="n" d="M2479.693,808.333s3.154,5.059.99,4.5S2477.666,807.393,2479.693,808.333Z" transform="translate(-1859.166 -700.53)"/><path class="n" d="M2493.3,816.5c-.221.658-1.426.847-2.694.424s-2.115-1.3-1.9-1.958,1.424-.847,2.691-.424S2493.515,815.848,2493.3,816.5Z" transform="translate(-1864.805 -703.931)"/><path class="n" d="M2517.1,817.413c.1.626-.726,1.271-1.835,1.44s-2.086-.2-2.182-.828.727-1.271,1.836-1.44S2517,816.786,2517.1,817.413Z" transform="translate(-1878.388 -705.168)"/><path class="n" d="M2014.382,1121.821l1.268.465,2.584-7.026a4.209,4.209,0,0,1-1.161-.758Z" transform="translate(-1600.774 -871.037)"/><rect class="bs" width="3.034" height="15.139" transform="translate(411.419 235.295)"/><rect class="bt" width="3.034" height="7.89" transform="translate(411.419 235.295)"/><path class="bu" d="M2004.819,1104.929l-1.987.366-3.008-16.386v-4.27l1.99,3.906Z" transform="translate(-1592.67 -854.412)"/><rect class="bv" width="9.081" height="16.397" transform="translate(408.858 248.505)"/><rect class="bt" width="0.795" height="8.531" transform="translate(412.736 238.36)"/><path class="bw" d="M2022.208,1100.55l-.155.413c-2.672-1.123-1.306,3.579-1.757,3.836-.246.26-.3.105-.237.191a.308.308,0,0,0-.458.411.672.672,0,0,0,.768.146l-.437,1.188a4.207,4.207,0,0,0,1.161.758l2.381-6.478Zm-.524.532a1.02,1.02,0,0,1,.321.011l-.917,2.5C2021.013,1102.431,2020.773,1101.173,2021.684,1101.082Z" transform="translate(-1603.633 -863.27)"/><path class="n" d="M1633.476,1121.3l1.266.465,2.584-7.025a4.216,4.216,0,0,1-1.161-.759Z" transform="translate(-1388.729 -870.747)"/><rect class="bs" width="3.034" height="15.139" transform="translate(242.556 235.063)"/><rect class="bt" width="3.034" height="7.891" transform="translate(242.556 235.063)"/><path class="bu" d="M1623.913,1104.405l-1.988.364-3.006-16.384v-4.271l1.989,3.905Z" transform="translate(-1380.625 -854.12)"/><rect class="bv" width="9.084" height="16.627" transform="translate(239.995 248.275)"/><rect class="bt" width="0.792" height="8.531" transform="translate(243.876 238.128)"/><path class="bw" d="M1641.3,1100.024l-.152.417c-2.676-1.125-1.309,3.577-1.759,3.833-.246.26-.3.107-.238.193a.307.307,0,0,0-.457.412.675.675,0,0,0,.767.146l-.438,1.187a4.215,4.215,0,0,0,1.161.759l2.383-6.479Zm-.524.534a1.066,1.066,0,0,1,.324.01l-.919,2.5C1640.106,1101.906,1639.865,1100.65,1640.776,1100.558Z" transform="translate(-1391.587 -862.977)"/></g></g></svg>