<svg xmlns="http://www.w3.org/2000/svg" width="41.194" height="41.978" viewBox="0 0 41.194 41.978"><defs><style>.a{fill:#fff;stroke:#86eda7;stroke-width:2px;}</style></defs><g transform="translate(-4599.93 -5091.803)"><path class="a" d="M1.411,39.733,0,37.4q12-6.422,12-12a3.3,3.3,0,0,0-.988-2.364,14.657,14.657,0,0,0-3.529-2.364,15.677,15.677,0,0,1-5.54-4.2,9.006,9.006,0,0,1-1.658-5.54A10.56,10.56,0,0,1,3.458,3.176,10.4,10.4,0,0,1,11.08,0a9.739,9.739,0,0,1,8.081,3.952q3.07,3.952,3.07,10.3a23.651,23.651,0,0,1-2.011,9.6,25.577,25.577,0,0,1-5.964,8.328A41.868,41.868,0,0,1,1.411,39.733Z" transform="translate(4623.161 5132.781) rotate(180)"/><path class="a" d="M1.411,39.733,0,37.4q12-6.422,12-12a3.3,3.3,0,0,0-.988-2.364,14.657,14.657,0,0,0-3.529-2.364,15.677,15.677,0,0,1-5.54-4.2,9.006,9.006,0,0,1-1.658-5.54A10.56,10.56,0,0,1,3.458,3.176,10.4,10.4,0,0,1,11.08,0a9.739,9.739,0,0,1,8.081,3.952q3.07,3.952,3.07,10.3a23.651,23.651,0,0,1-2.011,9.6,25.577,25.577,0,0,1-5.964,8.328A41.868,41.868,0,0,1,1.411,39.733Z" transform="translate(4639.722 5132.781) rotate(180)"/></g></svg>