<svg xmlns="http://www.w3.org/2000/svg" width="158.216" height="35.882" viewBox="0 0 158.216 35.882"><defs><style>.a{fill:#264332;}.b{fill:#86eda7;}</style></defs><g transform="translate(-390.668 -137)"><g transform="translate(390.668 137)"><g transform="translate(0 5.246)"><path class="a" d="M283.684,207.87a2.419,2.419,0,0,1-3.074-1.481l-8.888-25.408a2.418,2.418,0,0,1,1.48-3.074,2.283,2.283,0,0,1,1.832.11,2.353,2.353,0,0,1,1.223,1.378l8.1,23.152,13-4.547a2.343,2.343,0,0,1,1.838.1,2.277,2.277,0,0,1,1.227,1.366,2.416,2.416,0,0,1-1.478,3.073Z" transform="translate(-271.58 -177.766)"/></g><path class="b" d="M357.539,153.912l-11.852-4.857,6.26-11.289a2.94,2.94,0,0,0-.877-3.806,2.39,2.39,0,0,0-3.477.87l-6.781,12.228s-2.689,4.042,2.313,6.618l12.841,5.261a2.39,2.39,0,0,0,3.254-1.5A2.939,2.939,0,0,0,357.539,153.912Z" transform="translate(-331.964 -133.538)"/></g><path class="a" d="M16.082,66.559v-14.7A1.044,1.044,0,0,0,15.057,50.8H12.1a1.044,1.044,0,0,0-1.025,1.054V70.249A1.044,1.044,0,0,0,12.1,71.3H22.7a1.044,1.044,0,0,0,1.025-1.054V67.613A1.044,1.044,0,0,0,22.7,66.559Zm21.467-10.1a1.044,1.044,0,0,0-1.025,1.054V64.45a2.38,2.38,0,1,1-4.745,0V57.509a1.05,1.05,0,0,0-1.054-1.054H28.061a1.05,1.05,0,0,0-1.054,1.054v8.23c0,3.017,1.757,5.916,5.447,5.916a5.148,5.148,0,0,0,4.071-1.7v.556a.782.782,0,0,0,.761.791h2.929a1.05,1.05,0,0,0,1.054-1.054V57.509a1.05,1.05,0,0,0-1.054-1.054ZM58.958,70.073l-4.481-6.619,4.071-5.77a.786.786,0,0,0-.644-1.23H54.8a1.32,1.32,0,0,0-1.084.586L50,62.576V51.593a.782.782,0,0,0-.761-.791H46.043a.787.787,0,0,0-.791.791V70.513a.787.787,0,0,0,.791.791h3.192A.782.782,0,0,0,50,70.513v-5.74l3.837,5.945a1.373,1.373,0,0,0,1.113.586h3.368A.774.774,0,0,0,58.958,70.073ZM68.975,56.1a7.792,7.792,0,1,0,7.966,7.79A7.667,7.667,0,0,0,68.975,56.1Zm0,10.953a3.178,3.178,0,1,1,3.192-3.163A3.078,3.078,0,0,1,68.975,67.057Zm21.614-10.6a1.044,1.044,0,0,0-1.025,1.054V64.45a2.38,2.38,0,1,1-4.744,0V57.509a1.05,1.05,0,0,0-1.054-1.054H81.1a1.05,1.05,0,0,0-1.054,1.054v8.23c0,3.017,1.757,5.916,5.447,5.916a5.148,5.148,0,0,0,4.071-1.7v.556a.782.782,0,0,0,.761.791h2.929a1.05,1.05,0,0,0,1.054-1.054V57.509a1.05,1.05,0,0,0-1.054-1.054Zm16.518-.351a5.039,5.039,0,0,0-4.042,1.7v-.556a.787.787,0,0,0-.791-.791H99.345a1.05,1.05,0,0,0-1.054,1.054v12.74A1.05,1.05,0,0,0,99.345,71.3h2.665a1.05,1.05,0,0,0,1.054-1.054V63.308a2.378,2.378,0,1,1,4.744,0v6.941a1.044,1.044,0,0,0,1.025,1.054h2.694a1.044,1.044,0,0,0,1.025-1.054V62.02C112.554,59.032,110.826,56.1,107.106,56.1Zm17.777,3.222V57.509a1.05,1.05,0,0,0-1.054-1.054h-1.874V54.376a1.038,1.038,0,0,0-1.025-1.025h-2.694a1.038,1.038,0,0,0-1.025,1.025v2.079h-1.054a1.05,1.05,0,0,0-1.054,1.054v1.816a1.05,1.05,0,0,0,1.054,1.054h1.054v5.155c0,2.929,1.054,6.033,5.623,6.033a8.711,8.711,0,0,0,1.406-.117.758.758,0,0,0,.644-.761V68.17a.746.746,0,0,0-.791-.761H124c-1.494,0-2.05-.791-2.05-2.343V60.379h1.874A1.05,1.05,0,0,0,124.884,59.325Z" transform="translate(424 101.197)"/></g></svg>