<svg xmlns="http://www.w3.org/2000/svg" width="57.215" height="53.419" viewBox="0 0 57.215 53.419"><defs><style>.a{isolation:isolate;}.b{fill:#5eef8c;}</style></defs><g class="a" transform="translate(492 -16.987)"><g transform="translate(-492 16.987)"><path class="b" d="M-437.7,16.987h-51.379A2.92,2.92,0,0,0-492,19.9V56.19a2.922,2.922,0,0,0,2.917,2.92H-474v4.37h-5.611a3.466,3.466,0,0,0-3.462,3.462v2.347a1.118,1.118,0,0,0,1.117,1.117h37.115a1.118,1.118,0,0,0,1.117-1.117V66.941a3.467,3.467,0,0,0-3.465-3.462h-5.607V59.11H-437.7a2.923,2.923,0,0,0,2.92-2.92V19.9a2.922,2.922,0,0,0-2.92-2.917Zm-8.248,49.954v1.23h-34.88v-1.23a1.228,1.228,0,0,1,1.227-1.227h32.424a1.23,1.23,0,0,1,1.23,1.227Zm-9.072-3.462H-471.76V59.11h16.736Zm17.32-6.6h-51.379a.693.693,0,0,1-.682-.685V53.943h21.354a1.118,1.118,0,0,0,1.117-1.117,1.118,1.118,0,0,0-1.117-1.117h-21.354V19.9a.691.691,0,0,1,.682-.682H-437.7a.693.693,0,0,1,.685.682v31.8h-21.357a1.118,1.118,0,0,0-1.117,1.117,1.118,1.118,0,0,0,1.117,1.117h21.357V56.19a.694.694,0,0,1-.685.685Z" transform="translate(492 -16.987)"/><path class="b" d="M-173.2,220.46h-15.144a1.118,1.118,0,0,0-1.117,1.117v6.956a1.118,1.118,0,0,0,1.117,1.118H-173.2a1.118,1.118,0,0,0,1.117-1.118v-6.956a1.117,1.117,0,0,0-1.117-1.117Zm-1.117,6.956h-12.909v-4.721h12.909v4.721Z" transform="translate(223.272 -197.722)"/><path class="b" d="M-426.594,71.946h-.159a11.634,11.634,0,0,0-.843-2.027l.109-.11a2.07,2.07,0,0,0,.616-1.481,2.068,2.068,0,0,0-.612-1.478l-1.923-1.923a2.07,2.07,0,0,0-1.481-.616h0a2.068,2.068,0,0,0-1.478.612l-.112.112A11.7,11.7,0,0,0-434.5,64.2v-.156a2.094,2.094,0,0,0-2.09-2.093h-2.724a2.094,2.094,0,0,0-2.09,2.093V64.2a11.7,11.7,0,0,0-2.028.841l-.112-.112a2.077,2.077,0,0,0-1.479-.612h0a2.066,2.066,0,0,0-1.471.612l-1.93,1.927a2.075,2.075,0,0,0-.61,1.478,2.075,2.075,0,0,0,.61,1.477l.114.114a11.548,11.548,0,0,0-.841,2.026h-.158a2.092,2.092,0,0,0-2.09,2.09v2.724a2.094,2.094,0,0,0,2.09,2.093h.158a11.559,11.559,0,0,0,.84,2.025l-.117.116a2.1,2.1,0,0,0,0,2.956l1.928,1.925a2.1,2.1,0,0,0,2.955,0l.112-.112a11.627,11.627,0,0,0,2.028.84v.158a2.092,2.092,0,0,0,2.09,2.09h2.724a2.092,2.092,0,0,0,2.09-2.09V86.6a11.618,11.618,0,0,0,2.028-.84l.112.112a2.075,2.075,0,0,0,1.478.61,2.075,2.075,0,0,0,1.478-.61l1.926-1.926a2.078,2.078,0,0,0,.612-1.479,2.078,2.078,0,0,0-.612-1.479l-.112-.112a11.636,11.636,0,0,0,.842-2.026h.159a2.094,2.094,0,0,0,2.09-2.093V74.036a2.092,2.092,0,0,0-2.09-2.09Zm-.145,4.672h-.872a1.118,1.118,0,0,0-1.09.872,9.423,9.423,0,0,1-1.235,2.974,1.118,1.118,0,0,0,.154,1.387l.618.618-1.722,1.722-.616-.616a1.118,1.118,0,0,0-1.387-.154,9.41,9.41,0,0,1-2.977,1.232,1.118,1.118,0,0,0-.873,1.09v.872h-2.434v-.872a1.118,1.118,0,0,0-.873-1.09,9.411,9.411,0,0,1-2.977-1.232,1.118,1.118,0,0,0-1.387.154l-.616.616-1.725-1.722.619-.616a1.117,1.117,0,0,0,.155-1.391,9.358,9.358,0,0,1-1.234-2.972,1.118,1.118,0,0,0-1.09-.872h-.872V74.181h.872a1.118,1.118,0,0,0,1.09-.872,9.356,9.356,0,0,1,1.234-2.972,1.118,1.118,0,0,0-.153-1.389l-.619-.62,1.723-1.72.616.616a1.118,1.118,0,0,0,1.387.154,9.491,9.491,0,0,1,2.979-1.236,1.117,1.117,0,0,0,.87-1.09v-.872h2.434v.872a1.118,1.118,0,0,0,.87,1.09,9.489,9.489,0,0,1,2.979,1.236,1.118,1.118,0,0,0,1.387-.154l.616-.616,1.72,1.721-.618.621a1.117,1.117,0,0,0-.153,1.385,9.427,9.427,0,0,1,1.235,2.974,1.118,1.118,0,0,0,1.09.872h.872v2.438Z" transform="translate(455.944 -56.922)"/><path class="b" d="M-376.335,119.022a1.127,1.127,0,0,0-.532-.824l-5.4-3.253a1.118,1.118,0,0,0-1.153,0l-5.4,3.253a1.132,1.132,0,0,0-.541.957v6.358a1.117,1.117,0,0,0,.541.957l5.4,3.253a1.13,1.13,0,0,0,1.153,0l5.4-3.253a1.118,1.118,0,0,0,.541-.957v-6.358a1.135,1.135,0,0,0-.009-.133Zm-6.506-1.816,3.233,1.949-3.233,1.949-3.235-1.949Zm-4.283,3.926,3.166,1.907v3.749l-3.166-1.907Zm8.563,3.749-3.163,1.906v-3.748l3.163-1.906Z" transform="translate(400.829 -103.855)"/><path class="b" d="M-143.447,84.987h10.127a1.118,1.118,0,0,0,1.117-1.117,1.118,1.118,0,0,0-1.117-1.117h-10.127a1.118,1.118,0,0,0-1.117,1.117A1.118,1.118,0,0,0-143.447,84.987Z" transform="translate(183.389 -75.403)"/><path class="b" d="M-188.346,84.987h.006a1.115,1.115,0,0,0,1.114-1.117,1.12,1.12,0,0,0-1.121-1.117,1.118,1.118,0,0,0-1.117,1.117,1.118,1.118,0,0,0,1.117,1.117Z" transform="translate(223.271 -75.403)"/><path class="b" d="M-143.475,128.3h10.124a1.118,1.118,0,0,0,1.117-1.117,1.118,1.118,0,0,0-1.117-1.117h-10.124a1.118,1.118,0,0,0-1.117,1.117A1.118,1.118,0,0,0-143.475,128.3Z" transform="translate(183.415 -113.876)"/><path class="b" d="M-188.375,128.3h0a1.116,1.116,0,0,0,1.116-1.117,1.119,1.119,0,0,0-1.119-1.117,1.118,1.118,0,0,0-1.117,1.117A1.118,1.118,0,0,0-188.375,128.3Z" transform="translate(223.298 -113.876)"/><path class="b" d="M-143.532,171.614H-133.4a1.118,1.118,0,0,0,1.117-1.117,1.118,1.118,0,0,0-1.117-1.117h-10.127a1.118,1.118,0,0,0-1.117,1.117A1.118,1.118,0,0,0-143.532,171.614Z" transform="translate(183.465 -152.349)"/><path class="b" d="M-188.431,171.614h.006a1.115,1.115,0,0,0,1.114-1.117,1.12,1.12,0,0,0-1.121-1.117,1.118,1.118,0,0,0-1.117,1.117,1.118,1.118,0,0,0,1.117,1.117Z" transform="translate(223.347 -152.349)"/><path class="b" d="M-244.9,327.7a1.118,1.118,0,0,0-1.117,1.118,1.118,1.118,0,0,0,1.117,1.117h.007a1.115,1.115,0,0,0,1.114-1.117A1.12,1.12,0,0,0-244.9,327.7Z" transform="translate(273.504 -292.974)"/></g></g></svg>