<svg xmlns="http://www.w3.org/2000/svg" xmlns:xlink="http://www.w3.org/1999/xlink" width="546.646" height="355.928" viewBox="0 0 546.646 355.928"><defs><style>.a{fill:#86eda7;opacity:0.27;}.b{fill:#acbdea;}.c,.d{fill:#627cbf;}.d{opacity:0.43;}.e{fill:#fa9b0e;}.f{fill:#fecb0e;}.g{fill:#ffab01;}.h{fill:#d37c09;}.i{fill:#d6a978;}.j{fill:#353460;}.k{fill:#ffbb43;}.l{fill:#8fa5e5;}.m,.w{fill:#d1d7e5;}.m,.v{mix-blend-mode:color-burn;isolation:isolate;}.n{fill:#966645;}.o{fill:#095370;}.p{fill:#b7825e;}.q{opacity:0.65;fill:url(#a);}.r{fill:#3d69aa;}.s{fill:#2d2d2d;}.t{fill:url(#b);}.u{fill:#acaab5;}</style><linearGradient id="a" x1="-524.133" y1="-80.642" x2="-523.793" y2="-80.671" gradientUnits="objectBoundingBox"><stop offset="0" stop-color="#fff"/><stop offset="0.82" stop-color="#fff" stop-opacity="0"/></linearGradient><linearGradient id="b" x1="-99.481" y1="4.951" x2="-98.791" y2="4.703" gradientUnits="objectBoundingBox"><stop offset="0" stop-color="#fff"/><stop offset="0.098" stop-color="#fff" stop-opacity="0.976"/><stop offset="0.221" stop-color="#fff" stop-opacity="0.918"/><stop offset="0.36" stop-color="#fff" stop-opacity="0.816"/><stop offset="0.508" stop-color="#fff" stop-opacity="0.671"/><stop offset="0.665" stop-color="#fff" stop-opacity="0.49"/><stop offset="0.829" stop-color="#fff" stop-opacity="0.263"/><stop offset="0.996" stop-color="#fff" stop-opacity="0.004"/><stop offset="0.999" stop-color="#fff" stop-opacity="0"/></linearGradient></defs><g transform="translate(-695.869 -910.214)"><path class="a" d="M1245.686,979.968s89.1-181.52,252.784-223.307c86.949-22.2,123.753-114.261,190.234-128.191s88.114,110.195,99.71,205.4-6.248,149.45-6.248,149.45Z" transform="translate(-549.817 282.82)"/><g transform="translate(500.08 603.027)"><g transform="translate(584.638 449.189)"><path class="b" d="M372.81,293.738a12.858,12.858,0,0,1,2.07-5.205c4.325-7.1,10.914-13.62,11.062-21.93.168-9.425-10.132-17.474-19.237-15.034-6.843,1.834-11.549,8.132-14.524,14.561-1.812,3.917-4.667,8.88-8.872,7.91-2.364-.546-3.853-2.881-6-4.016-3.991-2.114-9.159.7-11.208,4.722s-1.831,8.78-1.566,13.289q.384,6.532.767,13.065c.2,3.412.139,7.421-2.6,9.46-2.1,1.561-4.992,1.322-7.5,2.059-6.032,1.771-8.915,9.431-6.954,15.4,1.157,3.52,3.562,6.472,5.27,9.759s2.668,7.4.824,10.616c-2.2,3.844-7.431,4.846-10.253,8.261-3.386,4.1-2.215,10.471.9,14.774s7.748,7.207,11.788,10.66a24.572,24.572,0,0,1,6.72,8.411c1.766-5.822,4.942-10.912,10.946-14.127,7.015-3.757,15.655-3.425,22.448-7.6,8.3-5.1,3.381-13.72,1.778-20.992a21.24,21.24,0,0,1-.461-3.246,10.364,10.364,0,0,1-.236-1.481c-.526-6.827,5.88-11.923,11.528-15.792s11.906-9.308,10.9-16.08C379.443,304.8,372.13,300.155,372.81,293.738Z" transform="translate(-302.037 -251.128)"/><path class="c" d="M374.759,253.712c-6.663,7.559-11.806,16.815-16.873,25.553-.459-1.364-1.012-2.712-1.351-4.1a73.494,73.494,0,0,1-1.133-7.789.568.568,0,0,0-1.135,0c-.486,4.046.207,10,2.531,13.764-3.254,5.578-6.378,11.231-9.418,16.929-1.024-2.513-2.227-4.978-3.034-7.573-1.221-3.925-1.681-8.048-2.941-11.938a.446.446,0,0,0-.871.119c-.245,4.343,1.1,8.906,2.421,13a45.789,45.789,0,0,0,3.341,8.432q-2.421,4.58-4.773,9.193c-5.056-9.741-8.953-19.061-10.1-30.227-.068-.659-1.065-.691-1.052,0,.216,10.921,3.44,22.947,10.457,31.594q-2.8,5.528-5.5,11.105c-1.685-1.718-3.4-7.115-3.9-8.259-1.536-3.517-3.05-7.043-4.494-10.6-.2-.491-1-.3-.815.225,1.7,4.924,3.533,9.785,5.567,14.583.658,1.549,1.3,4.495,2.875,5.618q-2.715,5.605-5.364,11.243a.772.772,0,0,0-.055-.075c-5.044-4.869-6.187-12.344-9.439-18.371a.787.787,0,0,0-1.433.6,97.9,97.9,0,0,0,4.505,12.226c1.159,2.761,2.531,5.546,5.392,6.806a.846.846,0,0,0,.446.058c-.7,1.49-1.4,2.98-2.093,4.473-1.092,2.354-2.23,4.714-3.373,7.083-2.869-5.712-6.155-11.023-8.348-17.182-.21-.592-1.141-.354-.954.263,1.894,6.262,4.362,13.424,8.407,18.777a184.991,184.991,0,0,0-9.244,21.541,1.015,1.015,0,0,0,1.847.779c3.931-6.735,7.065-14.054,10.225-21.289,7.62,1.5,16.1,1.379,23.35-1.275a.66.66,0,0,0-.351-1.272c-7.782,1.36-14.836,2.151-22.547,1.514,1.11-2.536,2.228-5.057,3.389-7.535q1.166-2.486,2.347-4.966a57.69,57.69,0,0,0,19.667-1.137c1.014-.251.564-1.684-.422-1.531a110.592,110.592,0,0,1-18.706,1.528q2.817-5.931,5.71-11.826a84.944,84.944,0,0,0,21.457-3.186c.686-.211.594-1.336-.176-1.3a140.722,140.722,0,0,0-20.5,2.9q2.517-5.105,5.1-10.179c.12-.236.244-.47.365-.706,9.653.727,20.626-.352,28.954-5.313a.736.736,0,0,0-.564-1.339c-4.852,1.328-9.453,3.179-14.425,4.121a72.526,72.526,0,0,1-13.291,1.231q1.915-3.717,3.877-7.408a.549.549,0,0,0,.418-.638c0-.019-.012-.036-.016-.055a31.622,31.622,0,0,0,17.706-5.239.764.764,0,0,0-.77-1.318,44.536,44.536,0,0,1-16.2,5.112q4.52-8.429,9.311-16.711c.395-.679.807-1.351,1.212-2.025a23.878,23.878,0,0,0,14.438-4.835c.585-.46-.162-1.346-.775-1a36.8,36.8,0,0,1-12.937,4.628c5.21-8.513,11.1-16.716,15.761-25.5C377.012,253.984,375.607,252.75,374.759,253.712Z" transform="translate(-300.133 -250.738)"/></g><path class="c" d="M363.146,231.894c-3.629-.513-7.271,1.643-10.807,2.081-3.089.382-8.747,1.637-11.912,1.4,2.283-4.613,4.586-9.229,6.842-13.884a14.735,14.735,0,0,0,9.435,2.745c3.083-.136,7.9-1.208,9.693-4.052a3.285,3.285,0,0,0,.524-1.4,1.536,1.536,0,0,0-.119-.977,3.548,3.548,0,0,0-3.475-1.877c-4.974.055-9.575,2.152-14.537,2.406q1.071-2.248,2.119-4.511a1.543,1.543,0,0,0-2.662-1.556q-1.328,2.133-2.637,4.307c-2.749-6.239-.37-13.518-3.755-19.674a1.165,1.165,0,0,0-2.107.275c-1.972,7.467-1.24,16.489,4.009,22.523-2.72,4.638-5.354,9.393-7.855,14.247-2.826-6.549,1.415-15.209.311-22.037-.326-2.025-1.246-5.345-4.031-4.291-3.325,1.258-2.523,10.058-2.361,12.536a40.318,40.318,0,0,0,4.78,16.362c-3.077,6.128-5.936,12.395-8.489,18.756a38.593,38.593,0,0,1-1.4-11.022c.075-4.422,1.375-9.4.659-13.77-.4-2.458-1.732-4.48-4.152-2.588-3.7,2.89-2.215,11.128-1.791,14.962a34.272,34.272,0,0,0,5.354,15.839c-2.1,5.5-3.974,11.063-5.547,16.651a76.615,76.615,0,0,1-3.469-15.077c-.612-4.533-1.372-8.767-3.729-12.757a1.287,1.287,0,0,0-2.207,0c-4.415,9.56,2.166,24.158,8.2,32.347-.368,1.456-.719,2.913-1.043,4.371a134.725,134.725,0,0,0-2.782,19.147,131.2,131.2,0,0,1-4.755-16.235c-1.039-4.405-1.258-10.354-5.689-12.7a1.338,1.338,0,0,0-1.942.79c-2.928,12.506,7.312,25.554,11.97,37.01-.362,18.068,2.135,36.182,5.091,54.1.194,1.18,2.265.917,2.108-.285-2.447-18.66-4.682-37.6-3.7-56.37a1.491,1.491,0,0,0,.162-.1c.108-.08.212-.166.319-.247h0c.019-.013.036-.028.055-.042,6.057-1.548,11.55-5.27,16.1-9.451,2.712-2.49,10.393-9.128,8.963-13.512-1.687-5.175-6.734,0-8.57,1.743q-8.6,8.172-16.705,16.813a132.923,132.923,0,0,1,3.287-20.671c.3-1.24.635-2.467.971-3.692,9.77.342,24.459-2.881,27.712-12.879a1.384,1.384,0,0,0-1.327-1.74c-4.244.345-7.368,2.25-10.812,4.646a41.675,41.675,0,0,1-14.651,6.768,178.249,178.249,0,0,1,6.032-16.882c5.506,1.433,11.331.874,16.9-.371,3-.671,10.793-3.092,10.295-7.485-.33-2.923-4.155-3.135-6.455-2.711-6.894,1.274-12.47,6.27-19.373,7.3,2.8-6.527,5.876-12.929,9.021-19.317.147.033.284.051.426.075a53.737,53.737,0,0,0,16.869,3.8c3.527.214,9.685-1.159,11.142-5C368.757,233.8,365.55,232.234,363.146,231.894Zm-29.079-19.4c-.007-.139-.007-.281-.011-.42.063.1.121.209.175.315A.976.976,0,0,0,334.067,212.492Z" transform="translate(282.472 188.506)"/><ellipse class="d" cx="79.475" cy="18.891" rx="79.475" ry="18.891" transform="translate(319.576 607.189)"/><ellipse class="d" cx="79.39" cy="20.273" rx="79.39" ry="20.273" transform="translate(481.98 590.603)"/><path class="c" d="M128.455,278.385c3.874-9.02,15.051-14.113,14.088-25.208a1.513,1.513,0,0,0-2.794-.756,171.22,171.22,0,0,0-10.594,17.195,65.95,65.95,0,0,0-.3-8.935c-.3-2.793-.707-5.563-1.185-8.323,2.8-9.857,13.379-16.083,12.885-27.063a1.343,1.343,0,0,0-2-1.15c-3.738,2.668-4.251,7.25-6.389,11.107-1.974,3.563-4.247,6.827-5.751,10.513-.861-4.141-1.822-8.263-2.761-12.387l.006-.012c.216-1.117.445-2.215.7-3.3a1.065,1.065,0,0,0,.258-.558c.052-.362.108-.719.162-1.078a21.178,21.178,0,0,1,4.519-8.83c2.1-2.343,4.634-4.2,6.47-6.783,1.359-1.91,4.482-7.661,1.206-9.4-3.5-1.85-7.459,4.321-8.842,6.415a36.4,36.4,0,0,0-5.986,16.717c-1.789-8.436-3.2-16.928-3.18-25.659a1.474,1.474,0,0,0-2.945,0,97.078,97.078,0,0,0,1.636,19.613c-2.247-2.74-4.552-5.433-6.83-8.145-2.29-2.727-4.362-6.4-8.3-6.229a1.508,1.508,0,0,0-1.482,1.482,12.629,12.629,0,0,0,5.3,10.66,45.824,45.824,0,0,0,4.389,2.511,8.2,8.2,0,0,0,1.868,1.125,13.555,13.555,0,0,1,1.787,1.418c2.315,2.2,3.631,4.856,5.281,7.522a1.016,1.016,0,0,0,.1.112c1.024,4.587,2.115,9.168,3.112,13.767A39.834,39.834,0,0,1,110.856,233.9c-2.344-3.291-3.782-6.518-8.25-6.7a1.328,1.328,0,0,0-1.3,1.3c-.431,5.3,3.792,10.182,7.489,13.558a23.146,23.146,0,0,0,6.59,4.287c3.22,1.371,6.64,1.931,8.811,4.888.645,3.473,1.192,6.962,1.549,10.485a72.178,72.178,0,0,1,.058,13.237,78.142,78.142,0,0,0-12.571-21.709c-.668-.83-1.8-.213-2.115.558-1.765,4.277.945,9.263,3.227,12.9a57.733,57.733,0,0,0,5.838,7.09c1.361,2.173,2.752,4.337,4.145,6.527a1.7,1.7,0,0,0,.17.22,12.729,12.729,0,0,1,.446,1.645c-.593,3.886-1.367,7.771-2.2,11.708-1.937,9.116-4,18.847-1.726,28.082a1,1,0,0,0,1.946-.264C122.257,306.912,126.656,292.809,128.455,278.385Zm9.6-17.719.046-.075c-.014.029-.031.058-.045.086Z" transform="translate(247.543 189.051)"/><g transform="translate(309.519 416.959)"><path class="b" d="M129.47,364.938S49.824,310.393,71.525,224.685C71.525,224.685,139.305,259.147,129.47,364.938Z" transform="translate(-67.779 -223.511)"/><path class="c" d="M113.767,286.22a1.175,1.175,0,0,0-2.082-1.087L103.663,300.5l-9.516-23.036a.859.859,0,0,0,.042-.08,1.148,1.148,0,0,0,.349-.457,1.163,1.163,0,0,0,0-.826l5.95-22.359a1.174,1.174,0,1,0-2.269-.6l-5.533,20.79L72.229,224.411a1.174,1.174,0,0,0-2.17.9l20.089,48.625-14.771-5.822a1.174,1.174,0,1,0-.862,2.184l16.879,6.653,10.028,24.273-17.647-8.028a1.175,1.175,0,0,0-.974,2.139l19.2,8.733a1.111,1.111,0,0,0,1.052,1.105l7.608,18.414-15.626-5.071a1.175,1.175,0,0,0-.725,2.235l16.732,5.429a1.163,1.163,0,0,0,.621.645,1.114,1.114,0,0,0,.366.078L128,365.561a1.174,1.174,0,0,0,2.17-.9l-16.409-39.717,7.126-16.286a1.174,1.174,0,0,0-2.152-.942l-6.22,14.214-7.685-18.6Z" transform="translate(-67.397 -223.685)"/></g><g transform="translate(322.803 509.291)"><g transform="translate(6.138 68.188)"><path class="e" d="M224.861,383.288v13.149c0,4.963-5.179,9.55-13.92,13.235a81.536,81.536,0,0,1-9.606,3.3q-4.624,1.311-9.934,2.341c-3.732.714-7.7,1.334-11.852,1.823-2.594.31-5.273.573-8.008.789-5.358.415-10.95.631-16.712.631-1.052,0-2.1-.009-3.139-.019-21.007-.291-39.607-3.507-51.826-8.394-6.044-2.406-10.526-5.236-12.97-8.309l-.009-.009a8.658,8.658,0,0,1-2.087-5.386V383.288c0-12.209,31.345-22.106,70.032-22.106S224.861,371.079,224.861,383.288Z" transform="translate(-84.232 -360.223)"/><path class="f" d="M154.348,360.365c-38.677,0-70.032,9.756-70.032,21.787s31.355,21.8,70.032,21.8,70.033-9.757,70.033-21.8S193.026,360.365,154.348,360.365Zm0,41.018c-34.663,0-62.767-8.892-62.767-19.87s28.1-19.87,62.767-19.87,62.767,8.892,62.767,19.87S189.013,401.383,154.348,401.383Z" transform="translate(-84.316 -360.365)"/><ellipse class="g" cx="62.767" cy="19.87" rx="62.767" ry="19.87" transform="translate(7.265 1.278)"/><ellipse class="g" cx="62.767" cy="19.87" rx="62.767" ry="19.87" transform="translate(7.265 1.278)"/><path class="f" d="M161.605,395.819v16.063c-5.358.415-10.95.631-16.712.631-1.052,0-2.1-.009-3.139-.019V397.106Z" transform="translate(-74.297 -354.181)"/><path class="f" d="M177.328,393.09v16.656c-3.732.714-7.7,1.334-11.852,1.823V394.377Z" transform="translate(-70.16 -354.657)"/><path class="f" d="M193.633,389.272v15.5a81.54,81.54,0,0,1-9.606,3.3V390.56Z" transform="translate(-66.924 -355.323)"/><g transform="translate(22.379 7.175)"><path class="h" d="M190.212,376.589l11.744.014,0,3.567-11.64-.014c-.634,4.262-4,8.389-8.718,10.645L171,388.832c4.2-2.126,7.243-5.385,7.981-8.69l-20.975-.025c-2.837,4.825-6.618,10-21.2,9.979-10.7-.013-20.027-3.243-21.592-10.03l-11.851-.013,0-3.567,11.641.014c.423-3.219,2.734-6.478,6.408-8.822l10.591,1.8c-3.254,2.3-5.041,4.735-5.672,7.04l21.184.025c2.837-4.825,6.515-10.082,21.091-10.065C179.316,366.486,188.54,369.759,190.212,376.589Zm-44.89,3.514-18.669-.022c1.151,3.09,4.924,4.4,9.539,4.4C141.226,384.491,143.534,382.624,145.321,380.1Zm24.234-8.061c-5.139-.006-7.553,1.9-9.339,4.512l18.563.022C177.629,373.4,174.066,372.047,169.556,372.042Z" transform="translate(-103.371 -366.474)"/></g></g><g transform="translate(0 45.686)"><path class="e" d="M219.635,364.128v13.149c0,4.963-5.178,9.549-13.919,13.233a81.476,81.476,0,0,1-9.607,3.3q-4.624,1.311-9.934,2.339c-3.731.715-7.7,1.335-11.852,1.824-2.594.31-5.273.573-8.008.789-5.357.413-10.949.63-16.711.63-1.052,0-2.1-.009-3.139-.019-21.007-.291-39.607-3.506-51.826-8.392-6.045-2.406-10.528-5.236-12.972-8.309l-.009-.009a8.668,8.668,0,0,1-2.087-5.386V364.128c0-12.209,31.347-22.107,70.033-22.107S219.635,351.919,219.635,364.128Z" transform="translate(-79.006 -341.063)"/><path class="f" d="M149.123,341.2c-38.677,0-70.033,9.756-70.033,21.787s31.356,21.8,70.033,21.8,70.032-9.757,70.032-21.8S187.8,341.2,149.123,341.2Zm0,41.018c-34.664,0-62.767-8.892-62.767-19.87s28.1-19.87,62.767-19.87,62.767,8.892,62.767,19.87S183.786,382.223,149.123,382.223Z" transform="translate(-79.09 -341.205)"/><ellipse class="g" cx="62.767" cy="19.87" rx="62.767" ry="19.87" transform="translate(7.266 1.278)"/><ellipse class="g" cx="62.767" cy="19.87" rx="62.767" ry="19.87" transform="translate(7.266 1.278)"/><path class="f" d="M156.379,376.659v16.063c-5.357.413-10.949.629-16.711.629-1.052,0-2.1-.009-3.139-.019V377.946Z" transform="translate(-69.071 -335.021)"/><path class="f" d="M172.1,373.93v16.655c-3.731.715-7.7,1.335-11.852,1.824V375.217Z" transform="translate(-64.934 -335.497)"/><path class="f" d="M188.408,370.112v15.5a81.465,81.465,0,0,1-9.607,3.3V371.4Z" transform="translate(-61.698 -336.163)"/><g transform="translate(22.379 7.173)"><path class="h" d="M184.986,357.43l11.745.014,0,3.566L185.087,361c-.635,4.261-4,8.389-8.719,10.645l-10.589-1.969c4.2-2.126,7.243-5.385,7.981-8.69l-20.975-.025c-2.837,4.825-6.619,10-21.2,9.979-10.7-.013-20.026-3.243-21.592-10.03l-11.851-.014,0-3.566,11.641.013c.424-3.218,2.735-6.477,6.408-8.821l10.591,1.8c-3.254,2.3-5.039,4.734-5.672,7.04l21.185.025c2.836-4.825,6.513-10.082,21.09-10.066C174.09,347.326,183.314,350.6,184.986,357.43Zm-44.89,3.513-18.667-.021c1.151,3.089,4.924,4.4,9.539,4.4C136,365.331,138.309,363.464,140.1,360.942Zm24.235-8.06c-5.139-.007-7.554,1.905-9.339,4.512l18.563.021C172.4,354.24,168.841,352.887,164.331,352.882Z" transform="translate(-98.145 -347.313)"/></g></g><g transform="translate(13.639 23.184)"><path class="e" d="M231.248,344.967v13.15c0,4.963-5.179,9.549-13.92,13.233a81.328,81.328,0,0,1-9.606,3.3q-4.624,1.312-9.936,2.341c-3.731.714-7.7,1.335-11.852,1.824-2.594.31-5.272.573-8.007.789-5.358.413-10.95.63-16.712.63-1.052,0-2.1-.009-3.139-.019-21.007-.291-39.608-3.506-51.826-8.394-6.044-2.405-10.528-5.234-12.972-8.308l-.009-.009a8.666,8.666,0,0,1-2.086-5.386v-13.15c0-12.209,31.345-22.106,70.032-22.106S231.248,332.758,231.248,344.967Z" transform="translate(-90.619 -321.903)"/><path class="f" d="M160.735,322.045c-38.677,0-70.032,9.756-70.032,21.787s31.355,21.8,70.032,21.8,70.032-9.756,70.032-21.8S199.413,322.045,160.735,322.045Zm0,41.017c-34.664,0-62.767-8.892-62.767-19.869s28.1-19.87,62.767-19.87,62.767,8.892,62.767,19.87S195.4,363.062,160.735,363.062Z" transform="translate(-90.703 -322.045)"/><ellipse class="g" cx="62.767" cy="19.87" rx="62.767" ry="19.87" transform="translate(7.265 1.278)"/><ellipse class="g" cx="62.767" cy="19.87" rx="62.767" ry="19.87" transform="translate(7.265 1.278)"/><path class="f" d="M167.992,357.5v16.063c-5.358.413-10.95.629-16.712.629-1.052,0-2.1-.009-3.139-.019V358.786Z" transform="translate(-80.684 -315.861)"/><path class="f" d="M183.714,354.77v16.654c-3.731.714-7.7,1.335-11.852,1.824V356.057Z" transform="translate(-76.547 -316.337)"/><path class="f" d="M200.02,350.952v15.5a81.313,81.313,0,0,1-9.606,3.3V352.24Z" transform="translate(-73.311 -317.003)"/><g transform="translate(22.379 7.173)"><path class="h" d="M196.6,338.27l11.745.014,0,3.566-11.64-.013c-.634,4.261-4,8.389-8.718,10.645l-10.59-1.97c4.2-2.127,7.243-5.385,7.981-8.69L164.4,341.8c-2.837,4.825-6.619,10-21.2,9.979-10.7-.013-20.026-3.243-21.591-10.03l-11.851-.014,0-3.567,11.641.014c.424-3.218,2.735-6.477,6.408-8.821l10.591,1.8c-3.254,2.3-5.039,4.734-5.671,7.038l21.184.026c2.836-4.825,6.515-10.082,21.09-10.066C185.7,328.166,194.927,331.439,196.6,338.27Zm-44.89,3.513-18.667-.022c1.151,3.09,4.924,4.4,9.539,4.405C147.613,346.171,149.921,344.3,151.707,341.782Zm24.235-8.06c-5.139-.007-7.554,1.9-9.339,4.512l18.563.021C184.016,335.08,180.453,333.727,175.943,333.722Z" transform="translate(-109.758 -328.153)"/></g></g><g transform="translate(5.455 0)"><path class="e" d="M224.281,325.227v13.149c0,4.963-5.179,9.549-13.919,13.233a81.469,81.469,0,0,1-9.607,3.3q-4.624,1.311-9.934,2.339c-3.731.715-7.7,1.335-11.852,1.824-2.594.31-5.273.573-8.008.789-5.357.415-10.949.63-16.711.63-1.053,0-2.1-.009-3.139-.018-21.007-.292-39.609-3.507-51.827-8.394-6.044-2.406-10.526-5.236-12.97-8.309l-.009-.009a8.668,8.668,0,0,1-2.087-5.386V325.227c0-12.209,31.347-22.107,70.033-22.107S224.281,313.018,224.281,325.227Z" transform="translate(-83.651 -302.162)"/><path class="f" d="M153.768,302.3c-38.677,0-70.033,9.756-70.033,21.787s31.356,21.8,70.033,21.8,70.032-9.757,70.032-21.8S192.446,302.3,153.768,302.3Zm0,41.018C119.1,343.322,91,334.43,91,323.452s28.1-19.87,62.767-19.87,62.767,8.892,62.767,19.87S188.431,343.322,153.768,343.322Z" transform="translate(-83.735 -302.304)"/><ellipse class="g" cx="62.767" cy="19.87" rx="62.767" ry="19.87" transform="translate(7.266 1.278)"/><ellipse class="g" cx="62.767" cy="19.87" rx="62.767" ry="19.87" transform="translate(7.266 1.278)"/><path class="f" d="M161.024,337.758v16.063c-5.357.415-10.949.63-16.711.63-1.053,0-2.1-.009-3.139-.018V339.045Z" transform="translate(-73.716 -296.12)"/><path class="f" d="M176.747,335.029v16.655c-3.731.715-7.7,1.335-11.852,1.824V336.316Z" transform="translate(-69.579 -296.596)"/><path class="f" d="M193.053,331.211v15.5a81.483,81.483,0,0,1-9.607,3.3V332.5Z" transform="translate(-66.343 -297.262)"/><g transform="translate(22.379 7.173)"><path class="h" d="M189.631,318.529l11.744.014,0,3.566-11.64-.013c-.635,4.261-4,8.389-8.719,10.645l-10.589-1.97c4.2-2.126,7.243-5.385,7.981-8.69l-20.975-.025c-2.839,4.825-6.619,10-21.2,9.979-10.7-.013-20.026-3.243-21.592-10.03l-11.851-.014,0-3.566,11.641.013c.424-3.218,2.735-6.477,6.408-8.821l10.591,1.8c-3.254,2.3-5.039,4.735-5.672,7.04l21.185.025c2.836-4.824,6.513-10.082,21.09-10.066C178.735,308.425,187.959,311.7,189.631,318.529Zm-44.89,3.513-18.667-.021c1.15,3.089,4.924,4.4,9.539,4.4C140.645,326.43,142.954,324.563,144.74,322.041Zm24.235-8.06c-5.139-.007-7.554,1.9-9.34,4.512l18.563.021C177.049,315.339,173.485,313.986,168.976,313.981Z" transform="translate(-102.79 -308.412)"/></g></g><g transform="translate(163.09 59.232)"><path class="e" d="M358.5,375.662v13.149c0,4.963-5.179,9.55-13.92,13.235a81.518,81.518,0,0,1-9.606,3.3q-4.624,1.311-9.934,2.341c-3.732.714-7.7,1.334-11.852,1.823-2.594.31-5.273.573-8.008.79-5.358.413-10.95.629-16.712.629-1.052,0-2.1-.009-3.139-.019-21.007-.291-39.608-3.506-51.826-8.394-6.044-2.406-10.526-5.236-12.97-8.309l-.009-.009a8.659,8.659,0,0,1-2.087-5.386V375.662c0-12.209,31.347-22.106,70.032-22.106S358.5,363.453,358.5,375.662Z" transform="translate(-217.874 -352.597)"/><path class="f" d="M287.99,352.739c-38.677,0-70.032,9.757-70.032,21.787s31.355,21.8,70.032,21.8,70.033-9.757,70.033-21.8S326.668,352.739,287.99,352.739Zm0,41.018c-34.663,0-62.767-8.892-62.767-19.87s28.1-19.869,62.767-19.869,62.767,8.892,62.767,19.869S322.655,393.757,287.99,393.757Z" transform="translate(-217.958 -352.739)"/><ellipse class="g" cx="62.767" cy="19.87" rx="62.767" ry="19.87" transform="translate(7.265 1.279)"/><ellipse class="g" cx="62.767" cy="19.87" rx="62.767" ry="19.87" transform="translate(7.265 1.279)"/><path class="f" d="M295.247,388.193v16.064c-5.358.413-10.95.629-16.712.629-1.052,0-2.1-.009-3.139-.019V389.481Z" transform="translate(-207.939 -346.555)"/><path class="f" d="M310.97,385.464V402.12c-3.732.714-7.7,1.334-11.852,1.823V386.751Z" transform="translate(-203.802 -347.031)"/><path class="f" d="M327.275,381.647v15.5a81.548,81.548,0,0,1-9.606,3.3V382.934Z" transform="translate(-200.566 -347.697)"/><g transform="translate(22.379 7.175)"><path class="h" d="M323.854,368.963l11.744.014,0,3.567-11.641-.014c-.634,4.262-4,8.389-8.718,10.645l-10.59-1.969c4.2-2.126,7.244-5.385,7.981-8.688l-20.975-.026c-2.837,4.825-6.618,10-21.2,9.979-10.7-.013-20.028-3.243-21.592-10.03l-11.851-.014,0-3.566,11.641.014c.423-3.218,2.734-6.478,6.408-8.822l10.591,1.8c-3.254,2.3-5.041,4.735-5.672,7.039l21.185.025c2.836-4.825,6.513-10.082,21.09-10.065C312.958,358.86,322.182,362.133,323.854,368.963Zm-44.89,3.514-18.669-.022c1.151,3.09,4.924,4.4,9.539,4.4C274.868,376.865,277.176,375,278.964,372.477Zm24.234-8.061c-5.138-.006-7.553,1.9-9.339,4.512l18.563.022C311.272,365.774,307.708,364.421,303.2,364.416Z" transform="translate(-237.013 -358.848)"/></g></g><g transform="translate(170.665 33.863)"><path class="e" d="M364.953,354.061V367.21c0,4.963-5.179,9.549-13.92,13.235a81.745,81.745,0,0,1-9.606,3.3q-4.624,1.311-9.934,2.341c-3.732.714-7.7,1.334-11.852,1.823-2.594.31-5.273.573-8.008.79-5.358.413-10.95.63-16.712.63-1.052,0-2.1-.009-3.139-.019-21.007-.291-39.608-3.506-51.826-8.394-6.044-2.406-10.526-5.236-12.97-8.309l-.009-.009a8.661,8.661,0,0,1-2.087-5.386V354.061c0-12.209,31.347-22.107,70.032-22.107S364.953,341.852,364.953,354.061Z" transform="translate(-224.324 -330.996)"/><path class="f" d="M294.44,331.138c-38.677,0-70.032,9.756-70.032,21.787s31.355,21.8,70.032,21.8,70.033-9.756,70.033-21.8S333.118,331.138,294.44,331.138Zm0,41.018c-34.663,0-62.767-8.891-62.767-19.87s28.1-19.869,62.767-19.869,62.767,8.892,62.767,19.869S329.1,372.156,294.44,372.156Z" transform="translate(-224.408 -331.138)"/><ellipse class="g" cx="62.767" cy="19.87" rx="62.767" ry="19.87" transform="translate(7.265 1.278)"/><ellipse class="g" cx="62.767" cy="19.87" rx="62.767" ry="19.87" transform="translate(7.265 1.278)"/><path class="f" d="M301.7,366.592v16.064c-5.358.413-10.95.63-16.712.63-1.052,0-2.1-.009-3.139-.019V367.88Z" transform="translate(-214.389 -324.954)"/><path class="f" d="M317.42,363.863v16.656c-3.732.714-7.7,1.334-11.852,1.823v-17.19Z" transform="translate(-210.252 -325.43)"/><path class="f" d="M333.725,360.046v15.5a81.739,81.739,0,0,1-9.606,3.3V361.333Z" transform="translate(-207.016 -326.096)"/><g transform="translate(22.379 7.175)"><path class="h" d="M330.3,347.362l11.744.014,0,3.565-11.641-.013c-.634,4.261-4,8.389-8.718,10.645L311.1,359.6c4.2-2.126,7.244-5.385,7.981-8.688L298.1,350.89c-2.837,4.824-6.618,10-21.2,9.979-10.7-.013-20.027-3.243-21.592-10.03l-11.851-.014,0-3.566,11.641.013c.423-3.218,2.734-6.477,6.408-8.821l10.591,1.8c-3.254,2.3-5.041,4.735-5.672,7.039l21.185.025c2.836-4.825,6.513-10.082,21.09-10.065C319.408,337.259,328.632,340.532,330.3,347.362Zm-44.89,3.514-18.669-.022c1.151,3.09,4.924,4.4,9.539,4.4C281.318,355.264,283.626,353.4,285.413,350.876Zm24.234-8.061c-5.138-.006-7.553,1.9-9.339,4.512l18.563.022C317.722,344.173,314.158,342.82,309.648,342.815Z" transform="translate(-243.463 -337.247)"/></g></g></g><g transform="translate(485.884 324.973)"><path class="i" d="M227.158,160.467c.73-1.271,1.786-3.46,1.486-5.115-.285-1.564-1.338-.779-2.3.2-.577-3.4-.712-6.66-2.031-6.7-9.678-.257-4.008,15.039-2.294,23.741,4.359-.443,3.581-1.765,6.733-3.93C228.072,165.687,227.573,162.933,227.158,160.467Z" transform="translate(-217.8 -144.751)"/><path class="i" d="M277.265,176.447s.216-.058.553-.171c.995-.336,3.041-1.158,3.667-2.41,0,0-3.144-7.545-2.514-14.252s2.725-8.383,2.725-8.383,6.078-.628,10.059-.628,7.546,3.772,7.546,3.772-.63,2.725-1.468,7.755-3.562,10.9-3.353,11.736-.628,3.563,1.048,3.563,1.258,6.287,1.258,6.287l-11.108,8.8-9.641-4.4-3.772-5.66,1.049-5.658Z" transform="translate(-208.476 -144.446)"/><path class="j" d="M259.306,346.81c2.417-.142,4.726-1.011,7.135-1.24a40.687,40.687,0,0,1,8.254.5c2.237-.335,3.748-.81,3.823-1.486.311-2.81-.625-5.463-1.562-8.586s-.467-4.37-.467-4.37l-7.025.311s-1.105,4.29-2.77,5.7c-2.029,1.716-4.635,2.249-7.16,2.8-2.191.48-5.569,1.015-6.928,3.051-.936,1.4.624,3.278.625,3.279.465.558,4.781.065,5.47.062C258.9,346.829,259.105,346.822,259.306,346.81Z" transform="translate(-211.958 -112.871)"/><path class="j" d="M302.687,330.068s.507,5.076-.507,7.614-5.076,6.937-1.523,7.445,9.306,2.031,10.66-.846-.678-3.892-1.523-6.43a33.3,33.3,0,0,1-1.015-7.106Z" transform="translate(-203.773 -113.143)"/><path class="k" d="M316,352.2h-8.667c-.364-3.241-14.809-40.083-17.335-46.214-1.926-4.7-5.426-36.783-6.964-51.663a.371.371,0,0,0-.74.047c.012,8.667,0,22.725-.235,31.028-.094,3.265.024,6.342.235,9.431.505,7.3,1.48,14.68,1.21,24.863-.047.6-.094,1.21-.153,1.82-.869,9.067-3.183,21.292-8.526,30.652l-10.464-.317s4.334-42.972,1.445-62.844c-2.443-16.794-.846-50.712-.294-60.788.094-1.844.164-2.889.164-2.889l11.8-.517,26.965-1.163s.082,1.1.2,3.335c.164,3.241.388,8.855.517,16.888.223,13.565-.352,30.335.364,38.639s0,11.192,4.7,25.638S316,352.2,316,352.2Z" transform="translate(-209.855 -131.705)"/><path class="i" d="M305.978,222.823c-3.737,4.52-10.125,9.684-10.125,13.029,0,7.136,2.049,10.809,5.293,6.269,2.749-3.849,3.129-7.857,8.579-13.031C306.141,227.224,306.3,226.867,305.978,222.823Z" transform="translate(-204.362 -131.849)"/><path class="l" d="M327.97,235.962c-1.409,2.22-2.6,5.109-4.522,6.929-3.582-1.856-6.236-5.062-6.565-9.1,4.24-5.12,10.476-15.068,9.442-20.235-1.95-9.724-12.343-16.947-12.343-16.947-1.914,7.646.9,29.408,1.139,38.275.035,1.491-.975,2.008-2.384,2.255-1.562.258-3.617.153-5.214.611-5.449,1.562-14.774,3.829-22.514,3.887-4.886.023-9.149-.822-11.4-3.265a6.054,6.054,0,0,1-1.468-2.525c-.258-.834,1.562-8.949,1.679-9.853,1.914-15.855,1.245-23.594,1.245-23.594-5.837,7.14-15.573,11.028-31.78,7.786-15.279-3.053-21.351-25.673-24.722-38.592-.211-.834-.411-1.632-.611-2.372h.012a23.738,23.738,0,0,0,11.263-3.77A123.832,123.832,0,0,0,232.9,178.4c5.12,14.81,12.743,19.108,19.8,19.5a19.876,19.876,0,0,0,2.9-.035c7.787-.658,12.167-16.63,17.358-20.529s16.16-4.6,16.16-4.6a8.256,8.256,0,0,0,3.676,4.85c4.533,2.525,10.887-.81,11.368-3.23a29.282,29.282,0,0,1,17.182,6.2c7.775,5.978,14.187,16.242,16.806,25.638C341.312,217.559,333.666,226.966,327.97,235.962Z" transform="translate(-217.95 -141.857)"/><path class="j" d="M296.475,155.649a16.891,16.891,0,0,0-6.02-1.422c-2.9-.085-4.41,1.678-6.49,3.373-2.134,1.74-6,2.022-7.972.862-1.844-1.086-2.681-4.626-3.13-6.853,0,0,1.468.842,7.261-2.29,3.614-1.953,6.623-4.836,10.929-3.7,2.812.741,5.456,2.8,7.707,4.581,0,0,3.459,1.01,2.989,3.516s-2.076,6.883-3.956,7.824Z" transform="translate(-208.372 -145.361)"/><path class="j" d="M295.529,164.331a6.574,6.574,0,0,1-4.378,1.231c-2.463-.272-5.337-2.189-8.21-1.368a11.966,11.966,0,0,1-4.653.547s1.4,6.569,2.385,6.822c3.428.878,11.025,2.62,12.8-.664A18.667,18.667,0,0,0,295.529,164.331Z" transform="translate(-207.426 -142.111)"/><path class="i" d="M282.051,166.361s5.968,1.062,7.1.6c0,0,.067.995-3.648.664S282.051,166.361,282.051,166.361Z" transform="translate(-206.77 -141.698)"/><path class="i" d="M280.005,160.1c0,1.749-.728,3.165-1.627,3.165s-1.627-1.416-1.627-3.165.728-3.164,1.627-3.164S280.005,158.351,280.005,160.1Z" transform="translate(-207.693 -143.342)"/><path class="i" d="M295.5,160.7c0,1.748-.728,3.165-1.627,3.165s-1.627-1.418-1.627-3.165.728-3.164,1.627-3.164S295.5,158.95,295.5,160.7Z" transform="translate(-204.991 -143.237)"/><path class="m" d="M272.047,234.933a6.053,6.053,0,0,0,1.468,2.525c-.552,10.077-2.149,43.994.294,60.788,2.889,19.871-1.445,62.844-1.445,62.844l3.734.113c4.194-8.529,4.66-18.892,4.584-28.177-.215-26.145-5.109-52.325-2.478-78.48,1.375-13.673,7.755-26.1,9.429-39.646,1.56-12.616,7.078-25.378,5.072-38.23a8.255,8.255,0,0,1-3.676-4.85s-10.969.716-16.16,4.6-9.572,19.871-17.358,20.529a19.87,19.87,0,0,1-2.9.035,4.439,4.439,0,0,1-1.679,1.327c-6.635,2.607-16.876-7.011-20.834-11.181-4.662-4.909-8.186-10.652-11.627-16.454,3.371,12.919,9.442,35.538,24.722,38.592,16.207,3.241,25.943-.646,31.78-7.786,0,0,.669,7.739-1.245,23.594C273.609,225.984,271.789,234.1,272.047,234.933Z" transform="translate(-217.859 -140.944)"/></g><g transform="translate(388.314 412.646)"><path class="n" d="M174,267.568s-.706,9.879,4.763,12.173,22.934,2.822,26.992,7.056,3.352,6.881,2.822,6.881-.53-1.412-7.233-4.235-20.641,1.236-26.286-2.116a20.988,20.988,0,0,1-7.939-8.468l.177-7.587Z" transform="translate(-129.246 -211.717)"/><path class="j" d="M222.125,349.963s-.325,7.468,3.409,7.792,4.869-1.947,6.33-2.759,5.358-1.461,6.981-2.274a29.084,29.084,0,0,0,3.735-2.435s.324-3.247-4.059-2.6a25.9,25.9,0,0,1-10.39-.324Z" transform="translate(-119.653 -197.798)"/><path class="j" d="M227.736,353.671s-3.226,8.321.51,9.68,3.226.849,6.962.169,11.209,1.19,13.246-.509,1.018-4.586-3.4-5.095-7.472,0-8.491-1.7a37.685,37.685,0,0,0-2.887-3.906Z" transform="translate(-118.899 -196.936)"/><path class="o" d="M240.046,356.684s-14.638-56.835-21.067-61.121-47.879-3.025-47.879-3.025-11.633,12.856,0,16.53a114.913,114.913,0,0,0,16.281,3.285,38.771,38.771,0,0,0,4.916-.584c6.537-1.32,18.3-4.061,18.348-4.073-1.473.344,7.49,26.045,8.235,28.164,3.021,8.6,6.385,16.927,11.449,24.587.031.047.061.093.093.137Z" transform="translate(-129.454 -207.392)"/><path class="p" d="M154.826,242.081c-.6,3.652-3.123,9.373-1.49,12.743s4.7-.078,8.318-1.158c-.395-1.595,3.027-6.789,4.625-7.263a4.455,4.455,0,0,1,1.511-.063c.164.011.33.018.493.015,2.626-.031,4.526-2.388,5.689-4.672a27.625,27.625,0,0,0,2.99-12.126l-.305-.459-2-3.007c-2.418-1.6-5.515-1.772-8.408-1.58-3.036.2-6.242.846-8.375,2.941C155.933,229.365,155.269,239.406,154.826,242.081Z" transform="translate(-131.745 -219.238)"/><path class="k" d="M176.731,293.008c.094.54.975,3.312.846,4.169a.3.3,0,0,1-.059.188c-3.312,4.5-8.456,6.072-13.541,6.307a42.688,42.688,0,0,1-12.813-1.644c-.07-.2-.141-.411-.2-.611-.012-.012-.012-.012-.012,0-1.55-4.709-2.1-9.689-2.772-14.586-.622-4.475-1.139-8.961-1.433-13.447-.047-.634-.082-1.28-.117-1.914s-.059-1.3-.082-1.973a123.224,123.224,0,0,0,.74-14.1,28.685,28.685,0,0,1,4.416-11.439c.47-.505.963-1,1.5-1.5l1.632.869.059.035,3.641,1.926,4.933,2.619.023.012c-.094,6.06,12.86,14.07,15.138,19.566,1.092,2.654-.575,5.872-1.55,8.3a24.665,24.665,0,0,0-1.48,4.381C174.758,284.364,176.05,288.862,176.731,293.008Z" transform="translate(-132.835 -216.098)"/><path class="q" d="M165.665,245.649c.164.011.33.018.492.015,2.627-.031,4.526-2.388,5.689-4.672a27.594,27.594,0,0,0,2.99-12.126l-.3-.459c-1.479.783-2.169,2.95-2.456,4.64-.511,2.994-.9,6.2-2.991,8.553-1.071,1.21-2.521,2.078-3.25,3.555a.558.558,0,0,1,.123-.123A1.446,1.446,0,0,0,165.665,245.649Z" transform="translate(-129.5 -218.548)"/><path class="r" d="M248.341,365.574l-3.746,1.515-4.251,1.726-5.6-7.669a77.358,77.358,0,0,1-11.451-22.807c-1.914-6.224-1.8-13.271-5.344-18.944-4.98-7.951-15.3-3.523-22.408-1.95-8.162,1.8-17.158,3.312-25.555,3.288-7.27-.012-13.13-2.948-16.524-9.572-.505-.963-3.829-16.888-3.147-17.851,0-.012,0-.012.012,0a.06.06,0,0,1,.059-.047,103.687,103.687,0,0,0,12.179-.834c9.677-1.257,14.2-3.512,14.2-3.512s.059.047.176.153a30.368,30.368,0,0,0,11.662,5.7c6.459,1.315,25.485.74,34.775,3.559a12.134,12.134,0,0,1,6.177,4.651,61.074,61.074,0,0,1,4.169,12.743c1.539,6.589,2.713,13.248,4.134,19.86a152.676,152.676,0,0,0,5.661,19.7c1.233,3.406,2.419,6.906,4.7,9.642C248.294,365.327,248.341,365.574,248.341,365.574Z" transform="translate(-132.194 -207.993)"/><path class="s" d="M180.071,230.766c-1.327,2.137-5.52,2.913-7.763,3.124-2.067.188-3.559-.893-5.3-1.2a7.275,7.275,0,0,0-.728-.07,2.654,2.654,0,0,0-2.443,3.112,1.435,1.435,0,0,0,.928.893c.552,2.278-2.666,3.112-4.122,4.122a4.125,4.125,0,0,0-1.21,1.245c-1.151,2.032,1,4.334,1.139,7.2a5.488,5.488,0,0,1-.141,1.55c-.364,1.562-2.267,2.924-3.359,3.981a7.568,7.568,0,0,0-.669.7,11.288,11.288,0,0,0-2.149,3.582,15.493,15.493,0,0,0-.669,2.431,23.227,23.227,0,0,0-.376,3.981c-.082,3.887.411,8.468-3.124,11.1a6.811,6.811,0,0,1-1.3.775c-3.758,1.715-8.327-.258-10.758-3.465-5.367-7.07-3.007-15.679.575-22.96,1.9-3.852,4.181-7.5,6.271-11.251,2.055-3.688,3.535-7.833,6.295-11.087a24.981,24.981,0,0,1,13.318-8.268c4.181-.951,9.724.834,13.154,4.146a10.871,10.871,0,0,1,2.384,3.218,1.725,1.725,0,0,1,.117.258A2.969,2.969,0,0,1,180.071,230.766Z" transform="translate(-134.871 -220.012)"/><g transform="translate(52.894 23.363)"><path class="t" d="M179.91,300.534l32.328,2.734,18.79-32.559-29.92-30.8Z" transform="translate(-179.91 -239.905)"/></g><g transform="translate(53.05 53.082)"><path class="u" d="M213.1,301.915a1.582,1.582,0,0,0,1.463-.793L233.8,267.58A1.583,1.583,0,0,0,231.052,266l-18.739,32.683-30.578-2.1h-.018a1.583,1.583,0,0,0-.2,3.16l31.567,2.168Z" transform="translate(-180.043 -265.211)"/></g><path class="p" d="M198.583,287.658c-4.742.182-9.487.3-14.232.4-4.5.094-9.262.646-13.743.273a3.066,3.066,0,0,1-2.47-1.2c-1.454-2.164-.923-5.278-.869-7.747q.085-3.824.093-7.65c0-4.476.168-9.169-.638-13.592a6.168,6.168,0,0,0-.444-1.62c-1.453-2.97-8.2-5.936-11.7-2-.894,1.005-2.823,4.348-2.55,6.539.922,7.418.781,16.835,3.337,25.913a20.149,20.149,0,0,0,3.609,7.594,11.088,11.088,0,0,0,6.728,4.036c3.065.383,6.163-.676,9.164-1.157q4.126-.661,8.232-1.426,4.351-.807,8.68-1.726,2.014-.432,4.019-.895c.554-.129,3.247-1.166,3.67-.9,0,0,1.577,1.006,3.225,2.29s3.771,7.072,5.776,2.375S198.583,287.658,198.583,287.658Z" transform="translate(-131.883 -214.322)"/><g transform="translate(19.815 37.56)"><path class="k" d="M154.158,254.061c3.442-4.12,10.447-1.3,12.041,1.685.92,1.724,2,8.692,2.263,15.318a42.281,42.281,0,0,1-8.446.385,74.609,74.609,0,0,1-7.553-1.133c-.341-3.058-.245-6.859-.674-9.512C151.429,258.578,153.28,255.112,154.158,254.061Z" transform="translate(-151.743 -251.994)"/></g><g class="v" transform="translate(0.004 0.15)"><path class="w" d="M229.906,340.137c-2.167-7.018-5.744-13.333-13.582-14.539-6.158-.948-12.577.726-18.572,1.93-11.223,2.253-25.792,5.373-33.954-5.09-4.284-5.493-5.452-12.7-6.623-19.366a169.48,169.48,0,0,1-2.707-18.767,43.168,43.168,0,0,0-4.406-9.314c-7.344-11.332-2.1-24.61,3.465-35.791,4.736-9.514,12.438-17.183,23.4-15.428-4.363-4.6-11.945-4.378-17.273-1.838-5.815,2.77-9.588,7.421-12.444,13.053-3.057,6.028-6.867,11.731-9.57,17.929-2.311,5.3-3.9,11.451-1.747,17.071,2.048,5.354,7.049,9.1,12.828,7.417.7,4.4.883,8.9,1.5,13.32.669,4.9,1.221,9.877,2.772,14.586-.681.963,2.642,16.888,3.147,17.851,3.394,6.624,9.254,9.56,16.524,9.572,8.4.023,17.393-1.491,25.555-3.288,7.105-1.574,17.428-6,22.408,1.95,3.547,5.672,3.429,12.719,5.344,18.943a77.359,77.359,0,0,0,11.451,22.807l5.6,7.669,1.17-.476C235.731,368.732,234.062,353.6,229.906,340.137Z" transform="translate(-134.875 -220.14)"/></g></g><path class="c" d="M368.325,238.459a3.949,3.949,0,1,1-3.948-3.948A3.948,3.948,0,0,1,368.325,238.459Z" transform="translate(292.786 195.163)"/><circle class="c" cx="2.154" cy="2.154" r="2.154" transform="translate(661.469 439.006)"/><circle class="c" cx="5.385" cy="5.385" r="5.385" transform="translate(514.289 517.981)"/><circle class="c" cx="2.872" cy="2.872" r="2.872" transform="translate(515.007 534.494)"/><circle class="c" cx="2.872" cy="2.872" r="2.872" transform="translate(525.418 526.955)"/><circle class="c" cx="5.997" cy="5.997" r="5.997" transform="translate(324.869 391.985)"/><path class="c" d="M86.117,223.291a3,3,0,1,1-3-3A3,3,0,0,1,86.117,223.291Z" transform="translate(243.893 192.683)"/><path class="c" d="M140.939,209.668a2.142,2.142,0,1,1-2.142-2.142A2.143,2.143,0,0,1,140.939,209.668Z" transform="translate(253.754 190.456)"/><path class="c" d="M76.157,308.406A3.855,3.855,0,1,1,72.3,304.55,3.855,3.855,0,0,1,76.157,308.406Z" transform="translate(241.857 207.379)"/><circle class="c" cx="2.977" cy="2.977" r="2.977" transform="translate(666.797 427.662)"/></g></g></svg>