<svg xmlns="http://www.w3.org/2000/svg" width="56.689" height="58.131" viewBox="0 0 56.689 58.131"><defs><style>.a{fill:#fe7070;}</style></defs><g transform="translate(-6.348)"><g transform="translate(6.348)"><path class="a" d="M52.779,195.309H76.293a1.135,1.135,0,0,0,1.135-1.135v-6.919a1.135,1.135,0,0,0-1.135-1.135H52.779a1.135,1.135,0,0,0-1.135,1.135v6.919a1.135,1.135,0,0,0,1.135,1.135Zm1.135-6.919H75.158v4.649H53.915Z" transform="translate(-46.501 -164.988)"/><path class="a" d="M51.644,310.756a1.135,1.135,0,0,0,1.135,1.135H76.293a1.135,1.135,0,0,0,1.135-1.135v-17.6a1.136,1.136,0,0,0-1.135-1.135H52.779a1.136,1.136,0,0,0-1.135,1.135Zm17.945-16.465h5.568v3.6H69.589Zm0,5.867h5.568v3.6H69.589Zm0,5.867h5.568v3.6H69.589Zm-7.836-11.734h5.565v3.6H61.754Zm0,5.867h5.565v3.6H61.754Zm0,5.867h5.565v3.6H61.754Zm-7.839-11.734h5.568v3.6H53.915Zm0,5.867h5.568v3.6H53.915Zm0,5.867h5.568v3.6H53.915Z" transform="translate(-46.501 -258.865)"/><path class="a" d="M359.725,306.58a3.527,3.527,0,0,0,2.395-.934,3.51,3.51,0,1,0,0-5.152,3.519,3.519,0,1,0-2.395,6.087Zm4.789-4.75a1.24,1.24,0,1,1-1.259,1.24A1.253,1.253,0,0,1,364.514,301.83Zm-4.789,0a1.24,1.24,0,1,1-1.259,1.24A1.251,1.251,0,0,1,359.725,301.83Z" transform="translate(-316.475 -265.548)"/><path class="a" d="M129.966,51.309h5.99a1.135,1.135,0,0,0,0-2.271h-5.99a1.135,1.135,0,1,0,0,2.271Z" transform="translate(-114.925 -43.47)"/><path class="a" d="M129.966,91.3h5.99a1.135,1.135,0,1,0,0-2.271h-5.99a1.135,1.135,0,1,0,0,2.271Z" transform="translate(-114.925 -78.925)"/><path class="a" d="M60.215,22.628h-17.8V14.758a3.6,3.6,0,0,0-3.6-3.588H33V7.761h4.861A1.135,1.135,0,0,0,39,6.626V4.109A4.126,4.126,0,0,0,34.865,0H18.349a2.583,2.583,0,0,0-2.586,2.574v8.6H9.956a3.6,3.6,0,0,0-3.608,3.588V29.064a1.135,1.135,0,0,0,2.271,0V14.758a1.329,1.329,0,0,1,1.337-1.317h5.808V16.03h-2.4a1.135,1.135,0,1,0,0,2.271H35.1a1.135,1.135,0,1,0,0-2.271H33V13.441h5.811a1.327,1.327,0,0,1,1.334,1.317V54.543a1.327,1.327,0,0,1-1.334,1.317H9.956a1.329,1.329,0,0,1-1.337-1.317V39.748a1.135,1.135,0,0,0-2.271,0V54.543a3.6,3.6,0,0,0,3.608,3.588H38.813a3.6,3.6,0,0,0,3.6-3.588V45.721h17.8a2.817,2.817,0,0,0,2.823-2.806V25.433a2.817,2.817,0,0,0-2.823-2.806ZM33,4.5V4.109a1.863,1.863,0,0,1,3.725,0V5.49H33V4.5Zm-2.271-.393V16.03h-12.7V2.574a.313.313,0,0,1,.315-.3H31.17a4.063,4.063,0,0,0-.438,1.838ZM60.766,42.915a.551.551,0,0,1-.552.535h-17.8V29.868H60.766Zm0-15.318H42.418V24.9h17.8a.551.551,0,0,1,.552.535Z" transform="translate(-6.348)"/><path class="a" d="M7.483,297.439A1.136,1.136,0,0,0,8.619,296.3V296.3a1.135,1.135,0,1,0-1.135,1.142Z" transform="translate(-6.348 -261.653)"/></g></g></svg>